<svg width="150" height="69" viewBox="0 0 150 69" fill="none" xmlns="http://www.w3.org/2000/svg">
<path d="M29.871 34.3178C29.871 26.7541 33.3452 19.9905 38.7823 15.5372C36.3925 12.9687 32.1952 10 25.4673 10H0V58.4421H13.5601V44.0506H25.4673C28.1919 44.0506 29.9744 43.9604 31.6142 43.3279C30.4906 40.5395 29.871 37.5061 29.871 34.3178ZM25.4673 31.6332H13.5601V22.4173H25.4673C26.6423 22.4173 27.7659 22.9338 28.6057 23.876C29.4062 24.754 29.871 25.9412 29.871 27.0255C29.871 28.1098 29.4058 29.2843 28.6057 30.1623C27.7655 31.1168 26.6423 31.6332 25.4673 31.6332ZM87.8692 10.0128C81.735 10.0128 77.9254 12.7879 75.8072 15.1241C74.7223 16.3246 73.8183 17.6926 73.1467 19.1644C76.4788 23.3076 78.4804 28.5871 78.4804 34.3178C78.4931 35.4281 78.4416 36.4864 78.3254 37.4928C80.5339 39.0549 83.6714 40.4233 87.8687 40.4233H99.0527C99.6724 40.4233 100.06 40.6041 100.693 41.1852C101.326 41.8305 101.649 42.5145 101.649 43.2249C101.649 44.787 100.513 46.0257 99.0659 46.0257L75.7297 45.9223C73.7276 49.6524 71.3647 51.5496 71.3647 51.5496L75.4067 55.5635C76.44 56.5831 75.7684 58.326 74.3478 58.4416H99.0532C105.2 58.4416 109.023 55.6541 111.141 53.3302C113.685 50.5295 115.209 46.7602 115.209 43.224C115.209 39.2352 113.556 35.4536 110.573 32.575C107.499 29.6195 103.521 28.0575 99.0532 28.0575H87.8692C86.6426 28.0575 85.3381 27.0378 85.3381 25.1534C85.3381 23.3591 86.6034 22.4301 87.8692 22.4301H121.808V58.4421H135.368V22.4301H150V10.0128H87.8692Z" fill="#333333"/>
<g filter="url(#filter0_d)">
<path d="M36.7931 34.5117C36.7931 24.9083 44.5804 17.125 54.1756 17.125C63.784 17.125 71.558 24.9083 71.558 34.5117C71.558 44.1019 63.7835 51.8851 54.1756 51.8851C44.5804 51.8851 36.7931 44.1019 36.7931 34.5117ZM29.8711 34.3177C29.8711 47.7283 40.758 58.61 54.176 58.61L74.2189 58.4552C75.7298 58.442 76.4661 56.6222 75.4068 55.5506L71.3649 51.5363C71.3649 51.5363 78.6614 45.7282 78.4805 34.3177C78.4805 20.9067 67.5936 10.0254 54.1756 10.0254C40.7703 10.0258 29.8711 20.9199 29.8711 34.3177Z" fill="#868686"/>
</g>
<g filter="url(#filter1_d)">
<path d="M48.1703 22.457L46.9565 23.1542C45.9618 23.7348 45.6133 25.0127 46.1942 26.0196L49.4875 31.7248H42.9009C41.7518 31.7248 40.8086 32.6543 40.8086 33.816V35.2104C40.8086 36.3585 41.7513 37.3016 42.9009 37.3016H49.4871L46.1937 43.0064C45.6128 44.0005 45.9614 45.2779 46.956 45.859L48.1698 46.5562C49.1772 47.1369 50.4558 46.7885 51.0367 45.7943L54.33 40.0891L52.7157 37.3016L51.1014 34.5132L52.7157 31.7248L54.33 28.9241L51.0367 23.2316C50.6489 22.5604 49.9391 22.186 49.216 22.186C48.8674 22.1856 48.5061 22.2762 48.1703 22.457Z" fill="#868686"/>
</g>
<g opacity="0.7" filter="url(#filter2_d)">
<path d="M65.449 31.7237H59.1594L62.4527 26.0184C63.0337 25.0115 62.6856 23.7337 61.6909 23.1531L60.4771 22.4559C59.4825 21.8752 58.1907 22.2236 57.6225 23.2305C55.9823 26.0571 54.3424 28.8843 52.7149 31.7237L51.1006 34.5121L52.7149 37.3005L54.3292 40.088L57.6225 45.7932C58.1907 46.7873 59.4825 47.1357 60.4771 46.5551L61.6909 45.8579C62.6856 45.2772 63.0337 43.9994 62.4527 43.0052L59.1594 37.3005H65.449C66.6113 37.3005 67.554 36.3578 67.554 35.2093V33.8149C67.5545 32.6531 66.6113 31.7237 65.449 31.7237Z" fill="#868686"/>
</g>
<defs>
<filter id="filter0_d" x="19.8711" y="0.0253906" width="68.6127" height="68.5846" filterUnits="userSpaceOnUse" color-interpolation-filters="sRGB">
<feFlood flood-opacity="0" result="BackgroundImageFix"/>
<feColorMatrix in="SourceAlpha" type="matrix" values="0 0 0 0 0 0 0 0 0 0 0 0 0 0 0 0 0 0 127 0"/>
<feOffset/>
<feGaussianBlur stdDeviation="5"/>
<feColorMatrix type="matrix" values="0 0 0 0 0.0311458 0 0 0 0 0.1625 0 0 0 0 0.158151 0 0 0 0.3 0"/>
<feBlend mode="normal" in2="BackgroundImageFix" result="effect1_dropShadow"/>
<feBlend mode="normal" in="SourceGraphic" in2="effect1_dropShadow" result="shape"/>
</filter>
<filter id="filter1_d" x="32.8086" y="14.186" width="29.5214" height="40.6517" filterUnits="userSpaceOnUse" color-interpolation-filters="sRGB">
<feFlood flood-opacity="0" result="BackgroundImageFix"/>
<feColorMatrix in="SourceAlpha" type="matrix" values="0 0 0 0 0 0 0 0 0 0 0 0 0 0 0 0 0 0 127 0"/>
<feOffset/>
<feGaussianBlur stdDeviation="4"/>
<feColorMatrix type="matrix" values="0 0 0 0 0.0311458 0 0 0 0 0.1625 0 0 0 0 0.158151 0 0 0 0.2 0"/>
<feBlend mode="normal" in2="BackgroundImageFix" result="effect1_dropShadow"/>
<feBlend mode="normal" in="SourceGraphic" in2="effect1_dropShadow" result="shape"/>
</filter>
<filter id="filter2_d" x="43.1006" y="14.1748" width="32.4534" height="40.6618" filterUnits="userSpaceOnUse" color-interpolation-filters="sRGB">
<feFlood flood-opacity="0" result="BackgroundImageFix"/>
<feColorMatrix in="SourceAlpha" type="matrix" values="0 0 0 0 0 0 0 0 0 0 0 0 0 0 0 0 0 0 127 0"/>
<feOffset/>
<feGaussianBlur stdDeviation="4"/>
<feColorMatrix type="matrix" values="0 0 0 0 0.0311458 0 0 0 0 0.1625 0 0 0 0 0.158151 0 0 0 0.2 0"/>
<feBlend mode="normal" in2="BackgroundImageFix" result="effect1_dropShadow"/>
<feBlend mode="normal" in="SourceGraphic" in2="effect1_dropShadow" result="shape"/>
</filter>
</defs>
</svg>
