<?xml version="1.0" encoding="utf-8"?>
<!-- Generator: Adobe Illustrator 16.0.0, SVG Export Plug-In . SVG Version: 6.00 Build 0)  -->
<!DOCTYPE svg PUBLIC "-//W3C//DTD SVG 1.1//EN" "http://www.w3.org/Graphics/SVG/1.1/DTD/svg11.dtd">
<svg version="1.1" id="Layer_1" xmlns="http://www.w3.org/2000/svg" xmlns:xlink="http://www.w3.org/1999/xlink" x="0px" y="0px"
	 width="150px" height="69px" viewBox="0 0 150 69" enable-background="new 0 0 150 69" xml:space="preserve">
<g id="Layer_x0020_1">
	<g id="_279641656">
		
			<linearGradient id="SVGID_1_" gradientUnits="userSpaceOnUse" x1="30321.8984" y1="-27407.8594" x2="32014.1016" y2="-27407.8594" gradientTransform="matrix(0.0283 0 0 -0.0283 -827.8533 -741.1292)">
			<stop  offset="0" style="stop-color:#3D75F5"/>
			<stop  offset="0.4392" style="stop-color:#53A2F5"/>
			<stop  offset="1" style="stop-color:#6ACFF6"/>
		</linearGradient>
		<path fill="url(#SVGID_1_)" d="M37.303,34.704c0-9.481,7.683-17.165,17.15-17.165c9.479,0,17.149,7.684,17.149,17.165
			c0,9.467-7.67,17.15-17.149,17.15C44.985,51.854,37.303,44.171,37.303,34.704z M30.473,34.513
			c0,13.24,10.742,23.981,23.981,23.981l19.775-0.152c1.491-0.014,2.218-1.81,1.172-2.867l-3.987-3.964c0,0,7.197-5.734,7.02-16.998
			c0-13.239-10.741-23.981-23.979-23.981C41.226,10.533,30.473,21.286,30.473,34.513z"/>
		<g>
			
				<linearGradient id="SVGID_2_" gradientUnits="userSpaceOnUse" x1="31173.3086" y1="-27414.5859" x2="30702.6641" y2="-27414.5859" gradientTransform="matrix(0.0283 0 0 -0.0283 -827.8533 -741.1292)">
				<stop  offset="0" style="stop-color:#3D75F5"/>
				<stop  offset="0.4392" style="stop-color:#53A2F5"/>
				<stop  offset="1" style="stop-color:#6ACFF6"/>
			</linearGradient>
			<path fill="url(#SVGID_2_)" d="M48.527,22.803l-1.197,0.688c-0.98,0.573-1.325,1.834-0.753,2.829l3.25,5.632h-6.499
				c-1.134,0-2.064,0.918-2.064,2.063v1.377c0,1.133,0.931,2.064,2.064,2.064h6.499l-3.25,5.632
				c-0.574,0.981-0.229,2.241,0.752,2.815l1.197,0.689c0.994,0.573,2.256,0.229,2.828-0.753l3.249-5.633l-1.592-2.751l-1.593-2.753
				l1.593-2.752l1.592-2.765l-3.249-5.62c-0.381-0.663-1.083-1.032-1.796-1.032C49.216,22.535,48.859,22.625,48.527,22.803z"/>
			<path fill="#6ACFF6" d="M65.577,31.952h-6.206l3.25-5.632c0.572-0.994,0.229-2.255-0.752-2.829l-1.199-0.688
				c-0.98-0.573-2.254-0.229-2.815,0.765c-1.618,2.791-3.236,5.581-4.843,8.385l-1.593,2.753l1.593,2.752l1.592,2.751l3.249,5.634
				c0.562,0.98,1.837,1.325,2.817,0.752l1.197-0.688c0.981-0.574,1.326-1.834,0.752-2.816l-3.25-5.632h6.206
				c1.148,0,2.077-0.929,2.077-2.063v-1.379C67.654,32.87,66.724,31.952,65.577,31.952z"/>
		</g>
		<g>
			<path fill="#061534" d="M30.473,34.513c0-7.467,3.429-14.144,8.792-18.541c-2.358-2.536-6.498-5.466-13.137-5.466H1v47.82h13.379
				V44.121h11.748c2.688,0,4.447-0.09,6.064-0.714C31.084,40.653,30.473,37.66,30.473,34.513L30.473,34.513z M26.127,31.862H14.379
				v-9.098h11.748c1.159,0,2.268,0.511,3.098,1.439c0.788,0.867,1.246,2.039,1.246,3.109c0,1.07-0.458,2.23-1.246,3.096
				C28.395,31.353,27.286,31.862,26.127,31.862z M87.697,10.519c-6.053,0-9.811,2.74-11.901,5.046
				c-1.071,1.185-1.962,2.536-2.624,3.989c3.287,4.09,5.262,9.3,5.262,14.958c0.012,1.096-0.038,2.141-0.153,3.135
				c2.179,1.542,5.276,2.894,9.415,2.894h11.037c0.612,0,0.994,0.179,1.618,0.752c0.625,0.637,0.942,1.313,0.942,2.014
				c0,1.543-1.119,2.765-2.547,2.765l-23.025-0.103c-1.975,3.683-4.307,5.556-4.307,5.556l3.987,3.963
				c1.019,1.008,0.358,2.727-1.045,2.842h24.376c6.064,0,9.838-2.752,11.927-5.047c2.511-2.766,4.014-6.484,4.014-9.976
				c0-3.938-1.63-7.671-4.575-10.513c-3.031-2.917-6.958-4.459-11.365-4.459H87.695c-1.21,0-2.495-1.006-2.495-2.868
				c0-1.771,1.249-2.688,2.495-2.688h33.487v35.551h13.38V22.777H149V10.519H87.697L87.697,10.519z"/>
		</g>
	</g>
</g>
</svg>
