<?xml version="1.0" encoding="utf-8"?>
<!-- Generator: Adobe Illustrator 16.0.0, SVG Export Plug-In . SVG Version: 6.00 Build 0)  -->
<!DOCTYPE svg PUBLIC "-//W3C//DTD SVG 1.1//EN" "http://www.w3.org/Graphics/SVG/1.1/DTD/svg11.dtd">
<svg version="1.1" id="Layer_1" xmlns="http://www.w3.org/2000/svg" xmlns:xlink="http://www.w3.org/1999/xlink" x="0px" y="0px"
	 width="150px" height="69px" viewBox="0 0 150 69" enable-background="new 0 0 150 69" xml:space="preserve">
<g id="Layer_x0020_1">
	<g id="_279641656">
		
			<linearGradient id="SVGID_1_" gradientUnits="userSpaceOnUse" x1="30321.8359" y1="-27407.8438" x2="32014.1035" y2="-27407.8438" gradientTransform="matrix(0.0283 0 0 -0.0283 -827.8533 -741.1292)">
			<stop  offset="0" style="stop-color:#3D75F5"/>
			<stop  offset="0.4392" style="stop-color:#53A2F5"/>
			<stop  offset="1" style="stop-color:#6ACFF6"/>
		</linearGradient>
		<path fill="url(#SVGID_1_)" d="M37.302,34.705c0-9.479,7.683-17.163,17.149-17.163c9.48,0,17.152,7.684,17.152,17.163
			c0,9.467-7.672,17.149-17.152,17.149C44.984,51.855,37.302,44.172,37.302,34.705z M30.471,34.513
			c0,13.239,10.742,23.979,23.98,23.979l19.777-0.15c1.489-0.016,2.217-1.811,1.17-2.867l-3.986-3.965c0,0,7.199-5.732,7.02-16.996
			c0-13.24-10.742-23.981-23.98-23.981C41.225,10.533,30.471,21.288,30.471,34.513z"/>
		<g>
			
				<linearGradient id="SVGID_2_" gradientUnits="userSpaceOnUse" x1="31173.2773" y1="-27414.5664" x2="30702.6641" y2="-27414.5664" gradientTransform="matrix(0.0283 0 0 -0.0283 -827.8533 -741.1292)">
				<stop  offset="0" style="stop-color:#3D75F5"/>
				<stop  offset="0.4392" style="stop-color:#53A2F5"/>
				<stop  offset="1" style="stop-color:#6ACFF6"/>
			</linearGradient>
			<path fill="url(#SVGID_2_)" d="M48.527,22.804l-1.197,0.688c-0.981,0.572-1.326,1.834-0.752,2.828l3.248,5.633h-6.498
				c-1.133,0-2.064,0.918-2.064,2.064v1.376c0,1.133,0.93,2.064,2.064,2.064h6.498l-3.25,5.631c-0.572,0.98-0.229,2.242,0.752,2.814
				l1.197,0.688c0.996,0.574,2.256,0.23,2.83-0.75l3.248-5.633l-1.593-2.752l-1.593-2.752l1.593-2.753l1.593-2.766l-3.248-5.619
				c-0.384-0.664-1.084-1.031-1.797-1.031C49.215,22.536,48.859,22.625,48.527,22.804z"/>
			<path fill="#6ACFF6" d="M65.574,31.952h-6.205l3.25-5.633c0.572-0.994,0.229-2.256-0.752-2.828l-1.197-0.688
				c-0.98-0.573-2.256-0.229-2.816,0.765c-1.617,2.791-3.236,5.582-4.842,8.385l-1.593,2.753l1.593,2.752l1.594,2.752l3.25,5.633
				c0.561,0.98,1.834,1.324,2.815,0.75l1.198-0.688c0.98-0.572,1.324-1.834,0.75-2.814l-3.248-5.633h6.205
				c1.147,0,2.078-0.932,2.078-2.064v-1.375C67.654,32.871,66.723,31.952,65.574,31.952z"/>
		</g>
		<g>
			<path fill="#FFFFFF" d="M30.471,34.513c0-7.467,3.43-14.144,8.792-18.54c-2.358-2.536-6.5-5.466-13.137-5.466H0.999v47.819
				h13.379V44.121h11.748c2.688,0,4.446-0.09,6.065-0.715C31.083,40.652,30.471,37.66,30.471,34.513L30.471,34.513z M26.126,31.862
				H14.378v-9.098h11.748c1.159,0,2.268,0.51,3.096,1.439c0.791,0.867,1.249,2.039,1.249,3.109s-0.458,2.229-1.249,3.098
				C28.395,31.354,27.285,31.862,26.126,31.862z M87.695,10.521c-6.051,0-9.812,2.739-11.9,5.046
				c-1.07,1.186-1.962,2.536-2.625,3.988c3.288,4.091,5.263,9.302,5.263,14.959c0.013,1.094-0.036,2.141-0.153,3.133
				c2.181,1.543,5.275,2.895,9.416,2.895h11.037c0.611,0,0.992,0.18,1.617,0.752c0.624,0.639,0.942,1.313,0.942,2.014
				c0,1.541-1.12,2.766-2.548,2.766l-23.025-0.102c-1.977,3.682-4.307,5.555-4.307,5.555l3.988,3.963
				c1.02,1.008,0.357,2.727-1.045,2.842h24.377c6.064,0,9.836-2.754,11.926-5.047c2.511-2.766,4.016-6.484,4.016-9.977
				c0-3.939-1.632-7.672-4.576-10.512c-3.031-2.918-6.958-4.461-11.365-4.461H87.697c-1.209,0-2.498-1.007-2.498-2.866
				c0-1.771,1.25-2.688,2.498-2.688h33.485v35.55h13.382V22.78h14.437V10.521H87.695L87.695,10.521z"/>
		</g>
	</g>
</g>
</svg>
