<svg width="78" height="25" viewBox="0 0 78 25" fill="none" xmlns="http://www.w3.org/2000/svg">
<g clip-path="url(#clip0)">
<path fill-rule="evenodd" clip-rule="evenodd" d="M38.7483 23.8523C46.4916 23.8523 52.7556 18.7509 52.7556 12.46C52.7556 6.16918 46.4835 1.06384 38.7483 1.06384C31.0132 1.06384 24.7411 6.16518 24.7411 12.46C24.7411 18.7549 31.0132 23.8523 38.7483 23.8523Z" fill="white" stroke="#231F20" stroke-width="0.35" stroke-miterlimit="2.61"/>
<path fill-rule="evenodd" clip-rule="evenodd" d="M38.7485 23.1142C46.0842 23.1142 52.0018 18.3441 52.0018 12.4604C52.0018 6.57667 46.0679 1.80664 38.7485 1.80664C31.429 1.80664 25.4911 6.59665 25.4911 12.4604C25.4911 18.3242 31.4249 23.1142 38.7485 23.1142Z" fill="white" stroke="#231F20" stroke-width="0.35" stroke-miterlimit="2.61"/>
<path fill-rule="evenodd" clip-rule="evenodd" d="M29.9738 15.5373C29.3748 15.8646 27.712 16.3356 27.2474 15.2739C26.5831 15.6012 25.1852 15.8646 24.5209 15.0144C23.392 15.2739 22.1286 15.8127 21.6681 14.5553C20.6697 14.8188 18.2122 15.4056 17.9432 13.8329C16.4842 14.0324 14.3568 14.1602 14.0878 12.6553C12.8245 12.6553 10.6319 12.4597 10.6319 11.0187C9.36848 11.0187 7.17591 10.1645 7.44084 9.18258C6.31193 9.05084 4.78366 7.87332 4.78366 7.08697C3.65476 6.75961 2.39138 5.88946 2.65628 4.79573C1.99199 4.39656 0.859025 3.9455 0.859025 3.28688C0.853371 2.98482 0.968092 2.69248 1.17885 2.4719C1.38961 2.25131 1.67982 2.11983 1.98792 2.10535C2.587 2.10535 4.84071 2.43266 5.65579 2.43266C6.47086 2.43266 16.093 2.23707 18.3507 2.3688C20.5235 2.48394 22.7016 2.46126 24.8714 2.30094C26.2652 2.16921 32.2072 1.85387 33.0467 3.49844C33.6458 4.69594 33.1812 5.06717 32.6391 5.5262C32.0971 5.98525 30.3121 6.83946 30.3121 9.58974C30.3121 12.34 30.6463 13.781 29.982 15.5493L29.9738 15.5373Z" fill="#231F20"/>
<path fill-rule="evenodd" clip-rule="evenodd" d="M2.9823 2.76379C5.04447 2.76379 9.82902 2.89552 10.7623 2.89552C11.6956 2.89552 18.2733 3.61801 19.3207 3.94533C19.7853 4.07306 19.8831 4.5321 19.3207 4.56404C18.7583 4.59597 11.9849 4.69576 10.9783 4.69576C9.97164 4.69576 3.15347 4.79156 2.2365 3.61801C1.57221 2.76379 2.4036 2.79573 2.99861 2.76379H2.9823Z" fill="white"/>
<path fill-rule="evenodd" clip-rule="evenodd" d="M4.21345 5.31899C5.41163 5.35093 11.3944 5.38684 12.0913 5.35093C12.7882 5.315 18.2044 5.02361 18.8401 4.99167C19.4759 4.95974 20.0627 5.1234 20.0627 5.31899C20.0627 5.51458 19.9324 5.67824 19.1988 5.84189C15.0248 6.4069 10.8153 6.6817 6.60163 6.66419C5.63985 6.69611 4.34386 6.20515 4.00968 5.7461C3.67549 5.28706 4.04228 5.31899 4.20938 5.31899H4.21345Z" fill="white"/>
<path fill-rule="evenodd" clip-rule="evenodd" d="M6.53972 7.48222C7.35481 7.48222 17.1766 6.75974 19.2346 6.33261C19.9356 6.26874 20.4002 6.23682 20.4573 6.53222C20.5143 6.82756 20.4899 6.95531 19.8949 7.11896C19.2999 7.28261 12.0252 8.62784 8.3329 8.69171C7.11027 8.65975 5.67573 7.4942 6.53972 7.4942V7.48222Z" fill="white"/>
<path fill-rule="evenodd" clip-rule="evenodd" d="M9.03462 9.51008C10.1961 9.38234 17.9394 8.16885 20.0382 7.61003C20.8533 7.41441 21.2609 7.51424 21.3668 7.74177C21.4728 7.96929 21.4687 8.36447 20.8696 8.5401C20.2705 8.71569 13.4238 10.3084 12.1605 10.3762C10.8971 10.4441 9.40138 10.1447 9.00607 9.85332C8.61076 9.56197 9.0387 9.49011 9.0387 9.49011L9.03462 9.51008Z" fill="white"/>
<path fill-rule="evenodd" clip-rule="evenodd" d="M12.156 11.2142C12.971 11.0506 19.7363 9.54568 21.6639 8.8192C22.2263 8.65555 22.426 8.8192 22.5279 9.01482C22.5682 9.0716 22.5945 9.1369 22.6044 9.20544C22.6143 9.27397 22.6078 9.34379 22.5852 9.40937C22.5626 9.47496 22.5246 9.53445 22.4744 9.58306C22.4241 9.63171 22.3628 9.6681 22.2956 9.6894C21.9288 9.85306 16.7449 11.9846 14.2834 12.1163C13.571 12.1018 12.8725 11.9212 12.2456 11.5894C11.9807 11.4577 12.0786 11.4577 12.1438 11.2302L12.156 11.2142Z" fill="white"/>
<path fill-rule="evenodd" clip-rule="evenodd" d="M23.1598 9.83813C22.3936 10.2014 17.7394 12.1334 15.9462 12.5245C15.4491 12.6563 15.1801 13.0155 15.7792 13.2111C16.3783 13.4067 17.7761 13.3109 18.6075 13.0834C19.4389 12.8558 22.8093 11.7701 24.1052 10.5287C23.7559 10.3472 23.437 10.1143 23.1598 9.83813Z" fill="white"/>
<path fill-rule="evenodd" clip-rule="evenodd" d="M24.5618 10.9512C22.8802 11.9086 21.1219 12.731 19.3045 13.41C18.8032 13.5737 19.0396 14.0327 19.5368 14.0966C20.6859 14.1829 21.832 13.8953 22.7972 13.2783C23.7175 12.7311 24.5948 12.1174 25.4217 11.4421C25.222 11.3463 24.79 11.0829 24.5577 10.9512H24.5618Z" fill="white"/>
<path fill-rule="evenodd" clip-rule="evenodd" d="M26.082 11.838C25.2343 12.4128 23.27 13.6902 22.9602 13.9017C22.5282 14.1971 22.2959 14.7001 23.1599 14.6202C24.0239 14.5404 25.6051 13.9336 26.8807 12.1334C26.6031 12.0514 26.331 11.9527 26.0657 11.838H26.082Z" fill="white"/>
<path fill-rule="evenodd" clip-rule="evenodd" d="M27.5769 12.3279C27.0471 12.8508 26.2483 13.705 25.6859 14.16C25.3191 14.5233 25.584 15.1779 26.2157 14.8825C27.1652 14.369 27.9008 13.5455 28.2941 12.5554C28.0493 12.4982 27.8094 12.4222 27.5769 12.3279Z" fill="white"/>
<path fill-rule="evenodd" clip-rule="evenodd" d="M28.9102 13.1464C28.4783 13.6693 28.0463 14.0964 27.7773 14.4237C27.5083 14.751 27.8466 15.0783 28.1115 15.1781C28.3764 15.2779 28.8777 15.5374 29.4727 14.3798L28.9102 13.1823V13.1464Z" fill="white"/>
<path fill-rule="evenodd" clip-rule="evenodd" d="M16.003 2.63205C16.867 2.63205 19.7931 2.83164 20.8568 2.83164C21.9205 2.83164 24.382 2.76378 25.2786 2.69991C26.6725 2.61608 28.0702 2.61608 29.4641 2.69991C30.3973 2.79571 32.4554 2.92744 32.8222 3.89741C33.189 4.86739 32.3984 5.35036 31.8971 5.69764C31.2655 6.05938 30.7405 6.5754 30.3733 7.19525C30.0061 7.81514 29.8094 8.51769 29.8023 9.23427C29.3948 9.07062 28.8364 8.97084 29.2359 8.15253C29.4682 7.69348 30.6011 6.18865 30.3321 5.49808C30.0631 4.80751 29.2032 4.25666 27.243 4.18881C25.2827 4.12095 22.5236 4.18881 21.5374 4.02515C20.5511 3.86149 16.8506 2.9434 16.0885 2.8476C15.7544 2.81567 15.7544 2.65202 15.9867 2.61609L16.003 2.63205Z" fill="white"/>
<path fill-rule="evenodd" clip-rule="evenodd" d="M23.8565 4.46877C24.5534 4.46877 27.1168 4.40091 27.8463 4.53264C28.5758 4.66436 29.4765 4.87193 29.8841 5.5146C30.2182 6.07343 29.6518 6.95556 29.3868 7.31882C28.9774 7.79651 28.5334 8.24476 28.0583 8.66C27.7893 8.85562 27.2921 8.52831 27.7241 8.03731C27.1576 8.36466 26.4607 8.30079 26.7949 7.54635C26.2936 7.94551 25.4663 7.97343 25.9798 6.95556C25.6456 7.21904 24.7164 7.18708 25.3155 6.40073C24.8142 6.56438 24.2518 6.26899 24.6145 5.77803C23.9869 5.87781 23.6201 5.41877 24.2844 5.05554C23.6527 5.2232 23.4693 4.5007 23.8769 4.46877H23.8565Z" fill="white"/>
<path fill-rule="evenodd" clip-rule="evenodd" d="M20.9873 4.24988C20.1151 4.24988 20.0947 5.17994 21.0891 5.12804C21.8757 5.08414 22.8171 4.90451 22.8008 4.59316C22.7845 4.28181 21.6312 4.26584 20.9873 4.24988Z" fill="white"/>
<path fill-rule="evenodd" clip-rule="evenodd" d="M21.1095 5.25086C20.6205 5.33867 20.6042 5.56221 20.6735 5.73386C20.7427 5.9055 21.0036 6.1969 21.8594 6.07714C22.7152 5.95739 23.1839 5.61011 23.1839 5.31872C23.1839 5.02733 21.6312 5.21493 21.1095 5.25086Z" fill="white"/>
<path fill-rule="evenodd" clip-rule="evenodd" d="M21.9454 6.28068C21.6153 6.33257 21.3056 6.57608 21.4074 6.86747C21.5256 7.22669 22.2796 7.33051 23.115 6.91936C23.9505 6.50821 23.9016 6.40443 23.8119 6.1809C23.7223 5.95737 22.8542 6.12902 21.9454 6.28068Z" fill="white"/>
<path fill-rule="evenodd" clip-rule="evenodd" d="M23.5178 6.81651C23.108 6.95629 22.7156 7.14111 22.3482 7.36735C22.014 7.57495 21.7532 8.3134 23.0288 7.98605C24.3044 7.65874 24.3696 7.22766 24.1985 6.93627C24.0273 6.64487 23.6198 6.80053 23.5178 6.81651Z" fill="white"/>
<path fill-rule="evenodd" clip-rule="evenodd" d="M23.1186 8.24481C22.6825 8.50425 22.8944 9.50219 23.8522 9.04314C24.8099 8.5841 25.4824 8.11307 25.3356 7.78576C25.1889 7.45846 24.113 7.7179 23.1186 8.23282V8.24481Z" fill="white"/>
<path fill-rule="evenodd" clip-rule="evenodd" d="M25.6501 8.49204C25.1937 8.6956 23.7102 9.17861 24.1992 9.79732C24.4438 10.1086 24.9165 9.84921 25.1081 9.72945C25.2996 9.6097 26.3307 8.9032 26.0862 8.53195C25.9721 8.36829 25.752 8.44815 25.6501 8.50003V8.49204Z" fill="white"/>
<path fill-rule="evenodd" clip-rule="evenodd" d="M25.5474 9.64187C24.5855 10.2446 25.6696 10.7596 26.2809 10.2446C26.611 9.96523 27.2876 9.4463 26.9778 9.09103C26.717 8.78365 25.8448 9.4902 25.5474 9.64187Z" fill="white"/>
<path fill-rule="evenodd" clip-rule="evenodd" d="M27.0679 9.88564C26.7704 10.2129 26.0776 10.7039 26.6155 11.0831C27.0679 11.3945 27.3491 11.0831 27.5569 10.8436C27.7648 10.6041 28.5676 9.82976 28.2742 9.50241C27.9808 9.1751 27.3287 9.74192 27.0516 9.90157L27.0679 9.88564Z" fill="white"/>
<path fill-rule="evenodd" clip-rule="evenodd" d="M29.0978 10.0133C28.784 9.76983 28.1564 10.4125 27.9282 10.8116C27.7 11.2108 27.8793 11.4303 28.1034 11.5341C28.2449 11.5622 28.3918 11.5437 28.5215 11.4816C28.6512 11.4196 28.7563 11.3174 28.8207 11.1909C28.9063 10.9673 29.4116 10.3127 29.0978 9.99336V10.0133Z" fill="white"/>
<path d="M31.3675 3.35498C31.8321 3.58251 32.366 3.90983 32.3986 4.23714C32.4312 4.56446 32.3334 4.89976 31.7669 5.29892" stroke="#231F20" stroke-miterlimit="2.61"/>
<path fill-rule="evenodd" clip-rule="evenodd" d="M47.9867 15.5373C48.5858 15.8646 50.2485 16.3356 50.7132 15.2739C51.3775 15.6012 52.7512 15.8646 53.4358 15.0144C54.5687 15.2739 55.8321 15.8127 56.2886 14.5553C57.283 14.8188 59.7444 15.4056 60.0091 13.8329C61.4721 14.0324 63.5999 14.1602 63.8645 12.6553C65.128 12.6553 67.3204 12.4597 67.3204 11.0187C68.5838 11.0187 70.7806 10.1645 70.5116 9.18258C71.6444 9.05084 73.173 7.87332 73.173 7.08697C74.302 6.75961 75.5649 5.88946 75.3003 4.79573C75.9646 4.39656 77.0935 3.9455 77.0935 3.28688C77.1003 2.98585 76.9867 2.69409 76.7779 2.4735C76.5686 2.25291 76.2797 2.12085 75.9728 2.10535C75.3736 2.10535 73.1201 2.43266 72.3048 2.43266C71.4895 2.43266 61.8678 2.23707 59.606 2.3688C57.4331 2.48411 55.2548 2.46144 53.0852 2.30094C51.6873 2.16921 45.7494 1.85387 44.9098 3.49844C44.3107 4.69594 44.7753 5.06717 45.3173 5.5262C45.8594 5.98525 47.6444 6.83946 47.6444 9.58974C47.6444 12.34 47.3143 13.781 47.9786 15.5493L47.9867 15.5373Z" fill="#231F20"/>
<path fill-rule="evenodd" clip-rule="evenodd" d="M74.9746 2.76379C72.9367 2.76379 68.1275 2.89552 67.1986 2.89552C66.2692 2.89552 59.6873 3.61801 58.6399 3.94533C58.1757 4.07306 58.0737 4.5321 58.6399 4.56404C59.2065 4.59597 65.9759 4.69576 66.9825 4.69576C67.9891 4.69576 74.8071 4.79156 75.7243 3.61801C76.3886 2.76379 75.5573 2.79573 74.9581 2.76379H74.9746Z" fill="white"/>
<path fill-rule="evenodd" clip-rule="evenodd" d="M73.7442 5.31899C72.5497 5.35093 66.5674 5.38684 65.8702 5.35093C65.1734 5.315 59.7573 5.02361 59.1216 4.99167C58.4855 4.95974 57.899 5.1234 57.899 5.31899C57.899 5.51458 58.0335 5.67824 58.7628 5.84189C62.9368 6.4068 67.1462 6.68155 71.3601 6.66419C72.3259 6.69611 73.6219 6.20515 73.9521 5.7461C74.2823 5.28706 73.9195 5.31899 73.752 5.31899H73.7442Z" fill="white"/>
<path fill-rule="evenodd" clip-rule="evenodd" d="M71.429 7.48222C70.6143 7.48222 60.7925 6.75974 58.7303 6.33261C58.0335 6.26874 57.5688 6.23682 57.5076 6.53222C57.4464 6.82756 57.4751 6.95531 58.0743 7.11896C58.673 7.28261 65.9518 8.62784 69.6402 8.69171C70.8629 8.65975 72.3011 7.4942 71.4373 7.4942L71.429 7.48222Z" fill="white"/>
<path fill-rule="evenodd" clip-rule="evenodd" d="M68.9273 9.51008C67.7614 9.38234 60.018 8.16885 57.9232 7.61003C57.1084 7.41441 56.701 7.51424 56.5947 7.74177C56.4888 7.96929 56.4971 8.36447 57.0963 8.5401C57.695 8.71569 64.5377 10.3084 65.8012 10.3762C67.0646 10.4441 68.5602 10.1447 68.9598 9.85332C69.359 9.56197 68.9273 9.49011 68.9273 9.49011V9.51008Z" fill="white"/>
<path fill-rule="evenodd" clip-rule="evenodd" d="M65.8007 11.2142C64.9859 11.0506 58.2248 9.54568 56.2971 8.8192C55.7304 8.65555 55.5308 8.81921 55.4332 9.01482C55.3958 9.07089 55.3725 9.13457 55.3643 9.20092C55.356 9.26726 55.3633 9.33461 55.3856 9.39772C55.4085 9.46088 55.4449 9.51819 55.4934 9.56527C55.542 9.61236 55.6007 9.64798 55.6653 9.66943C56.0319 9.83308 61.2159 11.9647 63.6734 12.0963C64.3858 12.0811 65.084 11.9005 65.7114 11.5695C65.976 11.4377 65.8784 11.4377 65.809 11.2102L65.8007 11.2142Z" fill="white"/>
<path fill-rule="evenodd" clip-rule="evenodd" d="M54.8007 9.83813C55.5631 10.2014 60.2173 12.1334 62.0144 12.5245C62.5117 12.6563 62.7763 13.0155 62.1776 13.2111C61.5784 13.4067 60.1843 13.3109 59.353 13.0834C58.5217 12.8558 55.1474 11.7701 53.8514 10.5287C54.202 10.3472 54.522 10.1143 54.8007 9.83813Z" fill="white"/>
<path fill-rule="evenodd" clip-rule="evenodd" d="M53.4039 10.9512C55.0845 11.9073 56.8413 12.7296 58.6568 13.41C59.1541 13.5737 58.922 14.0327 58.4247 14.0966C57.2754 14.1835 56.1289 13.8958 55.1641 13.2783C54.2425 12.7311 53.3641 12.1173 52.5357 11.4421C52.7353 11.3463 53.1674 11.0829 53.3995 10.9512H53.4039Z" fill="white"/>
<path fill-rule="evenodd" clip-rule="evenodd" d="M51.8665 11.838C52.7187 12.4128 54.679 13.6902 54.9926 13.9017C55.4243 14.1971 55.6569 14.7001 54.7931 14.6202C53.9287 14.5404 52.3477 13.9336 51.0677 12.1334C51.3455 12.0514 51.6179 11.9527 51.883 11.838H51.8665Z" fill="white"/>
<path fill-rule="evenodd" clip-rule="evenodd" d="M50.3793 12.3279C50.9134 12.8508 51.7083 13.705 52.2745 14.16C52.6416 14.5233 52.3726 15.1779 51.7408 14.8825C51.1091 14.5872 49.9636 13.5733 49.6664 12.5554C49.9097 12.4983 50.1481 12.4222 50.3793 12.3279Z" fill="white"/>
<path fill-rule="evenodd" clip-rule="evenodd" d="M49.0509 13.1464C49.4828 13.6693 49.9149 14.0964 50.1801 14.4237C50.4447 14.751 50.1145 15.0783 49.8499 15.1781C49.5847 15.2779 49.0835 15.5374 48.4845 14.3798L49.0509 13.1823V13.1464Z" fill="white"/>
<path fill-rule="evenodd" clip-rule="evenodd" d="M61.9456 2.63269C61.0817 2.63269 58.1595 2.83227 57.0956 2.83227C56.0322 2.83227 53.5704 2.76442 52.674 2.70055C51.2789 2.61677 49.8795 2.61677 48.4845 2.70055C47.5553 2.79635 45.4931 2.92807 45.1304 3.89805C44.7677 4.86803 45.5624 5.37096 46.0596 5.73422C46.6899 6.09743 47.2138 6.61379 47.5807 7.2333C47.9477 7.85286 48.1453 8.55465 48.1544 9.27085C48.5619 9.1072 49.1161 9.00737 48.7168 8.18911C48.4845 7.73006 47.3556 6.22518 47.6205 5.53461C47.8854 4.84408 48.7494 4.29323 50.7137 4.22537C52.6779 4.15751 55.433 4.22537 56.395 4.06171C57.3569 3.89805 61.0817 2.97997 61.848 2.88417C62.1777 2.85223 62.1777 2.68858 61.9456 2.65265V2.63269Z" fill="white"/>
<path fill-rule="evenodd" clip-rule="evenodd" d="M54.1044 4.46877C53.4037 4.46877 50.8443 4.40091 50.1149 4.53264C49.3852 4.66436 48.4846 4.87193 48.077 5.5146C47.7469 6.07343 48.3093 6.95556 48.5783 7.31882C48.9877 7.79651 49.4317 8.24476 49.9071 8.66C50.1718 8.85562 50.6729 8.52831 50.2412 8.03731C50.8035 8.36466 51.5003 8.30079 51.1701 7.54635C51.6673 7.94551 52.4986 7.97343 51.9854 6.95556C52.3156 7.21904 53.2488 7.18708 52.6496 6.40073C53.1469 6.56438 53.7135 6.26899 53.3464 5.77803C53.9782 5.87781 54.3448 5.41877 53.6805 5.05554C54.3123 5.2232 54.4958 4.5007 54.0884 4.46877H54.1044Z" fill="white"/>
<path fill-rule="evenodd" clip-rule="evenodd" d="M56.973 4.24988C57.8451 4.24988 57.8611 5.17994 56.8666 5.12804C56.0844 5.08414 55.1389 4.90451 55.1593 4.59316C55.1797 4.28181 56.3247 4.26584 56.973 4.24988Z" fill="white"/>
<path fill-rule="evenodd" clip-rule="evenodd" d="M56.8513 5.25086C57.3403 5.33867 57.3563 5.56221 57.2874 5.73386C57.2179 5.9055 56.9572 6.1969 56.1011 6.07714C55.2455 5.95739 54.7726 5.61011 54.7726 5.31872C54.7726 5.02733 56.3254 5.21493 56.8513 5.25086Z" fill="white"/>
<path fill-rule="evenodd" clip-rule="evenodd" d="M56.0115 6.28068C56.346 6.33257 56.6515 6.57608 56.5539 6.86747C56.4315 7.22669 55.6818 7.33051 54.8461 6.91936C54.0104 6.50821 54.0595 6.40443 54.1449 6.1809C54.2309 5.95737 55.1068 6.12902 56.0115 6.28068Z" fill="white"/>
<path fill-rule="evenodd" clip-rule="evenodd" d="M54.4427 6.81651C54.8525 6.95629 55.2448 7.14111 55.6124 7.36735C55.9421 7.57495 56.2073 8.3134 54.9316 7.98605C53.656 7.65874 53.5866 7.22766 53.7619 6.93627C53.9372 6.64487 54.3368 6.80053 54.4427 6.81651Z" fill="white"/>
<path fill-rule="evenodd" clip-rule="evenodd" d="M54.8381 8.24481C55.2741 8.50425 55.0663 9.50219 54.1083 9.04314C53.1507 8.5841 52.4782 8.11307 52.6209 7.78576C52.7637 7.45846 53.864 7.7179 54.8381 8.23282V8.24481Z" fill="white"/>
<path fill-rule="evenodd" clip-rule="evenodd" d="M52.3109 8.49204C52.7635 8.6956 54.2469 9.17861 53.7579 9.79732C53.5132 10.1086 53.0446 9.84921 52.8528 9.72945C52.6615 9.6097 51.6306 8.9032 51.8749 8.53195C51.989 8.36829 52.2051 8.44815 52.3109 8.50003V8.49204Z" fill="white"/>
<path fill-rule="evenodd" clip-rule="evenodd" d="M52.4131 9.64187C53.3707 10.2446 52.2907 10.7596 51.6794 10.2446C51.3492 9.96523 50.6684 9.4463 50.9826 9.09103C51.2434 8.78365 52.1154 9.4902 52.4131 9.64187Z" fill="white"/>
<path fill-rule="evenodd" clip-rule="evenodd" d="M50.8888 9.88564C51.1865 10.2129 51.8833 10.7039 51.3453 11.0831C50.8888 11.3945 50.6116 11.0831 50.4037 10.8436C50.1959 10.6041 49.389 9.82976 49.6865 9.50241C49.9842 9.1751 50.6281 9.74192 50.8888 9.90157V9.88564Z" fill="white"/>
<path fill-rule="evenodd" clip-rule="evenodd" d="M48.8596 10.0133C49.1734 9.76983 49.8052 10.4125 50.029 10.8116C50.2534 11.2108 50.0824 11.4303 49.8542 11.5341C49.7129 11.5619 49.5668 11.5433 49.4381 11.4812C49.3089 11.4191 49.2045 11.317 49.1408 11.1909C49.0512 10.9673 48.5458 10.3127 48.8596 9.99336V10.0133Z" fill="white"/>
<path d="M46.5897 3.35498C46.1251 3.58251 45.5953 3.90982 45.5627 4.23714C45.5301 4.56445 45.6279 4.89177 46.1944 5.28695" stroke="#231F20" stroke-miterlimit="2.61"/>
<path fill-rule="evenodd" clip-rule="evenodd" d="M38.7237 24.2036C38.2143 24.2036 37.8108 23.8763 37.8679 23.078L38.1205 19.8847C38.1205 19.6013 38.5647 19.4056 38.7481 19.4056C38.9315 19.4056 39.3635 19.6013 39.3717 19.8847L39.6244 23.078C39.6814 23.8763 39.2779 24.1917 38.7237 24.2036Z" fill="white" stroke="#231F20" stroke-width="0.35" stroke-miterlimit="2.61"/>
<path fill-rule="evenodd" clip-rule="evenodd" d="M38.7728 24.2036C39.2781 24.2036 39.6816 23.8763 39.6245 23.078L39.3718 19.8847C39.3718 19.6013 38.9317 19.4056 38.7483 19.4056C38.5649 19.4056 38.1329 19.6013 38.1207 19.8847L37.868 23.078C37.8109 23.8763 38.2144 24.1917 38.7728 24.2036Z" fill="white" stroke="#231F20" stroke-width="0.35" stroke-miterlimit="2.61"/>
<path fill-rule="evenodd" clip-rule="evenodd" d="M40.6919 24.1317C41.1932 24.0679 41.5396 23.6727 41.3643 22.8943L40.6348 19.7688C40.5819 19.4894 40.1254 19.3696 39.942 19.3696C39.7586 19.3696 39.3674 19.653 39.4 19.9364L39.6282 23.1298C39.6934 23.9281 40.1376 24.1796 40.6919 24.1118V24.1317Z" fill="white" stroke="#231F20" stroke-width="0.35" stroke-miterlimit="2.61"/>
<path fill-rule="evenodd" clip-rule="evenodd" d="M42.6234 23.7765C43.1083 23.6328 43.3855 23.1857 43.0798 22.4433L41.8327 19.4815C41.7349 19.218 41.2622 19.1621 41.0869 19.218C40.9117 19.2739 40.5653 19.5933 40.6427 19.8647L41.4089 22.9822C41.6086 23.7565 42.0895 23.9322 42.6315 23.7805L42.6234 23.7765Z" fill="white" stroke="#231F20" stroke-width="0.35" stroke-miterlimit="2.61"/>
<path fill-rule="evenodd" clip-rule="evenodd" d="M44.4583 23.2614C44.9189 23.0498 45.1308 22.5708 44.7233 21.8763L43.0686 19.118C42.9341 18.8665 42.4573 18.8785 42.2943 18.9583C42.1313 19.0382 41.8297 19.4014 41.9479 19.6569L43.1461 22.6387C43.4517 23.3771 43.9612 23.4889 44.4583 23.2614Z" fill="white" stroke="#231F20" stroke-width="0.35" stroke-miterlimit="2.61"/>
<path fill-rule="evenodd" clip-rule="evenodd" d="M36.7885 24.1317C36.2994 24.0599 35.9734 23.6607 36.1283 22.8943L36.8578 19.7688C36.9108 19.4894 37.3713 19.3696 37.5506 19.3696C37.7299 19.3696 38.1293 19.653 38.0967 19.9364L37.8685 23.1298C37.8033 23.9281 37.355 24.1796 36.8048 24.1118L36.7885 24.1317Z" fill="white" stroke="#231F20" stroke-width="0.35" stroke-miterlimit="2.61"/>
<path fill-rule="evenodd" clip-rule="evenodd" d="M34.8684 23.7765C34.3835 23.6328 34.1104 23.1857 34.412 22.4433L35.6591 19.4815C35.7569 19.218 36.2296 19.1621 36.4049 19.218C36.5801 19.2739 36.9265 19.5933 36.8491 19.8647L36.083 22.9822C35.8873 23.7565 35.4023 23.9322 34.8603 23.7805L34.8684 23.7765Z" fill="white" stroke="#231F20" stroke-width="0.35" stroke-miterlimit="2.61"/>
<path fill-rule="evenodd" clip-rule="evenodd" d="M33.0348 23.2614C32.5743 23.0498 32.3665 22.5708 32.7699 21.8763L34.4245 19.118C34.559 18.8665 35.0359 18.8785 35.1989 18.9583C35.3619 19.0382 35.6635 19.4014 35.5494 19.6569L34.343 22.6187C34.0374 23.3572 33.5279 23.4689 33.0267 23.2414L33.0348 23.2614Z" fill="white" stroke="#231F20" stroke-width="0.35" stroke-miterlimit="2.61"/>
<path fill-rule="evenodd" clip-rule="evenodd" d="M38.7486 19.8688C44.3564 19.8688 48.9005 16.5517 48.9005 12.4603C48.9005 8.36879 44.3564 5.04773 38.7486 5.04773C33.1408 5.04773 28.5927 8.3648 28.5927 12.4603C28.5927 16.5557 33.1408 19.8688 38.7486 19.8688Z" fill="#231F20"/>
<path fill-rule="evenodd" clip-rule="evenodd" d="M43.2025 9.74127C43.2025 8.65952 42.0369 7.02295 38.6462 7.02295C36.6533 7.02295 34.9783 7.51391 33.9921 8.432C34.1284 8.52745 34.2433 8.64935 34.3295 8.79012C34.4157 8.9309 34.4715 9.08751 34.4933 9.25031V15.2378C34.4442 15.6038 34.2821 15.9464 34.0287 16.2197C34.9579 16.9422 36.5514 17.6288 39.013 17.5649C41.4746 17.501 43.7649 16.7107 43.7649 14.4833C43.7649 13.5373 42.8683 12.5873 41.8699 12.26C41.6049 12.1922 41.6457 11.9327 41.8699 11.8329C42.094 11.7331 43.2351 10.8509 43.2188 9.73727L43.2025 9.74127Z" fill="white"/>
<path fill-rule="evenodd" clip-rule="evenodd" d="M38.7804 11.6059C39.1242 11.6373 39.4697 11.5661 39.7715 11.4017C40.0733 11.2372 40.3173 10.9872 40.4713 10.6844C40.6253 10.3817 40.6823 10.0404 40.6346 9.70534C40.587 9.37033 40.437 9.05725 40.2043 8.80727C39.9717 8.5573 39.6673 8.38204 39.3311 8.30461C38.9949 8.22723 38.6427 8.25121 38.3207 8.37343C37.9987 8.49571 37.7219 8.71049 37.5268 8.98962C37.3318 9.26874 37.2275 9.59909 37.2276 9.93738C37.2077 10.3603 37.3601 10.7736 37.6512 11.0865C37.9424 11.3994 38.3486 11.5862 38.7804 11.6059Z" fill="#231F20"/>
<path fill-rule="evenodd" clip-rule="evenodd" d="M38.9803 16.2162C39.338 16.2273 39.6909 16.1336 39.9939 15.9471C40.2969 15.7605 40.5361 15.4896 40.6809 15.1691C40.8257 14.8486 40.8696 14.493 40.8068 14.148C40.744 13.8029 40.5775 13.4841 40.3286 13.2322C40.0796 12.9804 39.7596 12.8071 39.4095 12.7346C39.0594 12.662 38.6952 12.6934 38.3635 12.8249C38.0317 12.9563 37.7476 13.1817 37.5475 13.4723C37.3473 13.7629 37.2403 14.1053 37.2401 14.4558C37.2363 14.6834 37.2784 14.9094 37.3638 15.121C37.4492 15.3326 37.5763 15.5256 37.7379 15.6891C37.8995 15.8526 38.0925 15.9832 38.3056 16.0737C38.5188 16.1641 38.748 16.2126 38.9803 16.2162Z" fill="#231F20" stroke="#231F20" stroke-width="0.35" stroke-miterlimit="2.61"/>
</g>
<defs>
<clipPath id="clip0">
<rect width="76.2353" height="23.7798" fill="white" transform="translate(0.858826 0.588257)"/>
</clipPath>
</defs>
</svg>
