<svg width="37" height="50" viewBox="0 0 37 50" fill="none" xmlns="http://www.w3.org/2000/svg">
<path fill-rule="evenodd" clip-rule="evenodd" d="M36.7022 3.59265V4.55215L18.5 1.34111L0.299084 4.55215V3.59265L18.5 0.382446L36.7022 3.59265Z" fill="#101010"/>
<path fill-rule="evenodd" clip-rule="evenodd" d="M36.7022 5.49057L18.5 2.30054L0.299084 5.49057L0.299364 8.72739L0.457087 8.63802C0.521241 8.60216 6.97975 5.02132 18.535 5.02132C30.091 5.02132 36.4742 8.603 36.5389 8.63858L36.6949 8.72823L36.7022 5.49057Z" fill="black"/>
<path fill-rule="evenodd" clip-rule="evenodd" d="M0.457409 8.63781L0.299686 8.72718V18.4166C0.299686 23.5921 1.51636 28.7448 3.9161 33.7311C9.54958 45.4273 18.2834 49.5188 18.3708 49.5589L18.5003 49.618L18.6294 49.5589C18.7177 49.5188 27.4442 45.4261 33.0774 33.7311C35.4783 28.7448 36.6953 23.5921 36.6953 18.4166V8.72802L36.5392 8.63838C36.4748 8.6028 30.0914 5.02112 18.5353 5.02112C6.98007 5.02112 0.521563 8.60196 0.457409 8.63781ZM18.5353 5.64697C28.9702 5.64697 35.0805 8.58347 36.0708 9.09838V18.4166C36.0708 23.4968 34.8743 28.5577 32.516 33.4614C27.354 44.1719 19.5867 48.3775 18.5003 48.9263C17.413 48.3775 9.63978 44.1719 4.4792 33.4614C2.12092 28.5577 0.924694 23.4968 0.924694 18.4166V9.0995C1.92398 8.58515 8.09842 5.64697 18.5353 5.64697Z" fill="black"/>
<path fill-rule="evenodd" clip-rule="evenodd" d="M21.2684 39.8961C21.5716 40.1057 21.3516 40.4696 21.1272 40.5265C20.8936 40.5901 20.6939 40.3306 20.5807 40.615C20.5171 40.7677 20.6897 41.9244 21.873 41.9244C22.9776 41.9244 23.5046 40.5063 23.6085 40.2928C23.713 40.0799 23.7802 39.8082 23.6757 39.8082C23.1911 39.8082 23.0499 40.0959 23.0499 40.0959C23.0499 40.0959 23.0132 39.8191 23.2541 39.6101C23.4527 39.4395 23.7133 39.481 23.8074 39.481C24.0049 39.481 23.9738 39.3339 24.0932 39.0428C24.3652 38.3579 24.5523 38.327 24.7291 38.0147C24.8756 37.7603 24.5988 37.6606 24.0528 37.6093C23.5051 37.5572 23.2118 37.5793 22.9672 37.6149C22.7221 37.6499 22.4781 37.7494 22.326 38.1242C22.2445 38.3273 22.3938 38.5273 22.6807 38.4755C22.9672 38.422 23.2432 38.2052 23.2432 38.2052C23.2432 38.2052 23.114 38.7184 22.6863 38.8246C22.2896 38.9221 21.8212 38.6828 21.8842 38.2814C21.9663 37.7606 22.3263 37.379 22.9829 37.2504C23.6407 37.1179 24.2963 37.2193 24.8809 37.3631C25.4636 37.5101 25.8925 37.421 26.4343 37.3894C27.6026 37.3269 28.3265 37.0512 28.3265 37.0512C28.3265 37.0512 27.8001 37.4785 27.0703 37.676C26.3405 37.8752 25.6897 37.7925 25.479 37.8752C25.309 37.948 25.0686 38.2856 24.8706 38.6713C24.6885 39.026 24.4946 39.4347 24.5784 39.4347C25.2569 39.4605 25.5054 39.312 25.5054 39.312C25.5054 39.312 25.3712 39.6048 25.0479 39.7432C24.8235 39.8339 24.4428 39.8339 24.4428 39.8339C24.4428 39.8339 24.2716 40.2673 24.0789 40.6584C23.8847 41.0492 23.5668 41.6597 22.9944 41.9617C22.4198 42.2631 21.3211 42.6391 20.6291 41.6437C19.8971 40.5996 20.5653 39.4118 21.2684 39.8961ZM12.773 40.0323C12.908 40.378 12.6211 40.5581 12.4545 40.5581C12.2872 40.5581 12.0791 40.434 12.0356 40.643C11.9959 40.8503 12.4797 41.9196 13.6053 41.9196C14.7315 41.9196 15.2534 41.268 15.1741 40.6842C15.0859 40.0326 14.0507 39.7737 13.2257 39.3398C12.822 39.128 11.9096 38.9862 11.9096 38.1321C11.9096 36.3083 14.685 37.4731 14.685 37.4731C14.685 37.4731 14.6909 37.2451 14.82 37.2345C14.8825 37.2286 15.008 37.2039 15.0497 37.4101C15.0909 37.618 15.2744 38.7134 15.2744 38.7134C15.2744 38.7134 14.8665 37.8794 13.7471 37.5152C13.549 37.4457 12.6831 37.281 12.6881 37.9665C12.6985 38.3735 13.1946 38.5562 14.0547 38.8901C15.185 39.3333 15.7641 39.746 15.4971 40.9344C15.243 42.0754 14.1275 42.2631 13.5851 42.2631C13.0439 42.2631 11.7984 41.8835 11.7984 40.6315C11.7984 39.7463 12.6668 39.767 12.773 40.0323ZM18.7034 33.1749L19.1592 33.3909C19.422 33.4925 19.5898 33.4477 19.65 33.4225C19.7136 33.3951 19.9543 33.1368 20.0067 32.9168C20.0313 32.8272 20.0181 32.7493 19.9705 32.6919C19.7932 32.4818 19.4791 31.5167 19.3626 30.995C19.3195 30.8015 19.3718 30.2672 19.4125 29.8372C19.448 29.468 19.4699 29.2385 19.4514 29.1794C19.4203 29.0881 19.2839 28.9998 19.127 28.9004L18.8785 28.7312C18.746 28.6228 18.7401 28.4751 18.7328 28.3166L18.7065 28.0703C18.6488 27.8411 17.4825 26.65 17.3018 26.639C17.0399 26.6219 16.9718 26.9094 16.955 27.0822C16.9447 27.1834 17.0615 27.635 17.1668 28.0353L17.2831 28.518C17.4024 29.2769 18.2092 30.6135 18.5533 31.1839L18.7166 31.4612C18.7872 31.622 18.7597 31.7489 18.6342 31.8201C18.5124 31.8901 17.4638 31.7806 16.9629 31.6651C16.7477 31.6158 16.4821 31.5085 16.223 31.4035C15.9263 31.2853 15.6451 31.1704 15.4826 31.1623C15.2929 31.1525 15.203 31.1909 15.1332 31.2231L15.0195 31.2547L14.9063 31.2186C14.7673 31.1572 14.5077 31.0452 13.7986 30.981C12.7651 30.8841 12.6875 31.092 12.6455 31.2043C12.5943 31.3472 13.226 32.019 13.3389 32.1089C13.4826 32.2249 13.9474 32.4017 14.2311 32.3546C14.5556 32.3025 15.0845 32.2369 15.15 32.2501L15.2565 32.3151L15.3554 32.3851C15.445 32.4218 16.0227 32.4535 16.1972 32.4627C16.3986 32.4736 16.9276 32.5832 17.3142 32.6641L17.7462 32.7513C17.9154 32.7824 18.3513 32.9975 18.7034 33.1749Z" fill="black"/>
<path fill-rule="evenodd" clip-rule="evenodd" d="M29.3938 19.7727C29.3708 19.7444 29.3518 19.7427 29.3397 19.7458C29.3288 19.7494 29.314 19.7598 29.3098 19.7934C29.2907 19.9374 29.11 20.3075 28.9666 20.3621C28.6761 20.4744 28.5256 20.8151 28.4167 21.0633C28.3609 21.1913 28.3066 21.3135 28.2634 21.3152C28.2449 21.3166 28.2245 21.2967 28.2021 21.2552C28.023 20.9465 28.1233 20.4744 28.2037 20.094L28.2222 20.0007C28.2878 19.6799 28.6632 19.2306 28.8876 18.9611L28.9868 18.8417C29.1394 18.6512 29.1778 18.0058 29.1492 17.9573C29.14 17.9545 29.1338 17.9598 29.1302 17.9654C29.1267 17.9682 29.1238 17.9717 29.1215 17.9755L29.1181 17.975V17.9783C29.1089 17.9884 29.1011 17.9895 29.0935 18.022C29.0534 18.2237 28.6848 18.6336 28.055 19.1782C27.9258 19.29 27.7788 19.492 27.6583 19.6542C27.5807 19.7606 27.4896 19.8833 27.4656 19.8892C27.3095 19.0566 27.5919 18.5806 27.7261 18.3506L27.7886 18.2338C28.055 17.5088 28.7411 16.9597 28.7483 16.9547C28.7576 16.9337 28.7576 16.9112 28.7408 16.897C28.7144 16.8768 28.6663 16.8855 28.5903 16.9236L28.5489 16.9443C28.3096 17.0606 27.588 17.4121 27.1453 18.2587C26.8274 18.8683 26.7044 19.5497 26.7044 20.0635C26.7044 20.3257 26.7361 20.5431 26.7898 20.6871C26.9453 21.1017 27.2176 22.1321 27.3014 22.5366C27.3535 22.7873 27.3616 23.6482 27.3616 24.1878C27.3616 24.4514 27.3605 24.636 27.3605 24.643C27.3588 24.643 27.2232 25.0806 27.2232 25.0806C27.2227 25.0851 27.1571 25.4269 26.5985 25.9981C26.036 26.5727 25.4096 26.7553 25.404 26.7576C25.1524 26.7772 24.9229 26.7668 24.9148 26.734C24.9148 26.0774 23.7903 24.5497 23.2149 24.0457C22.6277 23.5311 22.1585 23.1624 21.3612 22.6772C20.5493 22.183 19.6464 20.1114 19.636 20.0912L19.5578 19.8113C19.5578 19.8113 19.5141 19.2524 19.5021 19.107C19.5315 19.1238 19.5699 19.1477 19.5699 19.1477L19.8467 19.3087L20.1646 19.4309C20.1674 19.4317 20.5809 19.5127 20.5809 19.5127C20.5809 19.5135 20.8123 19.632 20.8123 19.632L21.0269 19.7715L21.3606 20.0125L21.7032 20.1926C21.7102 20.1946 22.1147 20.2153 22.1147 20.2153L22.124 20.182C22.124 20.182 21.6556 19.962 21.6545 19.962C21.6545 19.9553 21.4858 19.6668 21.4858 19.6668C21.4202 19.5726 21.3548 19.4784 21.2894 19.3841C21.283 19.3796 21.046 19.2381 21.046 19.2381C20.9457 19.2229 20.8452 19.2087 20.7445 19.1956C20.7445 19.193 20.6854 19.1423 20.6549 19.1149C20.6812 19.0995 20.7308 19.0687 20.7308 19.0687C20.7308 19.0723 21.0536 19.1096 21.0547 19.1096C21.0547 19.1129 21.3418 19.3082 21.3418 19.3082L21.6553 19.5497C21.6603 19.5522 21.952 19.6654 21.952 19.6654L21.9904 19.6805L21.8623 19.3474C21.7823 19.2707 21.7017 19.1946 21.6206 19.1191L21.2653 18.8171C21.2625 18.8146 20.9863 18.6722 20.9863 18.6722C20.9835 18.6717 20.6888 18.5722 20.6888 18.5722C20.6888 18.5717 20.377 18.3728 20.377 18.3728C20.377 18.3728 20.3804 18.3515 20.3826 18.3333C20.4221 18.3484 20.8143 18.5058 20.8143 18.5058C20.8165 18.5061 21.1903 18.6078 21.1903 18.6078C21.1897 18.6064 21.5037 18.7277 21.5037 18.7277C21.5026 18.7266 21.9545 18.9471 21.9545 18.9471C21.9584 18.949 22.3327 19.0303 22.3327 19.0303C22.3391 19.0306 22.7944 18.949 22.7944 18.949C22.8003 18.9462 23.2342 18.6442 23.2342 18.6442C23.2393 18.6361 23.3191 18.4565 23.3191 18.4565L23.3362 18.4151L23.1967 18.4728C23.1956 18.4728 22.8028 18.6722 22.8022 18.6722L22.5302 18.733C22.5302 18.7316 22.2232 18.6714 22.2226 18.6714H22.2232C22.2232 18.6678 21.9741 18.4361 21.9741 18.4361L21.6206 18.0937L21.3009 17.9301C21.2964 17.9282 20.9227 17.8677 20.9227 17.8677C20.9227 17.8668 20.6952 17.7511 20.6913 17.7492C20.6924 17.7492 20.693 17.745 20.693 17.7391C20.693 17.7116 20.686 17.6517 20.6832 17.6237L21.1533 17.6632L21.6682 17.6217C21.6682 17.6231 21.9581 17.6822 21.9581 17.6822L22.2515 17.8032L22.5518 17.8438L22.6058 17.8511L22.2711 17.5309C22.2677 17.5292 21.9335 17.2878 21.9335 17.2878C21.9296 17.2858 21.6533 17.1847 21.6533 17.1847C21.6483 17.1835 21.1877 17.1446 21.1785 17.1438C21.1824 17.1435 21.183 17.1356 21.183 17.1242C21.183 17.0961 21.1785 17.0564 21.176 17.0359L21.3937 16.9989C21.3937 17.0003 21.7422 17.0788 21.7422 17.0788C21.7422 17.0799 22.0722 17.278 22.0722 17.278L22.4288 17.3998C22.4392 17.4001 22.9496 17.32 22.9496 17.32L22.9801 17.3158L22.8246 17.1104C22.816 17.1037 22.5593 17.0239 22.5588 17.0239C22.5588 17.0225 22.347 16.8659 22.347 16.8659L22.0313 16.644C22.0268 16.6415 21.7912 16.5613 21.7912 16.5613C21.7873 16.5599 21.4158 16.5005 21.4147 16.5003C21.4147 16.4963 21.232 16.3283 21.2281 16.3255C21.2337 16.3243 21.2452 16.2658 21.2494 16.2392L21.4458 16.2941L21.6984 16.4145L22.0573 16.5283L21.978 16.37L21.8385 16.2243L21.7164 16.0669L21.7693 16.0537C21.7693 16.0585 22.1512 16.2532 22.1512 16.2532L22.4487 16.3546C22.4487 16.3563 22.6784 16.5717 22.6784 16.5717C22.6818 16.5745 23.1166 16.8199 23.1166 16.8199L23.1603 16.8446L23.081 16.6322C23.0787 16.6274 22.8428 16.3257 22.8428 16.3257L22.6465 15.9862C22.6448 15.9823 22.2893 15.6206 22.2893 15.6206C22.2859 15.6172 21.8335 15.3755 21.8324 15.3755C21.8324 15.3735 21.6601 15.1783 21.6601 15.1783C21.5546 15.071 21.4494 14.9635 21.3443 14.8558C21.3443 14.8516 21.3121 14.7412 21.2956 14.6852C21.3491 14.7023 21.6021 14.7863 21.6021 14.7863L21.9562 14.8863C21.9562 14.8872 22.2089 15.0446 22.2089 15.0446C22.2089 15.0463 22.4195 15.3021 22.4195 15.3021C22.4271 15.308 22.7627 15.4492 22.7627 15.4492L23.618 15.5601L23.6679 15.5663L23.4331 15.3192C23.4272 15.3147 22.974 15.1133 22.974 15.1133L22.7019 14.9149C22.7019 14.9113 22.5498 14.6384 22.5498 14.6384L22.3913 14.3571C22.3885 14.3529 22.1324 14.1117 22.1324 14.1117C22.1285 14.1089 21.8133 13.928 21.8133 13.928L21.5015 13.6685C21.5015 13.666 21.4264 13.5105 21.3785 13.4069L21.5951 13.6156L22.0089 13.9778C22.0139 13.9809 22.3296 14.1218 22.3296 14.1218L22.6 14.3403L22.914 14.6608C22.9249 14.6659 23.4158 14.7351 23.4158 14.7351L23.4771 14.744L22.9787 14.3123C22.9787 14.3045 22.8661 13.9585 22.8661 13.9585C22.7799 13.8746 22.6929 13.7916 22.605 13.7094L22.4694 13.55C22.4694 13.5458 22.3344 13.1343 22.3344 13.1343C22.2416 13.0377 22.148 12.9418 22.0537 12.8466C22.0537 12.8443 21.6035 12.4244 21.6024 12.4227V12.4219C21.6024 12.4154 21.5864 12.3513 21.5771 12.309C21.6116 12.3264 21.6587 12.3513 21.6587 12.3513L22.0719 12.5919C22.0758 12.5939 22.5677 12.7345 22.5677 12.7345L23.081 12.8561L23.674 12.9508L23.5345 12.6687C23.5247 12.6597 23.2297 12.5395 23.2297 12.5395L22.956 12.3799C22.9532 12.379 22.619 12.2378 22.619 12.2378L22.3246 12.1174C22.3246 12.1146 22.1335 11.868 22.0271 11.7319C22.1293 11.8005 22.287 11.9078 22.287 11.9078C22.2946 11.9103 22.5523 11.9308 22.5523 11.9308L23.3606 11.9311C23.3606 11.9333 23.6878 12.1101 23.6878 12.1106C23.6878 12.1118 23.9668 12.4126 23.9668 12.4126L24.0035 12.4521L23.9696 12.1126C23.9662 12.1028 23.7889 11.8812 23.7889 11.8812C23.7839 11.8773 23.3101 11.6156 23.3101 11.6156L22.9336 11.4739C22.9308 11.473 22.3635 11.3727 22.3607 11.3727V11.3719C22.3607 11.3666 22.2523 11.2374 22.2523 11.2374C22.2501 11.2363 21.8371 10.8542 21.8371 10.8542C21.7704 10.8193 21.7034 10.7848 21.6363 10.7508C21.6363 10.7497 21.5732 10.685 21.534 10.6441H21.7464C21.7464 10.6474 22.0719 10.843 22.0719 10.843C22.0747 10.8449 22.5092 10.985 22.5092 10.985L23.0636 11.066H23.063C23.063 11.0719 23.2687 11.3021 23.2687 11.3021L23.5684 11.4862C23.6821 11.5072 23.796 11.5274 23.9099 11.547L23.9576 11.5545L23.2561 10.6951C23.2516 10.6909 22.9162 10.5102 22.9162 10.5102C22.9134 10.5085 22.5201 10.3877 22.5201 10.3877C22.5201 10.3835 22.1739 9.99077 22.1739 9.99077C22.1699 9.98657 21.7363 9.72575 21.7363 9.72575C21.6314 9.69922 21.5264 9.67364 21.4211 9.64899C21.4407 9.61733 21.506 9.50976 21.506 9.5092C21.5071 9.51228 21.8534 9.35568 21.8534 9.35568C21.8534 9.35652 22.361 9.2565 22.361 9.2565C22.3747 9.24474 22.4131 9.12343 22.4131 9.12343C22.4067 9.10298 22.1898 8.96235 22.1898 8.96235C22.1033 8.93426 22.0167 8.90662 21.9299 8.87943C21.9139 8.88139 21.7766 8.96179 21.7766 8.96235C21.7766 8.95983 21.3519 8.97916 21.3519 8.97916C21.3519 8.97888 20.8443 8.85953 20.8443 8.85897C20.8443 8.85645 20.3212 8.42054 20.3212 8.42054C20.2412 8.37932 20.161 8.33842 20.0806 8.29784C20.0747 8.29672 19.2107 8.19559 19.2085 8.19559C19.2085 8.18466 19.0054 7.88154 19.0054 7.88154L18.7275 7.57786C18.7264 7.57618 18.3737 7.25793 18.3737 7.25793L18.3627 7.28119L18.2445 7.54284C18.2451 7.54032 18.128 7.7213 18.128 7.7213V7.72578C18.128 7.75912 18.1445 7.93393 18.1445 7.93393C18.1495 7.94486 18.2638 8.06196 18.2664 8.06532C18.2605 8.06532 18.2232 8.24741 18.2232 8.24882C18.2221 8.23621 17.7492 8.25554 17.7484 8.25554C17.7484 8.2533 17.3621 8.07596 17.3621 8.07596C17.3595 8.07428 17.0634 7.97399 17.0634 7.97399C17.0575 7.97203 16.3687 7.99332 16.3687 7.99332C16.3535 8.00116 16.2367 8.18214 16.2367 8.18214L16.221 8.20595L16.5241 8.24966C16.5241 8.25078 16.569 8.27935 16.5939 8.29532L16.5163 8.35863C16.5163 8.35471 16.0947 8.33538 16.0947 8.33538C16.0877 8.3365 15.791 8.45668 15.791 8.45668L15.7602 8.46985L15.9073 8.56874C15.9165 8.5721 16.5465 8.59199 16.5465 8.59199L17.0144 8.71246V8.71302C17.0144 8.71946 17.1035 8.84665 17.1035 8.84665C17.1035 8.84665 17.1668 8.93602 17.1906 8.97103L16.9903 9.08141C16.9928 9.08113 16.421 9.32234 16.421 9.32234L15.2391 9.98601C15.238 9.98489 14.4609 10.1009 14.4609 10.1009C14.455 10.1028 14.1566 10.269 14.1566 10.269C14.1502 10.2734 13.9106 10.6054 13.9106 10.6054C13.9081 10.6096 13.7725 11.0228 13.7725 11.0228C13.7619 11.7249 13.7899 11.7411 13.8 11.7467C13.8232 11.7613 14.0261 11.8762 14.183 11.7921C14.3606 11.6955 14.7407 11.6005 14.9382 11.5585C15.0357 11.5386 15.0814 11.5736 15.0895 11.6097C15.1002 11.6492 15.0707 11.703 14.9979 11.7229L14.957 11.735C14.6135 11.8283 14.2631 11.9412 14.2746 12.0737L14.3351 12.1748C14.4883 12.2866 14.8867 12.2336 15.0982 12.1857L15.3189 12.1238C15.5094 12.0658 15.726 12.0011 15.9109 12.0218C16.0176 12.0342 16.1118 12.0801 16.223 12.1325C16.3737 12.2053 16.546 12.288 16.8029 12.3048C17.2312 12.3345 17.5237 12.421 17.5467 12.4463C17.6041 12.5631 17.5671 12.7359 17.5383 12.8749L17.5161 13.0007C17.3962 14.0879 16.1824 15.3172 15.5974 15.9069C15.4394 16.0666 15.3349 16.1719 15.3125 16.2159L15.2453 16.3714C15.1884 16.5157 15.1422 16.6401 14.9567 16.7146C14.8494 16.7563 14.5992 16.9446 14.309 17.162C13.8899 17.4746 13.3702 17.8635 13.2271 17.8467C12.9876 17.8184 11.8689 17.0482 11.8219 17.0009C10.7324 15.9467 10.2766 16.163 10.0037 16.2918L9.96058 16.312C9.63561 16.4599 9.29439 17.3805 9.26357 17.578L9.1319 18.145L9.03077 18.5616C9.00079 18.7025 8.8666 19.0488 8.73858 19.3833L8.4758 20.1116C8.43238 20.2803 8.32704 20.5173 8.24131 20.7089L8.12505 20.9927C8.04409 21.3258 8.04269 23.1501 8.18361 23.3115L8.18977 23.3182L8.2175 23.3263C8.35898 23.3118 8.66266 22.9988 8.80833 22.8478L8.84195 22.8128C8.96521 22.689 9.09604 22.3584 9.09604 22.2195C9.09604 22.0833 9.03245 21.7987 9.00724 21.7211C8.81001 21.1188 8.88453 20.5447 8.92039 20.2696L8.93468 20.1469C8.94504 20.0192 9.07307 19.8777 9.19746 19.7421L9.35462 19.5603C9.4409 19.4454 9.53672 19.4073 9.62216 19.3735L9.76251 19.2933L9.78436 19.2706C9.87737 19.1774 10.0334 19.0199 10.1018 18.8092L10.2351 18.2324L10.2643 18.0783C10.271 18.0475 10.2867 18.0304 10.3127 18.0248C10.3657 18.0131 10.445 18.0551 10.4788 18.1002L11.4431 19.2191C11.6902 19.4295 11.944 19.6805 11.944 19.7357L11.9437 19.7404C11.9437 19.7396 11.9379 19.7407 11.9379 19.7407C11.8028 19.7547 11.1235 19.6099 11.0106 19.5777C10.0875 19.3071 9.66614 19.3547 9.34117 19.7615C8.97082 20.2273 9.08736 21.6541 9.163 21.8104C9.23247 21.9522 9.57033 23.6905 9.58546 23.9222C9.60059 24.1494 9.68855 24.5556 9.78044 24.6489L9.80566 24.6747C9.9194 24.7873 10.2192 25.0884 10.2721 25.3854C10.3293 25.7087 11.0159 26.5744 11.2778 26.652C11.2975 26.6576 11.3182 26.6586 11.3382 26.6547C11.3583 26.6508 11.3772 26.6422 11.3932 26.6295C11.593 26.4878 11.6838 25.795 11.6947 25.5025C11.7076 25.138 11.5767 24.9618 11.4378 24.7733L11.3846 24.6996C11.2823 24.5601 11.1022 24.5094 10.9834 24.476C10.9327 24.4618 10.8632 24.445 10.8632 24.4293C10.8632 24.4239 10.8492 23.89 10.6789 23.7869C10.5464 23.7054 10.4108 23.1902 10.3948 22.9941C10.3794 22.7994 10.304 22.3293 10.2029 22.1228C10.1007 21.9155 10.0146 21.5334 10.0583 21.2387C10.0766 21.112 10.1668 21.0723 10.2402 21.0608C10.3668 21.0406 10.513 21.0952 10.5357 21.1395C10.5861 21.2409 11.5597 21.8281 11.888 21.9542C12.0919 22.0315 12.3679 22.2646 12.6116 22.4724C12.785 22.6178 12.9341 22.7431 13.0271 22.7876C13.1526 22.8481 13.5084 22.8551 13.7941 22.8607C13.9457 22.8632 14.1031 22.8669 14.1244 22.8795C14.0084 22.926 14.0098 23.1294 14.0193 23.1949C14.1378 24.0362 17.1985 26.3472 17.4352 26.4769C17.7092 26.6239 18.6919 27.6501 18.7779 27.7896C18.867 27.9275 18.9536 28.0773 18.937 28.1928C18.9135 28.3634 18.9819 28.5583 19.1186 28.7175C19.2494 28.8657 19.42 28.955 19.5777 28.955C19.7144 28.955 19.8058 28.8323 19.8733 28.7438L19.8876 28.7253C20.0702 28.4836 20.3411 28.1294 20.3762 27.5756C20.4134 27.0077 20.6728 26.7822 20.7574 26.7674C20.7953 26.7604 20.823 26.7719 20.8331 26.7968C20.8434 26.8226 20.8308 26.8657 20.7796 26.8996C20.6675 26.9755 20.5975 27.2268 20.5207 27.4955C20.5202 27.4977 20.4921 27.7697 20.4921 27.7697C20.4857 27.9728 20.4778 28.2031 20.275 28.4264C19.9713 28.7553 19.6228 29.5137 19.5326 30.4712C19.478 31.048 19.7377 31.8789 20.3042 32.9379L20.3437 33.0135L20.4969 33.2707C20.6518 33.5198 20.9107 33.9338 20.8986 34.0307C20.8821 34.1675 20.8692 34.2747 20.6333 34.5709C20.3739 34.8964 19.4273 35.9979 19.3349 36.0153C19.1466 36.0153 19.1149 36.0394 18.9634 36.1543L18.8037 36.2758C18.6289 36.3999 18.5983 36.493 18.5689 36.575C18.5474 36.6369 18.5269 36.691 18.4457 36.7518L18.3849 36.7927C18.3723 36.8036 18.3381 36.8518 17.9576 37.2325C17.5215 37.6637 17.3268 38.1517 17.394 38.6366C17.4156 38.7882 17.5461 38.8411 17.9333 38.8588C18.3199 38.8767 19.2063 38.2565 19.2458 38.0545L19.2595 37.9775C19.2934 37.7954 19.3503 37.4883 19.4506 37.4441C19.5716 37.3911 19.7789 37.1519 19.931 36.9779L19.9604 36.9451C20.0414 36.8515 20.061 36.7585 20.0803 36.67C20.0968 36.6 20.112 36.5294 20.1579 36.4649C20.1941 36.4179 20.247 36.3921 20.3084 36.3638C20.426 36.3075 20.5742 36.2358 20.681 35.9677C20.7871 35.7049 21.4208 35.2502 21.8836 34.9194C22.1201 34.7513 22.3055 34.6168 22.3498 34.5577C22.4106 34.4784 22.4478 34.3257 22.4478 34.1638C22.4478 33.9716 22.3963 33.7671 22.2756 33.6534C22.0999 33.4903 21.9346 33.0051 21.8853 32.853V32.8496C21.8853 32.7866 21.8794 32.6712 21.8699 32.4563C21.8688 32.4465 21.8688 32.4361 21.8688 32.4269C21.8688 31.8585 22.7137 31.3024 23.0785 31.0629L23.2449 30.948C24.5674 29.7815 24.8263 28.8945 24.8753 28.6511L24.9022 28.3594C24.9103 28.1575 24.9171 27.965 25.0389 27.9398C25.0865 27.9305 25.1658 27.9689 25.214 28.0264C25.2415 28.0574 25.2818 28.1222 25.2549 28.197C25.1947 28.3606 25.1745 30.0053 25.174 30.0737C25.1784 30.0852 25.3163 30.2476 25.3163 30.2476L25.3415 30.2771L25.349 30.2387C25.3507 30.2196 25.4266 29.7714 25.4266 29.6128C25.4266 29.4355 25.7118 28.676 25.7807 28.6628C25.7807 28.6651 25.7852 28.6715 25.7852 28.6715C25.8186 28.7766 25.8612 29.036 25.8612 29.3094C25.8612 29.5781 25.8205 29.8605 25.69 30.0241C25.4919 30.2692 25.3342 30.6572 25.2314 30.9133L25.1361 31.1309C25.1254 31.1611 25.1207 31.1931 25.1224 31.2251C25.1224 31.4335 25.2297 31.8778 25.3003 31.9605C25.3188 31.9801 25.3336 31.9801 25.344 31.9764C25.367 31.9677 25.3877 31.938 25.3877 31.7635C25.3877 31.0987 25.9463 30.6166 25.953 30.6129C26.4455 30.2221 26.5528 29.4974 26.5528 28.9452C26.5528 28.5273 26.4915 28.2082 26.4898 28.1995C26.4119 28.084 26.3331 27.9691 26.2534 27.8549C26.2648 27.8605 26.329 27.8078 26.3503 27.7907C26.3716 27.8182 26.596 28.1157 26.596 28.1157C26.6338 28.1687 26.7296 28.323 26.7296 28.3844C26.7296 28.7264 26.7823 28.9606 26.8198 29.1324L26.8291 29.173C26.8686 29.3551 27.1148 29.937 27.1257 29.9619L27.1521 30.0232L27.1602 29.9566C27.1602 29.9538 27.1991 29.6495 27.1602 29.3893C27.1378 29.2433 27.1658 29.0643 27.1941 28.871L27.2389 28.4272C27.2389 28.0667 27.1874 27.8389 27.0588 27.6316L26.9932 27.5322C26.9675 27.4916 26.9422 27.4518 26.945 27.4436L26.9932 27.4229C28.0334 27.0699 28.5175 26.304 28.7147 25.8799C28.9215 25.4305 28.9324 24.7385 28.9324 24.6055C28.9324 24.4321 28.9248 23.5328 28.7738 23.0708C28.6853 22.7982 28.7136 22.5055 28.7433 22.1895L28.7755 21.6485C28.7755 21.2785 28.9702 21.0036 29.159 20.738L29.384 20.3895C29.5311 20.0993 29.4529 19.8452 29.3938 19.7727Z" fill="black"/>
<path fill-rule="evenodd" clip-rule="evenodd" d="M17.7511 8.18835C17.7684 8.18947 17.9895 8.08441 17.9895 8.08441C17.9993 8.06452 17.948 7.85525 17.948 7.85525C17.7885 7.66604 17.6281 7.4775 17.467 7.28964L17.4432 7.2619L17.4351 7.29664L17.3835 7.52328C17.3838 7.52104 17.2308 7.88691 17.2308 7.88691L17.2238 7.90232L17.546 8.06704L17.7511 8.18835Z" fill="black"/>
<path fill-rule="evenodd" clip-rule="evenodd" d="M17.8473 9.64092C17.8983 9.65997 17.9754 9.65156 18.0482 9.61907C18.1597 9.56668 18.2255 9.47703 18.1972 9.41288L18.146 9.36665C18.0955 9.34732 18.0185 9.35601 17.9468 9.38907C17.8513 9.43165 17.7902 9.50252 17.7902 9.56276C17.7902 9.57368 17.7933 9.58545 17.7969 9.59469L17.8473 9.64092ZM19.7717 8.8467L19.8635 8.89629C19.8709 8.91219 19.8818 8.92624 19.8953 8.93739C19.9088 8.94854 19.9247 8.95652 19.9417 8.96072C19.9613 8.96481 19.9815 8.96442 20.001 8.95957C20.0204 8.95471 20.0384 8.94553 20.0538 8.93271C20.0784 8.91338 20.0843 8.87724 20.0686 8.83157C20.044 8.75565 19.9647 8.67273 19.8792 8.67273C19.7691 8.67273 19.6686 8.68534 19.6686 8.76658C19.6688 8.81224 19.7212 8.82961 19.7717 8.8467ZM19.8818 9.17139C19.8392 9.20277 19.8204 9.24507 19.8325 9.28793L19.8411 9.32351C19.8521 9.36553 19.856 9.37422 19.8946 9.3787L19.9647 9.39131C20.0543 9.41428 20.1961 9.35853 20.2283 9.28681C20.2392 9.26356 20.2479 9.21846 20.1868 9.17587C20.0818 9.10584 19.9524 9.12096 19.8818 9.17139ZM20.1683 10.4183C20.1426 10.406 20.1535 10.3651 20.1734 10.3057C20.1894 10.2572 20.2039 10.2107 20.179 10.1852C20.1571 10.1642 20.1182 10.1659 20.0521 10.1906C19.814 10.2763 19.7775 10.5189 19.7512 10.6962L19.7431 10.7509C19.7294 10.8299 19.77 10.8568 19.7952 10.8657C19.8773 10.8949 20.0255 10.8203 20.0588 10.7635C20.0961 10.7021 20.3017 10.6461 20.4516 10.6052L20.509 10.5895C20.5785 10.5704 20.6141 10.5438 20.6191 10.5077C20.6267 10.4603 20.5743 10.4172 20.5278 10.3895C20.4846 10.364 20.4205 10.3822 20.3532 10.4015C20.2866 10.4197 20.2149 10.4385 20.1683 10.4183ZM17.6515 10.5094C17.7042 10.5041 17.7454 10.4836 17.7714 10.4461C17.8473 10.3329 17.8513 10.1726 17.7776 10.0272C17.7064 9.88857 17.5846 9.79976 17.4602 9.79528L17.4618 9.79584L17.4347 9.7922L17.2055 9.81013C17.0845 9.83702 16.9722 9.92639 16.945 10.0144C16.9312 10.0589 16.9391 10.0995 16.9696 10.1301C17.1534 10.3248 17.4708 10.5231 17.6515 10.5094ZM15.3949 10.325C15.4224 10.3926 15.5482 10.4001 15.7328 10.3452L15.7734 10.3329L16.1043 10.2035L16.5836 9.88829C16.5976 9.87736 16.7228 9.78323 16.697 9.723C16.6788 9.6835 16.6164 9.6905 16.5713 9.69891C16.439 9.723 16.3093 9.78659 16.1712 9.85383L15.9762 9.94432L15.8902 9.97962C15.5935 10.1023 15.3504 10.2124 15.3949 10.325ZM14.387 10.6758C14.2872 10.6758 14.2424 10.7298 14.206 10.7778L14.1614 10.8282C14.0847 10.894 14.0611 11.0531 14.0707 11.1742C14.0746 11.2246 14.0889 11.3159 14.1385 11.3451C14.2334 11.4036 14.2788 11.3624 14.3757 11.2703L14.4508 11.2058C14.5461 11.126 14.6567 11.0355 14.6705 10.8963C14.6772 10.8374 14.6632 10.789 14.6304 10.7525C14.5721 10.6892 14.4657 10.6758 14.387 10.6758ZM14.9383 10.7198C14.9097 10.7136 14.8926 10.7226 14.8837 10.7318C14.8548 10.7601 14.8666 10.8206 14.8755 10.8691L14.8811 10.903L14.8752 10.9234C14.8688 10.9408 14.8615 10.9629 14.8752 10.9817C14.8876 11.0005 14.9176 11.0086 14.9685 11.0086C15.0333 11.0092 15.0397 11.0024 15.0615 10.9447L15.0789 10.9002C15.0946 10.861 15.0949 10.8257 15.08 10.7976C15.0534 10.7483 14.9873 10.7296 14.9383 10.7198ZM15.4714 11.5837C15.5052 11.5822 15.5372 11.5676 15.5606 11.5431C15.5839 11.5186 15.597 11.4861 15.597 11.4522C15.597 11.4183 15.5839 11.3858 15.5606 11.3613C15.5372 11.3368 15.5052 11.3222 15.4714 11.3207C15.4543 11.3208 15.4374 11.3243 15.4216 11.331C15.4059 11.3376 15.3916 11.3473 15.3796 11.3596C15.3677 11.3718 15.3582 11.3862 15.3518 11.4021C15.3455 11.418 15.3423 11.435 15.3425 11.4521C15.3425 11.5246 15.4 11.5837 15.4714 11.5837ZM17.8731 11.2632C17.8546 11.2598 17.8355 11.2615 17.8179 11.2681C17.8002 11.2747 17.7848 11.286 17.7731 11.3008C17.7375 11.3423 17.521 11.4907 17.3627 11.5994L17.1584 11.7445L17.1419 11.7605C17.1164 11.7846 17.1038 11.7995 17.1203 11.8493L17.1453 11.8843L17.1991 11.8734L17.2786 11.844L17.3932 11.8261C17.5061 11.8115 17.6297 11.7947 17.6879 11.735L17.7638 11.6109L17.8767 11.4297C17.9308 11.37 17.9336 11.3291 17.9261 11.3058C17.9217 11.2947 17.9145 11.285 17.9052 11.2775C17.8959 11.2701 17.8849 11.2651 17.8731 11.2632ZM18.1104 11.9956C18.1104 12.0625 18.1437 12.0888 18.1625 12.0981C18.2132 12.125 18.286 12.0989 18.3295 12.0384L18.4763 11.9107C18.5558 11.8535 18.6446 11.7891 18.7233 11.6891C18.7962 11.5952 18.7648 11.5375 18.7388 11.5129C18.6889 11.4641 18.5864 11.4529 18.5516 11.4815L18.5093 11.5103C18.4132 11.5728 18.1857 11.7204 18.1286 11.9C18.1173 11.9306 18.1112 11.9629 18.1104 11.9956ZM19.0668 11.9233C19.0368 11.8796 18.9853 11.8614 18.9469 11.8801L18.8435 11.9586C18.7707 12.018 18.6799 12.0933 18.6012 12.1155C18.4101 12.1667 18.151 12.2522 18.135 12.3833L18.1348 12.4004C18.1348 12.4365 18.151 12.4581 18.1667 12.4701C18.2393 12.5292 18.4155 12.4942 18.5429 12.446C18.7385 12.3738 18.8573 12.2855 19.0108 12.146C19.1052 12.06 19.101 11.974 19.0668 11.9233ZM18.3239 13.4333L18.2617 13.4263C18.1009 13.4691 17.8263 13.942 17.6336 14.2944L17.5991 14.3555L17.0215 15.4397L16.8402 15.7848C16.82 15.8162 16.827 15.8621 16.8573 15.8921C16.8853 15.9201 16.9343 15.9355 16.9937 15.898C17.0901 15.8338 17.4417 15.4851 17.6047 15.2111L17.8218 14.9116C17.9611 14.7298 18.1196 14.5264 18.2126 14.2841L18.2454 14.2006C18.4659 13.6288 18.5004 13.5414 18.3239 13.4333ZM20.4961 11.3493C20.4797 11.3489 20.4633 11.3518 20.448 11.3577C20.4326 11.3637 20.4186 11.3726 20.4067 11.3839C20.3949 11.3953 20.3853 11.4089 20.3787 11.424C20.3721 11.439 20.3685 11.4552 20.3681 11.4717C20.3681 11.5392 20.4255 11.5941 20.4961 11.5941C20.5667 11.5941 20.623 11.5392 20.623 11.4717C20.6228 11.4553 20.6193 11.4391 20.6128 11.4241C20.6062 11.4091 20.5968 11.3955 20.585 11.3841C20.5732 11.3727 20.5593 11.3638 20.544 11.3578C20.5288 11.3518 20.5125 11.3489 20.4961 11.3493ZM20.4353 11.86C20.4353 11.9278 20.4928 11.9827 20.5634 11.9827C20.5796 11.9829 20.5958 11.9798 20.6109 11.9738C20.626 11.9677 20.6398 11.9587 20.6514 11.9473C20.6631 11.9359 20.6723 11.9223 20.6787 11.9073C20.6851 11.8923 20.6884 11.8762 20.6886 11.86C20.6882 11.8271 20.6748 11.7957 20.6513 11.7727C20.6279 11.7497 20.5962 11.737 20.5634 11.7373C20.5302 11.7367 20.4981 11.7493 20.4741 11.7723C20.4501 11.7953 20.4362 11.8268 20.4353 11.86ZM20.553 12.1314C20.4731 12.1314 20.407 12.1844 20.407 12.2477C20.407 12.3118 20.4731 12.3642 20.553 12.3642C20.634 12.3642 20.6995 12.3121 20.6995 12.2477C20.6998 12.1844 20.634 12.1314 20.553 12.1314ZM20.5471 12.471C20.4552 12.471 20.3818 12.529 20.3818 12.6004C20.3818 12.6713 20.4552 12.7293 20.5471 12.7293C20.639 12.7293 20.7113 12.671 20.7113 12.6004C20.7113 12.529 20.639 12.471 20.5471 12.471ZM20.553 12.9018C20.4519 12.9018 20.3681 12.9621 20.3681 13.038C20.3681 13.1128 20.4519 13.173 20.553 13.173C20.6547 13.173 20.7368 13.1128 20.7368 13.038C20.7368 12.9621 20.6547 12.9018 20.553 12.9018ZM20.4905 13.624C20.6054 13.614 20.6897 13.5509 20.6833 13.4781L20.6471 13.412C20.6076 13.3786 20.5387 13.3618 20.4687 13.3683C20.3577 13.3784 20.2756 13.4383 20.2756 13.5069L20.2762 13.5139L20.3135 13.5798C20.3538 13.614 20.4196 13.6308 20.4905 13.624ZM20.2395 13.9843L20.2389 13.981L20.2395 13.9843ZM20.4841 14.0776C20.6127 14.0586 20.7034 13.988 20.6931 13.9151L20.6552 13.8546C20.6104 13.8202 20.53 13.8064 20.4479 13.8185C20.3216 13.8361 20.2286 13.9081 20.2389 13.981L20.2779 14.0412C20.3233 14.0759 20.402 14.0891 20.4841 14.0776ZM20.2675 14.2964C20.2675 14.3757 20.3639 14.439 20.4902 14.439C20.616 14.439 20.7113 14.3757 20.7113 14.2964C20.7113 14.2171 20.616 14.1546 20.4902 14.1546C20.3636 14.1549 20.2675 14.2171 20.2675 14.2964ZM20.6614 14.76C20.6614 14.676 20.5465 14.6118 20.3997 14.6118C20.2546 14.6118 20.1398 14.676 20.1398 14.76C20.1398 14.8435 20.2546 14.9088 20.3997 14.9088C20.5465 14.9088 20.6614 14.8435 20.6614 14.76ZM20.4944 15.1514C20.4944 15.0693 20.4084 15.0029 20.3045 15.0029C20.1989 15.0029 20.1129 15.0693 20.1129 15.1514C20.1129 15.2335 20.1989 15.3002 20.3045 15.3002C20.4087 15.3002 20.4944 15.2335 20.4944 15.1514ZM20.4048 15.6408C20.4048 15.5487 20.314 15.4727 20.2011 15.4727C20.0896 15.4727 19.9991 15.5487 19.9991 15.6408C19.9991 15.7338 20.0893 15.8086 20.2011 15.8086C20.314 15.8086 20.4048 15.7338 20.4048 15.6408ZM20.2395 16.1171C20.2395 16.0342 20.165 15.9683 20.0742 15.9683C19.984 15.9683 19.9078 16.0339 19.9078 16.1171C19.9078 16.1986 19.9837 16.2653 20.0742 16.2653C20.165 16.2656 20.2395 16.1986 20.2395 16.1171ZM19.9532 16.3989C19.8658 16.3989 19.7935 16.4653 19.7935 16.5477C19.7935 16.6292 19.8658 16.6956 19.9532 16.6956C20.0403 16.6956 20.1118 16.6289 20.1118 16.5477C20.112 16.4653 20.0403 16.3989 19.9532 16.3989ZM19.8182 17.1136C19.9078 17.1136 19.984 17.0558 19.984 16.9844C19.984 16.913 19.9081 16.8561 19.8182 16.8561C19.728 16.8561 19.654 16.9133 19.654 16.9844C19.654 17.0556 19.728 17.1136 19.8182 17.1136ZM19.666 17.4265C19.7492 17.4265 19.8176 17.378 19.8176 17.3169C19.8176 17.2562 19.7504 17.208 19.666 17.208C19.5789 17.208 19.5128 17.2559 19.5128 17.3169C19.5128 17.378 19.5812 17.4265 19.666 17.4265ZM19.5184 17.7274C19.5977 17.7274 19.6649 17.6783 19.6649 17.6175C19.6649 17.5573 19.5977 17.5083 19.5184 17.5083C19.4369 17.5083 19.3724 17.5573 19.3724 17.6175C19.3722 17.6783 19.4369 17.7274 19.5184 17.7274ZM15.1991 17.4609L15.2254 17.466L15.4249 17.4301C15.602 17.3909 15.8687 17.3312 16.1967 17.3225C16.4365 17.3161 16.6965 17.3999 16.8853 17.4615C17.0568 17.5187 17.1422 17.5433 17.1747 17.508C17.1951 17.4848 17.1825 17.4509 17.1713 17.427C17.1198 17.3158 16.894 16.9502 16.1572 16.9334C15.6784 16.9225 15.2882 17.248 15.2047 17.3856C15.1882 17.4136 15.1837 17.4343 15.1921 17.4497L15.1991 17.4609ZM17.9389 18.846C17.9857 18.816 18.0059 18.7631 18.0028 18.6871C17.9871 18.3891 17.9073 18.3552 17.7428 18.3552C17.5761 18.3552 17.4557 18.5224 17.4557 18.6093C17.4557 18.6908 17.5156 18.7622 17.6319 18.8205C17.6977 18.8552 17.8493 18.9048 17.9389 18.846ZM20.1994 22.4899C20.437 22.6008 20.5205 22.6403 20.5561 22.6512C20.5572 22.6512 20.5583 22.6546 20.5583 22.6546C20.5583 22.6546 20.56 22.6532 20.56 22.6526C20.5765 22.6577 20.5818 22.6557 20.5858 22.6501C20.5835 22.6484 20.5743 22.6344 20.5692 22.6305C20.572 22.6283 20.5748 22.6224 20.5748 22.6224C20.5748 22.6224 20.56 22.6162 20.5589 22.6148C20.4017 22.4165 19.4554 21.0709 19.2539 20.1854C19.2223 20.0394 19.185 19.9035 19.0898 19.8492C19.0363 19.8192 18.9688 19.817 18.8867 19.8444H18.8861C18.8671 19.85 18.8533 19.8657 18.8447 19.8887C18.8365 19.9136 18.833 19.9398 18.8343 19.966C18.8343 20.2823 19.1713 21.153 19.2814 21.332C19.8904 22.3207 20.188 22.4831 20.1994 22.4899ZM27.9349 22.8745L27.8987 22.8815C27.8998 22.8871 27.908 23.1513 27.908 23.4905C27.908 23.9853 27.8909 24.645 27.8052 24.9414C27.7357 25.1815 27.4172 25.6412 27.16 26.0091C27.16 26.0091 26.8608 26.4579 26.8608 26.4584C26.8522 26.4734 26.8479 26.4905 26.8482 26.5077C26.8482 26.552 26.8706 26.5937 26.9101 26.6198C26.9401 26.6405 27.0485 26.6937 27.1995 26.5136L27.3905 26.3116C27.6455 26.0573 27.9623 25.7415 28.1856 25.0445C28.4304 24.2794 27.9391 22.8877 27.9349 22.8745ZM19.965 25.3673C19.9879 25.3902 20.0252 25.3967 20.0641 25.3827C20.0941 25.3723 20.1204 25.3534 20.1399 25.3283C20.1593 25.3033 20.1711 25.2731 20.1737 25.2415C20.1829 25.1457 20.2496 25.0171 20.3488 24.9072C20.4004 24.8485 20.4273 24.772 20.4238 24.6939C20.4202 24.6157 20.3865 24.542 20.3297 24.4881L20.2028 24.4374C20.1213 24.4402 20.0605 24.5055 20.0571 24.5075C20.0146 24.711 19.973 24.9148 19.9325 25.1188V25.1182C19.9204 25.1521 19.9095 25.314 19.965 25.3673ZM24.0915 27.6236L24.0851 27.6208L24.0786 27.6236C24.0736 27.6275 23.9671 27.6771 23.9369 27.781C23.9162 27.851 23.9548 27.9118 23.9851 27.962L24.0206 28.0286L24.0361 28.1617L24.0602 28.3575C24.0661 28.3778 24.0788 28.3954 24.0961 28.4075C24.1134 28.4196 24.1343 28.4255 24.1554 28.4242C24.2053 28.4225 24.2633 28.3842 24.2823 28.3066C24.3081 28.2015 24.3207 28.0592 24.3207 27.8698C24.3201 27.697 24.1013 27.6258 24.0915 27.6236ZM17.6868 26.0304C17.6725 26.0138 16.1597 24.3722 15.8328 23.9421C15.4997 23.5015 15.3406 23.4681 15.1775 23.5583C15.1655 23.5652 15.1553 23.5749 15.1479 23.5866C15.1404 23.5982 15.1359 23.6115 15.1347 23.6253C15.1111 23.8043 15.4891 24.2374 15.8199 24.5554C16.2824 25.0005 17.6487 26.0469 17.6627 26.0573L17.6868 26.0304ZM11.7575 21.1852C11.451 20.995 10.9204 20.8894 10.9151 20.8871L10.9011 20.9194L11.4897 21.3631C11.5866 21.4427 12.015 21.7085 12.1533 21.5998C12.1623 21.5931 12.1695 21.5842 12.1743 21.5741C12.179 21.5639 12.1813 21.5528 12.1808 21.5416C12.1763 21.4617 12.0278 21.355 11.7575 21.1852ZM11.6138 18.6737L11.6552 18.656C11.7082 18.5964 11.5863 18.4269 11.4381 18.2899C11.3045 18.1666 11.1686 18.0871 11.0975 18.091L11.0571 18.1084C11.0485 18.1189 11.0441 18.1323 11.0448 18.1459C11.0448 18.2232 11.1507 18.3599 11.2737 18.4748C11.4076 18.5981 11.5446 18.6782 11.6138 18.6737ZM13.1865 18.4594L13.1263 18.463C13.012 18.5109 12.8305 18.8014 12.6856 19.1693C12.5836 19.429 12.5066 19.7122 12.5066 19.8828C12.5066 19.9638 12.524 20.0187 12.5626 20.0349L12.622 20.0313C12.7363 19.9825 12.9173 19.6915 13.0638 19.3248C13.1655 19.0645 13.2417 18.7813 13.2417 18.6104C13.2417 18.53 13.2252 18.4748 13.1865 18.4594ZM10.3554 16.6653C10.2077 16.6653 10.0901 16.7354 10.0901 16.8239C10.0901 16.9119 10.2077 16.981 10.3554 16.981C10.5052 16.981 10.6218 16.9119 10.6218 16.8239C10.6218 16.7354 10.5052 16.6653 10.3554 16.6653ZM9.41379 18.6255L9.45973 18.6213C9.53957 18.5821 9.66032 18.365 9.75136 18.0941C9.84773 17.8058 9.9004 17.4962 9.80711 17.4632L9.76201 17.4679C9.68076 17.508 9.5603 17.7246 9.47009 17.9952C9.37204 18.2837 9.32246 18.5933 9.41379 18.6255ZM9.66031 20.1167C9.73875 20.0117 9.75444 19.8935 9.69617 19.8492L9.62838 19.8346C9.57179 19.8419 9.50427 19.8895 9.45385 19.9599C9.3754 20.0649 9.35972 20.1828 9.41771 20.2263L9.48578 20.2422C9.54209 20.2336 9.61045 20.1865 9.66031 20.1167ZM9.57011 21.75L9.56366 21.7461L9.53425 21.743C9.42835 21.7676 9.50287 22.2288 9.5575 22.4714C9.6351 22.8101 9.74016 23.0835 9.81299 23.1289L9.81916 23.1334L9.84801 23.1364C9.95559 23.1118 9.87939 22.6484 9.82504 22.4081C9.748 22.0674 9.64407 21.7957 9.57011 21.75ZM8.50331 22.3691C8.41786 22.3691 8.34895 22.4324 8.34895 22.5114C8.34895 22.5865 8.41786 22.6498 8.50331 22.6498C8.58819 22.6498 8.65935 22.5865 8.65935 22.5114C8.65963 22.4324 8.58847 22.3691 8.50331 22.3691ZM11.1244 25.7163C11.0771 25.7161 11.0317 25.7345 10.9979 25.7676C10.9642 25.8007 10.9449 25.8458 10.9442 25.8931C10.9442 25.9883 11.0252 26.0671 11.1244 26.0671C11.1714 26.0679 11.2169 26.05 11.2508 26.0174C11.2847 25.9848 11.3043 25.9401 11.3053 25.8931C11.3047 25.8457 11.2853 25.8005 11.2513 25.7673C11.2174 25.7342 11.1718 25.7159 11.1244 25.7163ZM19.9851 30.3796C19.9907 30.3883 20.007 30.4175 20.0316 30.4147L20.042 30.4141L20.0611 30.3855L20.2235 29.8902L20.3504 29.5602L20.4589 29.3092C20.4922 29.2249 20.4922 29.1686 20.4594 29.1358C20.4073 29.0882 20.2997 29.1288 20.2866 29.1335C20.2779 29.1406 19.9812 29.6359 19.9812 29.6359C19.9232 29.7244 19.9014 29.8437 19.9014 29.9664C19.9014 30.1412 19.9451 30.3158 19.9851 30.3796ZM20.7264 32.8539L20.7323 32.804C20.7362 32.7746 20.8253 32.0857 20.6135 31.8196C20.5919 31.7907 20.5645 31.7667 20.533 31.7491C20.5015 31.7315 20.4667 31.7207 20.4308 31.7173C20.3673 31.7115 20.3235 31.7299 20.2995 31.77C20.1703 31.9812 20.6771 32.7769 20.6995 32.8113L20.7264 32.8539ZM21.9128 34.1644C21.8886 34.1641 21.8646 34.1686 21.8422 34.1776C21.8197 34.1866 21.7993 34.1999 21.782 34.2169C21.7647 34.2338 21.751 34.2539 21.7415 34.2762C21.732 34.2984 21.727 34.3223 21.7268 34.3465C21.7268 34.4488 21.81 34.5281 21.9128 34.5281C21.961 34.5281 22.0073 34.5089 22.0414 34.4748C22.0755 34.4407 22.0946 34.3945 22.0946 34.3462C22.0946 34.298 22.0755 34.2518 22.0414 34.2177C22.0073 34.1836 21.961 34.1644 21.9128 34.1644ZM19.1195 31.9457C19.0324 31.9457 18.9581 32.0135 18.9581 32.0972C18.9581 32.1832 19.0326 32.2493 19.1195 32.2493C19.2086 32.2493 19.2803 32.1832 19.2803 32.0972C19.2803 32.0135 19.2086 31.9457 19.1195 31.9457ZM21.155 34.6323L21.1354 34.6278C21.039 34.6278 20.6743 34.9469 20.3633 35.2651C20.3359 35.2943 19.6607 35.9868 19.7501 36.077L19.7551 36.0826L19.777 36.0871C19.8745 36.0871 20.2387 35.7669 20.5479 35.4503C20.5771 35.4209 21.2534 34.7309 21.1612 34.6373L21.155 34.6323ZM19.1276 36.5045C19.0713 36.5045 18.983 36.5572 18.9043 36.6359C18.8102 36.73 18.7418 36.8603 18.7923 36.9138L18.7956 36.9172L18.7923 36.9138L18.8421 36.9317C18.8996 36.9317 18.9881 36.8802 19.0665 36.7998C19.1584 36.7045 19.229 36.5771 19.1766 36.523L19.1276 36.5045ZM18.2381 37.7862C18.1689 37.7862 18.0712 37.843 17.9857 37.9296C17.8964 38.0192 17.8451 38.1184 17.8451 38.1873C17.8451 38.2137 17.8521 38.235 17.8686 38.2498L17.9317 38.2739C17.9997 38.2739 18.1003 38.2187 18.1841 38.1316C18.3082 38.0047 18.358 37.8688 18.3017 37.81L18.2381 37.7862ZM13.588 31.3307C13.4546 31.3307 13.3462 31.4067 13.3462 31.5025C13.3462 31.5977 13.4549 31.6711 13.588 31.6711C13.7224 31.6711 13.8297 31.5977 13.8297 31.5025C13.83 31.4067 13.7224 31.3307 13.588 31.3307ZM15.5574 31.4686C15.4627 31.4686 15.389 31.5196 15.389 31.5868C15.389 31.6498 15.4627 31.7017 15.5574 31.7017C15.6487 31.7017 15.7244 31.6495 15.7244 31.5868C15.7244 31.521 15.6487 31.4686 15.5574 31.4686ZM17.9611 32.2729L17.9756 32.2505C18.0028 32.1373 17.4358 31.9605 17.1327 31.8837C16.7688 31.7907 16.3362 31.7162 16.2407 31.7737L16.234 31.7781L16.2186 31.8017C16.1911 31.916 16.7578 32.0905 17.0615 32.1698C17.4251 32.2611 17.8577 32.3334 17.9546 32.2765L17.9611 32.2729Z" fill="white"/>
</svg>
