<svg width="50" height="46" viewBox="0 0 50 46" fill="none" xmlns="http://www.w3.org/2000/svg">
<path d="M41.4565 12.6955C41.3846 12.6858 34.056 11.6741 24.9622 10.7672C15.8703 11.6741 8.54365 12.6858 8.4718 12.6955L7.97468 12.7654L10.9089 17.789C10.9322 18.4648 11.103 23.0302 11.5827 26.9935C11.8565 29.2578 12.3497 30.452 15.68 31.6307C18.6977 32.6968 19.958 33.0464 21.1775 33.3842C21.6824 33.5241 22.028 33.6347 22.362 33.7415C22.964 33.9338 23.531 34.1144 24.8884 34.4193L24.968 34.4348L25.0399 34.4193C26.3992 34.1144 26.9662 33.9338 27.5682 33.7415C27.9022 33.6347 28.2479 33.526 28.7527 33.3842C29.9703 33.0464 31.2306 32.6968 34.2502 31.6307C37.5825 30.454 38.0757 29.2578 38.3495 26.9935C38.8272 23.0302 39 18.4648 39.0233 17.789L41.9575 12.7673L41.4565 12.6955ZM30.817 18.2473V14.517H38.1941L37.464 15.7675H31.0131V16.9191H36.7882L36.6329 17.1851L36.6057 18.4415H31.0131V22.2728L36.528 22.2709L36.5241 22.4631H25.0651V25.1895H36.4698L36.4659 25.3798H25.0593V27.4033H36.3591C36.3571 27.4227 36.3299 27.5489 36.3202 27.5916L25.0612 27.5936V31.5317H24.8671L24.8651 26.4789H19.1094V30.4054C18.3016 30.2452 17.5014 30.0489 16.7112 29.817C15.715 29.5063 15.0586 29.2364 14.6159 28.9762H18.9191V27.8227H13.6702C13.6393 27.7024 13.6114 27.5813 13.5867 27.4596C13.5271 27.0713 13.4947 26.6794 13.4896 26.2867H18.9171V22.4554H13.408C13.4077 22.3913 13.4064 22.3272 13.4042 22.2631H24.869V19.5503L13.3498 19.5523C13.3495 19.4888 13.3482 19.4254 13.3459 19.362L24.8671 19.36V17.3385L13.3032 17.3443C13.3032 17.3443 13.2935 17.1735 13.2799 17.1521L24.8671 17.1463V14.517H25.0651V18.2473H30.817ZM25.2146 31.5317V27.7567H36.3047C36.1125 28.5004 35.6911 29.0539 33.2288 29.8209C32.1238 30.1646 30.5063 30.485 29.0693 30.7549C27.6129 31.0287 26.273 31.2773 25.2146 31.5317ZM36.4736 25.0109H25.2263V22.6398H36.5222L36.4736 25.0109ZM11.74 14.517H24.7059V16.9754C24.3719 16.9754 15.1616 16.9696 13.1711 16.9754L11.74 14.517ZM24.7078 22.0903H13.4003L13.3537 19.7309L24.7078 19.729V22.0903ZM21.3057 32.9182C20.0939 32.5822 18.8414 32.2347 15.8412 31.1744C12.7381 30.0772 12.3225 29.0908 12.0623 26.9353C11.5807 22.9525 11.4099 18.29 11.3924 17.7716L11.3866 17.6492L8.75725 13.146C14.1249 12.4297 19.504 11.8018 24.8923 11.2624V14.3228H11.4021L13.1071 17.2395L13.1323 18.3464L13.2119 22.366L13.2721 25.2827C13.2877 26.2168 13.3032 27.011 13.3945 27.5004C13.6119 28.5354 13.8372 29.1335 16.649 30.0054C17.7404 30.3452 19.2997 30.6578 20.8299 30.9452C22.3484 31.2288 23.768 31.5006 24.8884 31.7764V33.9144C24.0834 33.7449 23.288 33.5323 22.5057 33.2774C22.1717 33.1726 21.8222 33.0599 21.3057 32.9182ZM38.5398 17.6492L38.5359 17.7716C38.5184 18.29 38.3456 22.9525 37.864 26.9353C37.6038 29.0888 37.1902 30.0753 34.0851 31.1744C31.083 32.2347 29.8305 32.5822 28.6207 32.9182C28.1042 33.0619 27.7566 33.1726 27.4187 33.2794C26.8478 33.4619 26.3021 33.6347 25.0341 33.9163V31.7803C26.1584 31.5045 27.5779 31.2307 29.1003 30.9472C30.6305 30.6598 32.1899 30.3452 33.2812 30.0073C36.093 29.1354 36.3164 28.5373 36.5358 27.5023C36.6271 27.0129 36.6426 26.2207 36.6581 25.2847L36.7183 22.368H36.7203L36.7999 18.3483L36.8251 17.2414L38.5301 14.3247H25.0341V11.2624C33.1608 12.0722 39.8894 12.9712 41.1691 13.146L38.5398 17.6492Z" fill="black"/>
<path d="M24.8989 40.3398H25.0445V45.3751H24.8989V40.3398Z" fill="black"/>
<path d="M24.9997 45.2372L24.8657 45.2353C18.4634 44.911 12.4338 42.3516 7.88403 38.0251C3.25654 33.6229 0.722391 27.8807 0.753461 21.8551C0.80395 11.4797 6.73444 3.97042 17.4575 0.710013C17.8284 0.750793 18.2672 0.869247 18.6304 1.02266L18.6712 1.04013L18.5022 1.0945C15.9952 1.86543 13.6864 2.95094 11.6454 4.31414L11.6241 4.28695C12.1484 3.78789 12.5115 3.31989 12.8649 2.69461L12.7407 2.77229L12.6572 2.81695L12.0163 3.16066C11.3289 3.52573 10.7832 3.81313 10.2512 4.28695C9.55598 4.90641 9.22004 5.61131 8.92293 6.23271L8.73457 6.61526C8.15007 7.16287 7.59469 7.74155 7.08398 8.3377C6.56124 8.9473 6.07679 9.5887 5.6334 10.2582L5.60233 10.2407C6.03536 9.24456 6.2179 8.41926 6.39073 7.52794L6.24703 7.69883L6.14993 7.79786L6.12469 7.81922L6.11886 7.82699L5.94604 7.99787C5.21589 8.72219 4.63915 9.29505 4.21583 10.5864C4.06459 11.0501 3.99174 11.5357 4.00028 12.0234C4.00028 12.1846 4.00416 12.3399 4.00999 12.4953C4.01387 12.639 4.01775 12.7768 4.01775 12.9147C4.01775 13.0351 4.01581 13.1536 4.0061 13.272C3.22353 15.1013 2.72641 17.0587 2.53416 19.0899H2.50115C2.38852 18.1189 2.17103 17.4684 1.97878 16.8936C1.87945 16.5973 1.78879 16.2981 1.70692 15.9965L1.61565 16.3305C1.36321 17.247 1.22145 17.9306 1.22145 18.6685C1.22145 19.0685 1.26223 19.4841 1.3535 19.9637C1.53021 20.9036 1.93995 21.6745 2.26812 22.2959L2.50892 22.7639C2.69534 25.1039 3.2779 27.3623 4.23524 29.4789L4.20612 29.4944L3.92649 29.0789C3.36723 28.2749 2.94778 27.9002 2.54193 27.5351C2.28172 27.3021 2.0351 27.0826 1.771 26.7642L1.74576 26.7331L1.73217 26.7176L1.63119 26.5894C1.58552 26.5234 1.54402 26.4547 1.50691 26.3836C1.68362 27.9584 2.05258 28.8808 2.99439 30.11C3.63909 30.9528 4.47021 31.4111 5.07802 31.7451L5.2256 31.8266C5.38484 31.9121 5.5363 31.9936 5.64505 32.0733C6.64059 33.6226 7.82591 35.0415 9.17343 36.2968L9.15402 36.324L8.63554 36.0153C8.00864 35.654 7.33676 35.3772 6.63734 35.1919C6.29169 35.0909 5.96351 34.9958 5.58485 34.8249L5.20424 34.6424C6.05284 36.0153 6.78881 36.6697 8.20444 37.3124C9.08217 37.7105 9.85697 37.7998 10.4784 37.8717L10.6027 37.8853C10.8279 37.9105 11.0396 37.9319 11.1833 37.9824C12.658 39.0883 14.2487 40.0304 15.9273 40.7923L15.9176 40.8233C15.4287 40.6741 14.9277 40.5676 14.4204 40.5049C13.8299 40.4253 13.2318 40.4188 12.6397 40.4855C12.2069 40.5402 11.7689 40.5382 11.3367 40.4796L11.193 40.4622C12.4882 41.3263 13.5174 41.7419 14.7253 41.8836C15.8244 42.0118 16.5584 41.8972 17.1507 41.8059L17.3177 41.7788C17.6167 41.7302 17.9002 41.6855 18.1973 41.6972C19.3994 42.1128 20.6266 42.437 21.8481 42.6623L21.8461 42.6953C21.615 42.6916 21.3838 42.6949 21.1529 42.705C20.0285 42.7536 19.3819 42.9633 18.6983 43.1827C18.4095 43.2795 18.1174 43.3663 17.8225 43.4429L17.5487 43.5051L17.4672 43.5206H17.4711L17.2847 43.5614C18.7572 44.083 20.3327 44.2467 21.8811 44.0391C22.9122 43.8973 23.5919 43.5963 24.1919 43.3322C24.4308 43.2274 24.6444 43.1342 24.8618 43.0565L25.0017 43.0487L24.9978 42.8565H24.8677C23.5848 42.7858 22.3098 42.6098 21.0558 42.3302C20.7761 42.039 20.5684 41.7729 20.3664 41.5185C20.0013 41.0564 19.6227 40.5767 18.8168 39.9243C18.3721 39.565 17.3662 39.0291 15.7428 38.2853L15.5408 38.1882C15.9292 38.7999 16.8652 39.9806 17.6342 40.6292C18.3197 41.2059 18.8304 41.5749 19.3411 41.8584L19.3256 41.8914C17.2515 41.2758 15.264 40.3995 13.4106 39.2834C13.2156 38.9028 13.0298 38.5176 12.8533 38.128C12.5738 37.4918 12.2547 36.8737 11.8979 36.2774C11.4221 35.5084 10.2026 34.3919 9.69968 33.9472L9.5754 33.8307L9.73075 34.355C9.95213 35.1337 10.257 36.2017 10.7036 36.891C10.9949 37.3396 11.2571 37.6911 11.5289 37.996L11.5056 38.0212C10.9015 37.5785 10.3177 37.1088 9.756 36.6134C8.91128 35.8657 8.12482 35.0579 7.41021 34.2054L7.2568 33.0617C7.17136 32.3684 7.09174 31.714 6.91892 30.945C6.71696 30.0498 5.9441 28.6206 5.62174 28.0458L5.54795 27.8924L5.52659 28.3604C5.50717 28.7643 5.48387 29.2731 5.48387 29.776C5.48387 30.2654 5.50523 30.7508 5.57708 31.1276C5.63145 31.4169 5.69942 31.6849 5.7868 31.9431L5.75573 31.9567C4.70794 30.3246 3.90517 28.5477 3.37305 26.6826L3.43713 26.3933L3.67404 25.4728C3.86823 24.7563 4.05271 24.0766 4.11679 23.2901C4.13232 23.0882 4.14203 22.861 4.14203 22.6202C4.14203 21.8803 4.0663 20.991 3.92649 20.1171L3.90707 19.9928L3.83133 20.1657C3.53811 20.8667 2.9905 22.1736 2.84292 23.028C2.8136 23.1966 2.79092 23.3663 2.77495 23.5368H2.74777C2.49626 21.478 2.56109 19.393 2.94001 17.3538C3.14144 16.9556 3.39767 16.5876 3.70123 16.2606C3.97892 15.9401 4.29544 15.579 4.76732 14.841C5.25085 14.0876 5.68388 13.1438 6.09168 11.9612C6.02286 12.0277 5.95489 12.095 5.88778 12.1632C5.75185 12.2933 5.59456 12.4234 5.43144 12.5593C5.01782 12.9031 4.50128 13.3283 3.99057 14.0332L3.80026 14.3129L3.77114 14.2993C4.39292 12.5923 5.25895 10.9845 6.34218 9.52613C6.76357 9.24067 7.03543 9.08144 7.34419 8.94163C7.79276 8.73967 8.25687 8.52995 8.95594 7.99011C9.67202 7.42165 10.3267 6.77994 10.9095 6.07542L10.7328 6.16086C10.471 6.26997 10.2033 6.36398 9.93077 6.44243C9.51715 6.57254 9.1579 6.68128 8.55398 7.05412L8.53262 7.02888L8.56563 6.99781C8.56563 6.99781 8.61029 6.95315 8.61612 6.96091L9.06275 6.52982C10.0961 5.5931 11.2128 4.75266 12.3989 4.01897L13.2378 3.81119C13.9291 3.6403 14.5816 3.47913 15.4263 3.14124C16.3739 2.76258 16.8108 2.5412 17.1643 2.36449L17.2303 2.33148C17.5177 2.18778 17.9857 1.95087 18.4032 1.79164H18.1507H18.0944C17.5798 1.79941 17.0943 1.86931 16.4186 2.03631V2.03437L16.4108 2.03631V2.02466L16.3972 2.00524C17.0943 1.72561 17.8187 1.47123 18.5488 1.24597L18.5682 1.24209L18.8809 1.14888L18.8867 1.14694L18.8945 1.15082C19.145 1.28481 19.3683 1.44404 19.5411 1.61299L19.5605 1.6324L19.5333 1.64017C14.9194 3.27523 11.5173 5.46567 8.82584 8.53577C5.9305 11.8389 4.34787 15.8353 4.25078 20.088C4.13038 25.3893 6.27421 30.4168 10.2861 34.2443C14.1039 37.8872 19.2828 40.1709 24.8677 40.6738H24.9958V40.2155C19.4829 39.7378 14.3738 37.4969 10.6085 33.9064C6.69172 30.1702 4.60032 25.267 4.71877 20.0996C4.81392 15.9576 6.35577 12.0642 9.17732 8.84453C11.795 5.85793 15.0923 3.68303 20.0188 1.96252L20.0169 1.9567C19.993 1.90659 19.9651 1.85853 19.9334 1.813L19.9275 1.80329C19.8574 1.70049 19.7788 1.60371 19.6926 1.51395C19.4503 1.27772 19.1708 1.08289 18.8653 0.937213C18.4955 0.761182 18.1036 0.635774 17.7002 0.564373L17.541 0.539128L17.4381 0.529419C12.228 2.11205 8.21997 4.64814 5.37707 8.00758C2.21958 11.7399 0.603937 16.3984 0.576751 21.8551C0.54568 27.9429 3.10896 33.7433 7.79276 38.1824C12.3931 42.5419 18.4847 45.111 24.9473 45.4178H24.99L24.9997 45.2372ZM2.48756 22.7212L2.44095 22.5775L2.48561 22.6921C2.48737 22.7017 2.48802 22.7114 2.48756 22.7212ZM24.1162 43.175C23.5278 43.4352 22.8617 43.7284 21.8558 43.8663C20.5896 44.0407 19.3011 43.9548 18.0692 43.6138C20.0924 43.6031 22.1126 43.4565 24.1162 43.175ZM17.4924 39.8116C18.5061 40.6428 19.5566 41.4894 20.6674 42.2196C19.5838 41.9127 18.7469 41.3399 17.7449 40.4952C17.1817 40.0194 16.5623 39.2893 16.1273 38.7164C16.5759 39.0679 17.0244 39.4291 17.4924 39.8116ZM17.4031 41.5904L17.1254 41.6312C16.3409 41.7766 15.5389 41.8028 14.7466 41.7088C13.7679 41.5943 12.964 41.3166 11.9678 40.736C13.7543 41.2059 14.7757 41.3069 15.8496 41.4117C16.3312 41.4583 16.8264 41.5069 17.4031 41.5904ZM10.0434 34.6928C10.8066 35.9609 11.8979 37.7765 12.9096 38.9417C12.0319 38.3552 11.4901 37.7765 10.8532 36.7978C10.4706 36.2075 10.1929 35.3181 9.98125 34.588L10.0434 34.6928ZM10.3405 37.6756C9.75988 37.6057 9.05886 37.5047 8.27823 37.1493C7.13252 36.6289 6.43733 36.091 5.77321 35.1705C6.8626 35.9745 8.86662 37.0697 10.3405 37.6756ZM4.98287 31.4926C4.41196 31.1742 3.6954 30.7372 3.1342 30.0032C2.37493 29.0109 2.02927 28.2963 1.81373 27.1914C2.59436 28.7177 3.88377 30.3877 4.98287 31.4926ZM5.68583 28.7954C5.98682 30.2459 6.44704 32.2577 7.06844 33.753C6.41985 32.9665 5.97517 32.2849 5.75185 31.0965C5.68435 30.6695 5.65446 30.2374 5.66252 29.8051C5.66252 29.4595 5.67417 29.1119 5.68583 28.7954ZM3.67793 21.3444C3.48956 22.5717 3.26236 24.0591 3.26236 25.9486L3.26431 26.0651C3.07789 25.4049 2.93419 24.7699 2.93419 24.0455C2.93419 23.7348 2.96137 23.4086 3.02157 23.0552C3.13226 22.4202 3.47015 21.5192 3.7556 20.8181L3.67793 21.3444ZM2.44872 22.2571C2.05063 20.7832 1.76906 18.2529 1.74576 16.748L1.81178 16.9499C2.0351 17.6179 2.28754 18.3772 2.37104 19.62C2.406 20.1307 2.41182 20.556 2.41765 20.9618C2.4172 21.3938 2.42756 21.8257 2.44872 22.2571ZM5.60233 12.7652C5.28192 13.573 4.98093 14.1808 4.61779 14.7459C4.15174 15.4722 3.84104 15.8295 3.56724 16.144C3.47015 16.2567 3.37305 16.3693 3.27402 16.4916C3.89153 15.1537 4.56925 14.2061 5.22948 13.2914L5.60233 12.7652ZM4.27797 12.5263C4.66634 10.9476 5.25861 9.50477 6.0742 8.15711C5.87034 9.18241 5.50804 10.1697 5.00034 11.0835C4.65081 11.7457 4.44691 12.1535 4.27797 12.5263ZM10.1133 6.70264C9.71702 7.11339 9.29337 7.49682 8.84526 7.85029C8.1656 8.37848 7.7112 8.58238 7.2704 8.78239C7.15388 8.83482 7.03543 8.8892 6.91503 8.94745C7.99083 8.01147 9.08799 7.33375 9.85503 6.86188L10.1133 6.70264ZM10.4997 5.0404C9.93465 5.51616 9.55598 5.84239 9.22004 6.14532C10.1385 4.97243 11.1891 4.14908 11.9309 3.57234L12.2435 3.32766C11.8066 3.92188 11.3211 4.34521 10.4997 5.0404ZM17.2613 2.11982L17.0827 2.2072C16.5228 2.49294 15.9485 2.74961 15.3622 2.97618C14.8264 3.19001 14.2769 3.36776 13.7174 3.50826C13.9524 3.40534 14.1835 3.30242 14.4087 3.1995C15.3797 2.76063 16.2477 2.37032 17.2613 2.11982Z" fill="black"/>
<path d="M24.9868 45.4179H25.0296C31.4921 45.1131 37.5838 42.544 42.1841 38.1825C46.8679 33.7414 49.4292 27.943 49.4001 21.8552C49.3729 16.3986 47.7573 11.74 44.5998 8.00771C41.7569 4.64826 37.7508 2.11411 32.5407 0.529541L32.4378 0.53925L32.2766 0.564495C31.8921 0.63246 31.4611 0.76645 31.1135 0.935393C30.8083 1.08158 30.5289 1.27636 30.2862 1.51213C30.1993 1.60178 30.12 1.69857 30.0493 1.80147L30.0435 1.81118C30.0117 1.85737 29.9838 1.90608 29.96 1.95682L29.958 1.96265C34.8846 3.68315 38.1819 5.85999 40.7995 8.84465C43.623 12.0643 45.1649 15.9577 45.2581 20.0998C45.3765 25.2671 43.2832 30.1703 39.3684 33.9065C35.605 37.497 30.4959 39.738 24.983 40.2157L24.981 40.6739H25.1092C30.694 40.171 35.873 37.8874 39.6907 34.2444C43.7026 30.417 45.8465 25.3894 45.7241 20.0901C45.627 15.8373 44.0444 11.841 41.151 8.53784C38.4596 5.46773 35.0574 3.2773 30.4435 1.64224L30.4183 1.63447L30.4377 1.61505C30.6105 1.44611 30.8338 1.28687 31.0843 1.15288L31.0902 1.149L31.096 1.15094L31.4086 1.24415L31.4261 1.24804C32.1562 1.47329 32.8825 1.72962 33.5777 2.00731L33.566 2.02673V2.03838L33.5583 2.03644V2.03838C33.0113 1.89103 32.4487 1.80954 31.8824 1.79564H31.8261H31.5737C31.9892 1.95488 32.4592 2.18985 32.7485 2.33549L32.8126 2.3685C33.1641 2.54521 33.601 2.76658 34.5506 3.14525C35.3972 3.48313 36.0497 3.64431 36.7391 3.8152L37.576 4.02103C38.78 4.76671 39.9004 5.61143 40.9122 6.53188L41.3588 6.96298C41.3646 6.95521 41.4112 6.99987 41.4112 6.99987L41.4423 7.03094L41.4229 7.05424C40.819 6.6814 40.4597 6.57072 40.0461 6.44255C39.8092 6.36876 39.5626 6.29303 39.2441 6.16098L39.0693 6.07554C39.65 6.78193 40.3049 7.42385 41.0228 7.99023C41.72 8.53007 42.186 8.73979 42.6346 8.94175C42.9434 9.08156 43.2152 9.23886 43.6366 9.52625C44.7191 10.9851 45.5851 12.5928 46.2077 14.2994L46.1766 14.313L45.9863 14.0314C45.4756 13.3265 44.961 12.9012 44.5474 12.5575C44.3899 12.4311 44.237 12.2989 44.0891 12.1614L43.8871 11.9594C44.2949 13.142 44.7299 14.0877 45.2115 14.8392C45.6834 15.5752 45.9999 15.9383 46.2776 16.2568C46.5397 16.5597 46.7669 16.8199 47.0407 17.3501C47.4156 19.391 47.4798 21.4768 47.231 23.5369H47.1961C47.1798 23.3666 47.1578 23.1969 47.13 23.0281C46.9825 22.1737 46.4349 20.8668 46.1416 20.1658L46.0659 19.993L46.0465 20.1172C45.9047 20.9911 45.8309 21.8805 45.8309 22.6203C45.8309 22.8631 45.8387 23.0883 45.8542 23.2903C45.9183 24.0767 46.1009 24.7564 46.297 25.4729L46.5358 26.3934L46.5999 26.6827C46.0678 28.5478 45.265 30.3248 44.2172 31.9569L44.1862 31.9433C44.2736 31.685 44.3435 31.417 44.3978 31.1277C44.4686 30.6808 44.4998 30.2285 44.491 29.7761C44.491 29.2732 44.4677 28.7644 44.4503 28.3605L44.4289 27.8925L44.3532 28.0459C44.0289 28.6207 43.2579 30.0499 43.056 30.9451C42.8832 31.7141 42.8016 32.3685 42.7162 33.0618L42.5628 34.2056C41.842 35.0656 41.0579 35.8705 40.217 36.6135C39.6694 37.099 39.081 37.5728 38.4693 38.0213L38.446 37.9961C38.7178 37.6912 38.98 37.3417 39.2713 36.8912C39.7179 36.2037 40.0228 35.1357 40.2442 34.3551L40.3995 33.8308L40.2752 33.9473C39.7723 34.392 38.5528 35.5086 38.077 36.2775C37.6848 36.9106 37.411 37.5009 37.1216 38.1281C36.9488 38.501 36.7701 38.8874 36.5643 39.2836C34.7114 40.3992 32.7245 41.2755 30.6513 41.8915L30.6377 41.8585C31.1484 41.575 31.6591 41.208 32.3446 40.6293C33.1136 39.9807 34.0496 38.8 34.4379 38.1883L34.236 38.2854C32.6126 39.0292 31.6067 39.5651 31.162 39.9244C30.3542 40.5749 29.9775 41.0565 29.6104 41.5187C29.4085 41.775 29.2007 42.041 28.9211 42.3304C27.6453 42.6139 26.3656 42.7887 25.1092 42.8566H24.9791L24.9752 43.0489L25.115 43.0566C25.3325 43.1343 25.548 43.2275 25.7849 43.3324C26.383 43.5984 27.0627 43.8975 28.0938 44.0392C29.6428 44.2468 31.219 44.0831 32.6922 43.5615L32.5038 43.5207H32.5077L32.4262 43.5052L32.1524 43.4411C31.8574 43.365 31.5653 43.2782 31.2766 43.1809C30.5911 42.9615 29.9464 42.7518 28.822 42.7032C28.5911 42.6931 28.3599 42.6898 28.1288 42.6935L28.1249 42.6605C29.3649 42.4306 30.5859 42.108 31.7776 41.6954C32.0727 41.6837 32.3563 41.7303 32.6572 41.7769L32.8242 41.8041C33.4165 41.8954 34.1505 42.01 35.2497 41.8818C36.4594 41.74 37.4886 41.3245 38.7839 40.4603L38.6382 40.4778C38.0576 40.5536 37.7061 40.5186 37.3352 40.4836C36.7438 40.4169 36.1463 40.4234 35.5565 40.5031C35.0493 40.5669 34.5485 40.6734 34.0593 40.8215L34.0476 40.7905C35.7262 40.0274 37.3174 39.0853 38.7936 37.9806C38.9373 37.932 39.1489 37.9087 39.3723 37.8835L39.4985 37.8699C40.1199 37.798 40.8927 37.7087 41.7705 37.3106C43.1861 36.6679 43.9221 36.0134 44.7707 34.6405L44.3901 34.8231C44.0493 34.9725 43.6974 35.0952 43.3376 35.1901C42.7802 35.3532 42.2054 35.5202 41.3394 36.0134L40.8209 36.3222L40.8015 36.295C42.1485 35.0392 43.3337 33.6204 44.3299 32.0714C44.465 31.9804 44.6057 31.8981 44.7512 31.8248L44.8988 31.7433C45.5047 31.4093 46.3378 30.951 46.9825 30.1082C47.9223 28.879 48.2913 27.9547 48.4719 26.3759C48.4348 26.447 48.3933 26.5158 48.3476 26.5818L48.2466 26.7099C48.2419 26.7149 48.2373 26.7201 48.233 26.7254L48.2078 26.7565C47.9418 27.0769 47.6951 27.2964 47.4369 27.5274C47.031 27.8925 46.6096 28.2673 46.0523 29.0712L45.7707 29.4868L45.7416 29.4713C46.7009 27.3546 47.2796 25.0962 47.4679 22.7563C47.4679 22.7504 47.7087 22.2883 47.7087 22.2883C48.0369 21.6688 48.4466 20.8959 48.6234 19.9561C48.7127 19.4784 48.7554 19.0628 48.7554 18.6608C48.7554 17.9229 48.6117 17.2394 48.3612 16.3228L48.2719 15.9888C48.1887 16.2903 48.0974 16.5894 47.9981 16.886C47.741 17.5958 47.5658 18.3327 47.4757 19.0822H47.4427C47.2564 17.0784 46.7599 15.1157 45.9707 13.2644C45.9629 13.148 45.959 13.0314 45.9591 12.9148C45.9591 12.777 45.963 12.6391 45.9688 12.4973C45.9727 12.342 45.9785 12.1866 45.9785 12.0254C45.9785 11.5905 45.9416 11.1264 45.7649 10.5865C45.3396 9.29517 44.7629 8.72426 44.0328 7.998L43.8619 7.82905L43.8541 7.82129L43.8289 7.79798L43.7318 7.69895L43.5881 7.52806C43.7609 8.41938 43.9434 9.24662 44.3765 10.2409L44.3454 10.2583C43.9014 9.58927 43.4169 8.9479 42.8948 8.33782C42.3762 7.73357 41.8245 7.15854 41.2423 6.61538L41.0539 6.23283C40.7568 5.61143 40.4209 4.90653 39.7237 4.28707C39.1917 3.81325 38.6479 3.52391 37.9586 3.16078L37.3197 2.81707L37.2362 2.77241L37.1119 2.69473C37.4653 3.32002 37.8285 3.78801 38.3528 4.28707L38.3314 4.31426C36.2131 2.91472 33.9027 1.8302 31.4727 1.09463L31.3057 1.0422L31.3484 1.02472C31.7116 0.869369 32.1485 0.752857 32.5213 0.712077C43.2424 3.97249 49.1729 11.4817 49.2253 21.8572C49.2564 27.8828 46.7223 33.6249 42.0948 38.0272C37.5449 42.3537 31.5154 44.915 25.1131 45.2374L24.9791 45.2393L24.9868 45.4179ZM47.4912 22.6922C47.5068 22.6553 47.5223 22.6184 47.5359 22.5776L47.4893 22.7213L47.4912 22.6922ZM31.9077 43.6139C30.6761 43.9568 29.3872 44.0428 28.121 43.8664C27.1151 43.7285 26.4471 43.4333 25.8587 43.1751C27.6686 43.4431 29.8299 43.5984 31.9077 43.6139ZM33.8496 38.7165C33.4126 39.2894 32.7951 40.0195 32.232 40.4953C31.23 41.34 30.393 41.9129 29.3095 42.2197C30.4183 41.4895 31.4688 40.6429 32.4844 39.8118C32.9524 39.4292 33.401 39.068 33.8496 38.7165ZM34.1272 41.4099C35.4392 41.3046 36.7387 41.0784 38.0091 40.7341C37.0129 41.3148 36.2109 41.5925 35.2302 41.707C34.1564 41.8313 33.4631 41.7245 32.8534 41.6293L32.5757 41.5886C33.1505 41.507 33.6457 41.4585 34.1272 41.4099ZM39.9956 34.59C39.7839 35.3202 39.5062 36.2096 39.1237 36.7999C38.4868 37.7786 37.945 38.3573 37.0672 38.9437C38.079 37.7786 39.1703 35.961 39.9335 34.6949L39.9956 34.59ZM44.2036 35.1707C43.5395 36.0911 42.8463 36.629 41.6986 37.1494C40.918 37.5048 40.217 37.6058 39.6363 37.6757C41.1122 37.0698 43.1142 35.9746 44.2036 35.1707ZM48.1631 27.1915C47.9476 28.2964 47.6 29.013 46.8427 30.0033C46.2815 30.7374 45.5649 31.1743 44.994 31.4928C46.095 30.3878 47.3844 28.7178 48.1631 27.1915ZM44.3143 29.8053C44.3143 30.2752 44.291 30.7374 44.225 31.0966C44.0017 32.285 43.557 32.9666 42.9084 33.7531C43.5298 32.2579 43.99 30.2461 44.291 28.7955C44.3046 29.112 44.3143 29.4596 44.3143 29.8053ZM46.2212 20.8202C46.5067 21.5212 46.8465 22.4223 46.9553 23.0572C47.0155 23.4107 47.0427 23.7369 47.0427 24.0476C47.0427 24.77 46.899 25.4069 46.7125 26.0672L46.7145 25.9506C46.7145 24.0593 46.4873 22.5718 46.2989 21.3465C46.2735 21.171 46.2476 20.9956 46.2212 20.8202ZM47.5553 21.3523L47.5573 20.96C47.5611 20.5561 47.5709 20.1289 47.6039 19.6182C47.6854 18.3754 47.9398 17.618 48.1631 16.9481L48.2291 16.7461C48.2039 18.2492 47.9243 20.7814 47.5262 22.2552C47.5456 21.9465 47.5534 21.6494 47.5553 21.3523ZM44.7493 13.2916C45.4076 14.2081 46.0853 15.1538 46.7028 16.4918C46.6038 16.3694 46.5067 16.2568 46.4096 16.1442C45.5331 15.1498 44.8437 14.0051 44.3745 12.7653C44.4988 12.944 44.625 13.1187 44.7493 13.2916ZM44.9765 11.0836C44.47 10.17 44.1078 9.18351 43.9027 8.15917C44.7182 9.50683 45.3125 10.9477 45.6989 12.5284C45.4741 12.039 45.2332 11.5571 44.9765 11.0836ZM40.1218 6.862C40.8908 7.33387 41.986 8.01159 43.0618 8.94757C42.9443 8.89048 42.8259 8.83545 42.7065 8.78251C42.142 8.54488 41.6122 8.23199 41.1316 7.85236C40.6841 7.49888 40.2611 7.11545 39.8655 6.70471L40.1218 6.862ZM37.7333 3.32778L38.0479 3.57246C38.7897 4.14726 39.8383 4.97255 40.7588 6.14545C40.3385 5.76988 39.9119 5.40152 39.4791 5.04052C38.6557 4.34533 38.1702 3.922 37.7333 3.32778ZM35.5681 3.19962C35.7934 3.30254 36.0245 3.40546 36.2594 3.50838C35.7006 3.36786 35.1517 3.1901 34.6166 2.9763C33.6767 2.60152 33.2418 2.38209 32.8942 2.20732C32.8358 2.17702 32.7769 2.14789 32.7174 2.11994C33.7292 2.37044 34.5991 2.76076 35.5681 3.19962Z" fill="black"/>
</svg>
