<svg width="50" height="18" viewBox="0 0 50 18" fill="none" xmlns="http://www.w3.org/2000/svg">
<g clip-path="url(#clip0)">
<path fill-rule="evenodd" clip-rule="evenodd" d="M14.0826 15.3958C12.5632 16.6387 10.6677 17.3244 8.70856 17.3396C4.12544 17.3396 0.000339514 13.5492 0.000339514 8.88132C-0.00995534 7.69129 0.213967 6.51097 0.65923 5.40816C1.1045 4.30537 1.76232 3.3019 2.59489 2.45544C4.14471 0.91462 6.22701 0.0349103 8.40701 0C10.5009 0 12.4894 0.571697 14.0968 1.95521C15.6393 0.692558 17.5694 0.00569744 19.5589 0.0114299C21.5484 0.0171623 23.4746 0.715131 25.0098 1.98665C26.5512 0.681188 28.5134 -0.014954 30.5289 0.0285845C32.4998 0.0395529 34.4074 0.728586 35.9342 1.98093C37.5642 0.70349 39.5768 0.0183552 41.6439 0.0371596C43.5475 0.0826708 45.3797 0.774898 46.8415 2.00094C48.2144 3.13274 49.2066 4.66223 49.6832 6.3811C50.1597 8.09996 50.0974 9.92462 49.5047 11.6066C48.912 13.2886 47.8176 14.7461 46.3708 15.7807C44.924 16.8153 43.1949 17.3766 41.4191 17.3882C39.4102 17.4219 37.4572 16.7221 35.9228 15.4187C34.3945 16.6561 32.4998 17.347 30.5374 17.3824C28.5103 17.422 26.5375 16.7223 24.9842 15.413C23.4282 16.6619 21.4993 17.3485 19.5078 17.3625C17.5213 17.3932 15.592 16.6938 14.0826 15.3958Z" fill="#231F20"/>
<path fill-rule="evenodd" clip-rule="evenodd" d="M12.1738 13.2119C11.3801 11.9217 10.9467 10.4407 10.9192 8.92415C10.8962 7.23156 11.3371 5.56522 12.1938 4.10762C11.0884 3.31197 9.76683 2.87599 8.40723 2.85846C5.24084 2.85846 2.87389 5.81984 2.87389 8.86126C2.87389 11.9685 5.69887 14.4382 8.70022 14.4382C9.96074 14.4212 11.1809 13.9894 12.1738 13.2091V13.2119Z" fill="white"/>
<path fill-rule="evenodd" clip-rule="evenodd" d="M14.0654 10.4963C14.2819 9.89082 14.3841 9.25007 14.3669 8.6069C14.3636 7.99837 14.2677 7.394 14.0824 6.81464C13.8968 7.38309 13.8008 7.97718 13.798 8.57548C13.792 9.22865 13.888 9.87875 14.0824 10.5021L14.0654 10.4963Z" fill="white"/>
<path fill-rule="evenodd" clip-rule="evenodd" d="M15.9659 13.2113C17.0682 14.0558 18.4268 14.492 19.8122 14.4462C21.0135 14.4085 22.1696 13.9768 23.1038 13.217C22.2474 11.7838 21.8088 10.1377 21.8378 8.46623C21.8788 6.934 22.3224 5.43995 23.1236 4.13562C22.0813 3.34711 20.818 2.90899 19.5135 2.88361C18.2285 2.8859 16.9821 3.32518 15.9773 4.12991C16.8501 5.61253 17.287 7.31321 17.2376 9.03508C17.1985 10.5172 16.7589 11.9609 15.9659 13.2113Z" fill="white"/>
<path fill-rule="evenodd" clip-rule="evenodd" d="M24.9783 10.5074C25.1838 9.90729 25.2933 9.27821 25.3027 8.6437C25.3057 8.03454 25.1977 7.43 24.984 6.85999C24.7958 7.44253 24.6998 8.05117 24.6996 8.66368C24.6718 9.29576 24.7685 9.92716 24.984 10.5217L24.9783 10.5074Z" fill="white"/>
<path fill-rule="evenodd" clip-rule="evenodd" d="M26.8588 13.2296C27.9609 14.0584 29.3058 14.4958 30.6823 14.473C31.9031 14.4375 33.0777 13.9962 34.0222 13.2181C33.2154 11.8996 32.778 10.3866 32.7562 8.83891C32.7489 7.19096 33.1938 5.57287 34.0421 4.16244C33.0254 3.34796 31.7635 2.90442 30.4632 2.90442C29.1629 2.90442 27.9011 3.34796 26.8843 4.16244C27.7519 5.58671 28.1915 7.23247 28.1503 8.90179C28.1225 10.4378 27.6758 11.9367 26.8588 13.2353V13.2296Z" fill="white"/>
<path fill-rule="evenodd" clip-rule="evenodd" d="M35.9111 10.516C36.1018 9.90651 36.1978 9.27113 36.1956 8.63223C36.1926 8.0293 36.0966 7.43053 35.9111 6.85712C35.7239 7.42164 35.6232 8.01152 35.6125 8.60653C35.6059 9.25415 35.7019 9.89865 35.8969 10.516H35.9111Z" fill="white"/>
<path fill-rule="evenodd" clip-rule="evenodd" d="M37.8203 13.2432C38.8434 14.0412 40.0983 14.4809 41.3934 14.4953C42.1519 14.4926 42.9025 14.3397 43.602 14.0452C44.3016 13.7507 44.9364 13.3204 45.4703 12.779C46.0041 12.2376 46.4264 11.5957 46.7129 10.89C46.9994 10.1844 47.1447 9.42889 47.1401 8.66682C47.1401 5.52248 44.4432 2.90125 41.3394 2.90125C40.0611 2.92201 38.8241 3.35939 37.8146 4.14755C38.63 5.50976 39.069 7.06587 39.0863 8.65539C39.0863 10.2819 38.5514 11.7997 37.8146 13.229L37.8203 13.2432Z" fill="white"/>
</g>
<defs>
<clipPath id="clip0">
<rect width="50" height="17.9012" fill="white"/>
</clipPath>
</defs>
</svg>
