<svg width="36" height="36" viewBox="0 0 36 36" fill="none" xmlns="http://www.w3.org/2000/svg">
<g clip-path="url(#clip0)">
<path d="M30.831 5.37372C29.196 3.73001 27.2512 2.42688 25.1093 1.53972C22.9674 0.652555 20.6707 0.198989 18.3524 0.205264C8.6215 0.205264 0.705254 8.1215 0.705254 17.8524C0.70549 21.3426 1.74062 24.7543 3.67976 27.6562C5.6189 30.5581 8.37494 32.8199 11.5995 34.1556C14.824 35.4913 18.3721 35.8408 21.7953 35.16C25.2184 34.4793 28.3628 32.7988 30.831 30.331C34.1403 27.0213 35.9994 22.5327 35.9994 17.8524C35.9994 13.172 34.1403 8.68341 30.831 5.37372ZM18.3524 34.8891C14.9828 34.8891 11.689 33.8899 8.88727 32.0179C6.08564 30.1459 3.90202 27.4851 2.61255 24.372C1.32309 21.259 0.985706 17.8335 1.64306 14.5287C2.30042 11.2239 3.92299 8.18823 6.30559 5.8056C8.68822 3.423 11.7239 1.80043 15.0287 1.14307C18.3335 0.485717 21.759 0.823099 24.872 2.11256C27.9851 3.40202 30.6459 5.58565 32.5179 8.38733C34.3899 11.189 35.3891 14.4829 35.3891 17.8524C35.3891 27.2462 27.7462 34.8891 18.3524 34.8891Z" fill="black"/>
<path d="M18.3522 27.6149C20.9414 27.6147 23.4245 26.5861 25.2553 24.7553C27.0861 22.9244 28.1148 20.4414 28.115 17.8522H18.3522V27.6149Z" fill="black"/>
<path d="M8.58957 17.8528H18.3523V8.09009C15.7631 8.09031 13.28 9.11894 11.4492 10.9498C9.61842 12.7806 8.58979 15.2636 8.58957 17.8528Z" fill="black"/>
<path d="M18.3525 1.51807C9.33181 1.51807 2.01806 8.83181 2.01806 17.8525C2.01806 26.8733 9.33181 34.1898 18.3525 34.1898C27.3733 34.1898 34.6898 26.8739 34.6898 17.8525C34.6898 8.83108 27.3739 1.51807 18.3525 1.51807ZM18.3525 28.2864C16.2889 28.2864 14.2716 27.6745 12.5557 26.528C10.8399 25.3815 9.50256 23.752 8.71281 21.8454C7.92312 19.9389 7.71651 17.8409 8.11909 15.817C8.52166 13.793 9.51539 11.9338 10.9746 10.4746C12.4338 9.01539 14.293 8.02167 16.317 7.61909C18.3409 7.21651 20.4389 7.42313 22.3454 8.21282C24.252 9.00257 25.8815 10.3399 27.028 12.0557C28.1745 13.7716 28.7864 15.7889 28.7864 17.8525C28.7864 20.6198 27.6872 23.2737 25.7304 25.2304C23.7737 27.1872 21.1198 28.2864 18.3525 28.2864Z" fill="black"/>
<path d="M18.8988 6.70893L20.0316 3.70698V6.70893H20.8926V2.40991H19.599L18.4223 5.48833H18.4351L17.2583 2.40991H15.9648V6.70893H16.8258V3.70698L17.9586 6.70893H18.8988Z" fill="white"/>
<path d="M30.4722 8.49792L28.8515 10.7919L31.3642 9.59954L32.0291 10.4208L28.0749 12.3381L27.2939 11.366L28.8494 9.09192L28.8402 9.07988L26.2921 10.1285L25.5041 9.16274L28.2009 5.69348L28.8664 6.51478L27.1771 8.72447L29.7585 7.61641L30.4722 8.49792Z" fill="white"/>
<path d="M10.6885 7.89662C10.3431 7.56104 9.80849 7.45908 9.30653 7.77056C9.38233 7.56356 9.38429 7.33673 9.31219 7.12844C9.09555 6.73404 9.02048 6.68519 8.8421 6.5351C8.26507 6.05152 7.65829 6.46429 7.22429 6.98188L5.12221 9.4797L8.42294 12.2494L10.6355 9.6128C11.1381 9.01028 11.2167 8.41348 10.6885 7.89662ZM6.4221 9.1002L7.68238 7.59852C7.82821 7.42507 8.15812 7.43213 8.37056 7.60989C8.6035 7.80597 8.60418 8.08351 8.4477 8.26972L7.20165 9.75656L6.4221 9.1002ZM9.89913 9.35017L8.5858 10.9155L7.76165 10.2245L9.08636 8.64642C9.17712 8.55101 9.30076 8.4937 9.43224 8.48608C9.56373 8.47841 9.69314 8.5211 9.79437 8.60535C10.045 8.82054 10.0698 9.14485 9.8956 9.3523L9.89913 9.35017Z" fill="white"/>
</g>
<defs>
<clipPath id="clip0">
<rect width="35.2941" height="35.2941" fill="white" transform="translate(0.705254 0.2052)"/>
</clipPath>
</defs>
</svg>
