<svg width="78" height="20" viewBox="0 0 78 20" fill="none" xmlns="http://www.w3.org/2000/svg">
<g clip-path="url(#clip0)">
<path d="M17.0625 0.649269C15.1858 0.632387 13.4135 1.58583 13.4135 1.58583C13.4135 1.58583 11.6279 2.67305 10.9756 4.30213C10.9419 4.46035 7.40445 11.3577 7.40445 11.3577C2.92045 10.0542 0.752566 12.6955 0.820895 13.715C1.9042 16.4471 7.20155 14.5036 7.73046 13.871C8.02323 13.7131 8.21189 13.9022 8.21189 13.9022C8.21189 13.9022 9.50922 14.7705 9.65583 14.8389C9.80234 14.9072 10.541 14.8077 10.541 14.8077C11.1154 14.7638 12.1403 13.6321 12.2645 13.6213C12.456 13.6218 12.6871 14.875 13.4757 14.8545C14.4218 15.0383 15.4476 13.9647 15.4476 13.9647C15.5826 13.7726 15.6339 13.9178 15.6339 13.9178C15.6122 15.0954 16.5634 14.8877 16.845 14.8545C17.7798 14.472 20.0695 12.2041 19.8108 12.872C19.7208 13.053 19.0189 14.3705 19.0189 14.3705C18.9402 14.7215 19.1897 14.6983 19.1897 14.6983L20.8355 14.6827C21.1169 14.5136 22.5569 11.3961 22.3883 11.8261C22.9073 10.8819 24.0808 10.5461 24.0808 10.5461C24.1935 10.5124 24.1429 10.6709 24.1429 10.6709L22.2175 14.511C22.1839 14.6127 22.3727 14.7139 22.3727 14.7139L24.0496 14.6827C24.275 14.6609 25.68 11.7636 25.68 11.7636C26.0624 11.0285 27.4192 10.6085 27.4192 10.6085C27.6668 10.5638 27.4968 10.8115 27.4968 10.8115L26.177 13.5901C25.9764 14.8516 27.0307 14.9255 27.4812 14.8701C27.9318 14.8035 28.6644 14.5484 30.1053 13.4651C30.3983 13.2397 30.4625 13.4665 30.4625 13.512C30.4749 15.0633 32.1705 14.8857 32.1705 14.8857C32.6774 15.0117 34.735 14.9629 36.456 11.5139C35.8268 13.8561 37.1096 14.4939 37.1548 14.5735C37.1999 14.6527 37.8896 14.8949 38.1484 14.8389C40.7732 15.0728 41.875 10.9676 41.875 10.9676C42.4657 10.5221 42.6157 10.3943 42.8533 10.2651C43.4392 10.323 43.5965 10.3397 43.8781 10.3744C44.1033 10.4544 43.8992 10.6657 43.8314 10.7333C41.1521 12.8323 42.3282 14.4509 42.4185 14.4174C43.591 16.0173 46.0249 13.2284 46.4867 13.1842C47.0741 15.5414 48.861 14.5152 48.94 14.5266C48.7825 14.9905 48.3243 16.1375 47.9307 16.8837C47.1092 18.048 45.819 16.7433 45.819 16.7433L45.4929 16.7277C45.3354 16.931 45.4308 17.1648 45.4308 17.1648C45.769 17.7093 46.202 18.4629 47.5425 18.6477C48.8942 18.7082 49.6698 17.2116 49.6698 17.2116C49.6698 17.2116 51.5647 13.6966 51.6884 13.2778C52.2624 12.7585 53.2588 12.0087 54.0019 11.4671C54.486 11.3666 52.7902 14.1464 52.6666 14.5422C52.6329 14.7688 52.7132 14.7765 52.7132 14.7765C52.7132 14.7765 54.0026 14.8409 54.2503 14.8077C54.4981 14.7744 55.7015 11.9002 56.1292 11.3579C56.5005 10.736 57.6974 10.1558 57.6974 10.1558C57.9564 10.1 57.8682 10.4056 57.8682 10.4056L56.2845 13.6214C55.9024 14.9675 56.9779 14.9745 57.1695 14.9638C57.6875 14.931 59.6227 13.8086 59.6227 13.8086C59.8929 13.6054 59.8868 13.9335 59.8868 13.9335C59.8644 14.3638 60.3268 15.0688 60.7096 14.9793C62.084 15.1076 64.1624 12.8125 64.2188 13.028C64.2303 13.0735 63.4424 14.6359 63.4424 14.6359C63.4764 14.7605 63.6133 14.8233 63.6133 14.8233C63.6133 14.8233 64.9439 14.8379 65.2592 14.8389C65.5745 14.8398 67.0091 11.3934 67.3243 11.2016C67.9659 10.5354 68.6681 10.4722 68.6907 10.4836C68.9273 10.4731 67.3519 13.0028 67.2623 13.5119C66.9141 14.972 67.9454 14.9481 67.9454 14.9481C68.7677 15.0751 70.784 13.6371 70.8179 13.7617C71.0542 13.5247 71.082 13.8086 71.082 13.8086V13.9178C71.2182 15.0961 71.9049 14.9637 71.9049 14.9637C72.6935 15.1698 75.7712 12.5754 75.7712 12.5754L75.3054 12.0603L73.38 13.4651C73.2224 13.5442 73.1315 13.3715 73.1315 13.3715L75.2899 9.18797C75.3911 9.08644 75.2432 8.96943 75.2432 8.96943H73.3024C73.1673 9.11613 73.0851 9.21917 73.0851 9.21917L71.3305 12.6535L69.4051 13.6057C69.2025 13.6615 69.2498 13.4496 69.2498 13.4496C69.2498 13.4496 70.8539 10.2849 70.9889 9.84359C71.0789 9.64007 71.0354 9.3129 71.0354 9.3129C70.5051 8.07689 68.3627 9.67697 68.0697 9.68757C68.0584 9.69886 68.3338 9.12557 68.3338 9.12557C68.4125 8.95581 68.2562 8.95383 68.2562 8.95383L66.4549 8.93823C66.4549 8.93823 66.4603 8.80958 66.3928 8.92263C66.3252 9.03568 65.1662 11.2173 65.1662 11.2173L62.2626 13.4183C62.0147 13.4631 62.0762 13.2935 62.0762 13.2935L64.2034 9.15677L64.219 8.98503L62.1693 8.93823L60.4769 12.2163C60.3869 12.3181 58.6137 13.3247 58.6137 13.3247C58.3433 13.4034 58.3341 13.1686 58.3341 13.1686L59.9024 10.109C60.2576 8.91541 58.9605 8.56449 58.3186 8.7977C57.8846 8.95488 57.4801 9.09436 57.4801 9.09436C57.4801 9.09436 57.3519 9.12789 57.4646 8.96943C57.6557 8.69815 59.6384 4.75469 59.6384 4.75469C59.6835 4.6414 59.5763 4.56735 59.5763 4.56735L57.7752 4.55175C57.6287 4.61905 57.6044 4.72348 57.6044 4.72348L55.0423 9.60945L52.9306 11.2017C52.7954 11.292 52.7908 11.1392 52.7908 11.1392L53.8466 9.12557V8.92251L51.9523 8.90691L51.6417 9.15665C51.4274 8.70304 50.3403 8.7084 50.3064 8.71958C48.031 8.64506 46.7506 11.8884 46.7506 11.8884C45.4845 12.9918 44.8996 13.3352 44.4837 13.4026C44.1377 13.4222 44.0333 13.1371 44.0333 13.1371C43.5513 11.6524 46.5798 10.2493 46.5798 10.2493C46.6812 10.1929 47.1176 8.87582 47.0612 8.87571C47.0048 8.87559 43.3374 8.8714 43.3036 8.86011C43.1007 8.78035 42.1211 9.70713 41.8285 9.92159C40.9707 7.39391 37.647 9.30568 37.1858 10.4367C36.9878 10.4898 36.8989 10.4527 36.7976 10.4523C36.831 9.59186 36.7174 9.05536 36.1765 8.78198C35.8835 8.62271 34.686 8.78198 34.686 8.78198L36.72 4.70777C36.8212 4.58342 36.6268 4.45803 36.6268 4.45803H34.7946C34.7158 4.5032 34.6238 4.61404 34.6238 4.61404C34.6238 4.61404 31.1619 11.3551 30.9593 11.7168C30.7569 12.0786 28.2265 13.4339 28.2265 13.4339C28.2487 13.185 29.8786 10.336 29.9346 9.78118C30.001 8.34328 28.3663 8.7977 28.3663 8.7977C28.3663 8.7977 27.4406 9.41547 26.5962 9.84359C26.4147 8.26888 25.0434 8.8133 25.0434 8.8133L23.4907 9.82798L23.7702 9.09436L23.8324 8.8133L21.9689 8.7665C21.7553 8.92449 21.379 9.78118 21.379 9.78118L20.7889 10.8739L18.1338 12.8876C17.8749 13.034 18.0096 12.6847 18.0096 12.6847C18.0096 12.6847 19.8022 9.1499 19.8417 9.12545C19.9881 9.03522 19.8729 8.81342 19.8729 8.81342L18.0716 8.7977C18.0716 8.7977 17.7666 9.31872 17.6991 9.37531C16.8421 8.16095 14.0141 8.65379 12.4974 12.2476C12.3035 12.4878 12.1535 12.6559 12.0471 12.7003C10.2688 14.7902 9.25211 12.7159 9.25211 12.7159L12.4353 6.61232C12.4353 6.61232 13.8835 3.35486 14.7954 2.42878C17.1035 0.861287 17.7612 2.33517 17.7612 2.33517C17.9606 2.79972 18.5687 4.47677 15.4321 5.28549C15.0206 5.32636 15.1525 5.51951 15.1525 5.51951C16.0654 6.30355 17.1866 6.22205 17.1866 6.22205C18.2906 6.44024 21.2823 4.78519 20.1989 2.13223C19.3535 1.02149 18.1884 0.659399 17.0625 0.649269ZM64.4362 4.78601C62.7918 4.84923 62.6956 7.06802 64.3742 7.29914C66.0073 7.3492 66.3177 4.85936 64.4362 4.78589V4.78601ZM75.6314 4.78601C73.8517 4.79229 73.9843 7.31707 75.6625 7.29914C77.3408 7.16815 77.1973 4.8469 75.6314 4.78589V4.78601ZM16.8761 9.51572C17.4025 9.52783 17.3104 10.1619 17.2178 10.2807C17.2742 10.4732 16.3016 12.1226 16.3016 12.1226C15.1762 13.535 14.6401 13.2777 14.6401 13.2777C14.6401 13.2777 14.2545 13.2239 14.547 12.466C14.862 11.9347 15.4738 10.5519 16.1152 9.74974C16.4531 9.57522 16.7006 9.51165 16.8761 9.51572ZM34.5306 9.67174C35.0827 9.74136 34.8102 10.2493 34.8102 10.2493L33.2884 13.2621C32.8045 13.8611 32.3568 13.6523 32.3568 13.6523C32.109 13.4702 32.5276 12.7782 32.5276 12.7782L33.9562 9.9684C34.2374 9.67465 34.5306 9.67174 34.5306 9.67174ZM50.3685 9.68745C50.7993 9.61061 50.9741 9.9684 50.9741 9.9684C50.9741 9.9684 50.9992 10.0259 50.943 10.3431C50.8195 10.8297 49.4834 13.1529 49.4834 13.1529C48.9208 13.7175 48.4276 13.6055 48.4276 13.6055C48.146 13.5254 48.2567 13.1061 48.2567 13.1061C48.2567 13.1061 49.3387 10.8756 49.8561 9.93719C50.0588 9.7877 50.2248 9.71295 50.3685 9.68745ZM40.0117 9.70306C40.2497 9.66265 40.4757 9.76127 40.431 10.2649C40.15 10.8643 39.0412 13.0662 38.8162 13.3713C38.7713 13.6319 37.639 14.0564 37.9311 13.1061C37.9311 13.1061 39.5193 10.1198 39.5304 9.984C39.536 9.91601 39.7739 9.74334 40.0117 9.70306ZM4.2524 12.154C5.18075 12.1317 6.02247 12.4348 6.02247 12.4348C6.02247 12.4348 5.80532 13.1625 3.75545 13.4963C2.7868 13.4373 2.2807 13.4416 2.28036 13.0906C2.75298 12.3835 3.53031 12.1712 4.2524 12.1539V12.154Z" fill="#231F20"/>
</g>
<defs>
<clipPath id="clip0">
<rect width="76.5882" height="18.9412" fill="white" transform="translate(0.752941 0.199951)"/>
</clipPath>
</defs>
</svg>
