<svg width="35" height="41" viewBox="0 0 35 41" fill="none" xmlns="http://www.w3.org/2000/svg">
<path d="M16.203 40.5498C8.87818 36.7717 2.86414 31.4523 2.55573 25.05L0.859467 2.69287C7.1048 1.26646 10.8829 0.611084 16.203 0.611084" fill="black"/>
<path d="M16.2025 13.9506H11.0394V22.7396C11.0394 25.1298 13.0441 27.867 16.2025 27.867" fill="white"/>
<path d="M16.2027 40.5494C23.5268 36.7714 29.5409 31.452 29.8493 25.0496L31.5456 2.6925C25.2981 1.26609 21.5221 0.610718 16.2027 0.610718" fill="black"/>
<path d="M16.2014 1.22827C22.5232 1.22827 28.2288 2.57758 30.8888 3.23295L30.6045 7.05438C23.7954 5.35053 19.7474 5.08342 16.2014 5.08342C12.6553 5.08342 8.60673 5.35053 1.79758 7.05438L1.51327 3.2302C4.17332 2.57482 9.87621 1.22827 16.2014 1.22827Z" fill="white"/>
<path d="M21.9846 17.5126L21.9715 21.7581L29.4526 21.7808L29.7858 17.4906L21.9846 17.5126Z" fill="white"/>
<path d="M30.0992 13.3814L30.4344 8.9569L16.5105 8.87769V13.1941H21.9847V13.3806L30.0992 13.3814Z" fill="white"/>
<path d="M10.4204 17.5309C10.2387 17.7602 10.026 18.0658 9.98741 18.2297C10.153 18.3406 10.2995 18.4778 10.4211 18.6358L10.4204 17.5309Z" fill="black"/>
<path d="M8.53114 34.6284C10.7781 36.6627 13.4327 38.3549 15.8972 39.6539V34.6119L8.53114 34.6284Z" fill="white"/>
<path d="M15.8952 30.272V28.4766C13.7838 28.3802 12.3058 27.298 11.4205 26.0231L3.25717 26.032C3.49536 27.5286 4.0578 28.9475 4.85362 30.2734L15.8952 30.272Z" fill="white"/>
<path d="M16.2027 13.9506H21.3659V22.7396C21.3659 25.1298 19.3612 27.867 16.2027 27.867" fill="white"/>
<path d="M19.7529 27.3212C21.2592 26.1626 21.9841 24.3796 21.9841 23.1218V22.377L29.428 22.3542L29.1526 25.9767C28.2295 32.0713 21.907 36.8097 16.5105 39.6625V28.4757C17.3336 28.4452 18.1407 28.2393 18.8779 27.8719L18.8621 28.0268C18.681 28.5569 18.6907 28.7806 18.6804 28.8949C18.6501 29.1338 18.3568 29.1572 18.3045 29.1311C18.2399 29.0926 18.1663 29.072 18.0912 29.0712C18.016 29.0705 17.942 29.0897 17.8767 29.1268C17.8114 29.164 17.757 29.2177 17.7192 29.2827C17.6814 29.3477 17.6615 29.4215 17.6615 29.4966C17.6614 29.5319 17.6668 29.5669 17.6773 29.6006C17.5252 29.6653 17.4571 29.7906 17.4571 29.9668C17.4571 30.2016 17.6092 30.3916 17.8439 30.3916C17.9417 30.3916 18.0044 30.4033 18.0759 30.3482C18.116 30.3935 18.1651 30.4297 18.2202 30.4545C18.2752 30.4793 18.335 30.4921 18.3954 30.4921C18.6301 30.4921 18.7499 30.4294 18.7657 29.9509C20.336 29.1194 22.7262 28.4832 23.785 28.5404C24.9815 28.6044 25.8503 29.805 25.9439 29.8821C26.0375 29.9592 26.1132 29.9592 26.0981 29.8353C26.021 29.3424 25.8682 28.5962 24.702 27.9621C24.7791 27.6379 25.3477 27.5773 25.4538 27.5305C25.5336 27.4947 25.5618 27.3928 25.4538 27.3928C24.6731 27.2895 24.1162 27.6392 24.0081 27.7783C23.7469 27.7356 23.4823 27.7176 23.2178 27.7246C23.3045 27.3281 23.5358 27.0362 23.8814 26.7491C23.8312 26.7911 23.9737 26.6259 23.8656 26.6259C23.0023 26.7016 22.466 27.5966 22.4061 27.8265C22.329 27.8417 21.3921 27.9958 21.2358 28.042C21.3735 27.1333 22.4061 26.5157 22.5004 26.4538C22.5947 26.3918 22.6236 26.2996 22.5004 26.2996C21.2028 26.3429 20.2527 28.0206 20.2066 28.3738C20.0063 28.4509 19.6979 28.559 19.5437 28.6492C19.49 28.0447 19.501 27.8582 19.6655 27.4981L19.7529 27.3212Z" fill="white"/>
<path d="M18.4875 33.012C18.4751 33.3941 18.3794 33.4444 18.1915 33.4444C18.1432 33.4444 18.0954 33.4342 18.0514 33.4144C18.0073 33.3946 17.9681 33.3656 17.9361 33.3294C17.8789 33.3734 17.8287 33.3645 17.7509 33.3645C17.563 33.3645 17.4411 33.2124 17.4411 33.0244C17.4351 32.9631 17.449 32.9015 17.4808 32.8487C17.5125 32.7959 17.5604 32.7547 17.6173 32.7311C17.609 32.7042 17.6048 32.6761 17.605 32.6478C17.605 32.5576 17.6408 32.4712 17.7046 32.4074C17.7683 32.3436 17.8548 32.3078 17.945 32.3078C18.0064 32.3076 18.0667 32.3242 18.1192 32.356C18.1605 32.3766 18.3946 32.356 18.42 32.1667C18.4386 31.9636 18.8599 30.4353 19.9084 30.2873C20.0199 30.2625 19.9827 30.3486 19.9332 30.3981C20.0172 30.3141 19.0327 31.0982 19.1105 31.9725C19.2337 31.8989 19.5965 31.7736 19.7569 31.7123C19.7941 31.428 20.6519 30.1454 21.688 30.1104C21.7871 30.1104 21.7623 30.1847 21.688 30.2343C21.6136 30.2838 20.7118 30.7582 20.5996 31.4851C20.7228 31.4486 21.3376 31.3247 21.3988 31.3123C21.4484 31.1278 22.0996 30.3148 22.8569 30.3313C22.9436 30.3313 22.8294 30.4635 22.8693 30.4298C22.5939 30.6618 22.0804 30.9509 22.0115 31.2676C22.2231 31.2625 22.4346 31.2771 22.6435 31.3109C22.7295 31.2001 23.2142 30.8814 23.8386 30.9668C23.9247 30.9668 23.9026 31.0493 23.8386 31.0776C23.7539 31.1154 23.3567 31.2414 23.2947 31.5003C23.9694 31.8982 24.2344 32.3154 24.2957 32.7098C24.3081 32.809 24.2461 32.809 24.1725 32.747C24.0988 32.685 23.3835 31.9952 22.426 31.9436C21.5799 31.8954 19.7445 32.3477 18.4875 33.012Z" fill="black"/>
<path d="M18.1511 35.6533C18.1429 35.9149 18.0197 35.9686 17.8909 35.9686C17.8579 35.9687 17.8253 35.9616 17.7952 35.948C17.7652 35.9343 17.7384 35.9144 17.7168 35.8894C17.6775 35.9197 17.6425 35.9135 17.5894 35.9135C17.56 35.913 17.5309 35.9065 17.5041 35.8944C17.4772 35.8823 17.4532 35.8647 17.4333 35.843C17.4136 35.8211 17.3984 35.7955 17.3889 35.7676C17.3794 35.7397 17.3757 35.7102 17.3781 35.6808C17.4239 35.6578 17.4601 35.6194 17.4805 35.5723C17.5009 35.5253 17.5041 35.4725 17.4896 35.4234C17.4896 35.3823 17.5006 35.3419 17.5213 35.3065C17.542 35.2709 17.5717 35.2416 17.6075 35.2212C17.6432 35.201 17.6837 35.1905 17.7248 35.191C17.7658 35.1914 17.8061 35.2027 17.8414 35.2237C17.8703 35.2382 18.03 35.2237 18.0479 35.0943C18.0658 34.9649 18.1312 33.8848 18.777 33.7705C18.8534 33.7533 18.8279 33.8125 18.7942 33.8462C18.8513 33.7891 18.4107 34.2992 18.5188 34.9325C18.6338 34.8751 18.7525 34.8252 18.874 34.7832C18.8995 34.589 19.1383 33.6927 19.8481 33.6686C19.917 33.6686 19.8991 33.7195 19.8481 33.7533C19.7972 33.787 19.4991 34.1023 19.422 34.5993C19.517 34.5498 19.7579 34.5112 19.8529 34.4816C19.8867 34.355 20.3996 33.6638 20.9179 33.6748C20.9764 33.6748 20.8987 33.7657 20.9262 33.7437C20.7376 33.9026 20.4829 34.1567 20.4354 34.3749C20.5497 34.3622 20.6652 34.3622 20.7796 34.3749C20.8592 34.2675 20.9668 34.1841 21.0906 34.1337C21.2145 34.0833 21.3498 34.068 21.4818 34.0892C21.541 34.0892 21.5251 34.1457 21.4818 34.1656C21.4199 34.1961 21.3651 34.2393 21.321 34.2923C21.2769 34.3453 21.2444 34.407 21.2257 34.4733C21.7227 34.7143 21.9354 34.9249 21.9774 35.1948C21.9857 35.2637 21.9437 35.2637 21.8934 35.2203C21.5508 34.9875 21.1506 34.8541 20.7369 34.8348C20.16 34.8004 19.0261 35.1156 18.1511 35.6533Z" fill="black"/>
<path d="M11.9215 21.7848C11.9697 21.6402 12.1239 21.4667 12.1432 21.38C12.1625 21.2932 12.1336 21.2258 12.1914 21.139C12.2773 21.0298 12.3707 20.9268 12.4709 20.8306C12.4977 20.8041 12.5307 20.7848 12.567 20.7747C12.6033 20.7646 12.6416 20.764 12.6782 20.7729C12.7148 20.7818 12.7485 20.8 12.7761 20.8256C12.8037 20.8512 12.8242 20.8836 12.8358 20.9194C12.9418 21.1507 13.1249 21.6615 13.4911 21.8143C13.2751 21.9177 13.049 21.9984 12.8165 22.0553C12.6333 22.0939 12.4888 22.1242 12.5659 22.5758C12.643 23.0273 12.6623 23.2215 12.6347 23.3661C12.6089 23.4919 12.6167 23.6222 12.6573 23.7441C12.6979 23.8659 12.7699 23.9748 12.866 24.06L13.107 24.3973C13.2034 24.4841 13.4347 24.5804 13.4512 24.3877C13.4677 24.1949 13.5283 24.0022 13.3356 23.9829C13.2667 23.9732 13.085 23.819 13.1042 23.6455C13.1187 23.484 13.0816 23.322 12.9982 23.183C12.9194 23.0459 12.8949 22.8842 12.9294 22.7299C12.9679 22.5854 13.074 22.4986 13.3149 22.5468C13.5077 22.6157 14.3944 22.8553 14.6642 22.5565C14.8473 22.6941 15.9364 23.0962 16.5725 23.0287C16.6882 23.2311 16.9291 23.6745 17.0833 23.7998C17.2086 23.9154 17.2568 24.2817 17.0448 24.4744C16.9195 24.5708 16.5918 24.9081 16.3219 24.9852C16.0521 25.0623 15.946 25.1105 15.8208 25.2358C15.6955 25.3611 15.6183 25.3611 15.5413 25.5249C15.4642 25.6888 15.2907 25.9779 15.5702 25.9779C15.8497 25.9779 15.9268 25.8402 15.946 25.7659C15.9653 25.6916 15.946 25.5249 16.0521 25.496C16.1581 25.4671 16.4858 25.4478 16.7074 25.178C16.9291 24.9081 17.3725 24.7649 17.5459 24.7346C17.7194 24.7043 17.7387 24.5322 17.7194 24.4455C17.7002 24.3588 17.6905 24.1371 17.7965 24.0214C17.9507 24.06 18.4423 24.166 18.6736 24.4841C18.6967 24.5508 18.7257 24.6153 18.7603 24.6768C18.6914 24.7925 18.5579 24.8985 18.5097 25.0142C18.4504 25.2035 18.3364 25.3712 18.182 25.496C17.9604 25.6695 17.769 25.7755 17.6616 25.9298C17.5464 26.0813 17.4915 26.2701 17.5074 26.4598C17.5267 26.6719 17.5845 26.5658 17.6809 26.5658C17.7772 26.5658 17.9989 26.4598 18.0085 26.3153C18.0182 26.1707 17.9507 26.1032 18.1531 26.0165C18.3555 25.9298 18.7114 25.6406 18.7892 25.4575C18.867 25.2744 19.0969 24.9178 19.2801 24.8118C19.4632 24.7057 19.4247 24.5515 19.3379 24.3987C19.2512 24.2459 18.9524 23.8301 19.0102 23.5602C19.068 23.2903 19.3861 23.1265 19.4825 22.7121C19.5789 22.2977 19.521 22.1049 19.4639 21.9603C19.627 21.9121 19.7234 21.9507 19.9354 22.047C20.1475 22.1434 20.6294 22.1242 20.6872 21.9892C20.745 21.8543 20.7258 21.5844 20.6872 21.5266C20.8249 21.411 20.9185 21.1603 20.8414 21.0447C20.7999 20.9832 20.7716 20.9138 20.7583 20.8408C20.745 20.7678 20.7471 20.6928 20.7643 20.6207C20.6266 20.6013 20.4848 20.483 20.5812 20.399C20.6775 20.315 20.8703 20.1105 20.7836 19.8482C20.8125 19.6844 20.8221 19.482 20.5426 19.4923C20.533 19.3863 20.4462 19.0394 20.0126 19.3546C19.9437 19.4028 19.868 19.2968 19.9644 19.2679C20.0607 19.239 20.5619 19.0752 20.639 18.9023C20.7161 18.7295 20.6872 18.6421 20.6583 18.5746C20.6969 18.4976 20.7354 18.3433 20.6969 18.2855C20.6583 18.2277 20.5041 18.2374 20.3981 18.4976C20.292 18.7578 20.321 18.7578 20.0415 18.806C19.762 18.8542 19.5499 18.806 19.3668 19.1137C19.309 19.1908 19.2801 19.2782 19.1451 19.3546C19.0869 19.3866 19.0362 19.4306 18.9964 19.4838C18.9566 19.537 18.9287 19.5982 18.9145 19.6631C18.8946 19.7691 18.9909 19.9618 18.9716 20.0967C18.9524 20.2317 18.876 20.5208 19.2319 20.8292C19.4054 21.022 19.6656 21.2726 19.4728 21.4654C19.2801 21.6581 19.1066 21.4557 18.962 21.3593C18.8174 21.263 18.3425 21.1184 18.0375 21.1377C17.7325 21.1569 16.7171 20.9064 16.4761 20.704C16.2352 20.5015 16.3825 20.3997 16.505 20.3377C16.547 20.3229 16.5856 20.2999 16.6187 20.2701C16.6518 20.2404 16.6786 20.2044 16.6978 20.1642C16.7165 20.1251 16.7471 20.0929 16.7851 20.0722C16.8232 20.0514 16.8668 20.0432 16.9098 20.0486C16.9966 20.0486 17.0833 20.0293 17.1604 19.8462C17.2375 19.6631 17.3146 19.7312 17.4014 19.7085C17.4279 19.698 17.4505 19.6796 17.4661 19.6557C17.4817 19.6319 17.4895 19.6038 17.4884 19.5753C17.4873 19.5468 17.4775 19.5194 17.4601 19.4968C17.4428 19.4741 17.4189 19.4574 17.3917 19.449C17.2375 19.3904 17.1508 19.3326 17.1604 19.2755C17.1814 19.2222 17.2169 19.1758 17.2629 19.1416C17.3089 19.1074 17.3635 19.0868 17.4206 19.082C17.5652 19.0724 17.5742 18.9767 17.5652 18.8996C17.5556 18.8638 17.5602 18.8257 17.5782 18.7933C17.5962 18.7609 17.6261 18.7368 17.6616 18.7261C17.758 18.6779 17.7477 18.5623 17.5845 18.5141C17.4213 18.4659 17.1797 18.4081 17.1797 18.331C17.1797 18.2538 17.2857 18.1189 17.3917 18.0804C17.4978 18.0418 17.5459 17.878 17.305 17.8876C17.064 17.8973 16.9291 17.9262 16.8809 17.772C16.8327 17.6178 16.8231 17.531 17.0737 17.4346C17.1797 17.4057 17.2114 17.2612 17.0159 17.2708C16.8204 17.2804 16.6028 17.3768 16.5339 17.3093C16.4651 17.2419 16.4858 17.1841 16.5243 17.1551C16.5373 17.1464 16.5469 17.1336 16.5516 17.1187C16.5563 17.1038 16.5558 17.0878 16.5502 17.0733C16.5446 17.0587 16.5342 17.0465 16.5208 17.0386C16.5073 17.0307 16.4916 17.0276 16.4761 17.0299C16.3798 17.0299 16.0039 17.1744 15.9075 17.0684C15.8111 16.9624 15.6569 16.9045 15.5316 16.9817C15.4063 17.0588 15.4063 17.1744 15.4738 17.2419C15.4807 17.2482 15.4864 17.2559 15.4904 17.2644C15.4944 17.2729 15.4967 17.2821 15.4972 17.2915C15.4976 17.3009 15.4962 17.3103 15.493 17.3191C15.4898 17.328 15.4849 17.3361 15.4786 17.3431C15.4723 17.35 15.4646 17.3557 15.4561 17.3597C15.4476 17.3637 15.4384 17.366 15.429 17.3664C15.4196 17.3669 15.4102 17.3655 15.4013 17.3623C15.3925 17.3591 15.3844 17.3542 15.3774 17.3479C15.355 17.3321 15.3383 17.3095 15.3296 17.2835C15.3209 17.2575 15.3208 17.2294 15.3292 17.2033C15.3083 17.1355 15.2639 17.0774 15.2039 17.0395C15.1351 17.001 15.1351 16.8949 15.1557 16.8275C15.1764 16.76 15.0979 16.6898 14.9823 16.7586C14.8666 16.8275 14.7606 16.9417 14.8184 17.1152C14.6931 17.1249 14.3751 17.2019 14.3655 17.2983C14.3558 17.3947 14.404 17.5007 14.3847 17.5393C14.3655 17.5778 14.2594 17.5778 14.2016 17.6164C14.0378 17.7802 13.7582 17.9344 13.6908 18.0019C13.6233 18.0694 13.5751 18.1396 13.4884 18.2429C13.4016 18.3461 13.3934 18.4494 13.4306 18.5031C13.5366 18.6573 13.6233 18.5512 13.6811 18.6407C13.739 18.7303 13.739 18.7468 13.7293 18.795C13.7197 18.8431 13.8354 18.9485 14.0088 18.8046C14.1823 18.6607 14.3076 18.5058 14.4425 18.6669C14.5775 18.828 14.4522 18.9272 14.3944 19.0331C14.2787 19.1481 14.0088 19.5047 13.8835 19.6107C13.7582 19.7167 13.6619 19.968 13.6137 20.1986C13.5655 20.4293 13.5077 20.4782 13.4595 20.536C13.2282 20.4492 12.9679 20.3432 12.8234 20.2275C12.727 20.1505 12.515 20.0541 12.38 20.2468C12.3112 20.3239 11.967 20.7976 11.8789 20.9986C11.7907 21.1996 11.6572 21.1239 11.6572 21.5094C11.6572 21.6471 11.5512 21.7021 11.4933 21.9142C11.4837 21.972 11.3295 22.3272 11.4837 22.3961C11.6379 22.4649 11.821 22.3768 11.8596 22.2804C11.8981 22.1841 11.9119 21.8908 11.9215 21.7848Z" fill="black"/>
<path d="M10.4198 13.3344H15.8942V5.7439C12.8383 5.78792 8.68364 5.95453 1.85521 7.74031L2.92846 21.7841H10.4198V19.1825C10.2099 19.0173 9.88699 18.7509 8.92389 18.7516C8.35457 18.7516 6.73886 19.2899 5.79849 20.4417C5.78541 20.845 5.55409 20.9924 5.35651 20.9924C5.3056 20.9925 5.25525 20.9818 5.20883 20.9609C5.16241 20.94 5.12098 20.9094 5.08734 20.8712C5.02627 20.9176 4.95127 20.9419 4.87462 20.94C4.77943 20.9399 4.6882 20.902 4.62096 20.8346C4.55372 20.7672 4.51595 20.6759 4.51595 20.5807C4.51857 20.507 4.54201 20.4356 4.58356 20.3747C4.6251 20.3138 4.68306 20.2658 4.7507 20.2365C4.74156 20.2083 4.73692 20.1787 4.73693 20.1491C4.73711 20.0539 4.77506 19.9626 4.84243 19.8954C4.9098 19.8282 5.0011 19.7904 5.09629 19.7904C5.16077 19.7901 5.2241 19.8075 5.27941 19.8406C5.32347 19.8627 5.46735 19.9597 5.49351 19.758C5.51278 19.5439 5.48593 17.5297 6.5626 17.2246C6.67966 17.1985 6.6411 17.2894 6.5888 17.3417C6.53645 17.394 6.06075 18.216 6.12408 19.2541C6.25422 19.1757 6.53717 18.9643 6.70581 18.8996C6.75745 18.6779 7.13059 17.0016 8.02137 16.9844C8.12535 16.9844 8.09915 17.0622 8.02137 17.1145C7.94358 17.1668 7.55532 17.6253 7.47682 18.4452C7.60696 18.406 7.93189 18.3502 7.99731 18.3371C8.04895 18.1423 8.43307 17.0188 9.16143 16.9541C9.25296 16.9541 9.21373 17.0477 9.17451 17.087C9.13523 17.1262 8.74973 17.6618 8.67332 18.1885C8.84777 18.1755 9.02317 18.1831 9.19581 18.2112C9.27431 18.1107 9.89184 17.4333 10.4198 17.2109V14.9274C10.3187 14.8352 10.1596 14.7374 9.67426 14.736C8.917 14.736 7.6448 15.0479 5.89277 16.1934C5.8749 16.7311 5.56717 16.9314 5.30281 16.9314C5.2349 16.9313 5.16777 16.9168 5.10584 16.8889C5.04392 16.8611 4.98858 16.8204 4.94346 16.7696C4.86255 16.8321 4.76268 16.8649 4.66052 16.8625C4.53331 16.8626 4.41126 16.8123 4.32098 16.7227C4.2307 16.633 4.17953 16.5113 4.17863 16.3841C4.18246 16.2864 4.21392 16.1918 4.26937 16.1113C4.32481 16.0307 4.40196 15.9675 4.49186 15.9291C4.47995 15.891 4.47391 15.8513 4.47395 15.8113C4.47463 15.727 4.49743 15.6443 4.54007 15.5716C4.5827 15.4988 4.64369 15.4385 4.71692 15.3967C4.79016 15.3549 4.87308 15.333 4.95741 15.3333C5.04174 15.3336 5.12453 15.356 5.19748 15.3983C5.256 15.4279 5.49832 15.5319 5.53344 15.2606C5.5596 14.9749 5.9988 12.5758 7.4734 12.3692C7.62968 12.3348 7.57733 12.456 7.50782 12.5255C7.43831 12.595 6.29758 13.5464 6.3795 14.9315C6.68076 14.7653 6.99104 14.6159 7.30889 14.4841C7.37774 14.1894 8.02964 12.3913 9.21716 12.3678C9.35485 12.3678 9.32114 12.4718 9.21716 12.5413C9.11322 12.6109 8.39109 13.1196 8.28573 14.2128C8.45922 14.1605 8.9955 14.0352 9.08222 14.018C9.15107 13.7578 9.61231 12.7224 10.5837 12.6357C10.7048 12.6357 10.6525 12.761 10.6009 12.8133C10.5493 12.8656 10.0343 13.2201 9.93173 13.9148C10.0972 13.9183 10.2618 13.94 10.4226 13.9795L10.4198 13.3344Z" fill="white"/>
<path d="M5.6782 11.9637C5.65889 12.5613 5.31607 12.7843 5.0228 12.7843C4.94733 12.7845 4.8727 12.7685 4.80394 12.7374C4.73519 12.7062 4.67389 12.6607 4.6242 12.604C4.53414 12.6732 4.42316 12.7096 4.3096 12.7072C4.16864 12.7072 4.03346 12.6512 3.9338 12.5516C3.83413 12.4519 3.77814 12.3167 3.77814 12.1758C3.7825 12.0672 3.81745 11.9621 3.87896 11.8726C3.94048 11.7831 4.02604 11.7128 4.12579 11.6698C4.11248 11.6277 4.10574 11.5838 4.10583 11.5396C4.10595 11.4458 4.1309 11.3536 4.17814 11.2725C4.22538 11.1914 4.29323 11.1243 4.37481 11.0779C4.45638 11.0314 4.54879 11.0074 4.64264 11.0083C4.73649 11.0091 4.82846 11.0347 4.90921 11.0825C4.97805 11.1156 5.24447 11.2312 5.28302 10.9325C5.31194 10.6144 5.73601 7.78087 7.37446 7.54956C7.54791 7.511 7.49009 7.64593 7.41302 7.72305C7.3359 7.80013 6.0637 8.82451 6.2179 10.5566C6.58105 10.3576 6.95424 10.1775 7.3359 10.0169C7.39371 9.5735 8.02983 7.511 9.45622 7.46973C9.61041 7.46973 9.5719 7.58536 9.45622 7.66248C9.14883 7.90259 8.89289 8.20208 8.70366 8.54318C8.51442 8.88427 8.39575 9.25998 8.35476 9.64787C8.54752 9.59005 9.16433 9.49367 9.26071 9.47437C9.33783 9.18524 9.93534 7.77811 11.0148 7.68449C11.1525 7.68449 11.0919 7.78087 11.0341 7.83869C10.9763 7.89655 10.208 8.55193 10.208 9.32293C10.4007 9.30368 10.9405 9.30368 11.0754 9.34219C11.2131 9.16874 11.7886 8.53262 12.6174 8.47481C12.7551 8.47481 12.6945 8.57118 12.6174 8.6483C12.5404 8.72537 12.0392 9.16874 11.9428 9.5735C12.2319 9.72774 13.0608 10.2867 13.1572 10.9036C13.1764 11.0578 13.08 11.0578 12.9644 10.9614C12.8487 10.865 11.9621 10.1518 10.8413 10.1518C9.72058 10.1518 7.62503 10.6915 5.6782 11.9637Z" fill="black"/>
<path d="M14.0947 4.08578V4.53119L13.4283 4.56286V4.17183C13.4283 3.78219 13.2135 3.53849 12.8514 3.56327L11.0112 3.68305L11.0292 4.74735L10.3662 4.77902L10.2911 2.11828L13.0538 1.93378C13.5598 1.89316 14.0038 1.99643 14.0031 2.69105C13.9957 2.89637 13.9342 3.09611 13.8248 3.27001C13.9673 3.3774 14.0975 3.66654 14.0947 4.08578Z" fill="black"/>
<path d="M2.28532 6.41366L2.09256 3.73434L4.83936 3.11477C5.18357 3.03766 5.67786 3.08586 5.69712 3.70268C5.71642 4.3195 5.60075 4.57973 5.16705 4.67611L2.86359 5.1993L2.95033 6.25671L2.28532 6.41366Z" fill="black"/>
<path d="M2.80662 4.1859L2.82589 4.58106L4.74383 4.15699C4.80227 4.14607 4.85412 4.11275 4.88833 4.06413C4.92254 4.01552 4.9364 3.95546 4.92695 3.89677C4.91938 3.82792 4.84984 3.73292 4.65709 3.77148C4.46433 3.81003 2.80662 4.1859 2.80662 4.1859Z" fill="white"/>
<path d="M6.1114 3.4148C6.1114 3.16421 6.10174 2.79522 6.78603 2.69196L9.01238 2.32572C9.28225 2.27753 9.88942 2.4634 9.88942 2.96182L9.91833 4.25329C9.92798 4.52316 9.90872 4.87976 9.18588 4.98577L7.12337 5.31346C6.75712 5.3823 6.15956 5.3231 6.1403 4.62917L6.1114 3.4148Z" fill="black"/>
<path d="M6.78726 3.71368C6.78726 3.51128 6.77761 3.31852 7.13144 3.25106L8.83735 2.96192C9.02046 2.933 9.21321 3.06794 9.21321 3.25106L9.23251 4.04136C9.23251 4.16665 9.1747 4.36905 8.89517 4.41724L7.20856 4.6871C6.97725 4.72565 6.82306 4.73529 6.80376 4.43652L6.78726 3.71368Z" fill="white"/>
<path d="M15.5071 2.91548C15.4455 2.91548 15.3865 2.89104 15.343 2.84753C15.2995 2.80402 15.2751 2.74501 15.2751 2.68348C15.2751 2.62196 15.2995 2.56295 15.343 2.51944C15.3865 2.47593 15.4455 2.45149 15.5071 2.45149H18.2249V1.8739H15.189C15.0348 1.8739 14.5143 1.90764 14.5192 2.69312C14.524 3.47861 15.0733 3.49306 15.189 3.49306H17.319C17.3804 3.49325 17.4392 3.51777 17.4826 3.56126C17.526 3.60475 17.5503 3.66365 17.5503 3.72506C17.5499 3.75448 17.5435 3.7835 17.5315 3.81036C17.5195 3.83722 17.5021 3.86135 17.4805 3.88126C17.4588 3.90118 17.4333 3.91646 17.4056 3.92618C17.3778 3.9359 17.3483 3.93985 17.319 3.93778H14.6011V4.51468H17.6301C17.8222 4.51468 18.3289 4.54359 18.3289 3.70992C18.3289 2.87624 17.7603 2.91479 17.6301 2.91479L15.5071 2.91548Z" fill="black"/>
<path d="M22.9862 2.20178L22.8223 4.93894L23.4584 5.02568L23.5355 3.84986L25.7715 4.27392L25.6944 5.39193L26.3305 5.50756L26.4944 2.78005L25.8679 2.6644L25.8004 3.72456L23.5644 3.3005L23.6223 2.29816L22.9862 2.20178Z" fill="black"/>
<path d="M26.9297 5.59434L27.0838 2.89575L30.1487 3.54149L30.1102 4.09085L27.6911 3.58004L27.6718 4.08121L30.0716 4.59202L30.033 5.14138L27.6332 4.63057L27.6043 5.17993L29.9945 5.69076L29.9463 6.24011L26.9297 5.59434Z" fill="black"/>
<path d="M22.3794 2.75132L22.4062 2.15377L19.5837 1.9321C19.3427 1.91282 18.8808 1.89355 18.8423 2.68385C18.8037 3.47416 18.7837 3.83076 18.7837 3.83076C18.7748 4.10062 18.938 4.5536 19.4488 4.59215L22.263 4.80418L22.2919 4.20663L19.941 4.03315C19.7193 4.02352 19.4784 3.95605 19.4976 3.55126L19.5169 2.97299C19.5265 2.74168 19.6037 2.52964 19.9699 2.55993L22.3794 2.75132Z" fill="black"/>
<path d="M12.965 2.97975L10.9921 3.08783L10.9831 2.66514L12.9795 2.55981C13.1344 2.56395 13.1984 2.61902 13.2046 2.76015C13.2108 2.90127 13.1021 2.96874 12.965 2.97975Z" fill="white"/>
<path d="M11.7488 15.6479C11.7777 15.8118 11.8528 15.8792 12.0056 15.8792C12.1323 15.8792 12.2211 15.8104 12.2211 15.7154C12.2211 15.6637 12.1922 15.6287 12.1192 15.5942L11.766 15.4304C11.696 15.4043 11.6364 15.3561 11.5962 15.2932C11.5559 15.2302 11.5372 15.1559 11.543 15.0813C11.5392 15.0248 11.5475 14.968 11.5673 14.9148C11.5871 14.8617 11.6179 14.8134 11.6579 14.7731C11.6978 14.7328 11.7458 14.7014 11.7988 14.6811C11.8517 14.6608 11.9083 14.652 11.965 14.6552C12.2445 14.6552 12.4042 14.8156 12.4159 15.1082H12.1846C12.1612 14.954 12.0979 14.8906 11.9684 14.8906C11.8528 14.8906 11.7702 14.9595 11.7702 15.0524C11.7718 15.076 11.7803 15.0987 11.7946 15.1175C11.8089 15.1363 11.8284 15.1506 11.8507 15.1584L12.2135 15.3264C12.3773 15.4014 12.4489 15.4902 12.4489 15.6789C12.4503 15.7419 12.438 15.8044 12.4131 15.8622C12.3881 15.9201 12.3511 15.9719 12.3044 16.0142C12.2626 16.0507 12.2138 16.0784 12.1611 16.0957C12.1083 16.1129 12.0526 16.1194 11.9974 16.1147C11.8046 16.1147 11.6685 16.0472 11.5891 15.9123C11.5418 15.8323 11.5179 15.7407 11.5203 15.6479H11.7488Z" fill="black"/>
<path d="M13.4571 14.6826V14.9373H13.1164V16.0884H12.8788V14.9373H12.5299V14.6826H13.4571Z" fill="black"/>
<path d="M14.5494 14.684V15.5501C14.5494 15.8701 14.4551 16.1152 14.0847 16.1152C13.7143 16.1152 13.62 15.8743 13.62 15.5501V14.6826H13.8575V15.5445C13.8575 15.7717 13.9209 15.8605 14.0813 15.8605C14.2417 15.8605 14.3119 15.7758 14.3119 15.5445V14.684H14.5494Z" fill="black"/>
<path d="M15.6033 14.6826V14.9373H15.2626V16.0884H15.0251V14.9373H14.676V14.6826H15.6033Z" fill="black"/>
<path d="M17.1941 15.3277H17.6719V16.0891H17.508L17.4854 15.9115C17.4521 15.9739 17.4025 16.0261 17.3419 16.0625C17.2812 16.0989 17.2118 16.118 17.1411 16.118C16.8314 16.118 16.611 15.8213 16.611 15.4007C16.611 14.9539 16.8348 14.6586 17.1763 14.6586C17.4516 14.6586 17.6388 14.8341 17.6733 15.1329H17.4303C17.3841 14.9807 17.3071 14.9133 17.1783 14.9133C16.9794 14.9133 16.8561 15.0964 16.8561 15.389C16.8561 15.6816 16.9835 15.8633 17.1783 15.8633C17.3263 15.8633 17.4247 15.7594 17.4537 15.5707H17.1941V15.3277Z" fill="black"/>
<path d="M18.2168 14.6826H18.4846L18.8915 16.0884H18.6326L18.5541 15.793H18.1356L18.0544 16.0884H17.8058L18.2168 14.6826Z" fill="black"/>
<path d="M19.5314 14.6826C19.6952 14.6826 19.7565 14.7005 19.826 14.7638C19.8671 14.8067 19.8989 14.8575 19.9195 14.9132C19.9401 14.9688 19.9491 15.0281 19.9458 15.0874C19.9458 15.2498 19.9052 15.3325 19.7819 15.4137C19.8935 15.4729 19.9072 15.5114 19.9196 15.7834C19.9272 16.0112 19.9327 16.0457 19.9692 16.0884H19.7076C19.6838 16.017 19.674 15.9417 19.6787 15.8667C19.6725 15.6602 19.7014 15.5328 19.4818 15.5328H19.2643V16.0884H19.0268V14.6826H19.5314Z" fill="black"/>
<path d="M21.006 14.6826V14.9373H20.6646V16.0884H20.4278V14.9373H20.0787V14.6826H21.006Z" fill="black"/>
<path d="M16.6433 14.6826V14.9373H16.3025V16.0884H16.065V14.9373H15.716V14.6826H16.6433Z" fill="black"/>
<path d="M18.4892 15.5518L18.3447 15.0045L18.2001 15.5518H18.4892Z" fill="white"/>
<path d="M19.2601 15.2988H19.4852C19.647 15.2988 19.6993 15.2541 19.6993 15.1178C19.6993 14.9815 19.6491 14.9402 19.4852 14.9402H19.2601V15.2988Z" fill="white"/>
<path d="M33.0345 3.34913C33.2277 3.349 33.4166 3.40621 33.5773 3.51351C33.738 3.62081 33.8632 3.77339 33.9371 3.95191C34.0111 4.13043 34.0303 4.32687 33.9925 4.51635C33.9547 4.70583 33.8615 4.87983 33.7247 5.01631C33.5879 5.15279 33.4138 5.24561 33.2242 5.28302C33.0346 5.32043 32.8382 5.30075 32.6599 5.22646C32.4815 5.15217 32.3292 5.02662 32.2223 4.86571C32.1153 4.70481 32.0585 4.51577 32.059 4.32256C32.059 4.19456 32.0843 4.0678 32.1333 3.94957C32.1824 3.83133 32.2543 3.72393 32.3448 3.63351C32.4355 3.5431 32.543 3.47144 32.6614 3.42264C32.7797 3.37384 32.9065 3.34886 33.0345 3.34913V3.21558C32.8148 3.21504 32.5999 3.27973 32.4169 3.40146C32.234 3.52318 32.0914 3.69648 32.007 3.89937C31.9227 4.10225 31.9005 4.32561 31.9432 4.54113C31.986 4.75666 32.0917 4.95464 32.247 5.11001C32.4024 5.26537 32.6004 5.37111 32.8159 5.41386C33.0315 5.4566 33.2548 5.43439 33.4577 5.35004C33.6606 5.26571 33.8339 5.12304 33.9556 4.94013C34.0773 4.75721 34.142 4.54228 34.1415 4.32256C34.1408 4.0292 34.0239 3.74805 33.8165 3.54061C33.609 3.33317 33.3279 3.21631 33.0345 3.21558V3.34913Z" fill="black"/>
<path d="M32.7733 3.8161H33.1272C33.2814 3.8161 33.45 3.8395 33.45 4.03157C33.45 4.28422 33.1795 4.25462 33.0053 4.25462H32.7733V4.37372H33.0521L33.406 4.94855H33.5864L33.2146 4.37372C33.4349 4.36821 33.6063 4.27803 33.6063 4.03433C33.6085 3.98169 33.597 3.92938 33.5729 3.88254C33.5487 3.83571 33.5128 3.79597 33.4686 3.76722C33.3755 3.71928 33.2709 3.69808 33.1664 3.70595H32.626V4.94855H32.7775L32.7733 3.8161Z" fill="black"/>
</svg>
