<svg width="31" height="52" viewBox="0 0 31 52" fill="none" xmlns="http://www.w3.org/2000/svg">
<path d="M4.96112 46.9696L5.6891 46.9688C5.63861 46.8362 5.61125 46.6959 5.60821 46.554V44.1877C5.60821 44.0058 5.7191 44.0158 5.80042 44.1172L8.21527 46.9692H8.95325L6.44708 44.0167C6.38663 43.9462 6.39577 43.8348 6.48665 43.8348H6.75061C7.08021 43.8347 7.39626 43.7036 7.62925 43.4704C7.86223 43.2372 7.99308 42.9209 7.99308 42.5911C7.99302 42.2614 7.86199 41.9451 7.62894 41.712C7.39583 41.4788 7.07978 41.3478 6.75018 41.3479H4.96156C5.00157 41.4593 5.03157 41.5603 5.04244 41.7635V46.5562C5.03891 46.6976 5.01141 46.8374 4.96112 46.9696ZM5.60647 41.9023H6.74803C6.83717 41.9023 6.9255 41.9198 7.00789 41.9539C7.09027 41.988 7.16517 42.0381 7.22824 42.1011C7.2913 42.1642 7.34136 42.2391 7.37553 42.3216C7.40963 42.404 7.42724 42.4923 7.4273 42.5815C7.4273 42.6708 7.40976 42.7591 7.37565 42.8416C7.3416 42.9241 7.29161 42.999 7.22854 43.0621C7.16548 43.1252 7.09064 43.1753 7.00832 43.2095C6.92593 43.2436 6.8376 43.2612 6.74846 43.2613L5.60647 43.2595V41.9023ZM21.1918 22.7883C20.193 25.3004 17.8821 26.0998 17.8821 26.0998L18.7092 27.813C18.7092 27.813 18.8266 27.7843 19.0262 27.7133C19.5376 28.2912 21.5498 30.819 21.6489 34.781C21.6489 34.7802 21.7907 36.4085 20.3356 37.5499H24.7591C24.7591 37.5499 24.1877 37.1787 23.9598 36.1509C23.7315 35.1235 23.7876 33.3242 22.8183 31.1536C22.0364 29.4069 20.9601 27.6045 20.57 26.9688C21.7498 26.2464 23.1971 24.9753 23.9881 22.8444C25.471 18.8476 22.6187 15.8776 19.9364 15.3638C19.9364 15.3638 20.6774 16.7066 20.7927 17.677C20.7927 17.6766 22.483 19.5399 21.1918 22.7883ZM25.2127 6.76602C25.0218 6.62419 24.3882 6.07154 24.152 5.88529C23.9703 5.7443 23.6763 4.74302 24.5778 4.72256C25.0322 4.71169 25.4371 5.05633 25.5876 5.14728L25.8407 4.51021C25.6877 4.47884 25.5386 4.43129 25.3958 4.36835C25.2166 4.29264 24.8904 4.15557 24.5778 4.15557C24.2642 4.15557 23.4032 4.33876 23.3545 5.26781C23.3141 6.0376 23.8294 6.41053 24.022 6.5637C24.2947 6.76559 24.9913 7.30125 25.3049 7.73643C25.6188 8.17111 25.7802 9.08147 24.6582 9.21287C24.2738 9.21244 23.8511 9.02141 23.6172 8.86909L23.708 9.65804C23.9407 9.6167 24.0725 9.66676 24.1725 9.67847C24.3447 9.69767 24.5778 9.74945 24.7982 9.73896C25.0218 9.72896 26.1642 9.53707 26.1642 8.43398C26.1638 7.46357 25.4854 6.98839 25.2127 6.76602ZM20.9566 47.1624C21.5598 47.1624 22.1186 47.1541 22.5765 46.8287L22.5535 46.1393C22.1455 46.548 21.5811 46.6193 20.9566 46.6193C19.7098 46.6193 18.6983 45.4862 18.6983 44.2386C18.6983 42.991 19.7098 41.8966 20.9566 41.8966C21.5232 41.8966 22.049 42.0537 22.4787 42.3909L22.403 41.7121C21.9672 41.4349 21.5107 41.354 20.9566 41.354C19.4097 41.354 18.1556 42.6904 18.1556 44.2386C18.1552 45.7873 19.4097 47.1624 20.9566 47.1624ZM11.5542 47.0418C12.297 47.0418 13.0094 46.7466 13.5347 46.221C14.0599 45.6954 14.355 44.9826 14.355 44.2393C14.355 43.496 14.0599 42.7831 13.5347 42.2575C13.0094 41.732 12.297 41.4367 11.5542 41.4367C10.8114 41.4367 10.099 41.732 9.57375 42.2575C9.04851 42.7831 8.75345 43.496 8.75345 44.2393C8.75345 44.9826 9.04851 45.6954 9.57375 46.221C10.099 46.7466 10.8114 47.0418 11.5542 47.0418ZM11.5542 41.9797C12.1435 41.9939 12.7039 42.2381 13.1156 42.6601C13.5273 43.0822 13.7578 43.6486 13.7578 44.2384C13.7578 44.8282 13.5273 45.3946 13.1156 45.8167C12.7039 46.2387 12.1435 46.4829 11.5542 46.497C10.9554 46.4972 10.3811 46.2593 9.95758 45.8358C9.53399 45.4123 9.29585 44.8378 9.29549 44.2386C9.29573 43.6394 9.53381 43.0647 9.95739 42.6412C10.381 42.2175 10.9553 41.9796 11.5542 41.9797ZM25.7589 47.0505L26.1733 46.3835C25.8924 46.5349 25.2945 46.5349 24.9196 46.5349C24.5478 46.5349 24.3743 46.3439 24.3743 46.1815V44.3409C24.3743 44.1172 24.5156 44.0476 24.6878 44.0476H25.6775V43.4793H24.6887C24.5165 43.4793 24.3751 43.4105 24.3751 43.1869V42.2957C24.3751 42.1346 24.5473 41.9428 24.9205 41.9428C25.2953 41.9428 25.6289 41.9428 25.9111 42.0942L25.7585 41.4275H23.7276C23.7689 41.5389 23.7981 41.6395 23.8081 41.8418L23.8089 46.6359C23.806 46.7781 23.7784 46.9187 23.7276 47.0514L25.7589 47.0505ZM16.0042 46.6354C16.0014 46.777 15.9742 46.9169 15.9238 47.0493L16.6509 47.0501C16.6011 46.9171 16.5736 46.7766 16.5696 46.6346H16.5705V44.0867L18.106 41.4275H17.4493L16.3083 43.4401L15.1663 41.4275H14.5092L16.0047 44.0867L16.0042 46.6354ZM16.1117 28.5292C15.9899 28.118 15.5442 27.2282 15.3215 26.8609C14.4957 27.0001 13.7264 27.0462 13.1189 27.0462L13.1193 26.602C12.8367 26.702 11.582 26.884 11.0572 26.9462V35.825C11.0572 36.7558 10.6523 37.1992 10.3692 37.6047H13.8055C13.5224 37.1992 13.1185 36.7558 13.1185 35.8258L13.1193 28.7859C14.1839 28.7694 15.2076 28.6803 16.1117 28.5292ZM16.534 8.77689V4.43755C16.5435 4.2352 16.5748 4.13468 16.6157 4.02371L15.8878 4.02415C15.9278 4.13555 15.9573 4.23564 15.9695 4.43755V9.23201C15.9652 9.37384 15.9375 9.51395 15.8878 9.64676H17.9186L18.333 8.97878C18.0503 9.13024 17.4541 9.12975 17.0802 9.13024C16.7053 9.13024 16.534 8.93872 16.534 8.77689ZM11.9195 4.03242C11.5475 4.02592 11.178 4.09362 10.8324 4.23159C10.4869 4.36955 10.1722 4.57501 9.90691 4.83596C9.64153 5.09692 9.43081 5.40814 9.28696 5.75148C9.14311 6.09482 9.06906 6.46341 9.06913 6.83564C9.06919 7.20794 9.14335 7.5765 9.28733 7.91979C9.43124 8.26307 9.64208 8.57421 9.90752 8.83511C10.173 9.09601 10.4876 9.30133 10.8332 9.43923C11.1788 9.57707 11.5484 9.64467 11.9204 9.63805C12.6547 9.62498 13.3545 9.3239 13.8692 8.79959C14.3838 8.27528 14.6722 7.56969 14.672 6.83479C14.6719 6.09988 14.3834 5.39441 13.8686 4.87027C13.3538 4.34613 12.6539 4.04525 11.9195 4.03242ZM11.9199 9.09453C11.6189 9.10177 11.3194 9.04871 11.0392 8.93841C10.759 8.82811 10.5036 8.66291 10.2881 8.45238C10.0727 8.24191 9.90145 7.99046 9.78453 7.71275C9.6676 7.43504 9.60736 7.13678 9.60736 6.83546C9.60736 6.53414 9.6676 6.23584 9.78453 5.95815C9.90145 5.68046 10.0727 5.42897 10.2881 5.21848C10.5036 5.00799 10.759 4.84274 11.0392 4.73247C11.3194 4.62219 11.6189 4.56912 11.9199 4.57636C12.5093 4.59053 13.0698 4.83477 13.4816 5.25688C13.8934 5.679 14.124 6.24553 14.124 6.83546C14.124 7.42535 13.8934 7.99187 13.4816 8.41398C13.0698 8.83609 12.5093 9.08036 11.9199 9.09453ZM20.3943 8.77689L20.3935 4.43755C20.403 4.23564 20.4352 4.13512 20.4752 4.02371L19.7472 4.02415C19.7872 4.13555 19.8185 4.23564 19.829 4.43755V9.23201C19.8253 9.3739 19.7977 9.51413 19.7472 9.64676H21.7789L22.1925 8.97878C21.9098 9.13024 21.3136 9.12975 20.9397 9.13024C20.5656 9.13024 20.3943 8.93872 20.3943 8.77689ZM6.85324 6.51058L7.11549 6.51193C7.43975 6.50334 7.74789 6.36838 7.97419 6.13586C8.20055 5.90332 8.32716 5.59154 8.32716 5.26694C8.32716 4.94234 8.20055 4.63057 7.97419 4.39803C7.74789 4.16548 7.43975 4.03055 7.11549 4.02197L5.32772 4.02415C5.36816 4.13512 5.39817 4.23564 5.40773 4.43798V9.2325C5.40475 9.37445 5.37753 9.51481 5.32728 9.64762H6.05526V9.64676C6.00483 9.51413 5.97719 9.3739 5.9735 9.23201V6.86527C5.9735 6.68339 6.08483 6.69296 6.16615 6.7943L8.58187 9.64633H9.31855L6.81238 6.69247C6.7519 6.62155 6.76239 6.51058 6.85324 6.51058ZM5.97263 5.93708V4.57984H7.1142C7.29013 4.58614 7.45675 4.66051 7.57901 4.78729C7.70126 4.91407 7.76954 5.08337 7.76954 5.25954C7.76954 5.43572 7.70126 5.60502 7.57901 5.7318C7.45675 5.85858 7.29013 5.93295 7.1142 5.93925L5.97263 5.93708Z" fill="black" stroke="black" stroke-width="0.5" stroke-miterlimit="22.926"/>
<path d="M6.32892 35.3801L9.76484 35.3792C9.48216 34.9736 9.07772 34.5302 9.07772 33.5994L9.07821 26.5605C11.3943 26.5217 13.3291 26.1392 14.8802 25.5226C17.2442 28.056 17.5269 31.7387 17.5677 32.7483C17.6078 33.7613 17.0829 34.6512 16.2736 35.3796H20.7615C20.0735 35.015 19.8313 34.0446 19.7917 33.1138C19.3469 28.9068 17.0025 25.6305 16.4349 24.7802C19.0985 23.1819 20.2757 20.7325 20.2757 18.4705C20.2757 14.7083 16.9607 12.928 14.0905 12.928H6.53113C6.8138 13.3323 7.01556 13.4942 7.01556 14.4245V33.599C7.01556 34.5302 6.61204 34.975 6.32892 35.3801ZM9.07821 14.2631H13.5248C16.5967 14.2631 17.6078 16.2056 17.5677 18.2678C17.3655 23.9721 11.7052 24.8224 9.07821 24.8224V14.2631Z" fill="black" stroke="black" stroke-width="0.5" stroke-miterlimit="22.926"/>
<path d="M26.8703 2.41724H4.22035C3.88166 2.41781 3.55702 2.55269 3.31754 2.79233C3.07806 3.03196 2.94326 3.35681 2.94269 3.69571V47.4157C2.94269 47.7582 3.07576 48.0781 3.31755 48.3209C3.43583 48.4398 3.57654 48.534 3.73152 48.5981C3.8865 48.6623 4.05266 48.6949 4.22035 48.6942H26.8911C27.2325 48.6942 27.5321 48.5615 27.7735 48.3209C28.0148 48.0781 28.1266 47.7582 28.1266 47.4157V3.69528C28.1266 2.9912 27.5752 2.41724 26.8703 2.41724ZM27.3608 47.5102C27.3608 47.7686 27.1507 47.9802 26.8911 47.9802H4.22035C4.1587 47.9802 4.09767 47.968 4.04078 47.9442C3.9839 47.9205 3.93229 47.8856 3.88897 47.8418C3.84514 47.7984 3.81038 47.7468 3.78671 47.6899C3.76304 47.6329 3.75094 47.5718 3.75112 47.5102L3.75155 40.3633H27.3612L27.3608 47.5102ZM27.3608 39.4608H3.75155V11.2486L27.3612 11.2269L27.3608 39.4608ZM27.3608 10.3239H3.75155V3.60171C3.75155 3.47639 3.80026 3.35803 3.88897 3.2697C3.97769 3.18136 4.0951 3.13175 4.22035 3.13175H26.8911C27.0157 3.13199 27.1351 3.18163 27.2231 3.26981C27.3112 3.35799 27.3607 3.4775 27.3608 3.60215V10.3239Z" fill="black" stroke="black" stroke-miterlimit="22.926"/>
<path d="M15.6079 15.0903L10.5738 15.0907C10.8578 15.4945 11.0595 15.6564 11.0595 16.5868V24.1915C11.7258 24.1314 12.6551 23.8277 13.1195 23.6658V16.4253H16.7603C16.5572 15.9206 16.0119 15.3335 15.6079 15.0903Z" fill="black" stroke="black" stroke-width="0.5" stroke-miterlimit="22.926"/>
</svg>
