<svg width="76" height="27" viewBox="0 0 76 27" fill="none" xmlns="http://www.w3.org/2000/svg">
<g clip-path="url(#clip0)">
<path d="M37.9995 12.581C37.8606 12.581 37.7585 12.6744 37.7574 12.6765C37.7513 12.6809 35.2921 14.7916 35.2921 14.7916C34.3852 15.5789 33.1812 15.2495 33.0525 15.211C33.0525 15.211 22.5406 12.6318 22.5392 12.6309C20.5331 12.0866 20.1346 11.4995 19.8276 10.7863C19.8276 10.7863 19.6492 10.343 19.2126 10.2268C19.2126 10.2268 6.3626 6.83385 6.36143 6.83385C5.83704 6.68832 5.54846 6.55518 5.3423 6.19607C5.3423 6.19607 4.63696 5.07907 4.63462 5.07592C4.47819 4.80817 4.19475 4.77982 4.17841 4.77772C3.20643 4.6597 2.92159 4.17229 2.80111 3.96481L2.22792 3.05928C2.04861 2.77872 1.79225 2.75499 1.78431 2.75415C1.23167 2.72265 0.968769 2.59728 0.740193 2.2598C0.740193 2.2598 0.179843 1.42148 0.177509 1.41728C-0.0979967 0.959473 -0.00273726 0.63187 0.124275 0.437409C0.392309 0.0386155 0.882148 0.00837524 1.07874 0.0020752H31.8055C32.6755 0.0020752 33.3785 0.239167 33.8982 0.708101C34.2715 1.04263 34.5286 1.47923 34.6617 2.00507C34.664 2.01746 34.7002 2.12729 34.9631 2.12729H41.0363C41.2995 2.12729 41.3354 2.01767 41.3378 2.00507C41.4708 1.47923 41.7279 1.04263 42.1012 0.708101C42.621 0.239167 43.3237 0.0020752 44.1941 0.0020752H74.9209C75.1175 0.00816524 75.6071 0.0386155 75.8749 0.437199C76.0022 0.63166 76.0972 0.959262 75.8217 1.41707C75.8194 1.42127 75.259 2.25959 75.259 2.25959C75.0304 2.59707 74.7678 2.72244 74.2149 2.75394C74.2072 2.75478 73.9504 2.77851 73.7713 3.05907L73.1981 3.9646C73.0776 4.17208 72.7928 4.65949 71.821 4.77751C71.8047 4.77961 71.5212 4.80796 71.3646 5.07571C71.3622 5.07886 70.6571 6.19586 70.6571 6.19586C70.451 6.55497 70.1624 6.68832 69.6382 6.83364L56.7871 10.2266C56.3505 10.3428 56.1721 10.7861 56.1721 10.7861C55.8653 11.4992 55.4668 12.0864 53.4605 12.6307C53.4593 12.6316 42.9471 15.2108 42.9471 15.2108C42.8185 15.2492 41.6144 15.5787 40.7076 14.7914C40.7076 14.7914 38.2486 12.6805 38.2421 12.6763C38.2411 12.6742 38.1391 12.5808 38.0002 12.5808L37.9995 12.581Z" fill="black"/>
<path d="M41.8516 2.79886C41.958 2.31743 42.1611 1.92265 42.4529 1.62396C42.8568 1.21006 43.4195 0.999443 44.122 0.999443H58.0755C57.5959 1.3666 57.3441 1.83103 57.3272 1.86197C57.1355 2.22687 56.9342 2.58644 56.7237 2.9403H41.8025C41.8334 2.88481 41.8519 2.79886 41.8516 2.79886ZM74.8906 1.73494L74.3459 2.66168C74.2441 2.83357 74.1811 2.91125 73.7625 2.93841L57.2377 2.94077C57.4022 2.65621 57.561 2.36825 57.714 2.07706C57.7186 2.06833 58.304 1.0011 59.3432 1.0011L74.4814 0.999679C74.6402 1.00653 74.8465 1.02471 74.9557 1.20911C74.9688 1.2339 75 1.28538 75 1.37817C75 1.46034 74.9744 1.57721 74.8906 1.73494ZM72.8697 3.57214L72.2927 4.60844C72.214 4.76168 72.0926 4.9985 71.7072 5.13474C71.385 5.21714 70.7438 5.16472 70.5218 5.1371L56.4663 4.18178C56.648 3.90624 56.8167 3.64108 56.9699 3.38938H72.9911C72.9491 3.44393 72.908 3.50319 72.8697 3.57214ZM70.4803 5.85512C70.4839 5.85063 69.9275 6.85293 69.8119 7.06095C69.7835 7.09991 69.6251 7.27581 69.1105 7.20592L55.6419 5.35763C55.8265 5.11065 56.0015 4.86557 56.1656 4.62874L70.4729 5.59988C70.4939 5.60248 70.5541 5.60932 70.6402 5.61712C70.5779 5.68976 70.5243 5.76964 70.4803 5.85512ZM65.8481 8.52958C65.341 8.66699 64.3493 8.5114 64.0049 8.4382L54.7501 6.49215C54.9527 6.24872 55.1471 6.00741 55.3315 5.76846L68.8573 7.62573L65.8481 8.52958ZM61.2605 9.90683C60.6096 10.0851 59.7603 9.7968 59.7522 9.79444L59.7421 9.79113C59.7421 9.79113 59.7409 9.78995 59.7398 9.78995L53.5453 7.83517C53.8447 7.52511 54.136 7.20704 54.4189 6.88127L63.9163 8.87832C63.9371 8.88162 64.1316 8.92271 64.4047 8.9619L61.2605 9.90683ZM56.4216 11.3608C55.9819 11.4831 55.3336 11.2234 55.1185 11.1124C55.1185 11.1124 53.4608 10.3186 51.7587 9.50402C52.2544 9.08843 52.7327 8.65154 53.1922 8.19453L59.616 10.2225C59.6285 10.2272 59.7453 10.2662 59.9242 10.3073L56.4216 11.3608ZM55.43 12.3525C55.2429 12.8431 55.0474 13.3487 53.7297 13.8551C53.1857 14.028 52.5388 13.5359 52.5333 13.5305C52.531 13.5281 51.064 12.454 49.3935 11.2312C50.0796 10.7976 50.7417 10.3253 51.3765 9.8164L54.926 11.5162C54.9456 11.5263 55.3116 11.7155 55.755 11.8C55.5431 12.047 55.4471 12.3022 55.43 12.3525ZM50.4651 14.8074L49.9705 14.9445C49.5539 15.0465 49.0457 14.6244 48.8832 14.4489C48.8832 14.4489 48.0848 13.5992 47.0589 12.5034C47.717 12.1982 48.3591 11.858 48.9824 11.4843L52.2722 13.8922C52.2856 13.9035 52.4735 14.0476 52.7495 14.1701C52.0188 14.3736 50.4651 14.8071 50.4651 14.8074ZM46.1157 16.021C45.7683 16.0769 45.3653 15.4937 45.2485 15.2763L44.2563 13.5583C45.0639 13.3211 45.8564 13.0331 46.6292 12.6958L48.5644 14.7618C48.5815 14.779 48.7957 15.0064 49.1064 15.1861L46.1157 16.021ZM42.8219 16.9392C42.5881 16.9942 42.3908 16.9702 42.2211 16.8653C41.8572 16.6375 41.736 16.1135 41.7293 16.0829L41.2232 14.2147C42.0976 14.0912 42.9639 13.9137 43.8174 13.683L44.867 15.5008C44.903 15.5658 45.1161 15.9457 45.4353 16.2111L42.8219 16.9392ZM40.6872 16.2614C40.6872 16.2614 39.2798 14.8874 38.8025 14.4227C39.4723 14.3989 40.1333 14.3486 40.7823 14.2707L41.2998 16.1808C41.3146 16.2472 41.418 16.6661 41.7053 16.999C41.3088 16.8835 41.1885 16.7633 40.6872 16.2614ZM38.22 13.9857V8.16596H39.128L40.6632 13.8327C39.8642 13.9264 39.0499 13.9779 38.22 13.9857ZM35.3359 13.8327L36.8721 8.16596H37.7803V13.985C36.9487 13.9779 36.1347 13.9255 35.3359 13.8327ZM34.9327 16.6306C34.7543 16.8078 34.5342 16.9348 34.2936 16.9992C34.5831 16.6651 34.6837 16.2453 34.6989 16.1801L35.2166 14.2733C35.8656 14.3498 36.5266 14.4001 37.1962 14.423C36.66 14.9443 34.9327 16.6306 34.9327 16.6306ZM34.2699 16.0793C34.2699 16.085 34.1505 16.6318 33.7771 16.8653C33.6077 16.9702 33.4111 16.9945 33.1773 16.9392L30.5637 16.2108C30.8829 15.944 31.0982 15.5643 31.1351 15.4947C31.134 15.4959 31.5778 14.7283 32.18 13.6839C33.0338 13.9149 33.9007 14.0921 34.7758 14.2145L34.2699 16.0793ZM29.8833 16.021L26.8928 15.1859C27.203 15.0052 27.4181 14.7776 27.4345 14.7606C27.4345 14.7606 28.2894 13.8473 29.3695 12.6956C30.1423 13.0328 30.9345 13.3212 31.7417 13.5593L30.7536 15.2718C30.6334 15.4935 30.2304 16.0769 29.8833 16.021ZM26.0278 14.9445L23.2492 14.1701C23.4197 14.0951 23.5813 14.0007 23.7311 13.8886C23.7288 13.891 25.2834 12.7527 27.0163 11.4845C27.6402 11.8579 28.2826 12.198 28.9409 12.5034L27.1155 14.4489C26.9533 14.6244 26.4448 15.0465 26.0278 14.9445ZM22.266 13.8554C20.9536 13.3487 20.757 12.8446 20.5705 12.3551C20.4947 12.1518 20.3841 11.9639 20.2439 11.8002C20.5334 11.7416 20.8143 11.645 21.0797 11.5129C21.076 11.5141 22.8545 10.6643 24.6234 9.8164C25.2572 10.326 25.9188 10.7984 26.605 11.2312L23.4701 13.526C23.4599 13.5364 22.81 14.0306 22.266 13.8554ZM19.5785 11.3608C19.4461 11.3204 17.9733 10.878 16.075 10.3073C16.1809 10.2838 16.2855 10.2548 16.3884 10.2201C16.3829 10.2225 21.5939 8.57774 22.8074 8.19453C23.2671 8.65104 23.7454 9.08761 24.2409 9.50307L20.8869 11.1091C20.6651 11.2234 20.0182 11.4831 19.5785 11.3608ZM14.7421 9.90777C13.6925 9.59295 12.643 9.27766 11.5936 8.9619C11.7578 8.93912 11.9213 8.91085 12.0838 8.87714C12.0829 8.87855 18.7887 7.46801 21.5812 6.8815C21.8645 7.20665 22.1555 7.52471 22.4538 7.8354L16.2525 9.79255C16.2384 9.7968 15.3928 10.0841 14.7421 9.90777ZM10.1555 8.53099C9.15139 8.22791 8.14695 7.92615 7.14213 7.62573L20.6698 5.76846C20.8544 6.00623 21.0478 6.24754 21.2502 6.49144L11.9942 8.43844C11.6508 8.5114 10.6634 8.66699 10.1555 8.53099ZM6.8901 7.20616C6.37841 7.27605 6.21778 7.10321 6.18824 7.06213L5.51499 5.84945C5.47215 5.76611 5.41978 5.68828 5.35897 5.61759C5.44529 5.60956 19.8363 4.62898 19.8363 4.62898C20.0063 4.8749 20.1805 5.11782 20.3586 5.35763L6.8901 7.20616ZM4.29314 5.1345C3.90724 4.9985 3.78492 4.76168 3.70599 4.6082C3.47011 4.19784 3.15968 3.58441 3.00712 3.38891H19.0309C19.194 3.65622 19.3619 3.9204 19.5347 4.18131L5.47714 5.13662C5.2565 5.16449 4.61511 5.2169 4.29314 5.1345ZM2.24133 2.9403C1.85543 2.91078 1.77327 2.86403 1.65187 2.66003C1.65325 2.66145 1.14826 1.8027 1.1081 1.73494C1.02432 1.57721 0.996628 1.46034 1.00032 1.37793C1.00955 1.16732 1.14965 1.00511 1.518 0.999207L16.6568 1.00062C17.6816 1.00062 18.2858 2.07683 18.2858 2.07683C18.4391 2.36804 18.5983 2.65593 18.7634 2.9403H2.24133ZM31.8767 0.999207C32.5806 0.999207 33.1417 1.20982 33.5461 1.62396C33.838 1.92241 34.0404 2.31719 34.1482 2.79886C34.1482 2.79886 34.1699 2.88127 34.1976 2.94053H19.2767C19.0486 2.55756 18.6727 1.8622 18.6727 1.8622C18.6563 1.83151 18.404 1.36684 17.9242 0.999679L31.8767 0.999207ZM53.4835 3.98038V3.38891H56.4502C56.2906 3.64473 56.1264 3.89757 55.9579 4.14731L53.4835 3.98038ZM53.4835 5.06225V4.44717L55.6498 4.59356C55.4898 4.82094 55.3186 5.05304 55.1401 5.2901L53.4835 5.06225ZM53.4835 6.227V5.51535L54.8233 5.69952C54.6435 5.92737 54.4544 6.15711 54.2576 6.38921C53.9121 6.31625 53.6457 6.26123 53.4835 6.227ZM53.4835 6.68577L53.9208 6.77691C53.7776 6.93922 53.6318 7.09909 53.4835 7.25645V6.68577ZM48.964 8.16596H52.5847C52.2157 8.54115 51.3447 9.2672 51.316 9.29152C50.4358 8.86911 49.5772 8.45969 48.964 8.16596ZM45.2061 8.16596H47.9272L50.9285 9.60271C50.3115 10.0865 49.6692 10.5355 49.0043 10.9476C47.5558 9.88628 46.0298 8.76876 45.2061 8.16596ZM42.9922 8.16596H44.452L48.5896 11.1972C47.9882 11.55 47.3692 11.8707 46.7353 12.1579C45.3729 10.7054 43.7317 8.95387 42.9922 8.16596ZM41.1431 8.16596H42.3827L46.3031 12.348C45.56 12.6639 44.7993 12.9343 44.0248 13.1579L41.1431 8.16596ZM40.6323 8.16596L43.5856 13.2788C42.7689 13.495 41.9403 13.6612 41.1043 13.7765L39.5838 8.16573H40.6323V8.16596ZM35.3668 8.16596H36.4154L34.8949 13.7767C34.0589 13.6613 33.2304 13.4955 32.4135 13.2802C33.52 11.3655 34.9964 8.80748 35.3668 8.16596ZM33.6162 8.16596H34.8563L31.9743 13.1579C31.1994 12.9349 30.4385 12.6639 29.6956 12.3466C31.2676 10.6709 33.1595 8.65306 33.6162 8.16596ZM31.5471 8.16596H33.0069L29.2652 12.1579C28.6308 11.8705 28.0113 11.5499 27.4091 11.1972C29.2047 9.8818 31.0765 8.51022 31.5471 8.16596ZM24.6829 9.29152C24.6499 9.26413 23.7826 8.51848 23.4142 8.16596H27.0345L24.6829 9.29152ZM28.072 8.16596H30.7924L26.9944 10.9467C26.3295 10.5353 25.6873 10.0866 25.0709 9.60271C26.4965 8.91964 27.8169 8.28827 28.072 8.16596ZM22.512 6.68577V7.25173C22.3652 7.09579 22.221 6.93742 22.0793 6.77667C22.253 6.7396 22.3984 6.70961 22.512 6.68577ZM22.512 5.51535V6.22676L21.7416 6.38921C21.5498 6.1625 21.3617 5.93257 21.1773 5.69952L22.512 5.51535ZM22.512 4.44717V5.06225L20.8599 5.2901C20.6868 5.06079 20.5174 4.82858 20.3517 4.59356L22.512 4.44717ZM22.512 3.98038L20.0438 4.14731C19.8746 3.8979 19.7104 3.64505 19.5511 3.38891H22.512V3.98038Z" fill="white"/>
<path d="M24.8003 3.2558H24.6733L23.3723 5.87347H23.7247L23.7303 5.85835C23.8356 5.53978 23.9712 5.23464 24.1029 4.9419L24.1302 4.87974H25.1363C25.2915 5.20125 25.433 5.52797 25.5605 5.85919L25.5663 5.87347H26.0527L24.8003 3.2558ZM24.2287 4.68003C24.2553 4.62228 24.5967 3.90281 24.6373 3.81755C24.6775 3.90281 25.0256 4.62228 25.0529 4.68003H24.2287ZM26.1928 5.6872L26.2035 5.69728C26.3571 5.84806 26.7036 5.91841 26.8899 5.91841C27.5002 5.91841 27.9277 5.56414 27.9277 5.05593C27.9277 4.63446 27.5731 4.51035 27.2303 4.38834C26.9259 4.27935 26.6364 4.17876 26.6364 3.86753C26.6364 3.63128 26.8435 3.46055 27.1274 3.46055C27.3543 3.46055 27.5257 3.56828 27.6125 3.76547L27.6184 3.77954H27.6959L27.8175 3.44921L27.804 3.43787C27.6382 3.30347 27.383 3.2558 27.2014 3.2558C26.6324 3.2558 26.2654 3.54161 26.2654 3.98534C26.2654 4.43706 26.6399 4.5681 26.9695 4.68633C27.2677 4.79007 27.5474 4.88982 27.5474 5.2002C27.5474 5.48812 27.3088 5.71492 27.0048 5.71492C26.7263 5.71492 26.5416 5.60698 26.3616 5.34258L26.3546 5.3325H26.277L26.1928 5.6872ZM30.2247 3.30977H28.0846V3.57941L28.1122 3.57731C28.401 3.5475 28.6914 3.53249 28.9821 3.53237V5.88166H29.3933V3.53363C29.684 3.53363 29.9616 3.54854 30.2212 3.57731L30.2502 3.58025V3.30977H30.2247ZM31.6991 3.2558C30.7914 3.2558 30.1563 3.80621 30.1563 4.59267C30.1563 5.38605 30.7738 5.9182 31.6912 5.9182C32.6396 5.9182 33.2779 5.36253 33.2779 4.5366C33.2781 3.65144 32.4845 3.2558 31.6991 3.2558ZM32.4591 5.46145C32.2571 5.6536 32.0038 5.75146 31.7024 5.75146C31.0379 5.75146 30.6081 5.31423 30.6081 4.63761C30.6081 3.8879 31.0423 3.42275 31.7398 3.42275C32.0687 3.42275 32.3793 3.55295 32.5712 3.77051C32.782 4.01264 32.825 4.26507 32.825 4.56726C32.8261 4.58364 32.8273 4.60191 32.8273 4.61934C32.8273 4.86525 32.7159 5.21427 32.4591 5.46145ZM36.1285 3.30977H35.8735V5.20713H35.8688C35.8541 5.1918 33.9216 3.30977 33.9216 3.30977H33.725V5.87347H34.0054V3.88958H34.0113C34.0262 3.90491 35.7726 5.64373 35.7726 5.64373L35.9916 5.87368H36.1539V3.30977H36.1285ZM40.7341 3.30977H40.6332L39.9428 4.4358C39.9428 4.4358 39.506 5.15211 39.4663 5.21637C39.0404 4.57734 38.6568 3.90491 38.3304 3.32195L38.3236 3.30977H38.1786L38.1763 3.33119C38.1357 3.70982 37.8905 5.25291 37.7834 5.84806L37.7778 5.87347H38.1233V5.85142C38.1233 5.49022 38.1945 4.95177 38.2702 4.38099L38.3157 4.02797C38.364 4.11114 38.9003 5.02716 39.1051 5.40453L39.3369 5.83399H39.4144L39.421 5.81971C39.6594 5.32704 39.996 4.76466 40.4567 4.02398C40.5218 4.46562 40.6082 5.34762 40.6561 5.8531L40.6587 5.87368H41.0953L41.0915 5.84827C40.993 5.22645 40.8854 4.40346 40.7595 3.3314L40.7569 3.30998H40.7341V3.30977ZM42.6888 3.2558H42.5608L41.2594 5.87347H41.6138L41.6185 5.85835C41.7242 5.53684 41.8606 5.23065 41.993 4.93539C41.993 4.93539 42.0093 4.89885 42.0173 4.87953H43.024C43.1789 5.20108 43.3202 5.5278 43.4476 5.85898L43.4532 5.87326H43.94L42.6888 3.2558ZM42.1165 4.68003C42.1431 4.62228 42.4847 3.90281 42.5255 3.81755L42.9411 4.68003H42.1165ZM45.1916 4.60695C45.706 4.5135 46.0137 4.24995 46.0137 3.89378C46.0137 3.50234 45.7081 3.30998 45.0784 3.30998H44.1851V5.87368H44.5953V4.64475H44.7151C44.8212 4.75787 44.9276 4.87078 45.0343 4.98348C45.0329 4.98222 45.5174 5.54608 45.5174 5.54608L45.7826 5.87368H46.3198C46.3198 5.87347 45.2404 4.66092 45.1916 4.60695ZM44.5953 4.46058V3.49205C44.7644 3.48491 45.0266 3.47483 45.1688 3.49541C45.4534 3.53678 45.5979 3.6863 45.5979 3.93746C45.5979 4.19514 45.41 4.38309 45.0931 4.44042C44.915 4.47255 44.6997 4.46667 44.5953 4.46058ZM48.3866 3.30977H46.2456V3.57941L46.2736 3.57731C46.5621 3.54754 46.8522 3.53254 47.1426 3.53237V5.88166H47.5559V3.53363C47.8454 3.53363 48.1237 3.54854 48.3835 3.57731L48.4123 3.58025V3.30977H48.3866ZM48.7501 5.87347H49.1379V3.30977H48.7501V5.87347ZM51.8911 3.30977V5.20713H51.8876C51.8724 5.1918 49.9404 3.30977 49.9404 3.30977H49.7433V5.87347H50.024V3.88958H50.0289C50.0438 3.90491 51.7926 5.64373 51.7926 5.64373L52.0116 5.87368H52.1715V3.30977H51.8911Z" fill="white"/>
<path d="M14.6414 26.1119C14.4877 26.1035 14.357 26.0894 14.2178 26.0894C14.0635 26.0894 13.925 26.1035 13.7857 26.1119C13.5503 25.5033 13.2564 24.8013 12.93 24.135H10.8611C10.5758 24.7788 10.2821 25.4229 10.0544 26.1119C9.94003 26.1035 9.85085 26.0894 9.75232 26.0894C9.64655 26.0894 9.55666 26.1035 9.46724 26.1119L12.0096 20.9965H12.1973L14.6414 26.1119ZM66.2458 26.1119H65.9999C65.8641 25.9591 65.7231 25.8101 65.5771 25.665L62.0558 22.1651H61.9759V26.1117C61.8942 26.1035 61.8209 26.0894 61.7464 26.0894C61.6656 26.0894 61.5916 26.1035 61.5185 26.1117V21.1051H61.8368L65.7069 24.8744H65.7891V21.1051C65.8619 21.1111 65.9348 21.1267 66.0177 21.1267C66.0914 21.1267 66.1648 21.1114 66.2455 21.1051L66.2458 26.1119ZM59.6481 21.1051C59.7625 21.1111 59.8853 21.1267 60.0068 21.1267C60.1207 21.1267 60.2353 21.1114 60.3649 21.1051V26.1119C60.2351 26.1035 60.1205 26.0894 60.0068 26.0894C59.8851 26.0894 59.7625 26.1035 59.6481 26.1119V21.1051ZM57.0371 26.126C56.9064 26.1188 56.7918 26.1035 56.6769 26.1035C56.5555 26.1035 56.4338 26.1188 56.3194 26.126V21.4562C55.4973 21.4562 55.0005 21.4999 54.5338 21.5435C54.5443 21.4702 54.5592 21.3972 54.5592 21.3247C54.5592 21.2506 54.5443 21.1855 54.5338 21.1051H58.7397C58.7315 21.1855 58.7163 21.2506 58.7163 21.3247C58.7163 21.3972 58.7313 21.4702 58.7397 21.5435C58.1747 21.484 57.6062 21.4548 57.0374 21.4562V26.126H57.0371ZM50.4355 21.1051H52.163C53.4189 21.1051 53.9725 21.4774 53.9725 22.2172C53.9725 23.0656 53.1257 23.4768 52.3022 23.6079L53.9809 25.5184L54.3724 25.9284L54.5261 26.1119C54.3559 26.1035 54.2088 26.0894 54.0537 26.0894C53.8997 26.0894 53.7369 26.1035 53.588 26.1119C53.421 25.8965 53.2499 25.6838 53.0748 25.4737L52.1145 24.3548L51.4626 23.6679H51.1542V26.1121C51.023 26.1037 50.909 26.0897 50.7948 26.0897C50.6723 26.0897 50.5499 26.1037 50.4358 26.1121V21.1051H50.4355ZM51.1539 23.388C51.2667 23.3951 51.7883 23.4247 52.2041 23.3514C52.8007 23.2422 53.2475 22.8754 53.2475 22.3054C53.2475 21.8 52.9611 21.4703 52.351 21.3818C52.0503 21.3394 51.4944 21.3606 51.1539 21.376V23.388ZM49.8712 26.1119C49.7152 26.1035 49.5866 26.0894 49.4463 26.0894C49.2922 26.0894 49.1535 26.1035 49.0167 26.1119C48.779 25.5033 48.485 24.8013 48.1593 24.135H46.091C45.8047 24.7788 45.5108 25.4229 45.2834 26.1119C45.1692 26.1035 45.08 26.0894 44.9824 26.0894C44.8766 26.0894 44.7858 26.1035 44.6973 26.1119L47.2387 20.9965H47.4262L49.8712 26.1119ZM47.1334 21.9547L46.2448 23.8275H48.0377L47.1334 21.9547ZM43.663 21.1051C43.875 22.9119 44.104 24.7139 44.3228 26.1119C44.176 26.1035 44.0616 26.0894 43.9401 26.0894C43.8089 26.0894 43.6794 26.1035 43.5575 26.1119C43.4197 24.6396 43.2537 23.0595 43.1403 22.3352C42.1954 23.8502 41.4945 25.0201 41.0056 26.0315H40.9164L40.4685 25.2034C39.9458 24.2389 39.3756 23.2868 38.8221 22.3355C38.6425 23.7618 38.4226 25.2104 38.4226 26.1121C38.3177 26.1037 38.2269 26.0897 38.1387 26.0897C38.0327 26.0897 37.9421 26.1037 37.8447 26.1121C38.0555 24.9338 38.5445 21.8732 38.6264 21.1053H38.8384C39.4905 22.2704 40.2729 23.6446 41.1435 24.9409C41.9196 23.6874 42.6689 22.4161 43.4914 21.1053H43.663V21.1051ZM34.4805 26.1119H34.2347C34.0993 25.9588 33.9583 25.8098 33.8121 25.665L30.291 22.1651H30.21V26.1117C30.1285 26.1035 30.0545 26.0894 29.9814 26.0894C29.9006 26.0894 29.8278 26.1035 29.7535 26.1117V21.1051H30.072L33.9417 24.8744H34.0241V21.1051C34.0969 21.1111 34.17 21.1267 34.251 21.1267C34.3239 21.1267 34.3981 21.1114 34.4805 21.1051V26.1119ZM22.7935 23.6079C22.7935 22.0045 24.1208 20.9963 25.8084 20.9963C27.341 20.9963 28.8964 21.7407 28.8964 23.4978C28.8964 25.1297 27.6097 26.1999 25.7937 26.1999C23.9927 26.2001 22.7935 25.1747 22.7935 23.6079ZM27.5854 21.9463C27.1787 21.4858 26.5429 21.2365 25.8892 21.2365C24.4568 21.2365 23.5927 22.2101 23.5927 23.6952C23.5927 25.1827 24.6025 25.9571 25.8171 25.9571C27.5369 25.9571 28.156 24.3618 28.0984 23.557C28.0981 22.9506 28.009 22.4369 27.5854 21.9463ZM21.186 26.126C21.055 26.1188 20.9418 26.1035 20.8271 26.1035C20.7043 26.1035 20.5815 26.1188 20.469 26.126V21.4562C19.6455 21.4562 19.1475 21.4999 18.684 21.5435C18.692 21.4702 18.7083 21.3972 18.7083 21.3247C18.7083 21.2506 18.692 21.1855 18.684 21.1051H22.8883C22.8794 21.1855 22.864 21.2506 22.864 21.3247C22.864 21.3972 22.8794 21.4702 22.8883 21.5435C22.3232 21.484 21.7547 21.4548 21.1858 21.4562V26.126H21.186ZM15.2127 25.1228C15.5297 25.5917 15.8958 25.8847 16.5332 25.8847C17.1921 25.8847 17.6649 25.3933 17.6649 24.8158C17.6649 23.4543 15.1142 24.0556 15.1142 22.4003C15.1142 21.4562 15.9456 20.9963 16.9236 20.9963C17.3135 20.9963 17.7877 21.1051 18.0875 21.3463C17.9901 21.5364 17.9334 21.7407 17.8685 21.9463H17.7877C17.6163 21.5505 17.2582 21.3096 16.7775 21.3096C16.2148 21.3096 15.7511 21.6471 15.7511 22.1651C15.7511 23.5131 18.317 22.9709 18.317 24.5306C18.317 25.5775 17.4109 26.1999 16.3037 26.1999C15.9054 26.1999 15.2533 26.0464 14.9762 25.7749C15.0565 25.5621 15.0978 25.3423 15.1305 25.1228H15.2127ZM11.9036 21.9547L11.0164 23.8275H12.8081L11.9036 21.9547Z" fill="black"/>
</g>
<defs>
<clipPath id="clip0">
<rect width="76" height="27" fill="white" transform="translate(0 -0.000793457)"/>
</clipPath>
</defs>
</svg>
