<svg width="144" height="47" viewBox="0 0 144 47" fill="none" xmlns="http://www.w3.org/2000/svg">
<g clip-path="url(#clip0_1959_2767)">
<path fill-rule="evenodd" clip-rule="evenodd" d="M71.4589 45.9796C86.063 45.9796 97.877 35.897 97.877 23.4633C97.877 11.0296 86.0476 0.939087 71.4589 0.939087C56.8703 0.939087 45.041 11.0217 45.041 23.4633C45.041 35.9049 56.8703 45.9796 71.4589 45.9796Z" fill="white" stroke="#231F20" stroke-width="0.828616" stroke-miterlimit="2.61"/>
<path fill-rule="evenodd" clip-rule="evenodd" d="M71.4627 44.5224C85.298 44.5224 96.4588 35.0946 96.4588 23.4656C96.4588 11.8366 85.2674 2.40881 71.4627 2.40881C57.658 2.40881 46.459 11.8761 46.459 23.4656C46.459 35.0552 57.6503 44.5224 71.4627 44.5224Z" fill="white" stroke="#231F20" stroke-width="0.828616" stroke-miterlimit="2.61"/>
<path fill-rule="evenodd" clip-rule="evenodd" d="M54.9115 29.546C53.7817 30.1929 50.6456 31.1239 49.7694 29.0253C48.5166 29.6722 45.8801 30.1929 44.6272 28.5125C42.4982 29.0253 40.1153 30.0903 39.2468 27.6052C37.3637 28.1259 32.7288 29.2856 32.2215 26.1772C29.4698 26.5716 25.4575 26.8241 24.9502 23.8499C22.5675 23.8499 18.4322 23.4633 18.4322 20.6151C16.0494 20.6151 11.9142 18.9268 12.4138 16.9861C10.2847 16.7257 7.40232 14.3984 7.40232 12.8442C5.2732 12.1972 2.89044 10.4773 3.39005 8.31562C2.13718 7.52668 0.000376307 6.63518 0.000376307 5.33343C-0.0102882 4.73642 0.206079 4.15863 0.603576 3.72265C1.00107 3.28666 1.54842 3.02679 2.1295 2.99817C3.25938 2.99817 7.50993 3.6451 9.04719 3.6451C10.5844 3.6451 28.7319 3.25852 32.9902 3.51887C37.088 3.74644 41.196 3.70163 45.2883 3.38474C47.917 3.1244 59.1237 2.50113 60.707 5.75157C61.837 8.11839 60.9607 8.8521 59.9384 9.75937C58.9162 10.6667 55.5495 12.355 55.5495 17.7908C55.5495 23.2266 56.1798 26.0747 54.9269 29.5697L54.9115 29.546Z" fill="#231F20"/>
<path fill-rule="evenodd" clip-rule="evenodd" d="M4.00591 4.30054C7.8952 4.30054 16.919 4.5609 18.6792 4.5609C20.4393 4.5609 32.845 5.98895 34.8204 6.63591C35.6967 6.88838 35.8811 7.79572 34.8204 7.85883C33.7597 7.92195 20.9851 8.11919 19.0865 8.11919C17.188 8.11919 4.32875 8.30855 2.59932 5.98895C1.34644 4.30053 2.91446 4.36365 4.03667 4.30054H4.00591Z" fill="white"/>
<path fill-rule="evenodd" clip-rule="evenodd" d="M6.32808 9.35104C8.58786 9.41417 19.8714 9.48515 21.1858 9.41417C22.5002 9.34315 32.7152 8.7672 33.9143 8.70408C35.1134 8.64097 36.2202 8.96445 36.2202 9.35104C36.2202 9.73764 35.9743 10.0611 34.5907 10.3846C26.7185 11.5014 18.7792 12.0445 10.8322 12.0099C9.01829 12.073 6.57403 11.1026 5.94376 10.1953C5.31347 9.28792 6.00525 9.35104 6.32039 9.35104H6.32808Z" fill="white"/>
<path fill-rule="evenodd" clip-rule="evenodd" d="M10.7157 13.6262C12.253 13.6262 30.7771 12.1982 34.6586 11.3539C35.9807 11.2277 36.8569 11.1646 36.9645 11.7484C37.0722 12.3322 37.026 12.5847 35.9039 12.9082C34.7816 13.2317 21.0615 15.8906 14.0977 16.0168C11.7918 15.9537 9.08622 13.6499 10.7157 13.6499V13.6262Z" fill="white"/>
<path fill-rule="evenodd" clip-rule="evenodd" d="M15.4188 17.6337C17.6094 17.3812 32.2134 14.9827 36.1719 13.8781C37.7091 13.4915 38.4778 13.6888 38.6776 14.1385C38.8774 14.5882 38.8697 15.3693 37.7399 15.7165C36.61 16.0636 23.697 19.2116 21.3142 19.3457C18.9315 19.4799 16.1105 18.8881 15.365 18.3121C14.6194 17.7363 15.4265 17.5942 15.4265 17.5942L15.4188 17.6337Z" fill="white"/>
<path fill-rule="evenodd" clip-rule="evenodd" d="M21.3069 21.0029C22.8442 20.6795 35.6036 17.705 39.2391 16.269C40.2999 15.9456 40.6765 16.269 40.8687 16.6557C40.9447 16.7679 40.9942 16.897 41.0129 17.0325C41.0316 17.1679 41.0193 17.3059 40.9767 17.4355C40.9341 17.5652 40.8625 17.6828 40.7677 17.7789C40.6728 17.875 40.5573 17.9469 40.4306 17.989C39.7388 18.3125 29.9617 22.5256 25.3192 22.786C23.9757 22.7572 22.6583 22.4003 21.4761 21.7445C20.9764 21.4842 21.1609 21.4842 21.2839 21.0345L21.3069 21.0029Z" fill="white"/>
<path fill-rule="evenodd" clip-rule="evenodd" d="M42.0595 18.2832C40.6145 19.0012 31.8367 22.8199 28.4547 23.5931C27.517 23.8535 27.0096 24.5635 28.1396 24.9501C29.2695 25.3368 31.9058 25.1473 33.4739 24.6976C35.0419 24.2479 41.3985 22.1019 43.8427 19.6482C43.1839 19.2894 42.5825 18.8291 42.0595 18.2832Z" fill="white"/>
<path fill-rule="evenodd" clip-rule="evenodd" d="M44.7057 20.4824C41.5341 22.3749 38.218 24.0004 34.7903 25.3425C33.8449 25.6659 34.2907 26.5733 35.2285 26.6995C37.3957 26.8702 39.5573 26.3016 41.3775 25.0822C43.1133 24.0006 44.768 22.7875 46.3275 21.4528C45.9509 21.2635 45.1361 20.7427 44.698 20.4824H44.7057Z" fill="white"/>
<path fill-rule="evenodd" clip-rule="evenodd" d="M47.573 22.2355C45.9742 23.3716 42.2694 25.8964 41.6852 26.3145C40.8704 26.8984 40.4323 27.8925 42.0619 27.7347C43.6914 27.5769 46.6736 26.3776 49.0795 22.8193C48.5559 22.6572 48.0426 22.4622 47.5422 22.2355H47.573Z" fill="white"/>
<path fill-rule="evenodd" clip-rule="evenodd" d="M50.391 23.2018C49.3918 24.2354 47.8853 25.9237 46.8245 26.8231C46.1328 27.5411 46.6324 28.8351 47.8237 28.2513C49.6146 27.2362 51.0018 25.6084 51.7437 23.6515C51.282 23.5385 50.8296 23.3882 50.391 23.2018Z" fill="white"/>
<path fill-rule="evenodd" clip-rule="evenodd" d="M52.9067 24.8207C52.092 25.8543 51.2772 26.6984 50.77 27.3454C50.2627 27.9923 50.9006 28.6393 51.4002 28.8366C51.8999 29.0338 52.8453 29.5467 53.9675 27.2586L52.9067 24.8917V24.8207Z" fill="white"/>
<path fill-rule="evenodd" clip-rule="evenodd" d="M28.5613 4.03974C30.1908 4.03974 35.7095 4.43423 37.7157 4.43423C39.7218 4.43423 44.3643 4.3001 46.0554 4.17386C48.6842 4.00816 51.3204 4.00816 53.9492 4.17386C55.7093 4.36322 59.591 4.62358 60.2828 6.5408C60.9745 8.45802 59.4834 9.41265 58.538 10.0991C57.3467 10.8141 56.3565 11.834 55.664 13.0592C54.9716 14.2844 54.6006 15.6731 54.5872 17.0895C53.8186 16.766 52.7655 16.5688 53.5188 14.9513C53.9569 14.044 56.0937 11.0696 55.5864 9.70463C55.0791 8.33967 53.4573 7.25088 49.7602 7.11676C46.063 6.98263 40.8593 7.11676 38.9993 6.79328C37.1392 6.4698 30.16 4.65514 28.7226 4.46578C28.0924 4.40267 28.0924 4.07919 28.5305 4.00818L28.5613 4.03974Z" fill="white"/>
<path fill-rule="evenodd" clip-rule="evenodd" d="M43.3729 7.67101C44.6873 7.67101 49.5219 7.53689 50.8978 7.79725C52.2736 8.05762 53.9724 8.46788 54.741 9.73817C55.3713 10.8427 54.3029 12.5863 53.8032 13.3043C53.031 14.2485 52.1936 15.1345 51.2975 15.9553C50.7902 16.3419 49.8524 15.695 50.6672 14.7245C49.5989 15.3715 48.2845 15.2452 48.9147 13.754C47.9694 14.543 46.409 14.5982 47.3775 12.5863C46.7472 13.1071 44.9947 13.0439 46.1246 11.4897C45.1792 11.8131 44.1185 11.2293 44.8025 10.2589C43.6188 10.4561 42.9271 9.54875 44.1799 8.83082C42.9886 9.16219 42.6427 7.73414 43.4113 7.67101H43.3729Z" fill="white"/>
<path fill-rule="evenodd" clip-rule="evenodd" d="M37.963 7.23694C36.3181 7.23694 36.2796 9.07526 38.1551 8.97269C39.6385 8.8859 41.4141 8.53087 41.3834 7.91547C41.3526 7.30006 39.1774 7.2685 37.963 7.23694Z" fill="white"/>
<path fill-rule="evenodd" clip-rule="evenodd" d="M38.1932 9.21525C37.2709 9.38882 37.2401 9.83066 37.3708 10.1699C37.5014 10.5092 37.9934 11.0852 39.6075 10.8484C41.2216 10.6117 42.1055 9.92532 42.1055 9.34937C42.1055 8.77343 39.1771 9.14424 38.1932 9.21525Z" fill="white"/>
<path fill-rule="evenodd" clip-rule="evenodd" d="M39.7686 11.2505C39.146 11.353 38.5619 11.8343 38.754 12.4103C38.9769 13.1203 40.3989 13.3255 41.9745 12.5129C43.5503 11.7002 43.458 11.4951 43.2889 11.0533C43.1198 10.6114 41.4826 10.9507 39.7686 11.2505Z" fill="white"/>
<path fill-rule="evenodd" clip-rule="evenodd" d="M42.7365 12.311C41.9636 12.5873 41.2235 12.9526 40.5306 13.3998C39.9003 13.8101 39.4084 15.2697 41.8142 14.6227C44.22 13.9758 44.343 13.1237 44.0202 12.5477C43.6974 11.9718 42.9288 12.2795 42.7365 12.311Z" fill="white"/>
<path fill-rule="evenodd" clip-rule="evenodd" d="M41.9806 15.1345C41.1582 15.6473 41.5578 17.6198 43.3642 16.7125C45.1704 15.8051 46.4387 14.8741 46.162 14.2272C45.8853 13.5802 43.856 14.093 41.9806 15.1108V15.1345Z" fill="white"/>
<path fill-rule="evenodd" clip-rule="evenodd" d="M46.7564 15.6224C45.8956 16.0247 43.0978 16.9794 44.0201 18.2023C44.4813 18.8177 45.3729 18.3049 45.7342 18.0682C46.0954 17.8315 48.0401 16.4351 47.5789 15.7012C47.3637 15.3778 46.9487 15.5356 46.7564 15.6382V15.6224Z" fill="white"/>
<path fill-rule="evenodd" clip-rule="evenodd" d="M46.5645 17.8954C44.7504 19.0868 46.795 20.1046 47.948 19.0868C48.5705 18.5345 49.8465 17.5088 49.2623 16.8066C48.7704 16.1991 47.1255 17.5956 46.5645 17.8954Z" fill="white"/>
<path fill-rule="evenodd" clip-rule="evenodd" d="M49.4309 18.3778C48.8698 19.0247 47.5632 19.9951 48.5778 20.7447C49.4309 21.3601 49.9613 20.7447 50.3533 20.2713C50.7453 19.7979 52.2595 18.2673 51.7061 17.6203C51.1527 16.9733 49.9228 18.0937 49.4002 18.4092L49.4309 18.3778Z" fill="white"/>
<path fill-rule="evenodd" clip-rule="evenodd" d="M53.259 18.6287C52.6672 18.1475 51.4836 19.4177 51.0531 20.2067C50.6227 20.9957 50.9608 21.4296 51.3837 21.6348C51.6504 21.6902 51.9275 21.6536 52.1721 21.531C52.4167 21.4083 52.615 21.2063 52.7364 20.9563C52.8978 20.5144 53.8509 19.2205 53.259 18.5893V18.6287Z" fill="white"/>
<path d="M57.541 5.46887C58.4173 5.91859 59.4242 6.56556 59.4856 7.21252C59.5472 7.85948 59.3626 8.52223 58.2943 9.3112" stroke="#231F20" stroke-width="2.36747" stroke-miterlimit="2.61"/>
<path fill-rule="evenodd" clip-rule="evenodd" d="M88.884 29.546C90.0139 30.1929 93.1497 31.1239 94.0262 29.0253C95.279 29.6722 97.8698 30.1929 99.1611 28.5125C101.298 29.0253 103.681 30.0903 104.541 27.6052C106.417 28.1259 111.059 29.2856 111.558 26.1772C114.318 26.5716 118.331 26.8241 118.83 23.8499C121.213 23.8499 125.348 23.4633 125.348 20.6151C127.731 20.6151 131.874 18.9268 131.366 16.9861C133.503 16.7257 136.386 14.3984 136.386 12.8442C138.515 12.1972 140.897 10.4773 140.398 8.31562C141.651 7.52668 143.78 6.63518 143.78 5.33343C143.793 4.73846 143.579 4.16179 143.185 3.7258C142.79 3.28981 142.245 3.0288 141.666 2.99817C140.536 2.99817 136.286 3.6451 134.748 3.6451C133.211 3.6451 115.064 3.25852 110.798 3.51887C106.7 3.74678 102.592 3.70198 98.4999 3.38474C95.8633 3.1244 84.6642 2.50113 83.0808 5.75157C81.951 8.11839 82.8272 8.8521 83.8495 9.75937C84.8718 10.6667 88.2384 12.355 88.2384 17.7908C88.2384 23.2266 87.6158 26.0747 88.8686 29.5697L88.884 29.546Z" fill="#231F20"/>
<path fill-rule="evenodd" clip-rule="evenodd" d="M139.785 4.30054C135.941 4.30054 126.871 4.5609 125.119 4.5609C123.366 4.5609 110.952 5.98895 108.977 6.63591C108.101 6.88838 107.909 7.79572 108.977 7.85883C110.046 7.92195 122.813 8.11919 124.711 8.11919C126.61 8.11919 139.469 8.30855 141.199 5.98895C142.451 4.30053 140.884 4.36365 139.753 4.30054H139.785Z" fill="white"/>
<path fill-rule="evenodd" clip-rule="evenodd" d="M137.463 9.35104C135.21 9.41417 123.927 9.48515 122.612 9.41417C121.298 9.34315 111.083 8.7672 109.884 8.70408C108.684 8.64097 107.578 8.96445 107.578 9.35104C107.578 9.73764 107.832 10.0611 109.207 10.3846C117.08 11.5012 125.019 12.0442 132.966 12.0099C134.788 12.073 137.232 11.1026 137.855 10.1953C138.477 9.28792 137.793 9.35104 137.477 9.35104H137.463Z" fill="white"/>
<path fill-rule="evenodd" clip-rule="evenodd" d="M133.097 13.6262C131.56 13.6262 113.036 12.1982 109.147 11.3539C107.832 11.2277 106.956 11.1646 106.841 11.7484C106.725 12.3322 106.779 12.5847 107.909 12.9082C109.038 13.2317 122.766 15.8906 129.723 16.0168C132.029 15.9537 134.742 13.6499 133.112 13.6499L133.097 13.6262Z" fill="white"/>
<path fill-rule="evenodd" clip-rule="evenodd" d="M128.377 17.6337C126.178 17.3812 111.573 14.9827 107.623 13.8781C106.086 13.4915 105.318 13.6888 105.117 14.1385C104.917 14.5882 104.933 15.3693 106.063 15.7165C107.192 16.0636 120.098 19.2116 122.481 19.3457C124.864 19.4799 127.684 18.8881 128.438 18.3121C129.191 17.7363 128.377 17.5942 128.377 17.5942V17.6337Z" fill="white"/>
<path fill-rule="evenodd" clip-rule="evenodd" d="M122.482 21.0029C120.946 20.6795 108.194 17.705 104.558 16.269C103.489 15.9456 103.113 16.269 102.929 16.6557C102.858 16.7665 102.815 16.8924 102.799 17.0235C102.783 17.1547 102.797 17.2878 102.839 17.4125C102.882 17.5374 102.951 17.6506 103.043 17.7437C103.134 17.8368 103.245 17.9072 103.367 17.9496C104.058 18.273 113.835 22.4862 118.47 22.7465C119.814 22.7164 121.131 22.3594 122.314 21.7051C122.813 21.4448 122.629 21.4448 122.498 20.995L122.482 21.0029Z" fill="white"/>
<path fill-rule="evenodd" clip-rule="evenodd" d="M101.734 18.2832C103.171 19.0012 111.949 22.8199 115.339 23.5931C116.277 23.8535 116.776 24.5635 115.646 24.9501C114.516 25.3368 111.887 25.1473 110.319 24.6976C108.751 24.2479 102.387 22.1019 99.9431 19.6482C100.604 19.2893 101.208 18.829 101.734 18.2832Z" fill="white"/>
<path fill-rule="evenodd" clip-rule="evenodd" d="M99.1003 20.4824C102.27 22.3723 105.583 23.9976 109.008 25.3425C109.945 25.6659 109.508 26.5733 108.57 26.6995C106.402 26.8714 104.24 26.3027 102.42 25.0822C100.682 24.0005 99.0253 22.7874 97.4629 21.4528C97.8393 21.2635 98.6544 20.7427 99.0921 20.4824H99.1003Z" fill="white"/>
<path fill-rule="evenodd" clip-rule="evenodd" d="M96.2018 22.2355C97.809 23.3716 101.506 25.8964 102.098 26.3145C102.912 26.8984 103.351 27.8925 101.721 27.7347C100.091 27.5769 97.1094 26.3776 94.6953 22.8193C95.2192 22.6572 95.7329 22.4622 96.2329 22.2355H96.2018Z" fill="white"/>
<path fill-rule="evenodd" clip-rule="evenodd" d="M93.3971 23.2018C94.4045 24.2354 95.9037 25.9237 96.9715 26.8231C97.6639 27.5411 97.1565 28.8351 95.9651 28.2513C94.7736 27.6674 92.6132 25.6634 92.0527 23.6515C92.5116 23.5386 92.9612 23.3882 93.3971 23.2018Z" fill="white"/>
<path fill-rule="evenodd" clip-rule="evenodd" d="M90.8906 24.8207C91.7051 25.8543 92.5201 26.6984 93.0202 27.3454C93.5193 27.9923 92.8965 28.6393 92.3974 28.8366C91.8974 29.0338 90.9521 29.5467 89.8223 27.2586L90.8906 24.8917V24.8207Z" fill="white"/>
<path fill-rule="evenodd" clip-rule="evenodd" d="M115.211 4.04126C113.582 4.04126 108.071 4.43575 106.064 4.43575C104.059 4.43575 99.4155 4.30162 97.7249 4.17539C95.0938 4.0098 92.4545 4.0098 89.8234 4.17539C88.0709 4.36474 84.1816 4.6251 83.4975 6.54232C82.8134 8.45955 84.3123 9.45363 85.25 10.1716C86.4387 10.8896 87.4269 11.9102 88.119 13.1347C88.811 14.3593 89.1837 15.7464 89.2008 17.162C89.9694 16.8385 91.0147 16.6412 90.2615 15.0239C89.8234 14.1165 87.6943 11.142 88.1939 9.7771C88.6935 8.41221 90.323 7.32342 94.0278 7.18929C97.7323 7.05516 102.929 7.18929 104.743 6.86581C106.557 6.54233 113.582 4.72767 115.027 4.53832C115.649 4.47519 115.649 4.15172 115.211 4.08071V4.04126Z" fill="white"/>
<path fill-rule="evenodd" clip-rule="evenodd" d="M100.422 7.67101C99.1 7.67101 94.2728 7.53689 92.8972 7.79725C91.521 8.05762 89.8223 8.46788 89.0537 9.73817C88.431 10.8427 89.4918 12.5863 89.9991 13.3043C90.7713 14.2485 91.6087 15.1345 92.5053 15.9553C93.0044 16.3419 93.9495 15.695 93.1353 14.7245C94.1958 15.3715 95.51 15.2452 94.8873 13.754C95.8251 14.543 97.3929 14.5982 96.4249 12.5863C97.0477 13.1071 98.8078 13.0439 97.6777 11.4897C98.6155 11.8131 99.6843 11.2293 98.9919 10.2589C100.183 10.4561 100.875 9.54875 99.622 8.83082C100.813 9.16219 101.16 7.73414 100.391 7.67101H100.422Z" fill="white"/>
<path fill-rule="evenodd" clip-rule="evenodd" d="M105.831 7.23694C107.476 7.23694 107.506 9.07526 105.631 8.97269C104.155 8.8859 102.372 8.53087 102.411 7.91547C102.449 7.30006 104.609 7.2685 105.831 7.23694Z" fill="white"/>
<path fill-rule="evenodd" clip-rule="evenodd" d="M105.602 9.21525C106.524 9.38882 106.555 9.83066 106.425 10.1699C106.294 10.5092 105.802 11.0852 104.187 10.8484C102.574 10.6117 101.682 9.92532 101.682 9.34937C101.682 8.77343 104.61 9.14424 105.602 9.21525Z" fill="white"/>
<path fill-rule="evenodd" clip-rule="evenodd" d="M104.019 11.2505C104.65 11.353 105.226 11.8343 105.042 12.4103C104.811 13.1203 103.397 13.3255 101.821 12.5129C100.245 11.7002 100.337 11.4951 100.498 11.0533C100.66 10.6114 102.312 10.9507 104.019 11.2505Z" fill="white"/>
<path fill-rule="evenodd" clip-rule="evenodd" d="M101.06 12.311C101.833 12.5873 102.573 12.9526 103.266 13.3998C103.888 13.8101 104.388 15.2697 101.982 14.6227C99.5764 13.9758 99.4454 13.1237 99.7761 12.5477C100.107 11.9718 100.86 12.2795 101.06 12.311Z" fill="white"/>
<path fill-rule="evenodd" clip-rule="evenodd" d="M101.806 15.1345C102.628 15.6473 102.236 17.6198 100.429 16.7125C98.6231 15.8051 97.3547 14.8741 97.624 14.2272C97.8932 13.5802 99.9684 14.093 101.806 15.1108V15.1345Z" fill="white"/>
<path fill-rule="evenodd" clip-rule="evenodd" d="M97.0391 15.6224C97.8926 16.0247 100.69 16.9794 99.7682 18.2023C99.3066 18.8177 98.4228 18.3049 98.0611 18.0682C97.7003 17.8315 95.756 16.4351 96.2167 15.7012C96.4319 15.3778 96.8394 15.5356 97.0391 15.6382V15.6224Z" fill="white"/>
<path fill-rule="evenodd" clip-rule="evenodd" d="M97.2312 17.8954C99.0372 19.0868 97.0004 20.1046 95.8474 19.0868C95.2247 18.5345 93.9407 17.5088 94.5332 16.8066C95.025 16.1991 96.6698 17.5956 97.2312 17.8954Z" fill="white"/>
<path fill-rule="evenodd" clip-rule="evenodd" d="M94.3591 18.3778C94.9205 19.0247 96.2347 19.9951 95.2199 20.7447C94.3591 21.3601 93.8362 20.7447 93.4442 20.2713C93.0522 19.7979 91.5304 18.2673 92.0916 17.6203C92.6529 16.9733 93.8673 18.0937 94.3591 18.4092V18.3778Z" fill="white"/>
<path fill-rule="evenodd" clip-rule="evenodd" d="M90.5294 18.6287C91.1213 18.1475 92.3128 19.4177 92.735 20.2067C93.1581 20.9957 92.8357 21.4296 92.4053 21.6348C92.1388 21.6896 91.8631 21.6528 91.6204 21.5302C91.3767 21.4074 91.1798 21.2057 91.0598 20.9563C90.8907 20.5144 89.9376 19.2205 90.5294 18.5893V18.6287Z" fill="white"/>
<path d="M86.2502 5.46887C85.374 5.91859 84.3748 6.56556 84.3132 7.21252C84.2518 7.85948 84.4362 8.50644 85.5047 9.28754" stroke="#231F20" stroke-width="2.36747" stroke-miterlimit="2.61"/>
<path fill-rule="evenodd" clip-rule="evenodd" d="M71.4133 46.6755C70.4526 46.6755 69.6916 46.0285 69.7992 44.4506L70.2757 38.1387C70.2757 37.5785 71.1135 37.1919 71.4594 37.1919C71.8053 37.1919 72.6201 37.5785 72.6355 38.1387L73.112 44.4506C73.2196 46.0285 72.4586 46.6518 71.4133 46.6755Z" fill="white" stroke="#231F20" stroke-width="0.828616" stroke-miterlimit="2.61"/>
<path fill-rule="evenodd" clip-rule="evenodd" d="M71.5056 46.6755C72.4587 46.6755 73.2196 46.0285 73.112 44.4506L72.6355 38.1387C72.6355 37.5785 71.8054 37.1919 71.4595 37.1919C71.1136 37.1919 70.2989 37.5785 70.2758 38.1387L69.7992 44.4506C69.6916 46.0285 70.4525 46.6518 71.5056 46.6755Z" fill="white" stroke="#231F20" stroke-width="0.828616" stroke-miterlimit="2.61"/>
<path fill-rule="evenodd" clip-rule="evenodd" d="M75.1258 46.5336C76.0711 46.4073 76.7245 45.6262 76.394 44.0877L75.0181 37.91C74.9182 37.3577 74.0574 37.121 73.7115 37.121C73.3656 37.121 72.6277 37.6811 72.6892 38.2413L73.1196 44.5532C73.2426 46.1311 74.0804 46.6282 75.1258 46.4941V46.5336Z" fill="white" stroke="#231F20" stroke-width="0.828616" stroke-miterlimit="2.61"/>
<path fill-rule="evenodd" clip-rule="evenodd" d="M78.7702 45.8309C79.6848 45.5468 80.2075 44.6632 79.6311 43.1956L77.279 37.3415C77.0946 36.8207 76.2029 36.7103 75.8724 36.8207C75.5419 36.9312 74.8886 37.5624 75.0346 38.0989L76.4796 44.2608C76.8563 45.7914 77.7633 46.1386 78.7855 45.8388L78.7702 45.8309Z" fill="white" stroke="#231F20" stroke-width="0.828616" stroke-miterlimit="2.61"/>
<path fill-rule="evenodd" clip-rule="evenodd" d="M82.2287 44.8133C83.0972 44.3951 83.497 43.4484 82.7283 42.0755L79.6076 36.6237C79.354 36.1266 78.4547 36.1503 78.1472 36.3081C77.8398 36.4659 77.271 37.1839 77.4939 37.6888L79.7537 43.5825C80.3301 45.0421 81.291 45.263 82.2287 44.8133Z" fill="white" stroke="#231F20" stroke-width="0.828616" stroke-miterlimit="2.61"/>
<path fill-rule="evenodd" clip-rule="evenodd" d="M67.7638 46.5336C66.8414 46.3915 66.2265 45.6025 66.5186 44.0877L67.8945 37.91C67.9944 37.3577 68.8629 37.121 69.2012 37.121C69.5394 37.121 70.2926 37.6811 70.2311 38.2413L69.8006 44.5532C69.6777 46.1311 68.8322 46.6282 67.7946 46.4941L67.7638 46.5336Z" fill="white" stroke="#231F20" stroke-width="0.828616" stroke-miterlimit="2.61"/>
<path fill-rule="evenodd" clip-rule="evenodd" d="M64.1419 45.8309C63.2273 45.5468 62.7123 44.6632 63.281 43.1956L65.6331 37.3415C65.8175 36.8207 66.7092 36.7103 67.0397 36.8207C67.3702 36.9312 68.0235 37.5624 67.8775 38.0989L66.4325 44.2608C66.0635 45.7914 65.1488 46.1386 64.1266 45.8388L64.1419 45.8309Z" fill="white" stroke="#231F20" stroke-width="0.828616" stroke-miterlimit="2.61"/>
<path fill-rule="evenodd" clip-rule="evenodd" d="M60.6865 44.8133C59.8179 44.3951 59.426 43.4484 60.1869 42.0755L63.3075 36.6237C63.5612 36.1266 64.4605 36.1503 64.7679 36.3081C65.0754 36.4659 65.6442 37.1839 65.429 37.6888L63.1537 43.543C62.5773 45.0026 61.6165 45.2235 60.6711 44.7738L60.6865 44.8133Z" fill="white" stroke="#231F20" stroke-width="0.828616" stroke-miterlimit="2.61"/>
<path fill-rule="evenodd" clip-rule="evenodd" d="M71.4612 38.1071C82.0377 38.1071 90.6079 31.551 90.6079 23.4643C90.6079 15.3777 82.0377 8.81372 71.4612 8.81372C60.8849 8.81372 52.3069 15.3698 52.3069 23.4643C52.3069 31.5589 60.8849 38.1071 71.4612 38.1071Z" fill="#231F20"/>
<path fill-rule="evenodd" clip-rule="evenodd" d="M79.8633 18.0906C79.8633 15.9525 77.665 12.7179 71.2699 12.7179C67.5114 12.7179 64.3523 13.6883 62.4922 15.5028C62.7493 15.6915 62.9659 15.9324 63.1286 16.2107C63.2912 16.4889 63.3964 16.7984 63.4376 17.1202V28.9542C63.3449 29.6777 63.0392 30.3548 62.5613 30.8951C64.3138 32.323 67.3191 33.68 71.9617 33.5537C76.6043 33.4275 80.924 31.8654 80.924 27.4631C80.924 25.5934 79.233 23.7157 77.3499 23.0688C76.8502 22.9347 76.9271 22.4218 77.3499 22.2246C77.7726 22.0274 79.9247 20.2838 79.894 18.0827L79.8633 18.0906Z" fill="white"/>
<path fill-rule="evenodd" clip-rule="evenodd" d="M71.5196 21.7774C72.1681 21.8395 72.8198 21.6988 73.389 21.3737C73.9582 21.0487 74.4183 20.5545 74.7088 19.956C74.9993 19.3577 75.1067 18.683 75.0168 18.0209C74.927 17.3587 74.6441 16.7399 74.2052 16.2458C73.7665 15.7517 73.1924 15.4053 72.5583 15.2522C71.9243 15.0993 71.26 15.1467 70.6526 15.3883C70.0454 15.6299 69.5234 16.0545 69.1555 16.6062C68.7876 17.1579 68.5909 17.8108 68.5912 18.4795C68.5536 19.3154 68.841 20.1324 69.3901 20.7508C69.9393 21.3693 70.7053 21.7386 71.5196 21.7774Z" fill="#231F20"/>
<path fill-rule="evenodd" clip-rule="evenodd" d="M71.8977 30.8884C72.5723 30.9104 73.2379 30.7252 73.8094 30.3565C74.3808 29.9878 74.8319 29.4524 75.1051 28.8189C75.3782 28.1853 75.4609 27.4825 75.3425 26.8005C75.2241 26.1184 74.91 25.4882 74.4406 24.9905C73.971 24.4928 73.3675 24.1503 72.7072 24.0068C72.0469 23.8634 71.36 23.9255 70.7343 24.1853C70.1086 24.4451 69.5727 24.8906 69.1953 25.465C68.8179 26.0394 68.616 26.7162 68.6157 27.409C68.6085 27.8587 68.6878 28.3055 68.8489 28.7237C69.01 29.1419 69.2498 29.5235 69.5546 29.8466C69.8593 30.1698 70.2232 30.428 70.6252 30.6068C71.0273 30.7856 71.4596 30.8813 71.8977 30.8884Z" fill="#231F20" stroke="#231F20" stroke-width="0.828616" stroke-miterlimit="2.61"/>
</g>
<defs>
<clipPath id="clip0_1959_2767">
<rect width="143.782" height="47" fill="white"/>
</clipPath>
</defs>
</svg>
