<svg width="60" height="44" viewBox="0 0 60 44" fill="none" xmlns="http://www.w3.org/2000/svg">
<rect width="60" height="43.6364" fill="white"/>
<mask id="mask0" style="mask-type:alpha" maskUnits="userSpaceOnUse" x="0" y="0" width="60" height="44">
<rect width="60" height="43.6364" fill="white"/>
</mask>
<g mask="url(#mask0)">
<path d="M15.5202 17.0072C15.5202 17.2323 15.4578 17.3297 15.2472 17.3297H13.5558V15.874H15.2471C15.4497 15.874 15.52 15.9717 15.52 16.1816L15.5202 17.0072ZM17.1656 20.0581C16.9552 19.8522 16.8692 19.6723 16.7757 19.4398L16.1675 17.9631C16.69 17.8958 16.9394 17.6352 16.9394 17.1721V16.1519C16.9394 15.6284 16.6276 15.2632 15.9724 15.2632H12C12.0467 15.4273 12.0935 15.5763 12.0935 15.8742V19.4398C12.0935 19.7395 12.0467 19.8895 12 20.0581H13.6493C13.6026 19.8895 13.5558 19.7396 13.5558 19.4398V17.9407H14.6472L15.5045 20.0581H17.1656ZM17.9423 20.0581C17.9891 19.8896 18.0358 19.7398 18.0358 19.4405V15.8773C18.0358 15.5779 17.9891 15.4282 17.9423 15.2632H19.5915C19.5447 15.428 19.498 15.5779 19.498 15.8773V19.4405C19.498 19.7396 19.5447 19.8896 19.5915 20.0581H17.9423ZM24.4889 20.0591H21.5734C20.9046 20.0591 20.5935 19.7015 20.5935 19.1179V16.2046C20.5935 15.621 20.9046 15.2632 21.5734 15.2632H24.4887L24.6135 15.9868C24.4184 15.9117 24.2158 15.874 23.9038 15.874H22.3205C22.1569 15.874 22.0555 15.9345 22.0555 16.1295V19.193C22.0555 19.388 22.1567 19.4484 22.3205 19.4484H23.9037C24.2156 19.4484 24.4183 19.4106 24.6133 19.3356L24.4889 20.0591ZM28.9372 20.0581C28.9842 19.8895 29.0309 19.7396 29.0309 19.4398V17.9407H27.0543V19.4398C27.0543 19.7395 27.1013 19.8895 27.1482 20.0581H25.4985C25.5453 19.8895 25.592 19.7396 25.592 19.4398V15.8773C25.592 15.5779 25.5453 15.4282 25.4985 15.2632H27.1482C27.1015 15.4282 27.0543 15.5779 27.0543 15.8773V17.3297H29.0307V15.8773C29.0307 15.5779 28.984 15.4282 28.9371 15.2632H30.5866C30.5398 15.4282 30.4931 15.5779 30.4931 15.8773V19.4398C30.4931 19.7395 30.5398 19.8895 30.5866 20.0581H28.9372ZM34.7073 18.0834H33.0229L33.8572 16.2683L34.7073 18.0834ZM37.2965 20.0581C37.156 19.9352 37.0156 19.6654 36.9065 19.4415L34.9258 15.2632H33.2958L33.5064 15.5785L31.697 19.4415C31.619 19.6133 31.4629 19.8523 31.3148 20.0581H32.274C32.274 19.8223 32.3287 19.5834 32.3909 19.4415L32.7264 18.6945H34.9955L35.3389 19.4415C35.4245 19.628 35.4713 19.8149 35.4713 19.9352C35.4713 19.9813 35.4713 20.0118 35.4558 20.0581H37.2965ZM41.5425 17.0072C41.5425 17.2323 41.4803 17.3297 41.2696 17.3297H39.5783V15.874H41.2696C41.4724 15.874 41.5425 15.9717 41.5425 16.1816V17.0072ZM43.1881 20.0581C42.9773 19.8522 42.8917 19.6723 42.7979 19.4398L42.1896 17.9631C42.7121 17.8958 42.9617 17.6352 42.9617 17.1721V16.1519C42.9617 15.6284 42.6497 15.2632 41.9947 15.2632H38.0225C38.0692 15.4273 38.116 15.5763 38.116 15.8742V19.4398C38.116 19.7395 38.0692 19.8895 38.0225 20.0581H39.6718C39.6251 19.8895 39.5783 19.7396 39.5783 19.4398V17.9407H40.6694L41.5269 20.0581H43.1881ZM47.5378 19.1926C47.5378 19.3882 47.4359 19.4483 47.2717 19.4483H45.5205V15.8742L47.2717 15.867C47.4359 15.867 47.5378 15.927 47.5378 16.1224V19.1926ZM49 19.1172V16.198C49 15.6167 48.6889 15.2634 48.0201 15.2634H43.9648C44.0116 15.4254 44.0583 15.5727 44.0583 15.867V19.4486C44.0583 19.7465 44.0116 19.8953 43.9648 20.0595H48.0199C48.6888 20.0593 48.9998 19.7018 48.9998 19.1174L49 19.1172Z" fill="black"/>
<path d="M23.3339 27.6617C23.3339 27.9612 23.2872 28.1109 23.241 28.2794H24.8378C24.7913 28.1109 24.7449 27.9611 24.7449 27.6617V24.098C24.7449 23.7987 24.7911 23.6488 24.838 23.4841H22.9854L21.5433 26.9657L20.1249 23.4843H18.1677C18.2144 23.649 18.2612 23.7988 18.2612 24.0983V27.6617C18.2612 27.9612 18.2144 28.1109 18.1677 28.2794H19.0245C18.9777 28.1109 18.931 27.9611 18.931 27.6617V24.1729H18.9466L20.6131 28.2792H21.6205L23.3183 24.1729H23.3339V27.6617Z" fill="black"/>
<path d="M26.096 27.6617C26.096 27.9612 26.0493 28.1109 26.003 28.2794H27.642C27.5954 28.1109 27.5491 27.9611 27.5491 27.6617V24.0983C27.5491 23.7988 27.5954 23.6488 27.642 23.4841H26.003C26.0493 23.649 26.096 23.7988 26.096 24.0983V27.6617Z" fill="black"/>
<path d="M28.8164 28.2804H32.8822L33.0062 27.5573C32.82 27.625 32.6109 27.6698 32.2774 27.6698H30.3626V24.0995C30.3626 23.7995 30.4093 23.6495 30.4561 23.4843H28.8164C28.8632 23.6495 28.9099 23.7995 28.9099 24.0995V27.6693C28.9099 27.9675 28.8632 28.1166 28.8164 28.2804Z" fill="black"/>
<path d="M33.7307 28.2804H37.7965L37.9204 27.5573C37.7342 27.625 37.5252 27.6698 37.1916 27.6698H35.277V24.0995C35.277 23.7995 35.3235 23.6495 35.3699 23.4843H33.7307C33.7774 23.6495 33.8237 23.7995 33.8237 24.0995V27.6693C33.8237 27.9675 33.7774 28.1166 33.7307 28.2804Z" fill="black"/>
<path d="M38.6451 28.2804H42.7104L42.8344 27.5563C42.6485 27.6241 42.4391 27.6695 42.1059 27.6695H40.1912V26.1616H41.904C42.1758 26.1616 42.4233 26.207 42.594 26.2748V25.4383C42.4233 25.5059 42.1756 25.5508 41.904 25.5508H40.1912V24.0949H42.1059C42.4391 24.0949 42.6485 24.1401 42.8344 24.2076L42.7104 23.4841H38.6451C38.6914 23.6481 38.738 23.7971 38.738 24.0952V27.6693C38.738 27.9675 38.6914 28.1166 38.6451 28.2804Z" fill="black"/>
</g>
</svg>
