<svg width="18" height="18" viewBox="0 0 18 18" fill="none" xmlns="http://www.w3.org/2000/svg">
<path d="M13.5126 9.61911C13.3802 9.61911 13.2417 9.57683 13.1092 9.54664C12.8409 9.48735 12.5773 9.40863 12.3204 9.31111C12.041 9.20919 11.7339 9.21448 11.4583 9.32597C11.1826 9.43746 10.9577 9.64727 10.827 9.91503L10.6945 10.1868C10.108 9.85957 9.56907 9.45317 9.09277 8.97896C8.61994 8.50127 8.21471 7.96075 7.88845 7.37254L8.14136 7.20345C8.40834 7.07235 8.61754 6.84685 8.7287 6.57036C8.83987 6.29386 8.84515 5.9859 8.74352 5.70573C8.64791 5.44751 8.56946 5.18322 8.50868 4.9146C8.47857 4.78174 8.45448 4.64284 8.43642 4.50394C8.36329 4.07856 8.14113 3.69333 7.80994 3.41764C7.47875 3.14195 7.06029 2.99392 6.62993 3.00019H4.82345C4.56393 2.99775 4.30694 3.05141 4.06997 3.15753C3.83299 3.26365 3.6216 3.41973 3.45017 3.61515C3.27875 3.81057 3.15132 4.04073 3.07657 4.28998C3.00181 4.53923 2.98148 4.80171 3.01696 5.05954C3.33776 7.58958 4.48987 9.94032 6.29131 11.7404C8.09275 13.5406 10.4408 14.6875 12.9647 15H13.1935C13.6375 15.0007 14.0663 14.8373 14.3978 14.541C14.5883 14.3701 14.7405 14.1607 14.8443 13.9264C14.9481 13.6922 15.0012 13.4385 15 13.1822V11.3705C14.9926 10.951 14.8403 10.5471 14.569 10.2277C14.2978 9.90825 13.9244 9.69317 13.5126 9.61911ZM13.8137 13.2426C13.8136 13.3284 13.7953 13.4131 13.76 13.4912C13.7247 13.5693 13.6732 13.6389 13.609 13.6955C13.5417 13.7538 13.463 13.7973 13.378 13.8233C13.293 13.8493 13.2035 13.8572 13.1152 13.8465C10.8601 13.5565 8.76534 12.5218 7.16147 10.9056C5.5576 9.28943 4.53586 7.18372 4.25741 4.92064C4.24783 4.83218 4.25623 4.74269 4.2821 4.65757C4.30798 4.57246 4.35079 4.49349 4.40796 4.42543C4.46438 4.36101 4.53384 4.30939 4.61171 4.27398C4.68958 4.23858 4.77408 4.22021 4.85958 4.2201H6.66606C6.80609 4.21698 6.94283 4.26291 7.05274 4.34999C7.16264 4.43707 7.23884 4.55985 7.26822 4.69719C7.29231 4.86227 7.32242 5.02532 7.35855 5.18637C7.42811 5.50472 7.52069 5.81757 7.63554 6.12244L6.79252 6.51498C6.72043 6.54815 6.6556 6.59527 6.60173 6.65364C6.54785 6.71201 6.50601 6.78047 6.47859 6.8551C6.45117 6.92974 6.43873 7.00906 6.44197 7.08853C6.4452 7.168 6.46406 7.24605 6.49746 7.31819C7.36409 9.17991 8.85627 10.6764 10.7126 11.5456C10.8592 11.606 11.0236 11.606 11.1702 11.5456C11.2453 11.5187 11.3143 11.477 11.3733 11.4231C11.4322 11.3692 11.4798 11.3041 11.5135 11.2316L11.8868 10.3861C12.1981 10.4977 12.5158 10.5905 12.8382 10.6639C12.9988 10.7001 13.1614 10.7303 13.326 10.7545C13.4629 10.7839 13.5853 10.8604 13.6722 10.9706C13.759 11.0808 13.8048 11.2179 13.8017 11.3584L13.8137 13.2426Z" fill="#333333"/>
</svg>
