<svg width="14" height="14" viewBox="0 0 14 14" fill="none" xmlns="http://www.w3.org/2000/svg">
<path d="M12.0535 0.961882C11.3479 0.257498 10.2052 0.257498 9.49955 0.961882L8.86025 1.60469L2.05494 8.40639L2.04047 8.42096C2.03697 8.42447 2.03697 8.42819 2.03324 8.42819C2.02601 8.43904 2.01516 8.44978 2.00804 8.46062C2.00804 8.46424 2.00432 8.46424 2.00432 8.46785C1.99708 8.4787 1.99358 8.48593 1.98624 8.49678C1.98274 8.5004 1.98274 8.5039 1.97912 8.50763C1.9755 8.51847 1.97189 8.52571 1.96816 8.53655C1.96816 8.54006 1.96466 8.54006 1.96466 8.54378L0.454762 13.0842C0.410469 13.2135 0.444141 13.3566 0.541426 13.4526C0.609785 13.52 0.701985 13.5577 0.797915 13.5574C0.837122 13.5567 0.875991 13.5506 0.913504 13.5393L5.45042 12.0258C5.45392 12.0258 5.45392 12.0258 5.45765 12.0223C5.46906 12.0189 5.48002 12.0141 5.49008 12.0077C5.4929 12.0074 5.49539 12.0062 5.49742 12.0042C5.50816 11.997 5.52262 11.9897 5.53347 11.9824C5.5442 11.9753 5.55516 11.9645 5.56601 11.9572C5.56962 11.9535 5.57313 11.9535 5.57313 11.95C5.57686 11.9464 5.58409 11.9429 5.5877 11.9355L13.0323 4.49092C13.7367 3.78529 13.7367 2.64262 13.0323 1.9371L12.0535 0.961882ZM5.33483 11.1769L2.82079 8.66299L9.11313 2.37065L11.6272 4.88458L5.33483 11.1769ZM2.46667 9.33122L4.66299 11.5274L1.36501 12.6255L2.46667 9.33122ZM12.5231 3.98517L12.1401 4.37172L9.62599 1.85756L10.0126 1.47113C10.4356 1.04855 11.1211 1.04855 11.5441 1.47113L12.5266 2.45359C12.9463 2.87843 12.9448 3.56236 12.5231 3.98517Z" fill="#868686"/>
</svg>
