<svg width="9" height="15" viewBox="0 0 9 15" fill="none" xmlns="http://www.w3.org/2000/svg">
<path d="M1.49097 4.94098C1.52396 5.18016 1.55695 5.41577 1.59293 5.65138C1.6919 6.26183 1.91983 6.78304 2.36068 7.1436C2.43565 7.20428 2.51363 7.25783 2.5976 7.2971C2.64558 7.31852 2.70556 7.30781 2.75955 7.31138C2.75655 7.24712 2.77154 7.16501 2.74455 7.11861C2.55261 6.78304 2.44765 6.4082 2.37567 6.01908C1.96781 3.85573 2.61259 1.87088 4.14808 0.585722C4.406 0.367959 4.6999 0.207314 4.9818 0.0323899C5.03279 0.000260958 5.12576 -0.0140186 5.15575 0.0181104C5.18874 0.0573791 5.18574 0.160906 5.17974 0.232303C5.09877 0.917721 5.06278 1.59957 5.11676 2.29213C5.17974 3.12034 5.52162 3.7415 6.06444 4.23414C6.56528 4.68752 7.07511 5.12661 7.56094 5.60141C8.15175 6.17973 8.6076 6.89013 8.81753 7.77189C9.51029 10.6921 8.15475 13.1981 6.03745 13.9728C4.56794 14.5118 3.12842 14.3619 1.79087 13.4194C0.786204 12.7126 0.249382 11.6095 0.0664434 10.253C-0.0595146 9.32836 0.000465423 8.41447 0.210395 7.51486C0.417326 6.62239 0.774207 5.81917 1.27204 5.10519C1.32003 5.03379 1.383 4.97668 1.43699 4.91599C1.45498 4.92313 1.47297 4.93027 1.49097 4.94098ZM2.2917 12.0736C2.50163 12.4913 2.80753 12.7733 3.16441 12.9732C4.41799 13.6836 5.62059 13.5301 6.75721 12.6269C7.64792 11.9201 8.06778 10.917 7.91783 9.6318C7.77687 8.43232 7.25205 7.52557 6.37334 6.91869C6.11543 6.7402 5.84552 6.57955 5.5996 6.37964C5.19173 6.05121 4.90683 5.60855 4.84985 5.00524C4.83485 4.83745 4.84685 4.6661 4.84685 4.47689C4.56794 4.77319 4.46898 5.14089 4.48697 5.56571C4.51396 6.18687 4.80486 6.62596 5.18274 7.02222C5.51263 7.37207 5.83952 7.73977 6.10943 8.1503C7.00913 9.514 6.47531 10.9384 5.75855 11.6916C5.14675 12.3342 4.403 12.4841 3.61426 12.4235C3.15841 12.3878 2.71756 12.2699 2.2917 12.0736Z" fill="#FF2E00"/>
</svg>
