<svg width="171" height="65" viewBox="0 0 171 65" fill="none" xmlns="http://www.w3.org/2000/svg">
<path d="M65.4325 55.1846C65.4325 54.0922 65.7564 53.0243 66.3633 52.116C66.9702 51.2077 67.8328 50.4997 68.8421 50.0817C69.8514 49.6636 70.9619 49.5543 72.0333 49.7674C73.1048 49.9805 74.0889 50.5065 74.8614 51.279C75.6338 52.0515 76.1599 53.0356 76.373 54.107C76.5861 55.1785 76.4767 56.289 76.0587 57.2983C75.6406 58.3075 74.9327 59.1702 74.0244 59.7771C73.1161 60.384 72.0482 60.7079 70.9558 60.7079C69.4909 60.7079 68.086 60.126 67.0502 59.0902C66.0144 58.0544 65.4325 56.6495 65.4325 55.1846ZM63.2295 55.123C63.2301 57.1729 64.0448 59.1386 65.4945 60.5879C66.9442 62.0372 68.9101 62.8514 70.96 62.8514L77.3331 62.8026C77.4397 62.8015 77.5436 62.769 77.6318 62.7091C77.72 62.6492 77.7886 62.5647 77.8289 62.466C77.8693 62.3674 77.8797 62.259 77.8587 62.1545C77.8378 62.05 77.7865 61.954 77.7113 61.8785L76.4366 60.6038C76.4366 60.6038 78.7564 58.7556 78.6991 55.1251C78.6655 53.0973 77.8363 51.1639 76.3904 49.7418C74.9445 48.3197 72.9977 47.5227 70.9696 47.5227C68.9415 47.5227 66.9947 48.3197 65.5488 49.7418C64.1029 51.1639 63.2737 53.0973 63.2401 55.1251L63.2295 55.123Z" fill="url(#paint0_linear_781_4732)"/>
<path d="M69.0505 51.35L68.6639 51.5625C68.511 51.6513 68.3996 51.7971 68.3542 51.968C68.3087 52.1389 68.333 52.3208 68.4217 52.4738L69.469 54.2902H67.3744C67.198 54.2902 67.0289 54.3602 66.9042 54.4849C66.7795 54.6096 66.7095 54.7787 66.7095 54.9551V55.3991C66.7106 55.5751 66.781 55.7436 66.9055 55.868C67.0299 55.9925 67.1984 56.0629 67.3744 56.064H69.469L68.4217 57.8782C68.3338 58.0307 68.31 58.2118 68.3553 58.3818C68.4007 58.5518 68.5117 58.6969 68.6639 58.7853L69.0484 59.0084C69.2018 59.0963 69.3837 59.1199 69.5545 59.0742C69.7252 59.0284 69.8709 58.9169 69.9598 58.7641L71.0071 56.9499L70.4951 56.0831L69.981 55.1951L70.4951 54.3072L71.0007 53.4064L69.9534 51.5943C69.8947 51.4932 69.8104 51.4093 69.709 51.3511C69.6075 51.2929 69.4925 51.2625 69.3756 51.2629C69.2618 51.2652 69.1502 51.2951 69.0505 51.35Z" fill="url(#paint1_linear_781_4732)"/>
<path d="M74.5441 54.2988H72.5451L73.5924 52.4824C73.681 52.3295 73.7053 52.1475 73.6599 51.9766C73.6145 51.8058 73.5031 51.6599 73.3502 51.5711L72.9636 51.3587C72.8879 51.3147 72.8044 51.2863 72.7177 51.2749C72.631 51.2635 72.5429 51.2695 72.4585 51.2924C72.3742 51.3153 72.2952 51.3548 72.2261 51.4084C72.1571 51.4621 72.0995 51.529 72.0565 51.6051C71.5339 52.5044 71.0134 53.4051 70.495 54.3073L69.981 55.1931L70.495 56.0811L71.007 56.967L72.0543 58.7833C72.1431 58.9356 72.2886 59.0466 72.459 59.092C72.6293 59.1374 72.8108 59.1135 72.9636 59.0255L73.3481 58.813C73.4236 58.7695 73.4899 58.7114 73.543 58.6422C73.5961 58.573 73.635 58.494 73.6575 58.4098C73.68 58.3255 73.6856 58.2376 73.6741 58.1512C73.6625 58.0647 73.634 57.9814 73.5902 57.9059L72.5429 56.0832H74.5441C74.7208 56.0832 74.8904 56.0133 75.0158 55.8887C75.1411 55.7642 75.2121 55.5951 75.2133 55.4183V54.9743C75.2147 54.8858 75.1984 54.7978 75.1653 54.7156C75.1323 54.6334 75.0831 54.5587 75.0208 54.4957C74.9585 54.4328 74.8842 54.383 74.8023 54.3492C74.7205 54.3153 74.6327 54.2982 74.5441 54.2988Z" fill="url(#paint2_linear_781_4732)"/>
<path d="M38.6403 63.4589C42.4005 59.4821 44.9242 54.8042 47.2695 50.0265C46.8871 49.6526 46.5217 49.8141 46.1903 49.8141C41.3447 49.7907 36.4905 49.9777 31.6661 49.2979C31.1753 49.2299 30.6889 49.1385 30.2003 49.0557C29.9602 49.0153 29.8157 48.8964 29.8519 48.6308C29.8532 48.5774 29.8662 48.5249 29.8902 48.4771C29.9141 48.4293 29.9483 48.3873 29.9903 48.3542C30.0323 48.3212 30.0811 48.2978 30.1332 48.2857C30.1852 48.2737 30.2393 48.2733 30.2916 48.2845C30.8885 48.3568 31.4812 48.4651 32.0782 48.531C36.9451 49.0833 41.829 49.0068 46.715 48.9835C47.5329 48.9835 47.9472 48.6839 48.2807 47.9064C51.3058 40.8705 53.9124 33.7072 55.2528 26.1338C55.3697 25.4731 55.478 24.8103 55.597 24.1497C55.6076 24.0859 55.6692 24.0307 55.7818 23.8586C57.6173 24.2835 59.5037 24.7084 61.3816 25.1651C62.0189 25.3244 61.7407 25.8024 61.6408 26.2061C59.7905 33.4183 57.4324 40.4393 54.0823 47.1183C54.0059 47.2712 53.9485 47.4369 53.855 47.6579C54.6049 47.7513 55.2167 47.4454 55.8349 47.2585C61.5707 45.5101 67.0006 43.1521 71.5701 39.1647C75.8188 35.4598 78.9926 31.0326 79.7616 25.3117C80.4287 20.3598 79.974 15.4738 77.684 10.9213C74.6695 4.92207 69.399 2.23475 63.0684 1.28304C56.4531 0.288839 49.8527 0.898531 43.2927 1.86299C32.6348 3.41396 22.2774 6.58846 12.5808 11.276C9.45154 12.7738 6.43485 14.4962 3.55439 16.4297C3.27185 16.6209 2.91708 16.7378 2.76412 17.1924C3.63086 17.6512 4.60382 17.8169 5.52579 18.1335C5.84445 18.2418 6.1801 18.3268 6.01865 18.7708C5.87207 19.1744 5.55341 18.9832 5.30061 18.9131C3.81356 18.4713 2.32651 18.0188 0.692871 17.5259C1.86552 16.4828 3.07003 15.7606 4.25755 15.0277C14.2803 8.82028 25.157 4.73725 36.6604 2.24962C43.673 0.73283 50.7598 -0.133909 57.938 0.0169203C64.2028 0.148631 70.151 1.5762 75.5235 4.90083C80.896 8.22545 84.5967 12.8672 85.7948 19.2063C87.1693 26.5205 84.7857 32.5898 79.392 37.5629C75.0689 41.5482 69.8685 43.9997 64.4195 45.9987C61.0083 47.2841 57.4791 48.2312 53.8826 48.8263C53.222 48.9304 52.9394 49.3404 52.6548 49.8523C50.148 54.3241 47.2334 58.4815 43.2927 61.8337C42.5938 62.4285 41.8056 62.9214 41.1131 63.5205C40.3101 64.213 39.5602 64.2321 38.6403 63.4589Z" fill="white"/>
<path d="M170.684 32.7344C170.682 32.7404 170.679 32.7456 170.674 32.7495C170.669 32.7533 170.663 32.7554 170.656 32.7556C166.652 32.745 162.709 33.0148 158.76 33.3079C149.413 34.0047 140.083 34.9777 130.759 35.9974C124.218 36.7133 117.7 37.6438 111.136 38.143C110.286 38.2067 109.861 38.4935 109.549 39.3305C107.911 43.7513 106.45 48.2125 105.914 52.9264C105.829 53.6646 105.796 54.4078 105.814 55.1506C105.874 57.3239 107.18 58.4328 109.364 58.1885C110.477 58.0631 111.461 57.5894 112.402 57.001C115.725 54.917 118.544 52.2339 121.348 49.5317C121.807 49.0898 122.263 48.6458 122.724 48.2082C122.954 47.9958 123.19 47.6877 123.523 48.0255C123.857 48.3633 123.506 48.6012 123.311 48.803C120.906 51.1526 118.488 53.4915 115.82 55.5458C113.271 57.5129 110.643 59.3696 107.62 60.5423C106.814 60.8671 105.972 61.0946 105.111 61.2199C101.644 61.6809 99.6538 60.0133 99.4074 56.4104C99.2226 53.6997 99.6708 51.0485 100.281 48.4228C100.945 45.5591 101.889 42.7805 102.789 39.9869C102.883 39.698 102.964 39.407 103.085 38.997C103.086 38.9929 103.086 38.9886 103.086 38.9843C103.085 38.9801 103.083 38.9761 103.081 38.9726C103.079 38.969 103.075 38.9662 103.071 38.9641C103.068 38.9621 103.063 38.961 103.059 38.9609C102.265 38.9609 101.555 38.9205 100.852 38.9609C95.0907 39.3454 94.9951 39.4473 89.2254 39.4197C88.7792 39.4197 88.1164 39.6725 88.057 38.8334C88.0559 38.8249 88.0559 38.8164 88.057 38.8079C88.0718 38.5424 88.8175 38.638 89.185 38.638C95.488 38.638 96.1125 38.4574 102.401 38.0177C103.25 37.9603 103.722 37.6969 103.998 36.8365C104.527 35.1901 105.222 33.5947 105.787 31.9505C106.018 31.2792 106.333 31.0073 107.085 31.0625C108.893 31.1985 110.709 31.2367 112.691 31.3195C112.695 31.32 112.7 31.3214 112.703 31.3236C112.707 31.3259 112.71 31.329 112.713 31.3326C112.715 31.3363 112.717 31.3404 112.718 31.3448C112.718 31.3491 112.718 31.3536 112.717 31.3578L110.407 37.2635C110.406 37.2679 110.405 37.2726 110.405 37.2773C110.406 37.2821 110.408 37.2865 110.41 37.2904C110.413 37.2942 110.417 37.2973 110.421 37.2993C110.426 37.3013 110.43 37.3021 110.435 37.3017C111.538 37.221 112.491 37.1807 113.437 37.0766C122.263 36.1015 131.084 35.0584 139.919 34.1513C149.457 33.172 159 32.1969 168.598 31.9717C169.129 31.959 169.66 31.9717 170.191 31.9717C170.62 31.9802 170.865 32.1417 170.684 32.7344Z" fill="white"/>
<path d="M83.2284 47.0631C83.0967 44.4693 85.3102 42.2302 88.3906 41.6354C88.7729 41.561 89.1596 41.5164 89.5462 41.4697C89.85 41.4336 90.1283 41.457 90.1453 41.8648C90.1602 42.1877 89.952 42.2897 89.6801 42.3194C89.4081 42.3492 89.1851 42.3662 88.9429 42.4108C87.2647 42.7188 86.5742 43.73 86.7506 45.4295C86.963 47.4094 88.0974 48.8922 89.2509 50.375C90.4045 51.8578 91.6068 53.2918 92.7221 54.8086C93.7737 56.2361 94.1986 57.8676 93.8034 59.6266C93.4083 61.3856 92.0317 62.4371 90.2473 62.3118C87.3114 62.0994 84.7239 60.8779 82.2448 59.4014C82.0175 59.2676 81.7052 59.1083 81.9431 58.745C82.1556 58.42 82.402 58.5326 82.6739 58.6919C83.276 59.063 83.9052 59.3882 84.5561 59.6649C86.3958 60.3446 87.7554 59.24 87.5302 57.3004C87.3772 55.9175 86.7081 54.7512 86.0028 53.6062C85.1849 52.2806 84.2842 51.0038 83.666 49.5699C83.4671 49.1222 83.343 48.645 83.2985 48.1572" fill="white"/>
<defs>
<linearGradient id="paint0_linear_781_4732" x1="63.2295" y1="55.123" x2="78.6885" y2="55.123" gradientUnits="userSpaceOnUse">
<stop stop-color="#68CBF6"/>
<stop offset="1" stop-color="#407BF5"/>
</linearGradient>
<linearGradient id="paint1_linear_781_4732" x1="66.7095" y1="55.1845" x2="71.0071" y2="55.1845" gradientUnits="userSpaceOnUse">
<stop stop-color="#68CBF6"/>
<stop offset="1" stop-color="#407BF5"/>
</linearGradient>
<linearGradient id="paint2_linear_781_4732" x1="69.981" y1="55.1825" x2="75.2133" y2="55.1825" gradientUnits="userSpaceOnUse">
<stop stop-color="#68CBF6"/>
<stop offset="1" stop-color="#407BF5"/>
</linearGradient>
</defs>
</svg>
