<svg width="28" height="28" viewBox="0 0 28 28" fill="none" xmlns="http://www.w3.org/2000/svg">
<path d="M12.1114 21.4994C7.9216 21.422 6.49057 21.3523 5.61098 21.1702C5.01588 21.0493 4.49873 20.7808 4.11955 20.3913C3.82649 20.0966 3.59343 19.6469 3.41261 19.0229C3.25751 18.5031 3.1971 18.0706 3.11098 17.0142C2.97914 14.6299 2.94771 12.6806 3.11098 10.5025C3.24567 9.2997 3.31098 7.87184 4.20567 7.03882C4.62812 6.64895 5.11955 6.39806 5.67139 6.29435C6.53343 6.12995 10.2061 6 14.0081 6C17.8016 6 21.4824 6.12995 22.3453 6.29435C23.0347 6.4243 23.6812 6.81375 24.0608 7.31594C24.8771 8.60565 24.8914 10.2094 24.9743 11.4638C25.0086 12.0615 25.0086 15.4555 24.9743 16.0532C24.8453 18.0358 24.7416 18.7372 24.4486 19.4644C24.2673 19.9236 24.1127 20.1659 23.8449 20.4344C23.425 20.8476 22.8896 21.1225 22.3102 21.2223C18.6845 21.4962 15.6057 21.5556 12.1114 21.4994V21.4994ZM17.6637 13.5333C15.6465 12.4506 13.7151 11.4466 11.7408 10.4074V16.6247C13.8183 15.4904 16.0086 14.4511 17.6722 13.5247L17.6637 13.5333Z" fill="white"/>
</svg>
