<svg width="95" height="59" viewBox="0 0 95 59" fill="none" xmlns="http://www.w3.org/2000/svg">
<path d="M69.3982 49.0978C76.8317 49.0978 82.8579 43.0717 82.8579 35.6381C82.8579 28.2045 76.8317 22.1784 69.3982 22.1784C61.9646 22.1784 55.9385 28.2045 55.9385 35.6381C55.9385 43.0717 61.9646 49.0978 69.3982 49.0978Z" stroke="#3D75F7" stroke-width="1.46636" stroke-miterlimit="22.9256" stroke-linecap="round" stroke-linejoin="round"/>
<path d="M65.7188 29.3782C66.798 28.7418 68.0547 28.3782 69.3978 28.3782C71.6428 28.3782 73.6503 29.3973 74.9818 30.9971" stroke="#333333" stroke-width="1.46636" stroke-miterlimit="22.9256" stroke-linecap="round" stroke-linejoin="round"/>
<path d="M87.8453 29.5939C89.4774 29.022 91.0581 28.3811 92.2913 27.2638C95.0378 24.7783 94.2738 20.6975 91.6989 18.3645C87.8746 14.898 80.1572 14.115 75.0983 12.958C73.1158 12.4683 71.079 11.7601 69.0056 10.8978C63.1416 8.46075 58.5152 5.3183 52.2993 3.44576C42.4132 0.467583 35.8336 -0.130714 25.9093 3.56891C21.8768 5.07339 18.4265 6.73337 14.5934 8.55751C10.3512 10.5738 5.8759 12.0269 1.27593 12.9977C0.673257 17.2692 0.794961 23.8062 4.37874 26.9295C5.82897 28.192 9.15175 29.9868 11.1651 29.9663M81.8948 18.6445C83.3524 21.1036 85.8965 21.8881 89.2706 21.3984M5.62954 15.7764C7.41996 15.7764 9.2104 15.7764 11.0008 15.7764C10.7369 18.6182 9.08282 20.001 6.61054 20.5318C5.5665 20.0626 4.89343 17.6944 5.62954 15.7764ZM35.2998 6.12778C29.7775 6.74072 24.6204 8.62793 20.6993 11.9932L36.036 12.7616L35.2998 6.12778ZM63.6827 14.1473C57.4873 8.92265 48.3167 5.92242 39.498 5.90189L40.2855 12.9741L63.6827 14.1473ZM22.3226 26.4529C23.6628 26.4515 24.7479 27.538 24.7479 28.8783C24.7479 30.2185 23.6614 31.3051 22.3211 31.3051C20.9809 31.3051 19.8957 30.2185 19.8957 28.8783C19.8957 27.538 20.9823 26.4529 22.3226 26.4529ZM22.3226 21.2166C26.5545 21.2166 29.9857 24.6479 29.9857 28.8798C29.9857 33.1132 26.5545 36.5429 22.3226 36.5429C18.0907 36.5429 14.6594 33.1132 14.6594 28.8798C14.6594 24.6479 18.0892 21.2166 22.3226 21.2166Z" stroke="#333333" stroke-width="1.46636" stroke-miterlimit="22.9256" stroke-linecap="round" stroke-linejoin="round"/>
<path d="M5.32031 36.5413H50.185M34.8968 30.3415H51.361H34.8968Z" stroke="#333333" stroke-width="1.46636" stroke-miterlimit="22.9256" stroke-linecap="round" stroke-linejoin="round"/>
<path d="M85.2634 46.8999L90.8135 52.45C92.0775 53.714 92.0775 55.7845 90.8135 57.0514C89.5481 58.3154 87.4776 58.3169 86.2121 57.0514L80.6619 51.5013C79.1399 49.9807 78.6061 45.4658 78.917 45.1549C79.2264 44.844 83.7428 45.3807 85.2634 46.8999Z" stroke="#3D75F7" stroke-width="1.46636" stroke-miterlimit="22.9256" stroke-linecap="round" stroke-linejoin="round"/>
</svg>
