<svg width="66" height="61" viewBox="0 0 66 61" fill="none" xmlns="http://www.w3.org/2000/svg">
<path d="M25.3023 5.04004L9.6875 10.7687L19.7722 31.4373" stroke="#111111" stroke-width="1.46636" stroke-miterlimit="22.9256" stroke-linecap="round" stroke-linejoin="round"/>
<path d="M11.1225 13.7095L1 22.3034L16.2535 32.9611" stroke="#111111" stroke-width="1.46636" stroke-miterlimit="22.9256" stroke-linecap="round" stroke-linejoin="round"/>
<path d="M37.2344 58.516H52.9871C54.2694 56.0022 55.8161 54.6329 58.8389 54.2815H64.2573" stroke="#333333" stroke-width="1.46636" stroke-miterlimit="22.9256" stroke-linecap="round" stroke-linejoin="round"/>
<path d="M31.6075 32.963C27.4025 32.0796 17.4754 29.6364 15.9813 33.472C15.1012 35.7329 16.4115 37.6442 18.4803 38.6786C22.1615 40.5192 29.0524 40.1135 32.1425 38.5964" fill="white"/>
<path d="M31.6075 32.963C27.4025 32.0796 17.4754 29.6364 15.9813 33.472C15.1012 35.7329 16.4115 37.6442 18.4803 38.6786C22.1615 40.5192 29.0524 40.1135 32.1425 38.5964" stroke="#333333" stroke-width="1.46636" stroke-miterlimit="22.9256" stroke-linecap="round" stroke-linejoin="round"/>
<path d="M19.1429 38.9658C14.0217 48.9356 31.9073 50.3854 34.7593 43.8932" stroke="#333333" stroke-width="1.46636" stroke-miterlimit="22.9256" stroke-linecap="round" stroke-linejoin="round"/>
<path d="M22.1717 47.1094C19.8106 51.9465 23.8235 53.7789 27.8889 54.214C30.6375 54.5096 36.3596 54.4439 37.046 50.9631C37.4975 48.6693 35.253 46.5889 33.3664 45.7122" stroke="#333333" stroke-width="1.46636" stroke-miterlimit="22.9256" stroke-linecap="round" stroke-linejoin="round"/>
<path d="M25.3528 53.7283C22.8685 59.5933 32.1865 61.1614 35.8973 59.4177C37.8003 58.5245 39.1598 56.4885 38.2846 54.3885C37.9727 53.6397 37.3832 52.9189 36.4769 52.2358" stroke="#333333" stroke-width="1.46636" stroke-miterlimit="22.9256" stroke-linecap="round" stroke-linejoin="round"/>
<path d="M43.1011 27.7382L46.4342 2.36539L24.9922 0.831787L26.5274 21.6712" stroke="#111111" stroke-width="1.46636" stroke-miterlimit="22.9256" stroke-linecap="round" stroke-linejoin="round"/>
<path d="M39.3722 11.173C39.3722 9.11725 37.8386 7.6592 35.9816 7.56068C34.3117 7.47038 32.2774 8.67063 31.9572 10.37C31.4991 12.8083 34.3922 13.823 36.2574 14.3041C38.0389 14.7671 39.9994 15.4042 39.3492 18.028C39.0175 19.3629 37.6235 20.2396 36.1294 20.279C34.2756 20.3283 32.3266 19.1281 31.4531 17.1841" stroke="#3D75F7" stroke-width="1.46636" stroke-miterlimit="22.9256" stroke-linecap="round" stroke-linejoin="round"/>
<path d="M36.1172 6.00366V21.6594" stroke="#3D75F7" stroke-width="1.46636" stroke-miterlimit="22.9256" stroke-linecap="round" stroke-linejoin="round"/>
<path d="M42.3665 48.3462C36.3964 47.3545 32.019 43.3859 31.5626 32.0746C29.4905 31.8431 27.7057 31.137 26.1984 29.968C23.6698 28.0075 20.4385 22.7993 22.5582 19.7388C29.2573 23.1064 36.0434 26.0635 43.0988 27.7399C46.959 30.8792 50.4333 34.2928 53.6695 37.8772C57.244 37.8772 60.8169 37.8772 64.3897 37.8772" stroke="#333333" stroke-width="1.46636" stroke-miterlimit="22.9256" stroke-linecap="round" stroke-linejoin="round"/>
</svg>
