<svg width="150" height="150" viewBox="0 0 150 150" fill="none" xmlns="http://www.w3.org/2000/svg">
<rect width="150" height="150" fill="white"/>
<g clip-path="url(#clip0_557:471)">
<path fill-rule="evenodd" clip-rule="evenodd" d="M74.5516 98.2874C89.7873 98.2874 102.112 87.6991 102.112 74.6417C102.112 61.5844 89.7713 50.9878 74.5516 50.9878C59.3321 50.9878 46.9912 61.5761 46.9912 74.6417C46.9912 87.7074 59.3321 98.2874 74.5516 98.2874Z" fill="white" stroke="#231F20" stroke-width="0.828616" stroke-miterlimit="2.61"/>
<path fill-rule="evenodd" clip-rule="evenodd" d="M74.5519 96.7547C88.9856 96.7547 100.629 86.854 100.629 74.6418C100.629 62.4295 88.9536 52.5288 74.5519 52.5288C60.1502 52.5288 48.4668 62.4709 48.4668 74.6418C48.4668 86.8126 60.1421 96.7547 74.5519 96.7547Z" fill="white" stroke="#231F20" stroke-width="0.828616" stroke-miterlimit="2.61"/>
<path fill-rule="evenodd" clip-rule="evenodd" d="M57.2864 81.0283C56.1077 81.7077 52.836 82.6853 51.9219 80.4815C50.6149 81.1609 47.8644 81.7077 46.5573 79.9429C44.3362 80.4815 41.8503 81.6 40.9442 78.9901C38.9796 79.537 34.1443 80.7549 33.6151 77.4906C30.7444 77.9048 26.5585 78.1699 26.0293 75.0465C23.5435 75.0465 19.2294 74.6405 19.2294 71.6495C16.7435 71.6495 12.4295 69.8765 12.9507 67.8384C10.7295 67.565 7.72247 65.1209 7.72247 63.4888C5.50126 62.8093 3.01545 61.0032 3.53667 58.7331C2.22961 57.9046 0.000392582 56.9684 0.000392582 55.6013C-0.0107331 54.9744 0.214992 54.3676 0.62968 53.9097C1.04436 53.4519 1.61539 53.179 2.2216 53.1489C3.40035 53.1489 7.83473 53.8283 9.43848 53.8283C11.0422 53.8283 29.9746 53.4223 34.417 53.6957C38.6921 53.9347 42.9777 53.8877 47.2469 53.5549C49.9894 53.2815 61.6808 52.627 63.3326 56.0404C64.5114 58.526 63.5972 59.2965 62.5307 60.2492C61.4643 61.202 57.952 62.9751 57.952 68.6835C57.952 74.3919 58.6096 77.3829 57.3025 81.0532L57.2864 81.0283Z" fill="#231F20"/>
<path fill-rule="evenodd" clip-rule="evenodd" d="M4.17758 54.5156C8.23508 54.5156 17.6491 54.789 19.4854 54.789C21.3217 54.789 34.264 56.2887 36.3248 56.9681C37.2389 57.2333 37.4314 58.1861 36.3248 58.2524C35.2182 58.3187 21.8911 58.5258 19.9104 58.5258C17.9297 58.5258 4.51437 58.7247 2.71015 56.2887C1.40308 54.5156 3.03891 54.5819 4.20966 54.5156H4.17758Z" fill="white"/>
<path fill-rule="evenodd" clip-rule="evenodd" d="M6.59992 59.8196C8.95743 59.8859 20.729 59.9604 22.1002 59.8859C23.4714 59.8113 34.1283 59.2064 35.3792 59.1401C36.6302 59.0739 37.7849 59.4136 37.7849 59.8196C37.7849 60.2255 37.5284 60.5652 36.0849 60.9049C27.8723 62.0777 19.5896 62.6481 11.2989 62.6118C9.40649 62.678 6.85652 61.659 6.19898 60.7061C5.54144 59.7533 6.26313 59.8196 6.59191 59.8196H6.59992Z" fill="white"/>
<path fill-rule="evenodd" clip-rule="evenodd" d="M11.1777 64.3101C12.7814 64.3101 32.1067 62.8104 36.1561 61.9238C37.5353 61.7912 38.4495 61.725 38.5617 62.3382C38.674 62.9512 38.6258 63.2164 37.4552 63.5561C36.2844 63.8958 21.9709 66.688 14.7059 66.8206C12.3003 66.7543 9.47766 64.335 11.1777 64.335V64.3101Z" fill="white"/>
<path fill-rule="evenodd" clip-rule="evenodd" d="M16.0871 68.5193C18.3725 68.2542 33.6081 65.7353 37.7378 64.5754C39.3415 64.1693 40.1434 64.3765 40.3519 64.8488C40.5604 65.3211 40.5523 66.1414 39.3736 66.5059C38.1948 66.8704 24.7233 70.1763 22.2375 70.3172C19.7517 70.4581 16.8088 69.8366 16.031 69.2318C15.2532 68.627 16.0952 68.4779 16.0952 68.4779L16.0871 68.5193Z" fill="white"/>
<path fill-rule="evenodd" clip-rule="evenodd" d="M22.2279 72.0562C23.8317 71.7165 37.1429 68.5928 40.9357 67.0849C42.0423 66.7452 42.4352 67.0849 42.6357 67.4909C42.715 67.6088 42.7666 67.7443 42.7862 67.8866C42.8057 68.0288 42.7928 68.1738 42.7484 68.3099C42.704 68.446 42.6292 68.5695 42.5304 68.6704C42.4314 68.7714 42.3109 68.8469 42.1787 68.8912C41.4569 69.2309 31.257 73.6553 26.4138 73.9287C25.0122 73.8985 23.6377 73.5237 22.4044 72.835C21.8831 72.5617 22.0756 72.5617 22.2039 72.0894L22.2279 72.0562Z" fill="white"/>
<path fill-rule="evenodd" clip-rule="evenodd" d="M43.879 69.1997C42.3715 69.9537 33.214 73.9639 29.6858 74.7759C28.7075 75.0493 28.1782 75.795 29.357 76.201C30.5358 76.607 33.2861 76.4081 34.922 75.9358C36.5579 75.4636 43.1894 73.2099 45.7393 70.6331C45.052 70.2564 44.4246 69.773 43.879 69.1997Z" fill="white"/>
<path fill-rule="evenodd" clip-rule="evenodd" d="M46.6377 71.5093C43.3289 73.4967 39.8694 75.2037 36.2935 76.6131C35.3071 76.9528 35.7722 77.9056 36.7506 78.0382C39.0116 78.2175 41.2666 77.6203 43.1656 76.3397C44.9764 75.204 46.7026 73.93 48.3296 72.5284C47.9368 72.3295 47.0867 71.7826 46.6297 71.5093H46.6377Z" fill="white"/>
<path fill-rule="evenodd" clip-rule="evenodd" d="M49.6289 73.3496C47.961 74.5427 44.096 77.1942 43.4865 77.6333C42.6365 78.2464 42.1794 79.2904 43.8795 79.1246C45.5794 78.959 48.6907 77.6995 51.2005 73.9628C50.6543 73.7925 50.1188 73.5877 49.5968 73.3496H49.6289Z" fill="white"/>
<path fill-rule="evenodd" clip-rule="evenodd" d="M52.5696 74.3667C51.5272 75.4521 49.9555 77.2251 48.8488 78.1697C48.1272 78.9237 48.6484 80.2826 49.8913 79.6694C51.7596 78.6035 53.2069 76.894 53.9809 74.839C53.4991 74.7203 53.0272 74.5625 52.5696 74.3667Z" fill="white"/>
<path fill-rule="evenodd" clip-rule="evenodd" d="M55.1937 76.0654C54.3438 77.1509 53.4937 78.0374 52.9645 78.7167C52.4353 79.3961 53.1009 80.0756 53.622 80.2827C54.1433 80.4898 55.1296 81.0285 56.3004 78.6256L55.1937 76.14V76.0654Z" fill="white"/>
<path fill-rule="evenodd" clip-rule="evenodd" d="M29.7966 54.2426C31.4966 54.2426 37.254 54.6569 39.3469 54.6569C41.4399 54.6569 46.2831 54.516 48.0473 54.3835C50.7898 54.2095 53.5401 54.2095 56.2826 54.3835C58.1188 54.5823 62.1683 54.8557 62.89 56.8691C63.6117 58.8825 62.0561 59.885 61.0698 60.6059C59.827 61.3567 58.794 62.4278 58.0715 63.7145C57.3491 65.0012 56.9621 66.4594 56.9481 67.9469C56.1463 67.6072 55.0476 67.4001 55.8336 65.7015C56.2906 64.7486 58.5198 61.625 57.9906 60.1916C57.4613 58.7582 55.7694 57.6148 51.9123 57.474C48.0553 57.3331 42.6266 57.474 40.686 57.1343C38.7455 56.7946 31.4645 54.8889 29.965 54.69C29.3074 54.6237 29.3074 54.284 29.7645 54.2095L29.7966 54.2426Z" fill="white"/>
<path fill-rule="evenodd" clip-rule="evenodd" d="M45.2503 58.0543C46.6215 58.0543 51.6652 57.9135 53.1006 58.1869C54.536 58.4603 56.3082 58.8912 57.11 60.2252C57.7676 61.3851 56.653 63.2162 56.1317 63.9702C55.3261 64.9617 54.4525 65.8922 53.5176 66.7541C52.9884 67.1601 52.01 66.4807 52.8601 65.4616C51.7455 66.141 50.3743 66.0085 51.0318 64.4425C50.0455 65.271 48.4177 65.329 49.428 63.2162C48.7705 63.7631 46.9422 63.6967 48.1209 62.0645C47.1347 62.4042 46.0281 61.7911 46.7417 60.772C45.5068 60.9791 44.7852 60.0263 46.0922 59.2723C44.8493 59.6203 44.4885 58.1206 45.2903 58.0543H45.2503Z" fill="white"/>
<path fill-rule="evenodd" clip-rule="evenodd" d="M39.6038 57.6001C37.8878 57.6001 37.8477 59.5306 39.8043 59.4229C41.3519 59.3318 43.2042 58.9589 43.1722 58.3127C43.1401 57.6664 40.8708 57.6332 39.6038 57.6001Z" fill="white"/>
<path fill-rule="evenodd" clip-rule="evenodd" d="M39.8445 59.6779C38.8823 59.8602 38.8502 60.3242 38.9865 60.6805C39.1228 61.0368 39.636 61.6416 41.3199 61.393C43.0039 61.1445 43.926 60.4236 43.926 59.8188C43.926 59.2139 40.8709 59.6033 39.8445 59.6779Z" fill="white"/>
<path fill-rule="evenodd" clip-rule="evenodd" d="M41.4899 61.8156C40.8403 61.9233 40.2309 62.4287 40.4314 63.0336C40.6639 63.7792 42.1474 63.9947 43.7912 63.1413C45.4351 62.2878 45.3389 62.0724 45.1624 61.6085C44.986 61.1445 43.278 61.5008 41.4899 61.8156Z" fill="white"/>
<path fill-rule="evenodd" clip-rule="evenodd" d="M44.5838 62.9283C43.7774 63.2184 43.0054 63.602 42.2825 64.0716C41.6249 64.5025 41.1117 66.0354 43.6216 65.3559C46.1315 64.6765 46.2598 63.7817 45.923 63.1768C45.5862 62.572 44.7843 62.8951 44.5838 62.9283Z" fill="white"/>
<path fill-rule="evenodd" clip-rule="evenodd" d="M43.798 65.8928C42.9401 66.4313 43.357 68.5027 45.2415 67.5499C47.1258 66.597 48.449 65.6193 48.1603 64.9399C47.8716 64.2605 45.7546 64.7991 43.798 65.8679V65.8928Z" fill="white"/>
<path fill-rule="evenodd" clip-rule="evenodd" d="M48.7783 66.4057C47.8802 66.8282 44.9614 67.8308 45.9236 69.1151C46.4047 69.7613 47.3349 69.2228 47.7118 68.9742C48.0887 68.7256 50.1175 67.2591 49.6363 66.4885C49.4118 66.1488 48.9788 66.3146 48.7783 66.4223V66.4057Z" fill="white"/>
<path fill-rule="evenodd" clip-rule="evenodd" d="M48.5771 68.7922C46.6846 70.0434 48.8176 71.1122 50.0204 70.0433C50.6699 69.4634 52.0011 68.3862 51.3916 67.6488C50.8784 67.0108 49.1624 68.4774 48.5771 68.7922Z" fill="white"/>
<path fill-rule="evenodd" clip-rule="evenodd" d="M51.569 69.2991C50.9836 69.9785 49.6204 70.9976 50.6789 71.7847C51.569 72.431 52.1223 71.7847 52.5312 71.2876C52.9402 70.7904 54.5199 69.1831 53.9426 68.5036C53.3652 67.8242 52.0822 69.0008 51.5369 69.3322L51.569 69.2991Z" fill="white"/>
<path fill-rule="evenodd" clip-rule="evenodd" d="M55.5623 69.5633C54.9449 69.058 53.71 70.3919 53.261 71.2204C52.8119 72.049 53.1647 72.5047 53.6058 72.7202C53.8841 72.7783 54.1732 72.7399 54.4283 72.6112C54.6835 72.4824 54.8904 72.2702 55.017 72.0076C55.1855 71.5437 56.1798 70.1848 55.5623 69.522V69.5633Z" fill="white"/>
<path d="M60.0283 55.7427C60.9425 56.215 61.9929 56.8944 62.057 57.5738C62.1212 58.2532 61.9287 58.9492 60.8141 59.7777" stroke="#231F20" stroke-width="2.36747" stroke-miterlimit="2.61"/>
<path fill-rule="evenodd" clip-rule="evenodd" d="M92.7292 81.0283C93.908 81.7077 97.1794 82.6853 98.0938 80.4815C99.4008 81.1609 102.104 81.7077 103.451 79.9429C105.68 80.4815 108.166 81.6 109.064 78.9901C111.021 79.537 115.864 80.7549 116.384 77.4906C119.263 77.9048 123.45 78.1699 123.97 75.0465C126.456 75.0465 130.77 74.6405 130.77 71.6495C133.256 71.6495 137.578 69.8765 137.049 67.8384C139.278 67.565 142.285 65.1209 142.285 63.4888C144.507 62.8093 146.992 61.0032 146.471 58.7331C147.778 57.9046 150 56.9684 150 55.6013C150.013 54.9765 149.789 54.3709 149.378 53.9131C148.967 53.4552 148.398 53.1811 147.794 53.1489C146.615 53.1489 142.181 53.8283 140.577 53.8283C138.973 53.8283 120.042 53.4223 115.591 53.6957C111.316 53.9351 107.03 53.888 102.761 53.5549C100.01 53.2815 88.3269 52.627 86.675 56.0404C85.4963 58.526 86.4105 59.2965 87.4769 60.2492C88.5434 61.202 92.0556 62.9751 92.0556 68.6835C92.0556 74.3919 91.4061 77.3829 92.7131 81.0532L92.7292 81.0283Z" fill="#231F20"/>
<path fill-rule="evenodd" clip-rule="evenodd" d="M145.83 54.5156C141.82 54.5156 132.358 54.789 130.53 54.789C128.701 54.789 115.751 56.2887 113.69 56.9681C112.776 57.2333 112.576 58.1861 113.69 58.2524C114.805 58.3187 128.124 58.5258 130.105 58.5258C132.085 58.5258 145.5 58.7247 147.305 56.2887C148.612 54.5156 146.976 54.5819 145.798 54.5156H145.83Z" fill="white"/>
<path fill-rule="evenodd" clip-rule="evenodd" d="M143.408 59.8196C141.058 59.8859 129.287 59.9604 127.915 59.8859C126.544 59.8113 115.888 59.2064 114.637 59.1401C113.386 59.0739 112.231 59.4136 112.231 59.8196C112.231 60.2255 112.496 60.5652 113.931 60.9049C122.144 62.0775 130.426 62.6478 138.717 62.6118C140.618 62.678 143.168 61.659 143.817 60.7061C144.467 59.7533 143.753 59.8196 143.424 59.8196H143.408Z" fill="white"/>
<path fill-rule="evenodd" clip-rule="evenodd" d="M138.853 64.3101C137.25 64.3101 117.925 62.8104 113.867 61.9238C112.496 61.7912 111.582 61.725 111.462 62.3382C111.341 62.9512 111.398 63.2164 112.577 63.5561C113.755 63.8958 128.076 66.688 135.334 66.8206C137.739 66.7543 140.569 64.335 138.87 64.335L138.853 64.3101Z" fill="white"/>
<path fill-rule="evenodd" clip-rule="evenodd" d="M133.931 68.5193C131.637 68.2542 116.401 65.7353 112.279 64.5754C110.676 64.1693 109.874 64.3765 109.665 64.8488C109.457 65.3211 109.473 66.1414 110.652 66.5059C111.83 66.8704 125.294 70.1763 127.78 70.3172C130.266 70.4581 133.208 69.8366 133.995 69.2318C134.78 68.627 133.931 68.4779 133.931 68.4779V68.5193Z" fill="white"/>
<path fill-rule="evenodd" clip-rule="evenodd" d="M127.779 72.0562C126.175 71.7165 112.872 68.5928 109.079 67.0849C107.964 66.7452 107.571 67.0849 107.379 67.4909C107.306 67.6073 107.26 67.7395 107.244 67.8772C107.228 68.0149 107.242 68.1547 107.286 68.2857C107.331 68.4168 107.402 68.5358 107.498 68.6335C107.593 68.7312 107.709 68.8052 107.836 68.8497C108.557 69.1894 118.757 73.6139 123.593 73.8873C124.994 73.8556 126.368 73.4807 127.603 72.7937C128.123 72.5202 127.931 72.5202 127.795 72.0479L127.779 72.0562Z" fill="white"/>
<path fill-rule="evenodd" clip-rule="evenodd" d="M106.135 69.1997C107.635 69.9537 116.793 73.9639 120.329 74.7759C121.307 75.0493 121.828 75.795 120.65 76.201C119.471 76.607 116.728 76.4081 115.092 75.9358C113.457 75.4636 106.818 73.2099 104.268 70.6331C104.957 70.2563 105.587 69.7729 106.135 69.1997Z" fill="white"/>
<path fill-rule="evenodd" clip-rule="evenodd" d="M103.387 71.5093C106.694 73.4939 110.15 75.2008 113.723 76.6131C114.701 76.9528 114.244 77.9056 113.266 78.0382C111.005 78.2187 108.749 77.6215 106.85 76.3397C105.037 75.2039 103.309 73.9299 101.679 72.5284C102.071 72.3295 102.922 71.7826 103.378 71.5093H103.387Z" fill="white"/>
<path fill-rule="evenodd" clip-rule="evenodd" d="M100.363 73.3496C102.039 74.5427 105.896 77.1942 106.514 77.6333C107.363 78.2464 107.821 79.2904 106.121 79.1246C104.42 78.959 101.309 77.6995 98.791 73.9628C99.3375 73.7925 99.8735 73.5877 100.395 73.3496H100.363Z" fill="white"/>
<path fill-rule="evenodd" clip-rule="evenodd" d="M97.4358 74.3667C98.4867 75.4521 100.051 77.2251 101.165 78.1697C101.887 78.9237 101.358 80.2826 100.115 79.6694C98.8717 79.0563 96.6179 76.9518 96.0332 74.839C96.5119 74.7204 96.981 74.5625 97.4358 74.3667Z" fill="white"/>
<path fill-rule="evenodd" clip-rule="evenodd" d="M94.8226 76.0654C95.6722 77.1509 96.5226 78.0374 97.0442 78.7167C97.5649 79.3961 96.9152 80.0756 96.3945 80.2827C95.8729 80.4898 94.8867 81.0285 93.708 78.6256L94.8226 76.14V76.0654Z" fill="white"/>
<path fill-rule="evenodd" clip-rule="evenodd" d="M120.194 54.2437C118.494 54.2437 112.745 54.6579 110.651 54.6579C108.559 54.6579 103.715 54.5171 101.951 54.3845C99.2064 54.2106 96.4529 54.2106 93.708 54.3845C91.8797 54.5834 87.8222 54.8568 87.1085 56.8702C86.3948 58.8835 87.9586 59.9275 88.9368 60.6815C90.1769 61.4354 91.2078 62.5072 91.9299 63.7932C92.6519 65.0792 93.0406 66.5359 93.0585 68.0225C93.8604 67.6828 94.9509 67.4756 94.165 65.7771C93.708 64.8243 91.4868 61.7006 92.008 60.2672C92.5293 58.8338 94.2292 57.6904 98.0943 57.5496C101.959 57.4087 107.38 57.5496 109.273 57.2099C111.165 56.8702 118.494 54.9645 120.002 54.7656C120.651 54.6994 120.651 54.3597 120.194 54.2851V54.2437Z" fill="white"/>
<path fill-rule="evenodd" clip-rule="evenodd" d="M104.765 58.0543C103.386 58.0543 98.3505 57.9135 96.9154 58.1869C95.4797 58.4603 93.7075 58.8912 92.9057 60.2252C92.2561 61.3851 93.3627 63.2162 93.8919 63.9702C94.6975 64.9617 95.5712 65.8922 96.5065 66.7541C97.0272 67.1601 98.0132 66.4807 97.1639 65.4616C98.2702 66.141 99.6412 66.0085 98.9916 64.4425C99.9699 65.271 101.606 65.329 100.596 63.2162C101.245 63.7631 103.082 63.6967 101.903 62.0645C102.881 62.4042 103.996 61.7911 103.274 60.772C104.517 60.9791 105.238 60.0263 103.931 59.2723C105.174 59.6203 105.535 58.1206 104.734 58.0543H104.765Z" fill="white"/>
<path fill-rule="evenodd" clip-rule="evenodd" d="M110.41 57.6001C112.126 57.6001 112.157 59.5306 110.201 59.4229C108.662 59.3318 106.801 58.9589 106.841 58.3127C106.882 57.6664 109.134 57.6332 110.41 57.6001Z" fill="white"/>
<path fill-rule="evenodd" clip-rule="evenodd" d="M110.17 59.6779C111.132 59.8602 111.164 60.3242 111.028 60.6805C110.892 61.0368 110.378 61.6416 108.694 61.393C107.011 61.1445 106.08 60.4236 106.08 59.8188C106.08 59.2139 109.135 59.6033 110.17 59.6779Z" fill="white"/>
<path fill-rule="evenodd" clip-rule="evenodd" d="M108.517 61.8156C109.175 61.9233 109.776 62.4287 109.584 63.0336C109.344 63.7792 107.868 63.9947 106.224 63.1413C104.58 62.2878 104.676 62.0724 104.845 61.6085C105.014 61.1445 106.737 61.5008 108.517 61.8156Z" fill="white"/>
<path fill-rule="evenodd" clip-rule="evenodd" d="M105.432 62.9283C106.238 63.2184 107.01 63.602 107.733 64.0716C108.382 64.5025 108.904 66.0354 106.394 65.3559C103.884 64.6765 103.747 63.7817 104.092 63.1768C104.437 62.572 105.223 62.8951 105.432 62.9283Z" fill="white"/>
<path fill-rule="evenodd" clip-rule="evenodd" d="M106.209 65.8928C107.067 66.4313 106.658 68.5027 104.773 67.5499C102.889 66.597 101.565 65.6193 101.846 64.9399C102.127 64.2605 104.292 64.7991 106.209 65.8679V65.8928Z" fill="white"/>
<path fill-rule="evenodd" clip-rule="evenodd" d="M101.237 66.4057C102.127 66.8282 105.046 67.8308 104.084 69.1151C103.602 69.7613 102.68 69.2228 102.303 68.9742C101.927 68.7256 99.8983 67.2591 100.379 66.4885C100.603 66.1488 101.029 66.3146 101.237 66.4223V66.4057Z" fill="white"/>
<path fill-rule="evenodd" clip-rule="evenodd" d="M101.437 68.7922C103.322 70.0434 101.197 71.1122 99.9938 70.0433C99.3442 69.4634 98.0047 68.3862 98.6228 67.6488C99.1359 67.0108 100.852 68.4774 101.437 68.7922Z" fill="white"/>
<path fill-rule="evenodd" clip-rule="evenodd" d="M98.439 69.2991C99.0247 69.9785 100.396 70.9976 99.3371 71.7847C98.439 72.431 97.8935 71.7847 97.4846 71.2876C97.0757 70.7904 95.488 69.1831 96.0734 68.5036C96.6591 67.8242 97.926 69.0008 98.439 69.3322V69.2991Z" fill="white"/>
<path fill-rule="evenodd" clip-rule="evenodd" d="M94.4459 69.5633C95.0634 69.058 96.3064 70.3919 96.7469 71.2204C97.1883 72.049 96.852 72.5047 96.4029 72.7202C96.1249 72.7778 95.8373 72.7392 95.5841 72.6103C95.3299 72.4814 95.1245 72.2695 94.9992 72.0076C94.8228 71.5437 93.8284 70.1848 94.4459 69.522V69.5633Z" fill="white"/>
<path d="M89.979 55.7427C89.0649 56.215 88.0224 56.8944 87.9582 57.5738C87.8941 58.2532 88.0865 58.9326 89.2012 59.7529" stroke="#231F20" stroke-width="2.36747" stroke-miterlimit="2.61"/>
<path fill-rule="evenodd" clip-rule="evenodd" d="M74.5021 99.0164C73.4998 99.0164 72.706 98.337 72.8182 96.6799L73.3153 90.0514C73.3153 89.4632 74.1893 89.0571 74.5502 89.0571C74.9111 89.0571 75.7611 89.4632 75.7771 90.0514L76.2742 96.6799C76.3865 98.337 75.5926 98.9915 74.5021 99.0164Z" fill="white" stroke="#231F20" stroke-width="0.828616" stroke-miterlimit="2.61"/>
<path fill-rule="evenodd" clip-rule="evenodd" d="M74.5994 99.0164C75.5937 99.0164 76.3875 98.337 76.2753 96.6799L75.7781 90.0514C75.7781 89.4632 74.9121 89.0571 74.5512 89.0571C74.1904 89.0571 73.3404 89.4632 73.3164 90.0514L72.8192 96.6799C72.7069 98.337 73.5008 98.9915 74.5994 99.0164Z" fill="white" stroke="#231F20" stroke-width="0.828616" stroke-miterlimit="2.61"/>
<path fill-rule="evenodd" clip-rule="evenodd" d="M78.3748 98.8671C79.3611 98.7345 80.0427 97.9143 79.6979 96.2985L78.2626 89.811C78.1583 89.231 77.2603 88.9824 76.8994 88.9824C76.5385 88.9824 75.7688 89.5707 75.8329 90.159L76.2819 96.7874C76.4102 98.4445 77.2842 98.9665 78.3748 98.8257V98.8671Z" fill="white" stroke="#231F20" stroke-width="0.828616" stroke-miterlimit="2.61"/>
<path fill-rule="evenodd" clip-rule="evenodd" d="M82.1749 98.1298C83.129 97.8315 83.6743 96.9035 83.073 95.3624L80.6192 89.2147C80.4267 88.6678 79.4966 88.5518 79.1517 88.6678C78.8069 88.7838 78.1253 89.4467 78.2777 90.01L79.7852 96.481C80.1781 98.0884 81.1244 98.453 82.1908 98.1381L82.1749 98.1298Z" fill="white" stroke="#231F20" stroke-width="0.828616" stroke-miterlimit="2.61"/>
<path fill-rule="evenodd" clip-rule="evenodd" d="M85.7862 97.0609C86.6924 96.6217 87.1094 95.6275 86.3075 94.1858L83.0518 88.4605C82.7872 87.9385 81.8491 87.9634 81.5282 88.129C81.2075 88.2948 80.6141 89.0488 80.8466 89.579L83.2042 95.7683C83.8056 97.3011 84.808 97.5331 85.7862 97.0609Z" fill="white" stroke="#231F20" stroke-width="0.828616" stroke-miterlimit="2.61"/>
<path fill-rule="evenodd" clip-rule="evenodd" d="M70.6948 98.8671C69.7326 98.7179 69.0911 97.8894 69.3958 96.2985L70.8312 89.811C70.9354 89.231 71.8415 88.9824 72.1944 88.9824C72.5472 88.9824 73.333 89.5707 73.2688 90.159L72.8198 96.7874C72.6915 98.4445 71.8094 98.9665 70.727 98.8257L70.6948 98.8671Z" fill="white" stroke="#231F20" stroke-width="0.828616" stroke-miterlimit="2.61"/>
<path fill-rule="evenodd" clip-rule="evenodd" d="M66.917 98.1298C65.9628 97.8315 65.4255 96.9035 66.0189 95.3624L68.4727 89.2147C68.6651 88.6678 69.5953 88.5518 69.9401 88.6678C70.2849 88.7838 70.9665 89.4467 70.8141 90.01L69.3066 96.481C68.9217 98.0884 67.9674 98.453 66.901 98.1381L66.917 98.1298Z" fill="white" stroke="#231F20" stroke-width="0.828616" stroke-miterlimit="2.61"/>
<path fill-rule="evenodd" clip-rule="evenodd" d="M63.3094 97.0609C62.4032 96.6217 61.9943 95.6275 62.7882 94.1858L66.0437 88.4605C66.3084 87.9385 67.2466 87.9634 67.5673 88.129C67.8881 88.2948 68.4815 89.0488 68.257 89.579L65.8833 95.7269C65.282 97.2597 64.2796 97.4917 63.2933 97.0194L63.3094 97.0609Z" fill="white" stroke="#231F20" stroke-width="0.828616" stroke-miterlimit="2.61"/>
<path fill-rule="evenodd" clip-rule="evenodd" d="M74.5511 90.0195C85.585 90.0195 94.5259 83.1345 94.5259 74.6423C94.5259 66.15 85.585 59.2568 74.5511 59.2568C63.5173 59.2568 54.5684 66.1417 54.5684 74.6423C54.5684 83.1428 63.5173 90.0195 74.5511 90.0195Z" fill="#231F20"/>
<path fill-rule="evenodd" clip-rule="evenodd" d="M83.3148 68.9986C83.3148 66.7533 81.0214 63.3564 74.3497 63.3564C70.4286 63.3564 67.1329 64.3755 65.1924 66.2811C65.4607 66.4792 65.6866 66.7322 65.8563 67.0244C66.026 67.3166 66.1357 67.6417 66.1787 67.9796V80.4071C66.082 81.1668 65.7631 81.878 65.2645 82.4453C67.0928 83.9449 70.2281 85.3699 75.0715 85.2373C79.9148 85.1048 84.4213 83.4643 84.4213 78.8412C84.4213 76.8777 82.6573 74.9059 80.6926 74.2265C80.1714 74.0856 80.2516 73.5471 80.6926 73.34C81.1337 73.1329 83.3789 71.3018 83.3468 68.9903L83.3148 68.9986Z" fill="white"/>
<path fill-rule="evenodd" clip-rule="evenodd" d="M74.6142 72.8691C75.2907 72.9343 75.9706 72.7865 76.5644 72.4452C77.1582 72.1038 77.6382 71.5848 77.9413 70.9564C78.2443 70.328 78.3564 69.6195 78.2627 68.9241C78.1689 68.2288 77.8738 67.5789 77.416 67.06C76.9582 66.5411 76.3593 66.1774 75.6978 66.0166C75.0364 65.856 74.3433 65.9058 73.7097 66.1595C73.0762 66.4133 72.5317 66.8591 72.1478 67.4385C71.764 68.0179 71.5588 68.7036 71.5591 69.4058C71.5199 70.2836 71.8197 71.1416 72.3926 71.7911C72.9655 72.4405 73.7647 72.8283 74.6142 72.8691Z" fill="#231F20"/>
<path fill-rule="evenodd" clip-rule="evenodd" d="M75.0075 82.4378C75.7112 82.4609 76.4056 82.2664 77.0018 81.8793C77.5979 81.492 78.0685 80.9298 78.3535 80.2645C78.6384 79.5991 78.7247 78.8611 78.6012 78.1449C78.4777 77.4286 78.15 76.7668 77.6603 76.244C77.1705 75.7214 76.5408 75.3617 75.852 75.211C75.1631 75.0604 74.4465 75.1256 73.7937 75.3985C73.141 75.6713 72.5819 76.1392 72.1881 76.7424C71.7944 77.3455 71.5839 78.0563 71.5835 78.7839C71.576 79.2562 71.6588 79.7253 71.8268 80.1645C71.9949 80.6037 72.245 81.0044 72.563 81.3437C72.8809 81.6831 73.2605 81.9543 73.6799 82.142C74.0994 82.3298 74.5504 82.4303 75.0075 82.4378Z" fill="#231F20" stroke="#231F20" stroke-width="0.828616" stroke-miterlimit="2.61"/>
</g>
<defs>
<clipPath id="clip0_557:471">
<rect width="150" height="49.3574" fill="white" transform="translate(0 50)"/>
</clipPath>
</defs>
</svg>
