<svg width="37" height="47" viewBox="0 0 37 47" fill="none" xmlns="http://www.w3.org/2000/svg">
<path fill-rule="evenodd" clip-rule="evenodd" d="M36.9281 3.06452V3.98048L18.4633 0.915157L0 3.98048V3.06452L18.4633 0L36.9281 3.06452Z" fill="#101010"/>
<path fill-rule="evenodd" clip-rule="evenodd" d="M36.9281 4.87656L18.4633 1.8313L0 4.87656L0.000284573 7.96649L0.160282 7.88118C0.22536 7.84695 6.777 4.42861 18.4989 4.42861C30.2216 4.42861 36.6968 7.84775 36.7624 7.88172L36.9207 7.96729L36.9281 4.87656Z" fill="black"/>
<path fill-rule="evenodd" clip-rule="evenodd" d="M0.159997 7.88159L0 7.9669V17.2162C0 22.1565 1.23422 27.0751 3.66857 31.8349C9.38328 42.9997 18.2431 46.9054 18.3318 46.9436L18.463 47.0001L18.5941 46.9436C18.6836 46.9054 27.536 42.9987 33.2504 31.8349C35.6859 27.0751 36.9204 22.1565 36.9204 17.2162V7.9677L36.7621 7.88213C36.6968 7.84816 30.2213 4.4292 18.4986 4.4292C6.77672 4.4292 0.225076 7.84736 0.159997 7.88159ZM18.4986 5.02662C29.084 5.02662 35.2824 7.82971 36.287 8.32123V17.2162C36.287 22.0655 35.0732 26.8965 32.6809 31.5774C27.4445 41.8014 19.5651 45.8159 18.463 46.3398C17.3601 45.8159 9.47479 41.8014 4.23978 31.5774C1.8475 26.8965 0.63402 22.0655 0.63402 17.2162V8.3223C1.64771 7.83132 7.91119 5.02662 18.4986 5.02662Z" fill="black"/>
<path fill-rule="evenodd" clip-rule="evenodd" d="M21.2707 37.718C21.5782 37.9181 21.3551 38.2654 21.1275 38.3197C20.8905 38.3804 20.6878 38.1328 20.573 38.4042C20.5085 38.55 20.6836 39.6542 21.884 39.6542C23.0045 39.6542 23.5391 38.3005 23.6445 38.0967C23.7505 37.8935 23.8187 37.6341 23.7127 37.6341C23.2211 37.6341 23.0778 37.9087 23.0778 37.9087C23.0778 37.9087 23.0406 37.6445 23.285 37.445C23.4865 37.2821 23.7508 37.3217 23.8463 37.3217C24.0466 37.3217 24.0151 37.1813 24.1362 36.9035C24.4121 36.2496 24.6019 36.2202 24.7813 35.922C24.9299 35.6792 24.6491 35.584 24.0952 35.5351C23.5397 35.4853 23.2421 35.5065 22.994 35.5404C22.7454 35.5739 22.4978 35.6688 22.3435 36.0266C22.2608 36.2205 22.4123 36.4114 22.7033 36.3619C22.994 36.3109 23.2739 36.1039 23.2739 36.1039C23.2739 36.1039 23.1429 36.5938 22.709 36.6952C22.3066 36.7882 21.8314 36.5598 21.8953 36.1766C21.9786 35.6795 22.3438 35.3153 23.0099 35.1925C23.6772 35.066 24.3422 35.1628 24.9353 35.3C25.5264 35.4404 25.9615 35.3554 26.5111 35.3252C27.6962 35.2655 28.4305 35.0024 28.4305 35.0024C28.4305 35.0024 27.8965 35.4102 27.1562 35.5987C26.4159 35.7889 25.7557 35.71 25.542 35.7889C25.3695 35.8584 25.1257 36.1806 24.9248 36.5489C24.7401 36.8874 24.5434 37.2776 24.6284 37.2776C25.3167 37.3022 25.5687 37.1605 25.5687 37.1605C25.5687 37.1605 25.4326 37.4399 25.1047 37.572C24.877 37.6587 24.4908 37.6587 24.4908 37.6587C24.4908 37.6587 24.3172 38.0724 24.1217 38.4457C23.9247 38.8187 23.6022 39.4014 23.0216 39.6897C22.4387 39.9775 21.3241 40.3363 20.6222 39.3862C19.8796 38.3895 20.5574 37.2557 21.2707 37.718ZM12.6527 37.848C12.7897 38.178 12.4987 38.3499 12.3296 38.3499C12.16 38.3499 11.9488 38.2315 11.9048 38.431C11.8644 38.6289 12.3552 39.6496 13.4971 39.6496C14.6395 39.6496 15.1689 39.0276 15.0885 38.4703C14.999 37.8483 13.9489 37.6012 13.112 37.1869C12.7025 36.9848 11.7769 36.8495 11.7769 36.0341C11.7769 34.2932 14.5923 35.4051 14.5923 35.4051C14.5923 35.4051 14.5983 35.1874 14.7293 35.1773C14.7927 35.1717 14.92 35.1481 14.9623 35.345C15.0041 35.5434 15.1902 36.589 15.1902 36.589C15.1902 36.589 14.7765 35.7929 13.6409 35.4452C13.4399 35.3789 12.5615 35.2217 12.5666 35.876C12.5772 36.2646 13.0804 36.439 13.9529 36.7577C15.0996 37.1808 15.687 37.5747 15.4162 38.7091C15.1584 39.7983 14.0268 39.9775 13.4766 39.9775C12.9276 39.9775 11.6641 39.6151 11.6641 38.42C11.6641 37.575 12.545 37.5948 12.6527 37.848ZM18.6687 31.3021L19.1311 31.5083C19.3976 31.6054 19.5679 31.5626 19.629 31.5385C19.6935 31.5123 19.9376 31.2657 19.9907 31.0558C20.0157 30.9702 20.0024 30.8959 19.9541 30.8411C19.7742 30.6405 19.4556 29.7192 19.3374 29.2213C19.2936 29.0365 19.3468 28.5265 19.388 28.1161C19.4241 27.7636 19.4462 27.5446 19.4275 27.4882C19.3959 27.401 19.2575 27.3167 19.0984 27.2218L18.8463 27.0603C18.7119 26.9568 18.7059 26.8159 18.6985 26.6645L18.6718 26.4294C18.6133 26.2107 17.4302 25.0736 17.2469 25.0632C16.9812 25.0469 16.9121 25.3213 16.8951 25.4863C16.8846 25.5828 17.0031 26.0139 17.1099 26.396L17.2279 26.8568C17.3489 27.5812 18.1674 28.8571 18.5164 29.4015L18.6821 29.6663C18.7537 29.8198 18.7258 29.9409 18.5985 30.0089C18.4749 30.0757 17.4112 29.9712 16.903 29.861C16.6848 29.8139 16.4154 29.7115 16.1525 29.6112C15.8516 29.4984 15.5662 29.3887 15.4014 29.381C15.209 29.3716 15.1178 29.4082 15.047 29.439L14.9316 29.4692L14.8168 29.4347C14.6759 29.3761 14.4124 29.2692 13.6932 29.2079C12.6448 29.1154 12.5661 29.3138 12.5234 29.4211C12.4714 29.5575 13.1123 30.1987 13.2268 30.2846C13.3726 30.3953 13.8441 30.564 14.1319 30.5191C14.461 30.4694 14.9976 30.4068 15.0641 30.4193L15.1721 30.4814L15.2724 30.5482C15.3633 30.5833 15.9493 30.6135 16.1264 30.6223C16.3307 30.6327 16.8672 30.7373 17.2594 30.8146L17.6976 30.8978C17.8693 30.9274 18.3115 31.1328 18.6687 31.3021Z" fill="black"/>
<path fill-rule="evenodd" clip-rule="evenodd" d="M29.5144 18.5095C29.4911 18.4825 29.4718 18.4809 29.4595 18.4839C29.4485 18.4873 29.4334 18.4972 29.4291 18.5293C29.4098 18.6668 29.2265 19.02 29.081 19.0722C28.7863 19.1794 28.6337 19.5046 28.5231 19.7415C28.4666 19.8638 28.4115 19.9804 28.3677 19.982C28.3489 19.9833 28.3282 19.9643 28.3055 19.9247C28.1239 19.63 28.2256 19.1794 28.3072 18.8163L28.3259 18.7272C28.3924 18.421 28.7732 17.9921 29.0009 17.7348L29.1015 17.6209C29.2563 17.4391 29.2953 16.8229 29.2663 16.7767C29.2569 16.774 29.2507 16.7791 29.247 16.7844C29.2434 16.7871 29.2404 16.7904 29.2382 16.794L29.2347 16.7935V16.7967C29.2254 16.8063 29.2174 16.8074 29.2097 16.8384C29.1691 17.031 28.7951 17.4222 28.1563 17.9421C28.0253 18.0488 27.8761 18.2416 27.7539 18.3964C27.6751 18.498 27.5828 18.6152 27.5583 18.6208C27.4 17.826 27.6865 17.3717 27.8226 17.1521L27.886 17.0406C28.1563 16.3485 28.8522 15.8244 28.8596 15.8196C28.869 15.7995 28.869 15.7781 28.8519 15.7645C28.8252 15.7452 28.7764 15.7535 28.6993 15.7899L28.6573 15.8097C28.4146 15.9206 27.6825 16.2563 27.2335 17.0644C26.911 17.6463 26.7862 18.2967 26.7862 18.7871C26.7862 19.0374 26.8183 19.2449 26.8729 19.3824C27.0306 19.7782 27.3068 20.7618 27.3918 21.1479C27.4447 21.3872 27.4529 22.209 27.4529 22.7241C27.4529 22.9757 27.4518 23.152 27.4518 23.1586C27.4501 23.1586 27.3125 23.5763 27.3125 23.5763C27.3119 23.5806 27.2454 23.9069 26.6788 24.4522C26.1081 25.0006 25.4727 25.175 25.467 25.1771C25.2118 25.1958 24.9791 25.186 24.9708 25.1547C24.9708 24.5278 23.8301 23.0696 23.2464 22.5885C22.6507 22.0972 22.1747 21.7453 21.3659 21.2822C20.5423 20.8104 19.6264 18.8329 19.6159 18.8136L19.5366 18.5464C19.5366 18.5464 19.4923 18.0129 19.48 17.8742C19.5099 17.8902 19.5488 17.9129 19.5488 17.9129L19.8296 18.0667L20.1521 18.1833C20.155 18.1841 20.5744 18.2614 20.5744 18.2614C20.5744 18.2622 20.8092 18.3753 20.8092 18.3753L21.0269 18.5085L21.3653 18.7385L21.7129 18.9104C21.72 18.9123 22.1304 18.9321 22.1304 18.9321L22.1397 18.9002C22.1397 18.9002 21.6646 18.6903 21.6634 18.6903C21.6634 18.6839 21.4924 18.4085 21.4924 18.4085C21.4258 18.3186 21.3594 18.2287 21.2932 18.1386C21.2866 18.1344 21.0462 17.9993 21.0462 17.9993C20.9444 17.9847 20.8425 17.9712 20.7404 17.9587C20.7404 17.9562 20.6804 17.9078 20.6495 17.8816C20.6762 17.8669 20.7265 17.8375 20.7265 17.8375C20.7265 17.841 21.0539 17.8766 21.055 17.8766C21.055 17.8798 21.3463 18.0662 21.3463 18.0662L21.6643 18.2967C21.6694 18.2991 21.9653 18.4071 21.9653 18.4071L22.0042 18.4216L21.8743 18.1036C21.7931 18.0304 21.7114 17.9577 21.6291 17.8857L21.2687 17.5974C21.2659 17.595 20.9857 17.4591 20.9857 17.4591C20.9828 17.4586 20.6839 17.3636 20.6839 17.3636C20.6839 17.3631 20.3676 17.1732 20.3676 17.1732C20.3676 17.1732 20.371 17.1529 20.3732 17.1355C20.4133 17.15 20.8112 17.3003 20.8112 17.3003C20.8134 17.3005 21.1926 17.3976 21.1926 17.3976C21.192 17.3963 21.5106 17.5121 21.5106 17.5121C21.5094 17.511 21.9678 17.7215 21.9678 17.7215C21.9718 17.7233 22.3515 17.8009 22.3515 17.8009C22.358 17.8011 22.8198 17.7233 22.8198 17.7233C22.8258 17.7207 23.266 17.4324 23.266 17.4324C23.2711 17.4246 23.3521 17.2532 23.3521 17.2532L23.3694 17.2136L23.2279 17.2687C23.2268 17.2687 22.8283 17.4591 22.8278 17.4591L22.5518 17.5171C22.5518 17.5158 22.2403 17.4583 22.2398 17.4583H22.2403C22.2403 17.4548 21.9877 17.2337 21.9877 17.2337L21.6291 16.9069L21.3048 16.7507C21.3003 16.7488 20.9212 16.6911 20.9212 16.6911C20.9212 16.6903 20.6904 16.5798 20.6864 16.578C20.6875 16.578 20.6881 16.574 20.6881 16.5683C20.6881 16.5421 20.681 16.4849 20.6782 16.4582L21.155 16.4959L21.6774 16.4563C21.6774 16.4576 21.9715 16.5141 21.9715 16.5141L22.269 16.6296L22.5737 16.6684L22.6285 16.6753L22.2889 16.3696C22.2855 16.368 21.9465 16.1375 21.9465 16.1375C21.9425 16.1357 21.6623 16.0391 21.6623 16.0391C21.6572 16.038 21.19 16.0009 21.1806 16.0001C21.1846 15.9998 21.1852 15.9923 21.1852 15.9814C21.1852 15.9546 21.1806 15.9166 21.1781 15.8971L21.3989 15.8618C21.3989 15.8632 21.7524 15.938 21.7524 15.938C21.7524 15.9391 22.0872 16.1282 22.0872 16.1282L22.4489 16.2445C22.4595 16.2448 22.9772 16.1683 22.9772 16.1683L23.0082 16.1643L22.8505 15.9682C22.8417 15.9618 22.5814 15.8856 22.5808 15.8856C22.5808 15.8843 22.366 15.7348 22.366 15.7348L22.0457 15.523C22.0411 15.5206 21.8021 15.4441 21.8021 15.4441C21.7982 15.4428 21.4213 15.3861 21.4202 15.3858C21.4202 15.3821 21.2349 15.2216 21.2309 15.2189C21.2366 15.2179 21.2483 15.162 21.2525 15.1366L21.4517 15.189L21.7081 15.304L22.0721 15.4126L21.9917 15.2615L21.8502 15.1224L21.7263 14.9721L21.78 14.9595C21.78 14.9641 22.1673 15.1499 22.1673 15.1499L22.4691 15.2467C22.4691 15.2484 22.7021 15.454 22.7021 15.454C22.7056 15.4567 23.1466 15.6909 23.1466 15.6909L23.191 15.7145L23.1105 15.5118C23.1083 15.5072 22.869 15.2192 22.869 15.2192L22.6698 14.8951C22.668 14.8913 22.3074 14.5461 22.3074 14.5461C22.304 14.5429 21.845 14.3121 21.8439 14.3121C21.8439 14.3102 21.6691 14.1239 21.6691 14.1239C21.5622 14.0215 21.4554 13.9189 21.3489 13.8161C21.3489 13.812 21.3162 13.7067 21.2994 13.6532C21.3537 13.6695 21.6103 13.7497 21.6103 13.7497L21.9695 13.8452C21.9695 13.846 22.2259 13.9963 22.2259 13.9963C22.2259 13.9979 22.4396 14.2421 22.4396 14.2421C22.4472 14.2477 22.7877 14.3824 22.7877 14.3824L23.6553 14.4883L23.7059 14.4942L23.4677 14.2584C23.4618 14.2541 23.002 14.0618 23.002 14.0618L22.726 13.8725C22.726 13.869 22.5717 13.6085 22.5717 13.6085L22.4109 13.34C22.408 13.336 22.1483 13.1058 22.1483 13.1058C22.1443 13.1031 21.8246 12.9304 21.8246 12.9304L21.5083 12.6827C21.5083 12.6803 21.4321 12.5319 21.3835 12.433L21.6032 12.6322L22.0229 12.978C22.0281 12.9809 22.3483 13.1154 22.3483 13.1154L22.6226 13.324L22.9412 13.6299C22.9522 13.6347 23.4501 13.7008 23.4501 13.7008L23.5124 13.7094L23.0068 13.2973C23.0068 13.2898 22.8926 12.9595 22.8926 12.9595C22.8051 12.8794 22.7168 12.8002 22.6277 12.7218L22.4901 12.5696C22.4901 12.5656 22.3532 12.1728 22.3532 12.1728C22.259 12.0805 22.1641 11.989 22.0684 11.8981C22.0684 11.896 21.6117 11.4951 21.6106 11.4935V11.4927C21.6106 11.4866 21.5944 11.4253 21.585 11.3849C21.62 11.4015 21.6677 11.4253 21.6677 11.4253L22.0869 11.655C22.0909 11.6569 22.5899 11.7911 22.5899 11.7911L23.1105 11.9072L23.7121 11.9976L23.5706 11.7283C23.5607 11.7197 23.2614 11.605 23.2614 11.605L22.9838 11.4526C22.9809 11.4518 22.6419 11.317 22.6419 11.317L22.3432 11.202C22.3432 11.1993 22.1494 10.964 22.0414 10.8341C22.1451 10.8996 22.3051 11.002 22.3051 11.002C22.3128 11.0044 22.5743 11.0239 22.5743 11.0239L23.3941 11.0242C23.3941 11.0263 23.7261 11.1951 23.7261 11.1956C23.7261 11.1967 24.0091 11.4839 24.0091 11.4839L24.0464 11.5216L24.012 11.1975C24.0086 11.1881 23.8287 10.9766 23.8287 10.9766C23.8236 10.9728 23.343 10.7231 23.343 10.7231L22.961 10.5878C22.9582 10.587 22.3827 10.4912 22.3799 10.4912V10.4904C22.3799 10.4853 22.2699 10.3621 22.2699 10.3621C22.2676 10.361 21.8487 9.99623 21.8487 9.99623C21.781 9.96293 21.7131 9.93004 21.645 9.89755C21.645 9.89648 21.581 9.8347 21.5412 9.79566H21.7567C21.7567 9.79887 22.0869 9.98553 22.0869 9.98553C22.0897 9.9874 22.5305 10.1211 22.5305 10.1211L23.0929 10.1984H23.0923C23.0923 10.204 23.3009 10.4238 23.3009 10.4238L23.605 10.5995C23.7204 10.6196 23.8358 10.6389 23.9514 10.6576L23.9997 10.6648L23.2881 9.84433C23.2836 9.84032 22.9434 9.66783 22.9434 9.66783C22.9406 9.66623 22.5416 9.55097 22.5416 9.55097C22.5416 9.54696 22.1903 9.17204 22.1903 9.17204C22.1863 9.16803 21.7464 8.91906 21.7464 8.91906C21.6401 8.89374 21.5335 8.86931 21.4267 8.84578C21.4466 8.81557 21.5128 8.71288 21.5128 8.71234C21.514 8.71528 21.8652 8.5658 21.8652 8.5658C21.8652 8.5666 22.3802 8.47113 22.3802 8.47113C22.3941 8.4599 22.433 8.3441 22.433 8.3441C22.4265 8.32458 22.2065 8.19034 22.2065 8.19034C22.1188 8.16352 22.0309 8.13714 21.9428 8.11118C21.9266 8.11305 21.7874 8.1898 21.7874 8.19034C21.7874 8.18793 21.3565 8.20638 21.3565 8.20638C21.3565 8.20612 20.8416 8.09219 20.8416 8.09166C20.8416 8.08925 20.311 7.67315 20.311 7.67315C20.2298 7.6338 20.1484 7.59476 20.0669 7.55602C20.0609 7.55495 19.1845 7.45841 19.1822 7.45841C19.1822 7.44798 18.9762 7.15863 18.9762 7.15863L18.6943 6.86875C18.6931 6.86714 18.3353 6.56335 18.3353 6.56335L18.3243 6.58555L18.2043 6.83532C18.2049 6.83291 18.0861 7.00567 18.0861 7.00567V7.00995C18.0861 7.04177 18.1029 7.20864 18.1029 7.20864C18.108 7.21907 18.2239 7.33085 18.2265 7.33406C18.2205 7.33406 18.1827 7.50788 18.1827 7.50922C18.1816 7.49719 17.7019 7.51564 17.701 7.51564C17.701 7.5135 17.3091 7.34422 17.3091 7.34422C17.3066 7.34262 17.0062 7.24688 17.0062 7.24688C17.0002 7.24501 16.3014 7.26533 16.3014 7.26533C16.2861 7.27282 16.1676 7.44557 16.1676 7.44557L16.1516 7.4683L16.4591 7.51002C16.4591 7.51109 16.5046 7.53837 16.5299 7.55361L16.4512 7.61405C16.4512 7.6103 16.0235 7.59185 16.0235 7.59185C16.0164 7.59292 15.7154 7.70765 15.7154 7.70765L15.6842 7.72021L15.8334 7.81461C15.8427 7.81782 16.4819 7.83681 16.4819 7.83681L16.9565 7.9518V7.95233C16.9565 7.95848 17.0468 8.07989 17.0468 8.07989C17.0468 8.07989 17.1111 8.1652 17.1352 8.19863L16.932 8.30399C16.9346 8.30372 16.3546 8.53397 16.3546 8.53397L15.1556 9.16749C15.1544 9.16642 14.3661 9.27713 14.3661 9.27713C14.3601 9.27901 14.0575 9.43759 14.0575 9.43759C14.0509 9.44186 13.808 9.75876 13.808 9.75876C13.8054 9.76277 13.6679 10.1572 13.6679 10.1572C13.6571 10.8274 13.6855 10.8429 13.6957 10.8482C13.7193 10.8621 13.925 10.9718 14.0842 10.8915C14.2644 10.7993 14.65 10.7086 14.8504 10.6685C14.9493 10.6495 14.9956 10.683 15.0038 10.7175C15.0146 10.7552 14.9848 10.8065 14.9109 10.8255L14.8694 10.837C14.521 10.926 14.1655 11.0338 14.1771 11.1603L14.2385 11.2568C14.394 11.3635 14.7981 11.313 15.0126 11.2673L15.2366 11.2082C15.4298 11.1528 15.6495 11.091 15.8371 11.1108C15.9453 11.1226 16.0408 11.1665 16.1536 11.2165C16.3065 11.286 16.4813 11.3649 16.7419 11.3809C17.1764 11.4093 17.4731 11.4919 17.4964 11.516C17.5547 11.6275 17.5172 11.7925 17.4879 11.9251L17.4654 12.0452C17.3438 13.0831 16.1124 14.2565 15.519 14.8194C15.3588 14.9718 15.2528 15.0724 15.23 15.1144L15.1618 15.2628C15.1041 15.4005 15.0572 15.5193 14.8691 15.5904C14.7603 15.6302 14.5065 15.8099 14.2121 16.0175C13.7869 16.3159 13.2598 16.6871 13.1145 16.671C12.8716 16.644 11.7368 15.9089 11.6891 15.8637C10.5839 14.8574 10.1215 15.0638 9.84469 15.1868L9.80093 15.2061C9.47127 15.3473 9.12513 16.226 9.09387 16.4146L8.9603 16.9558L8.85771 17.3535C8.8273 17.488 8.69118 17.8185 8.5613 18.1378L8.29474 18.8331C8.25069 18.9941 8.14383 19.2203 8.05687 19.4033L7.93894 19.6742C7.85681 19.9921 7.85538 21.7336 7.99833 21.8876L8.00458 21.894L8.03272 21.9018C8.17623 21.8879 8.48429 21.5892 8.63207 21.445L8.66617 21.4116C8.79121 21.2934 8.92393 20.9778 8.92393 20.8452C8.92393 20.7152 8.85942 20.4435 8.83384 20.3694C8.63377 19.7945 8.70937 19.2466 8.74574 18.9839L8.76024 18.8668C8.77075 18.7449 8.90062 18.6098 9.0268 18.4804L9.18623 18.3068C9.27376 18.1972 9.37095 18.1608 9.45763 18.1285L9.60001 18.052L9.62217 18.0303C9.71652 17.9413 9.87482 17.791 9.94416 17.5899L10.0794 17.0393L10.109 16.8922C10.1158 16.8628 10.1317 16.8465 10.1581 16.8411C10.2119 16.8299 10.2923 16.87 10.3267 16.913L11.3048 17.9811C11.5555 18.182 11.813 18.4216 11.813 18.4742L11.8127 18.4788C11.8127 18.478 11.8067 18.4791 11.8067 18.4791C11.6697 18.4924 10.9806 18.3542 10.8661 18.3234C9.92966 18.0651 9.50225 18.1106 9.17259 18.4988C8.7969 18.9436 8.91512 20.3055 8.99185 20.4548C9.06233 20.5901 9.40505 22.2494 9.4204 22.4706C9.43575 22.6874 9.52498 23.0752 9.61819 23.1643L9.64377 23.1889C9.75915 23.2964 10.0632 23.5838 10.1169 23.8673C10.1749 24.1759 10.8715 25.0022 11.1372 25.0763C11.1571 25.0817 11.1781 25.0826 11.1985 25.0789C11.2188 25.0752 11.2379 25.067 11.2543 25.0549C11.4569 24.9196 11.549 24.2583 11.56 23.9791C11.5731 23.6312 11.4404 23.463 11.2994 23.283L11.2454 23.2127C11.1417 23.0795 10.959 23.0311 10.8385 22.9993C10.7871 22.9856 10.7166 22.9696 10.7166 22.9546C10.7166 22.9495 10.7024 22.4398 10.5296 22.3414C10.3952 22.2636 10.2576 21.7718 10.2414 21.5846C10.2258 21.3987 10.1493 20.95 10.0467 20.7529C9.94302 20.555 9.85578 20.1903 9.90011 19.909C9.91858 19.7881 10.0101 19.7501 10.0845 19.7391C10.213 19.7199 10.3613 19.772 10.3844 19.8143C10.4355 19.9111 11.4231 20.4716 11.7561 20.5919C11.963 20.6657 12.2429 20.8882 12.4902 21.0867C12.6661 21.2255 12.8173 21.345 12.9116 21.3875C13.039 21.4453 13.3999 21.452 13.6897 21.4573C13.8435 21.4597 14.0032 21.4632 14.0248 21.4752C13.9071 21.5196 13.9086 21.7138 13.9182 21.7763C14.0384 22.5794 17.1432 24.7854 17.3833 24.9092C17.6612 25.0496 18.6582 26.0291 18.7454 26.1623C18.8358 26.2939 18.9236 26.4369 18.9068 26.5471C18.883 26.71 18.9523 26.8961 19.091 27.048C19.2237 27.1895 19.3968 27.2748 19.5568 27.2748C19.6955 27.2748 19.7881 27.1576 19.8566 27.0731L19.8711 27.0555C20.0564 26.8247 20.3312 26.4867 20.3667 25.958C20.4045 25.4159 20.6677 25.2007 20.7535 25.1865C20.7918 25.1798 20.82 25.1908 20.8302 25.2146C20.8407 25.2392 20.8279 25.2803 20.7759 25.3127C20.6623 25.3852 20.5912 25.6251 20.5133 25.8815C20.5128 25.8836 20.4844 26.1433 20.4844 26.1433C20.4778 26.3372 20.4699 26.557 20.2641 26.7701C19.9561 27.0841 19.6025 27.808 19.511 28.722C19.4556 29.2727 19.719 30.0658 20.2937 31.0767L20.3337 31.1489L20.4892 31.3944C20.6463 31.6321 20.9089 32.0274 20.8967 32.1199C20.8799 32.2504 20.8669 32.3528 20.6276 32.6355C20.3644 32.9462 19.4042 33.9977 19.3104 34.0143C19.1194 34.0143 19.0873 34.0373 18.9335 34.1469L18.7716 34.263C18.5942 34.3815 18.5633 34.4702 18.5334 34.5486C18.5115 34.6077 18.4908 34.6593 18.4084 34.7173L18.3467 34.7564C18.3339 34.7668 18.2992 34.8128 17.9133 35.1762C17.4708 35.5878 17.2733 36.0536 17.3415 36.5165C17.3634 36.6612 17.4959 36.7118 17.8886 36.7286C18.2808 36.7457 19.1799 36.1536 19.22 35.9608L19.2339 35.8873C19.2683 35.7135 19.326 35.4204 19.4278 35.3781C19.5505 35.3276 19.7608 35.0992 19.9151 34.9331L19.945 34.9019C20.0271 34.8125 20.047 34.7238 20.0666 34.6392C20.0834 34.5724 20.0987 34.505 20.1453 34.4435C20.182 34.3986 20.2357 34.374 20.2979 34.347C20.4173 34.2932 20.5676 34.2247 20.6759 33.9688C20.7836 33.718 21.4264 33.284 21.8959 32.9681C22.1358 32.8077 22.3239 32.6793 22.3688 32.6229C22.4305 32.5472 22.4683 32.4015 22.4683 32.2469C22.4683 32.0635 22.416 31.8682 22.2935 31.7597C22.1153 31.604 21.9476 31.1409 21.8976 30.9956V30.9924C21.8976 30.9323 21.8916 30.8221 21.882 30.617C21.8808 30.6076 21.8808 30.5977 21.8808 30.5889C21.8808 30.0463 22.738 29.5155 23.108 29.2868L23.2768 29.1772C24.6184 28.0637 24.881 27.217 24.9307 26.9846L24.958 26.7062C24.9663 26.5134 24.9731 26.3297 25.0967 26.3056C25.145 26.2968 25.2254 26.3335 25.2743 26.3883C25.3022 26.418 25.3431 26.4797 25.3158 26.5511C25.2547 26.7073 25.2343 28.2773 25.2337 28.3426C25.2382 28.3535 25.3781 28.5086 25.3781 28.5086L25.4036 28.5367L25.4113 28.5001C25.413 28.4819 25.49 28.054 25.49 27.9027C25.49 27.7334 25.7793 27.0084 25.8492 26.9958C25.8492 26.998 25.8538 27.0041 25.8538 27.0041C25.8876 27.1044 25.9308 27.3521 25.9308 27.6131C25.9308 27.8695 25.8896 28.1391 25.7572 28.2952C25.5562 28.5292 25.3962 28.8996 25.2919 29.144L25.1953 29.3518C25.1844 29.3806 25.1797 29.4111 25.1814 29.4417C25.1814 29.6406 25.2902 30.0648 25.3619 30.1437C25.3806 30.1624 25.3957 30.1624 25.4062 30.1589C25.4295 30.1506 25.4505 30.1223 25.4505 29.9557C25.4505 29.3211 26.0172 28.8608 26.024 28.8574C26.5236 28.4843 26.6325 27.7925 26.6325 27.2654C26.6325 26.8664 26.5702 26.5618 26.5685 26.5535C26.4895 26.4433 26.4096 26.3336 26.3287 26.2246C26.3403 26.23 26.4054 26.1797 26.427 26.1634C26.4486 26.1896 26.6762 26.4736 26.6762 26.4736C26.7146 26.5241 26.8118 26.6715 26.8118 26.73C26.8118 27.0566 26.8652 27.2801 26.9033 27.444L26.9127 27.4828C26.9527 27.6566 27.2025 28.2121 27.2136 28.2359L27.2403 28.2944L27.2486 28.2308C27.2486 28.2281 27.2881 27.9377 27.2486 27.6893C27.2258 27.5499 27.2543 27.3791 27.283 27.1945L27.3284 26.7709C27.3284 26.4268 27.2761 26.2094 27.1457 26.0115L27.0792 25.9165C27.053 25.8778 27.0275 25.8398 27.0303 25.832L27.0792 25.8122C28.1344 25.4753 28.6255 24.7442 28.8255 24.3393C29.0352 23.9104 29.0463 23.2498 29.0463 23.1228C29.0463 22.9573 29.0387 22.0989 28.8855 21.6579C28.7957 21.3977 28.8244 21.1182 28.8545 20.8166L28.8872 20.3002C28.8872 19.9469 29.0847 19.6846 29.2762 19.4311L29.5044 19.0984C29.6536 18.8214 29.5744 18.5788 29.5144 18.5095Z" fill="black"/>
<path fill-rule="evenodd" clip-rule="evenodd" d="M17.7031 7.45117C17.7207 7.45224 17.945 7.35196 17.945 7.35196C17.955 7.33297 17.9029 7.1332 17.9029 7.1332C17.741 6.95257 17.5783 6.77258 17.4148 6.59325L17.3906 6.56677L17.3823 6.59993L17.33 6.81629C17.3303 6.81415 17.1751 7.16342 17.1751 7.16342L17.168 7.17812L17.4949 7.33538L17.7031 7.45117Z" fill="black"/>
<path fill-rule="evenodd" clip-rule="evenodd" d="M17.8014 8.83814C17.8531 8.85633 17.9312 8.84831 18.0051 8.81728C18.1182 8.76728 18.185 8.6817 18.1563 8.62046L18.1043 8.57634C18.0532 8.55789 17.975 8.56618 17.9023 8.59773C17.8054 8.63838 17.7434 8.70604 17.7434 8.76353C17.7434 8.77396 17.7465 8.7852 17.7502 8.79402L17.8014 8.83814ZM19.7535 8.08001L19.8467 8.12734C19.8541 8.14253 19.8652 8.15593 19.8789 8.16658C19.8926 8.17723 19.9087 8.18484 19.926 8.18885C19.9458 8.19275 19.9664 8.19238 19.9861 8.18775C20.0057 8.18311 20.0241 8.17435 20.0396 8.16211C20.0646 8.14365 20.0706 8.10916 20.0547 8.06557C20.0297 7.9931 19.9493 7.91394 19.8626 7.91394C19.7509 7.91394 19.6489 7.92597 19.6489 8.00353C19.6492 8.04712 19.7023 8.0637 19.7535 8.08001ZM19.8651 8.38995C19.8219 8.4199 19.8029 8.46028 19.8151 8.50119L19.8239 8.53516C19.835 8.57527 19.839 8.58356 19.8782 8.58784L19.9493 8.59987C20.0402 8.6218 20.184 8.56858 20.2167 8.50012C20.2278 8.47793 20.2366 8.43487 20.1746 8.39423C20.068 8.32737 19.9368 8.34181 19.8651 8.38995ZM20.1559 9.58023C20.1297 9.56847 20.1408 9.52942 20.161 9.47273C20.1772 9.42647 20.192 9.38208 20.1667 9.35774C20.1445 9.33768 20.105 9.33929 20.0379 9.36282C19.7964 9.44465 19.7594 9.67624 19.7327 9.84552L19.7245 9.89766C19.7105 9.97307 19.7517 9.99875 19.7773 10.0073C19.8606 10.0351 20.0109 9.96398 20.0447 9.9097C20.0825 9.85113 20.2911 9.79765 20.4432 9.7586L20.5014 9.74363C20.5719 9.72544 20.608 9.70004 20.6131 9.66554C20.6208 9.62035 20.5676 9.57916 20.5205 9.55269C20.4767 9.52835 20.4116 9.54574 20.3434 9.56419C20.2758 9.58157 20.203 9.59949 20.1559 9.58023ZM17.6027 9.66715C17.6562 9.66207 17.6979 9.64254 17.7244 9.60671C17.8014 9.49867 17.8054 9.34571 17.7306 9.20692C17.6584 9.07454 17.5348 8.98977 17.4086 8.98549L17.4103 8.98603L17.3828 8.98255L17.1503 8.99967C17.0275 9.02534 16.9136 9.11064 16.886 9.19461C16.8721 9.23713 16.88 9.27591 16.911 9.30506C17.0974 9.49092 17.4194 9.68025 17.6027 9.66715ZM15.3136 9.49118C15.3415 9.55563 15.4691 9.56285 15.6563 9.51044L15.6975 9.49867L16.0332 9.37512L16.5194 9.07428C16.5336 9.06385 16.6606 8.97399 16.6345 8.9165C16.616 8.87879 16.5527 8.88548 16.5069 8.8935C16.3728 8.9165 16.2412 8.9772 16.1011 9.04138L15.9033 9.12776L15.816 9.16146C15.5151 9.27859 15.2684 9.38368 15.3136 9.49118ZM14.2911 9.82599C14.1899 9.82599 14.1445 9.87761 14.1075 9.92333L14.0623 9.97147C13.9845 10.0343 13.9606 10.1862 13.9702 10.3017C13.9742 10.3499 13.9887 10.437 14.039 10.4649C14.1354 10.5208 14.1814 10.4814 14.2797 10.3935L14.3559 10.332C14.4525 10.2557 14.5648 10.1694 14.5787 10.0365C14.5855 9.9803 14.5713 9.93403 14.5381 9.89927C14.4789 9.83883 14.371 9.82599 14.2911 9.82599ZM14.8504 9.86798C14.8214 9.8621 14.8041 9.87065 14.795 9.87948C14.7657 9.90649 14.7776 9.96425 14.7867 10.0105L14.7924 10.0429L14.7864 10.0624C14.7799 10.079 14.7725 10.1001 14.7864 10.118C14.7989 10.1359 14.8293 10.1437 14.8811 10.1437C14.9467 10.1442 14.9533 10.1378 14.9754 10.0827L14.993 10.0402C15.009 10.0028 15.0092 9.96906 14.9942 9.94232C14.9672 9.89526 14.9001 9.87734 14.8504 9.86798ZM15.3912 10.6927C15.4255 10.6912 15.4579 10.6773 15.4816 10.6539C15.5054 10.6306 15.5186 10.5995 15.5186 10.5671C15.5186 10.5348 15.5054 10.5037 15.4816 10.4803C15.4579 10.457 15.4255 10.4431 15.3912 10.4416C15.3738 10.4417 15.3567 10.445 15.3407 10.4514C15.3247 10.4578 15.3102 10.4671 15.2981 10.4787C15.2859 10.4904 15.2764 10.5042 15.2699 10.5193C15.2634 10.5345 15.2602 10.5507 15.2605 10.567C15.2605 10.6363 15.3187 10.6927 15.3912 10.6927ZM17.8275 10.3868C17.8087 10.3835 17.7894 10.3851 17.7715 10.3914C17.7536 10.3977 17.7379 10.4085 17.7261 10.4226C17.69 10.4622 17.4703 10.6039 17.3097 10.7077L17.1026 10.8462L17.0858 10.8614C17.0599 10.8844 17.0471 10.8986 17.0639 10.9462L17.0892 10.9796L17.1438 10.9692L17.2245 10.9411L17.3407 10.924C17.4552 10.9101 17.5806 10.8941 17.6397 10.8371L17.7167 10.7186L17.8312 10.5456C17.8861 10.4887 17.8889 10.4496 17.8812 10.4274C17.8768 10.4168 17.8695 10.4075 17.8601 10.4004C17.8507 10.3933 17.8394 10.3886 17.8275 10.3868ZM18.0682 11.0858C18.0682 11.1497 18.102 11.1749 18.1211 11.1837C18.1725 11.2094 18.2464 11.1845 18.2905 11.1267L18.4394 11.0048C18.5201 10.9502 18.6102 10.8887 18.69 10.7933C18.7639 10.7037 18.7321 10.6486 18.7057 10.625C18.6551 10.5785 18.5511 10.5678 18.5158 10.5951L18.4729 10.6226C18.3754 10.6823 18.1447 10.8232 18.0867 10.9946C18.0752 11.0239 18.069 11.0547 18.0682 11.0858ZM19.0384 11.0168C19.008 10.9751 18.9557 10.9577 18.9168 10.9756L18.8119 11.0505C18.7381 11.1072 18.646 11.1791 18.5661 11.2003C18.3723 11.2492 18.1094 11.3308 18.0932 11.4559L18.0929 11.4722C18.0929 11.5067 18.1094 11.5273 18.1253 11.5388C18.1989 11.5952 18.3777 11.5618 18.507 11.5158C18.7054 11.4468 18.8259 11.3626 18.9816 11.2294C19.0774 11.1473 19.0731 11.0652 19.0384 11.0168ZM18.2848 12.4582L18.2217 12.4515C18.0586 12.4924 17.7801 12.9438 17.5845 13.2803L17.5496 13.3386L16.9636 14.3735L16.7797 14.7029C16.7593 14.7329 16.7664 14.7767 16.7971 14.8054C16.8255 14.8321 16.8752 14.8468 16.9355 14.811C17.0332 14.7497 17.3899 14.4168 17.5553 14.1553L17.7755 13.8694C17.9168 13.6958 18.0776 13.5017 18.172 13.2704L18.2052 13.1907C18.4289 12.6449 18.4638 12.5614 18.2848 12.4582ZM20.4884 10.4689C20.4717 10.4685 20.4551 10.4713 20.4395 10.4769C20.424 10.4826 20.4098 10.4911 20.3977 10.502C20.3856 10.5128 20.376 10.5258 20.3692 10.5402C20.3625 10.5546 20.3589 10.57 20.3585 10.5857C20.3585 10.6502 20.4167 10.7026 20.4884 10.7026C20.56 10.7026 20.6171 10.6502 20.6171 10.5857C20.6168 10.5701 20.6133 10.5547 20.6067 10.5403C20.6001 10.526 20.5905 10.513 20.5785 10.5021C20.5666 10.4913 20.5525 10.4827 20.537 10.477C20.5215 10.4713 20.505 10.4686 20.4884 10.4689ZM20.4267 10.9564C20.4267 11.0211 20.4849 11.0735 20.5566 11.0735C20.5731 11.0737 20.5895 11.0708 20.6048 11.065C20.6201 11.0592 20.6341 11.0506 20.6459 11.0397C20.6577 11.0289 20.6671 11.0159 20.6736 11.0016C20.68 10.9873 20.6834 10.9719 20.6836 10.9564C20.6832 10.925 20.6696 10.8951 20.6458 10.8731C20.622 10.8511 20.5899 10.839 20.5566 10.8392C20.5229 10.8387 20.4904 10.8508 20.466 10.8727C20.4417 10.8946 20.4276 10.9247 20.4267 10.9564ZM20.5461 11.2155C20.4651 11.2155 20.398 11.2661 20.398 11.3265C20.398 11.3877 20.4651 11.4377 20.5461 11.4377C20.6282 11.4377 20.6947 11.388 20.6947 11.3265C20.695 11.2661 20.6282 11.2155 20.5461 11.2155ZM20.5401 11.5396C20.4469 11.5396 20.3724 11.595 20.3724 11.6632C20.3724 11.7308 20.4469 11.7862 20.5401 11.7862C20.6333 11.7862 20.7066 11.7306 20.7066 11.6632C20.7066 11.595 20.6333 11.5396 20.5401 11.5396ZM20.5461 11.9509C20.4435 11.9509 20.3585 12.0084 20.3585 12.0809C20.3585 12.1523 20.4435 12.2098 20.5461 12.2098C20.6492 12.2098 20.7325 12.1523 20.7325 12.0809C20.7325 12.0084 20.6492 11.9509 20.5461 11.9509ZM20.4827 12.6403C20.5992 12.6307 20.6847 12.5705 20.6782 12.501L20.6415 12.4379C20.6015 12.4061 20.5316 12.39 20.4605 12.3962C20.348 12.4058 20.2647 12.463 20.2647 12.5285L20.2653 12.5352L20.3031 12.5981C20.344 12.6307 20.4108 12.6467 20.4827 12.6403ZM20.228 12.9842L20.2275 12.981L20.228 12.9842ZM20.4761 13.0733C20.6066 13.0551 20.6987 12.9877 20.6881 12.9182L20.6498 12.8604C20.6043 12.8275 20.5227 12.8144 20.4395 12.8259C20.3113 12.8428 20.217 12.9115 20.2275 12.981L20.267 13.0385C20.313 13.0717 20.3929 13.0842 20.4761 13.0733ZM20.2565 13.2821C20.2565 13.3578 20.3542 13.4182 20.4824 13.4182C20.61 13.4182 20.7066 13.3578 20.7066 13.2821C20.7066 13.2064 20.61 13.1468 20.4824 13.1468C20.3539 13.1471 20.2565 13.2064 20.2565 13.2821ZM20.656 13.7247C20.656 13.6445 20.5395 13.5832 20.3906 13.5832C20.2434 13.5832 20.1269 13.6445 20.1269 13.7247C20.1269 13.8044 20.2434 13.8667 20.3906 13.8667C20.5395 13.8667 20.656 13.8044 20.656 13.7247ZM20.4867 14.0983C20.4867 14.0199 20.3994 13.9566 20.294 13.9566C20.1868 13.9566 20.0996 14.0199 20.0996 14.0983C20.0996 14.1767 20.1868 14.2403 20.294 14.2403C20.3997 14.2403 20.4867 14.1767 20.4867 14.0983ZM20.3957 14.5655C20.3957 14.4775 20.3036 14.405 20.1891 14.405C20.076 14.405 19.9842 14.4775 19.9842 14.5655C19.9842 14.6543 20.0757 14.7257 20.1891 14.7257C20.3036 14.7257 20.3957 14.6543 20.3957 14.5655ZM20.228 15.0201C20.228 14.9409 20.1525 14.8781 20.0604 14.8781C19.9689 14.8781 19.8916 14.9407 19.8916 15.0201C19.8916 15.0979 19.9686 15.1616 20.0604 15.1616C20.1525 15.1618 20.228 15.0979 20.228 15.0201ZM19.9376 15.2891C19.8489 15.2891 19.7756 15.3525 19.7756 15.4311C19.7756 15.5089 19.8489 15.5723 19.9376 15.5723C20.026 15.5723 20.0985 15.5087 20.0985 15.4311C20.0987 15.3525 20.026 15.2891 19.9376 15.2891ZM19.8006 15.9713C19.8916 15.9713 19.9689 15.9162 19.9689 15.848C19.9689 15.7798 19.8919 15.7255 19.8006 15.7255C19.7091 15.7255 19.6341 15.7801 19.6341 15.848C19.6341 15.916 19.7091 15.9713 19.8006 15.9713ZM19.6463 16.27C19.7307 16.27 19.8001 16.2238 19.8001 16.1655C19.8001 16.1074 19.7319 16.0614 19.6463 16.0614C19.5579 16.0614 19.4909 16.1072 19.4909 16.1655C19.4909 16.2238 19.5602 16.27 19.6463 16.27ZM19.4965 16.5572C19.577 16.5572 19.6452 16.5104 19.6452 16.4524C19.6452 16.3949 19.577 16.3481 19.4965 16.3481C19.4138 16.3481 19.3485 16.3949 19.3485 16.4524C19.3482 16.5104 19.4138 16.5572 19.4965 16.5572ZM15.115 16.3029L15.1417 16.3077L15.344 16.2735C15.5236 16.2361 15.7942 16.1791 16.1269 16.1708C16.3702 16.1647 16.6339 16.2446 16.8255 16.3034C16.9994 16.358 17.0861 16.3815 17.119 16.3478C17.1398 16.3256 17.127 16.2933 17.1156 16.2705C17.0633 16.1644 16.8343 15.8154 16.0869 15.7994C15.6012 15.7889 15.2053 16.0997 15.1206 16.231C15.1039 16.2577 15.0993 16.2775 15.1078 16.2922L15.115 16.3029ZM17.8943 17.625C17.9418 17.5964 17.9622 17.5459 17.9591 17.4734C17.9432 17.1889 17.8622 17.1565 17.6954 17.1565C17.5263 17.1565 17.4041 17.3162 17.4041 17.3991C17.4041 17.4769 17.4649 17.5451 17.5828 17.6007C17.6496 17.6339 17.8034 17.6812 17.8943 17.625ZM20.1874 21.1034C20.4284 21.2093 20.5131 21.247 20.5492 21.2574C20.5503 21.2574 20.5514 21.2606 20.5514 21.2606C20.5514 21.2606 20.5532 21.2593 20.5532 21.2587C20.5699 21.2635 20.5753 21.2617 20.5793 21.2563C20.577 21.2547 20.5676 21.2414 20.5625 21.2376C20.5654 21.2355 20.5682 21.2299 20.5682 21.2299C20.5682 21.2299 20.5532 21.224 20.552 21.2226C20.3926 21.0333 19.4326 19.7489 19.2283 18.9036C19.1962 18.7642 19.1584 18.6345 19.0617 18.5827C19.0075 18.554 18.939 18.5519 18.8557 18.5781H18.8551C18.8358 18.5835 18.8219 18.5984 18.8131 18.6204C18.8048 18.6442 18.8013 18.6692 18.8026 18.6942C18.8026 18.9961 19.1444 19.8272 19.2561 19.9981C19.8739 20.9418 20.1758 21.0969 20.1874 21.1034ZM28.0344 21.4705L27.9977 21.4772C27.9988 21.4826 28.0071 21.7347 28.0071 22.0586C28.0071 22.5309 27.9898 23.1606 27.9028 23.4436C27.8323 23.6727 27.5092 24.1116 27.2483 24.4627C27.2483 24.4627 26.9448 24.8911 26.9448 24.8916C26.9361 24.906 26.9317 24.9222 26.932 24.9387C26.932 24.981 26.9547 25.0208 26.9948 25.0457C27.0252 25.0655 27.1352 25.1163 27.2884 24.9443L27.4822 24.7515C27.7408 24.5087 28.0622 24.2073 28.2887 23.542C28.5371 22.8116 28.0386 21.4831 28.0344 21.4705ZM19.9495 23.85C19.9728 23.872 20.0106 23.8781 20.0501 23.8647C20.0806 23.8548 20.1073 23.8368 20.127 23.8129C20.1467 23.789 20.1586 23.7601 20.1613 23.73C20.1706 23.6385 20.2383 23.5158 20.3389 23.4109C20.3913 23.3549 20.4186 23.2818 20.415 23.2072C20.4114 23.1326 20.3772 23.0622 20.3196 23.0109L20.1908 22.9625C20.1081 22.9651 20.0464 23.0275 20.043 23.0293C19.9999 23.2236 19.9577 23.4181 19.9166 23.6128V23.6123C19.9044 23.6447 19.8933 23.7992 19.9495 23.85ZM24.1356 26.0038L24.1291 26.0012L24.1225 26.0038C24.1174 26.0076 24.0094 26.0549 23.9787 26.1541C23.9577 26.221 23.9969 26.279 24.0276 26.3269L24.0637 26.3905L24.0793 26.5176L24.1038 26.7045C24.1099 26.7238 24.1227 26.7406 24.1403 26.7522C24.1578 26.7638 24.179 26.7694 24.2004 26.7681C24.251 26.7665 24.3098 26.7299 24.3291 26.6558C24.3553 26.5555 24.3681 26.4197 24.3681 26.2389C24.3675 26.0739 24.1456 26.006 24.1356 26.0038ZM17.6385 24.483C17.624 24.4672 16.0894 22.9002 15.7578 22.4897C15.4199 22.069 15.2585 22.0372 15.0931 22.1233C15.0809 22.1299 15.0706 22.1391 15.063 22.1502C15.0554 22.1614 15.0508 22.1741 15.0496 22.1872C15.0257 22.3581 15.4091 22.7715 15.7447 23.0751C16.2139 23.5 17.5999 24.4988 17.6141 24.5087L17.6385 24.483ZM11.6237 19.858C11.3128 19.6764 10.7746 19.5756 10.7692 19.5735L10.755 19.6042L11.352 20.0278C11.4504 20.1037 11.8849 20.3575 12.0253 20.2538C12.0344 20.2473 12.0416 20.2389 12.0465 20.2292C12.0513 20.2195 12.0536 20.2088 12.0531 20.1981C12.0486 20.1219 11.898 20.02 11.6237 19.858ZM11.4779 17.4606L11.52 17.4437C11.5737 17.3868 11.4501 17.225 11.2997 17.0942C11.1642 16.9765 11.0264 16.9006 10.9542 16.9043L10.9133 16.9209C10.9045 16.931 10.9 16.9438 10.9007 16.9567C10.9007 17.0306 11.0082 17.1611 11.1329 17.2707C11.2688 17.3884 11.4077 17.4648 11.4779 17.4606ZM13.0734 17.256L13.0123 17.2595C12.8963 17.3052 12.7122 17.5825 12.5652 17.9336C12.4618 18.1815 12.3836 18.4519 12.3836 18.6148C12.3836 18.692 12.4013 18.7445 12.4405 18.76L12.5007 18.7565C12.6167 18.71 12.8003 18.4321 12.9489 18.0821C13.052 17.8336 13.1293 17.5633 13.1293 17.4001C13.1293 17.3234 13.1126 17.2707 13.0734 17.256ZM10.2014 15.5434C10.0516 15.5434 9.93224 15.6103 9.93224 15.6948C9.93224 15.7788 10.0516 15.8448 10.2014 15.8448C10.3534 15.8448 10.4716 15.7788 10.4716 15.6948C10.4716 15.6103 10.3534 15.5434 10.2014 15.5434ZM9.24621 17.4146L9.29282 17.4106C9.37381 17.3731 9.4963 17.1659 9.58866 16.9073C9.68642 16.6321 9.73984 16.3366 9.64521 16.305L9.59945 16.3096C9.51704 16.3478 9.39484 16.5546 9.30333 16.8129C9.20387 17.0883 9.15357 17.3838 9.24621 17.4146ZM9.49629 18.838C9.57587 18.7378 9.59178 18.6249 9.53267 18.5827L9.4639 18.5688C9.40649 18.5757 9.338 18.6212 9.28685 18.6883C9.20728 18.7886 9.19136 18.9012 9.25019 18.9426L9.31925 18.9579C9.37637 18.9496 9.44571 18.9046 9.49629 18.838ZM9.40479 20.3971L9.39825 20.3934L9.36841 20.3904C9.26099 20.414 9.33658 20.8541 9.392 21.0857C9.47072 21.409 9.57729 21.67 9.65118 21.7133L9.65743 21.7176L9.6867 21.7206C9.79583 21.697 9.71853 21.2547 9.6634 21.0253C9.58524 20.7001 9.47981 20.4407 9.40479 20.3971ZM8.3226 20.9881C8.23593 20.9881 8.16602 21.0485 8.16602 21.124C8.16602 21.1956 8.23593 21.2561 8.3226 21.2561C8.40871 21.2561 8.4809 21.1956 8.4809 21.124C8.48118 21.0485 8.409 20.9881 8.3226 20.9881ZM10.9815 24.1832C10.9335 24.183 10.8874 24.2006 10.8532 24.2322C10.819 24.2638 10.7994 24.3069 10.7987 24.352C10.7987 24.4429 10.8809 24.5181 10.9815 24.5181C11.0292 24.5188 11.0753 24.5018 11.1097 24.4707C11.1441 24.4396 11.164 24.3969 11.165 24.352C11.1644 24.3067 11.1447 24.2636 11.1103 24.232C11.0759 24.2003 11.0295 24.1828 10.9815 24.1832ZM19.97 28.6347C19.9757 28.643 19.9922 28.6708 20.0172 28.6681L20.0277 28.6676L20.047 28.6403L20.2118 28.1675L20.3406 27.8525L20.4506 27.6129C20.4844 27.5324 20.4844 27.4787 20.4511 27.4474C20.3983 27.4019 20.2891 27.4407 20.2758 27.4452C20.267 27.4519 19.966 27.9247 19.966 27.9247C19.9072 28.0092 19.885 28.1231 19.885 28.2403C19.885 28.4071 19.9294 28.5737 19.97 28.6347ZM20.722 30.9966L20.7279 30.949C20.7319 30.9209 20.8223 30.2633 20.6074 30.0093C20.5855 29.9817 20.5577 29.9588 20.5258 29.942C20.4939 29.9252 20.4586 29.9148 20.4221 29.9116C20.3576 29.906 20.3133 29.9237 20.2889 29.9619C20.1578 30.1636 20.6719 30.923 20.6947 30.9559L20.722 30.9966ZM21.9255 32.2476C21.901 32.2473 21.8766 32.2516 21.8538 32.2601C21.8311 32.2687 21.8103 32.2815 21.7928 32.2976C21.7753 32.3138 21.7613 32.333 21.7517 32.3542C21.7421 32.3755 21.737 32.3983 21.7368 32.4214C21.7368 32.519 21.8212 32.5947 21.9255 32.5947C21.9744 32.5947 22.0213 32.5764 22.0559 32.5438C22.0905 32.5113 22.1099 32.4671 22.1099 32.4211C22.1099 32.3751 22.0905 32.3309 22.0559 32.2984C22.0213 32.2658 21.9744 32.2476 21.9255 32.2476ZM19.0919 30.1296C19.0035 30.1296 18.9282 30.1943 18.9282 30.2743C18.9282 30.3564 19.0038 30.4195 19.0919 30.4195C19.1822 30.4195 19.255 30.3564 19.255 30.2743C19.255 30.1943 19.1822 30.1296 19.0919 30.1296ZM21.1568 32.6942L21.1369 32.6899C21.0391 32.6899 20.6691 32.9945 20.3537 33.2983C20.3258 33.3261 19.6409 33.9871 19.7316 34.0732L19.7367 34.0786L19.7589 34.0829C19.8577 34.0829 20.2272 33.7772 20.5409 33.475C20.5705 33.4469 21.2565 32.7883 21.163 32.699L21.1568 32.6942ZM19.1001 34.4813C19.043 34.4813 18.9535 34.5316 18.8736 34.6067C18.7781 34.6966 18.7088 34.8209 18.7599 34.872L18.7633 34.8752L18.7599 34.872L18.8105 34.8891C18.8688 34.8891 18.9586 34.8399 19.0382 34.7632C19.1314 34.6723 19.203 34.5506 19.1498 34.499L19.1001 34.4813ZM18.1978 35.7048C18.1276 35.7048 18.0284 35.7591 17.9418 35.8417C17.8511 35.9273 17.7991 36.0219 17.7991 36.0877C17.7991 36.1128 17.8062 36.1332 17.823 36.1473L17.8869 36.1703C17.956 36.1703 18.058 36.1177 18.143 36.0345C18.2689 35.9134 18.3194 35.7837 18.2623 35.7275L18.1978 35.7048ZM13.4806 29.5426C13.3453 29.5426 13.2353 29.6151 13.2353 29.7065C13.2353 29.7975 13.3456 29.8675 13.4806 29.8675C13.617 29.8675 13.7258 29.7975 13.7258 29.7065C13.7261 29.6151 13.617 29.5426 13.4806 29.5426ZM15.4784 29.6742C15.3824 29.6742 15.3076 29.7228 15.3076 29.787C15.3076 29.8472 15.3824 29.8967 15.4784 29.8967C15.5711 29.8967 15.6478 29.8469 15.6478 29.787C15.6478 29.7242 15.5711 29.6742 15.4784 29.6742ZM17.9168 30.4419L17.9315 30.4205C17.9591 30.3125 17.3839 30.1438 17.0764 30.0705C16.7073 29.9817 16.2685 29.9106 16.1716 29.9654L16.1647 29.9697L16.1491 29.9921C16.1213 30.1012 16.6962 30.2679 17.0042 30.3435C17.3731 30.4307 17.8119 30.4997 17.9102 30.4454L17.9168 30.4419Z" fill="white"/>
</svg>
