<svg width="150" height="150" viewBox="0 0 150 150" fill="none" xmlns="http://www.w3.org/2000/svg">
<rect width="150" height="150" fill="white"/>
<path fill-rule="evenodd" clip-rule="evenodd" d="M96.0534 48.9122V50.0816L75.0259 46.1683L54 50.0816V48.9122L75.0259 45L96.0534 48.9122Z" fill="#101010"/>
<path fill-rule="evenodd" clip-rule="evenodd" d="M96.0534 51.2251L75.0259 47.3374L54 51.2251L54.0003 55.1697L54.1825 55.0608C54.2566 55.0171 61.7176 50.6532 75.0664 50.6532C88.4161 50.6532 95.79 55.0181 95.8647 55.0615L96.045 55.1708L96.0534 51.2251Z" fill="black"/>
<path fill-rule="evenodd" clip-rule="evenodd" d="M54.1842 55.0602L54.002 55.1691V66.977C54.002 73.2839 55.4075 79.5631 58.1797 85.6396C64.6876 99.8928 74.777 104.879 74.878 104.928L75.0275 105L75.1767 104.928C75.2787 104.879 85.3597 99.8915 91.8673 85.6396C94.6408 79.5631 96.0466 73.2839 96.0466 66.977V55.1702L95.8664 55.0609C95.7919 55.0176 88.4177 50.6528 75.068 50.6528C61.7192 50.6528 54.2583 55.0165 54.1842 55.0602ZM75.068 51.4155C87.1225 51.4155 94.1812 54.994 95.3253 55.6215V66.977C95.3253 73.1678 93.943 79.3351 91.2187 85.3109C85.2555 98.3631 76.2826 103.488 75.0275 104.157C73.7715 103.488 64.7918 98.3631 58.8302 85.3109C56.1059 79.3351 54.724 73.1678 54.724 66.977V55.6229C55.8784 54.9961 63.0112 51.4155 75.068 51.4155Z" fill="black"/>
<path fill-rule="evenodd" clip-rule="evenodd" d="M78.2242 93.1524C78.5743 93.4078 78.3203 93.8513 78.061 93.9206C77.7911 93.9981 77.5604 93.6819 77.4296 94.0285C77.3562 94.2145 77.5555 95.6241 78.9225 95.6241C80.1986 95.6241 80.8074 93.896 80.9274 93.6359C81.0481 93.3764 81.1258 93.0452 81.0051 93.0452C80.4452 93.0452 80.2821 93.3959 80.2821 93.3959C80.2821 93.3959 80.2397 93.0586 80.518 92.8039C80.7475 92.596 81.0485 92.6465 81.1572 92.6465C81.3854 92.6465 81.3494 92.4673 81.4873 92.1126C81.8016 91.2778 82.0177 91.2403 82.2219 90.8596C82.3912 90.5497 82.0715 90.4281 81.4407 90.3656C80.808 90.3021 80.4692 90.3291 80.1866 90.3725C79.9035 90.4151 79.6216 90.5363 79.4459 90.9931C79.3517 91.2406 79.5242 91.4844 79.8556 91.4212C80.1866 91.356 80.5054 91.0918 80.5054 91.0918C80.5054 91.0918 80.3562 91.7172 79.862 91.8466C79.4038 91.9654 78.8627 91.6739 78.9355 91.1846C79.0303 90.55 79.4462 90.085 80.2048 89.9283C80.9646 89.7668 81.7219 89.8904 82.3974 90.0656C83.0705 90.2448 83.566 90.1362 84.1919 90.0976C85.5414 90.0215 86.3777 89.6856 86.3777 89.6856C86.3777 89.6856 85.7696 90.2062 84.9265 90.4469C84.0835 90.6896 83.3317 90.5889 83.0883 90.6896C82.8919 90.7784 82.6142 91.1898 82.3854 91.6599C82.175 92.0921 81.9511 92.5902 82.0478 92.5902C82.8317 92.6216 83.1187 92.4406 83.1187 92.4406C83.1187 92.4406 82.9637 92.7974 82.5902 92.966C82.331 93.0767 81.8912 93.0766 81.8912 93.0766C81.8912 93.0766 81.6935 93.6048 81.4708 94.0814C81.2465 94.5576 80.8792 95.3015 80.218 95.6695C79.5543 96.0369 78.285 96.495 77.4856 95.2821C76.64 94.0097 77.4118 92.5622 78.2242 93.1524ZM68.4101 93.3184C68.5661 93.7396 68.2347 93.9592 68.0421 93.9592C67.8489 93.9592 67.6085 93.8079 67.5583 94.0626C67.5123 94.3152 68.0712 95.6183 69.3716 95.6183C70.6726 95.6183 71.2755 94.8242 71.1839 94.1128C71.082 93.3187 69.8862 93.0033 68.9331 92.4744C68.4667 92.2163 67.4127 92.0436 67.4127 91.0027C67.4127 88.7802 70.6189 90.1997 70.6189 90.1997C70.6189 90.1997 70.6257 89.9218 70.7748 89.9089C70.847 89.9017 70.992 89.8716 71.0402 90.1229C71.0878 90.3762 71.2998 91.7111 71.2998 91.7111C71.2998 91.7111 70.8286 90.6947 69.5353 90.2509C69.3065 90.1663 68.3062 89.9655 68.312 90.8009C68.324 91.297 68.8971 91.5196 69.8907 91.9265C71.1965 92.4666 71.8655 92.9695 71.5571 94.4176C71.2635 95.8081 69.9748 96.0369 69.3483 96.0369C68.723 96.0369 67.2842 95.5743 67.2842 94.0486C67.2842 92.9698 68.2874 92.9951 68.4101 93.3184ZM75.261 84.9617L75.7875 85.2249C76.0911 85.3489 76.285 85.2942 76.3545 85.2635C76.428 85.23 76.706 84.9153 76.7665 84.6473C76.795 84.538 76.7798 84.4431 76.7248 84.3731C76.5199 84.1171 76.1571 82.941 76.0225 82.3053C75.9727 82.0694 76.0332 81.4184 76.0801 80.8943C76.1212 80.4444 76.1465 80.1648 76.1251 80.0927C76.0892 79.9815 75.9316 79.8739 75.7503 79.7527L75.4633 79.5465C75.3102 79.4144 75.3034 79.2345 75.295 79.0413L75.2646 78.7412C75.1979 78.4619 73.8506 77.0103 73.6419 76.997C73.3393 76.9762 73.2606 77.3264 73.2412 77.5371C73.2293 77.6603 73.3642 78.2106 73.4859 78.6985L73.6202 79.2867C73.7581 80.2116 74.6901 81.8403 75.0875 82.5354L75.2762 82.8734C75.3578 83.0694 75.326 83.224 75.1811 83.3107C75.0403 83.3961 73.8289 83.2626 73.2503 83.1219C73.0017 83.0619 72.6949 82.9311 72.3956 82.8031C72.0529 82.659 71.7279 82.519 71.5402 82.5091C71.3211 82.4972 71.2172 82.544 71.1367 82.5832L71.0053 82.6218L70.8745 82.5778C70.714 82.503 70.414 82.3664 69.5949 82.2883C68.401 82.1701 68.3114 82.4234 68.2628 82.5603C68.2036 82.7345 68.9334 83.5531 69.0638 83.6627C69.2298 83.804 69.7667 84.0195 70.0946 83.9621C70.4693 83.8986 71.0804 83.8187 71.1561 83.8348L71.2791 83.914L71.3933 83.9993C71.4969 84.044 72.1642 84.0826 72.3658 84.0939C72.5985 84.1072 73.2095 84.2407 73.6561 84.3393L74.1552 84.4455C74.3506 84.4834 74.8542 84.7456 75.261 84.9617Z" fill="black"/>
<path fill-rule="evenodd" clip-rule="evenodd" d="M87.6104 68.6302C87.5839 68.5957 87.5619 68.5936 87.548 68.5974C87.5354 68.6018 87.5182 68.6145 87.5133 68.6554C87.4913 68.8309 87.2826 69.2819 87.1169 69.3485C86.7813 69.4854 86.6075 69.9005 86.4816 70.203C86.4172 70.359 86.3544 70.5078 86.3046 70.5099C86.2832 70.5116 86.2596 70.4874 86.2337 70.4368C86.0269 70.0606 86.1428 69.4854 86.2357 69.0218L86.257 68.9081C86.3327 68.5172 86.7664 67.9696 87.0256 67.6412L87.1402 67.4957C87.3166 67.2636 87.3609 66.477 87.3279 66.4179C87.3172 66.4145 87.3101 66.421 87.3059 66.4278C87.3019 66.4312 87.2985 66.4354 87.2959 66.4401L87.292 66.4394V66.4435C87.2813 66.4558 87.2722 66.4572 87.2635 66.4968C87.2172 66.7426 86.7913 67.2421 86.0638 67.9057C85.9146 68.042 85.7447 68.2881 85.6055 68.4858C85.5159 68.6155 85.4107 68.765 85.3829 68.7722C85.2026 67.7576 85.5288 67.1775 85.6839 66.8973L85.756 66.7549C86.0638 65.8714 86.8564 65.2022 86.8648 65.1961C86.8755 65.1705 86.8755 65.1432 86.8561 65.1258C86.8256 65.1012 86.77 65.1118 86.6823 65.1582L86.6344 65.1835C86.358 65.3251 85.5243 65.7536 85.013 66.7853C84.6457 67.5281 84.5036 68.3584 84.5036 68.9845C84.5036 69.3041 84.5402 69.569 84.6023 69.7445C84.7819 70.2497 85.0965 71.5054 85.1932 71.9984C85.2534 72.3039 85.2628 73.353 85.2628 74.0105C85.2628 74.3318 85.2615 74.5568 85.2615 74.5653C85.2596 74.5653 85.103 75.0986 85.103 75.0986C85.1023 75.104 85.0266 75.5205 84.3813 76.2166C83.7314 76.9168 83.0078 77.1394 83.0013 77.1422C82.7107 77.1661 82.4456 77.1534 82.4362 77.1135C82.4362 76.3133 81.1372 74.4516 80.4725 73.8375C79.7941 73.2103 79.2521 72.761 78.331 72.1698C77.3931 71.5675 76.3501 69.0429 76.3381 69.0183L76.2478 68.6773C76.2478 68.6773 76.1973 67.9962 76.1834 67.819C76.2174 67.8395 76.2617 67.8685 76.2617 67.8685L76.5815 68.0648L76.9488 68.2137C76.952 68.2147 77.4297 68.3134 77.4297 68.3134C77.4297 68.3144 77.697 68.4588 77.697 68.4588L77.9449 68.6288L78.3304 68.9224L78.7262 69.1419C78.7342 69.1443 79.2016 69.1696 79.2016 69.1696L79.2122 69.129C79.2122 69.129 78.6711 68.861 78.6698 68.861C78.6698 68.8528 78.475 68.5011 78.475 68.5011C78.3993 68.3864 78.3236 68.2716 78.2482 68.1567C78.2407 68.1512 77.9669 67.9788 77.9669 67.9788C77.851 67.9602 77.7349 67.9429 77.6187 67.9269C77.6187 67.9238 77.5504 67.862 77.5151 67.8286C77.5456 67.8098 77.6028 67.7722 77.6028 67.7722C77.6028 67.7767 77.9757 67.8221 77.977 67.8221C77.977 67.8262 78.3087 68.0641 78.3087 68.0641L78.6708 68.3584C78.6766 68.3615 79.0135 68.4994 79.0135 68.4994L79.0579 68.5179L78.91 68.1119C78.8175 68.0185 78.7244 67.9257 78.6307 67.8337L78.2203 67.4657C78.2171 67.4626 77.898 67.2892 77.898 67.2892C77.8947 67.2885 77.5543 67.1673 77.5543 67.1673C77.5543 67.1666 77.1941 66.9242 77.1941 66.9242C77.1941 66.9242 77.198 66.8983 77.2006 66.8761C77.2462 66.8945 77.6993 67.0864 77.6993 67.0864C77.7019 67.0867 78.1336 67.2107 78.1336 67.2107C78.1329 67.2089 78.4957 67.3568 78.4957 67.3568C78.4944 67.3554 79.0164 67.6241 79.0164 67.6241C79.021 67.6265 79.4533 67.7255 79.4533 67.7255C79.4608 67.7258 79.9867 67.6265 79.9867 67.6265C79.9935 67.6231 80.4948 67.255 80.4948 67.255C80.5006 67.2451 80.5928 67.0263 80.5928 67.0263L80.6126 66.9758L80.4514 67.0461C80.4501 67.0461 79.9964 67.2892 79.9958 67.2892L79.6815 67.3633C79.6815 67.3615 79.3268 67.2882 79.3262 67.2882H79.3268C79.3268 67.2837 79.0391 67.0014 79.0391 67.0014L78.6307 66.5842L78.2614 66.3848C78.2562 66.3824 77.8245 66.3087 77.8245 66.3087C77.8245 66.3077 77.5617 66.1667 77.5572 66.1643C77.5585 66.1643 77.5591 66.1592 77.5591 66.152C77.5591 66.1185 77.5511 66.0455 77.5478 66.0113L78.0909 66.0595L78.6857 66.0089C78.6857 66.0107 79.0207 66.0827 79.0207 66.0827L79.3595 66.2302L79.7064 66.2797L79.7689 66.2885L79.3821 65.8983C79.3783 65.8963 78.9922 65.602 78.9922 65.602C78.9876 65.5996 78.6685 65.4764 78.6685 65.4764C78.6627 65.475 78.1307 65.4276 78.12 65.4265C78.1245 65.4262 78.1252 65.4166 78.1252 65.4026C78.1252 65.3685 78.12 65.32 78.1171 65.2951L78.3685 65.25C78.3685 65.2517 78.7711 65.3473 78.7711 65.3473C78.7711 65.3487 79.1524 65.5901 79.1524 65.5901L79.5644 65.7386C79.5763 65.7389 80.166 65.6413 80.166 65.6413L80.2013 65.6361L80.0216 65.3859C80.0116 65.3777 79.7152 65.2804 79.7145 65.2804C79.7145 65.2787 79.4699 65.0879 79.4699 65.0879L79.1051 64.8175C79.0999 64.8144 78.8278 64.7168 78.8278 64.7168C78.8232 64.7151 78.3941 64.6427 78.3928 64.6423C78.3928 64.6376 78.1818 64.4327 78.1773 64.4293C78.1837 64.4279 78.197 64.3566 78.2019 64.3242L78.4287 64.3911L78.7207 64.5379L79.1352 64.6765L79.0436 64.4836L78.8825 64.3061L78.7414 64.1142L78.8025 64.0982C78.8025 64.104 79.2436 64.3412 79.2436 64.3412L79.5873 64.4648C79.5873 64.4669 79.8527 64.7294 79.8527 64.7294C79.8566 64.7328 80.3589 65.0319 80.3589 65.0319L80.4094 65.0619L80.3178 64.8031C80.3152 64.7973 80.0427 64.4297 80.0427 64.4297L79.8158 64.0159C79.8139 64.0111 79.4032 63.5704 79.4032 63.5704C79.3993 63.5663 78.8766 63.2716 78.8753 63.2716C78.8753 63.2693 78.6763 63.0313 78.6763 63.0313C78.5545 62.9006 78.4329 62.7696 78.3116 62.6384C78.3116 62.6332 78.2744 62.4987 78.2553 62.4304C78.3171 62.4513 78.6093 62.5537 78.6093 62.5537L79.0184 62.6756C79.0184 62.6766 79.3103 62.8685 79.3103 62.8685C79.3103 62.8705 79.5537 63.1822 79.5537 63.1822C79.5624 63.1894 79.9501 63.3614 79.9501 63.3614L80.9382 63.4966L80.9958 63.5041L80.7246 63.203C80.7178 63.1976 80.1941 62.9521 80.1941 62.9521L79.8799 62.7104C79.8799 62.706 79.7042 62.3734 79.7042 62.3734L79.521 62.0307C79.5177 62.0256 79.222 61.7316 79.222 61.7316C79.2174 61.7282 78.8533 61.5077 78.8533 61.5077L78.4931 61.1915C78.4931 61.1885 78.4064 60.999 78.3511 60.8727L78.6012 61.127L79.0792 61.5684C79.0851 61.5722 79.4498 61.7439 79.4498 61.7439L79.7621 62.0102L80.1249 62.4007C80.1375 62.4069 80.7045 62.4912 80.7045 62.4912L80.7754 62.5021L80.1996 61.9761C80.1996 61.9665 80.0695 61.5449 80.0695 61.5449C79.9699 61.4427 79.8694 61.3415 79.7679 61.2414L79.6113 61.0471C79.6113 61.042 79.4553 60.5405 79.4553 60.5405C79.3481 60.4227 79.24 60.3059 79.131 60.1899C79.131 60.1871 78.6109 59.6754 78.6096 59.6733V59.6723C78.6096 59.6645 78.5912 59.5863 78.5805 59.5347C78.6203 59.5559 78.6747 59.5863 78.6747 59.5863L79.1521 59.8795C79.1566 59.8819 79.7249 60.0533 79.7249 60.0533L80.3178 60.2015L81.0029 60.3169L80.8417 59.9731C80.8304 59.9622 80.4896 59.8157 80.4896 59.8157L80.1734 59.6211C80.1702 59.6201 79.7841 59.448 79.7841 59.448L79.444 59.3012C79.444 59.2978 79.2232 58.9974 79.1003 58.8315C79.2184 58.9151 79.4006 59.0459 79.4006 59.0459C79.4093 59.0489 79.7071 59.0739 79.7071 59.0739L80.6407 59.0742C80.6407 59.0769 81.0187 59.2923 81.0187 59.293C81.0187 59.2944 81.3411 59.6611 81.3411 59.6611L81.3835 59.7092L81.3443 59.2954C81.3404 59.2835 81.1356 59.0134 81.1356 59.0134C81.1298 59.0086 80.5825 58.6898 80.5825 58.6898L80.1475 58.517C80.1443 58.516 79.4889 58.3938 79.4857 58.3938V58.3928C79.4857 58.3863 79.3605 58.2289 79.3605 58.2289C79.3579 58.2275 78.8808 57.7619 78.8808 57.7619C78.8038 57.7194 78.7264 57.6774 78.6488 57.6359C78.6488 57.6345 78.576 57.5557 78.5307 57.5058H78.776C78.776 57.5099 79.1521 57.7482 79.1521 57.7482C79.1553 57.7506 79.6572 57.9213 79.6572 57.9213L80.2977 58.02H80.2971C80.2971 58.0271 80.5346 58.3078 80.5346 58.3078L80.8809 58.5321C81.0122 58.5576 81.1437 58.5823 81.2754 58.6061L81.3304 58.6154L80.52 57.568C80.5149 57.5628 80.1275 57.3426 80.1275 57.3426C80.1242 57.3406 79.6699 57.1935 79.6699 57.1935C79.6699 57.1883 79.2698 56.7097 79.2698 56.7097C79.2653 56.7046 78.7643 56.3867 78.7643 56.3867C78.6432 56.3544 78.5219 56.3232 78.4003 56.2932C78.4229 56.2546 78.4983 56.1235 78.4983 56.1228C78.4996 56.1266 78.8996 55.9358 78.8996 55.9358C78.8996 55.9368 79.486 55.8149 79.486 55.8149C79.5019 55.8006 79.5462 55.6527 79.5462 55.6527C79.5388 55.6278 79.2883 55.4564 79.2883 55.4564C79.1884 55.4222 79.0882 55.3885 78.988 55.3554C78.9695 55.3578 78.8109 55.4558 78.8109 55.4564C78.8109 55.4534 78.3203 55.4769 78.3203 55.4769C78.3203 55.4766 77.7339 55.3311 77.7339 55.3305C77.7339 55.3274 77.1297 54.7962 77.1297 54.7962C77.0372 54.7459 76.9445 54.6961 76.8517 54.6467C76.8449 54.6453 75.8468 54.522 75.8442 54.522C75.8442 54.5087 75.6096 54.1393 75.6096 54.1393L75.2886 53.7693C75.2873 53.7672 74.8798 53.3794 74.8798 53.3794L74.8672 53.4077L74.7306 53.7266C74.7313 53.7235 74.596 53.9441 74.596 53.9441V53.9495C74.596 53.9902 74.6151 54.2032 74.6151 54.2032C74.6209 54.2165 74.753 54.3592 74.7559 54.3633C74.7491 54.3633 74.706 54.5852 74.706 54.5869C74.7047 54.5715 74.1584 54.5951 74.1575 54.5951C74.1575 54.5924 73.7112 54.3763 73.7112 54.3763C73.7083 54.3742 73.3662 54.252 73.3662 54.252C73.3594 54.2496 72.5636 54.2756 72.5636 54.2756C72.5461 54.2851 72.4112 54.5057 72.4112 54.5057L72.393 54.5347L72.7432 54.5879C72.7432 54.5893 72.795 54.6241 72.8238 54.6436L72.7342 54.7207C72.7342 54.716 72.2471 54.6924 72.2471 54.6924C72.239 54.6938 71.8963 54.8402 71.8963 54.8402L71.8607 54.8563L72.0306 54.9768C72.0413 54.9809 72.7691 55.0051 72.7691 55.0051L73.3096 55.1519V55.1526C73.3096 55.1604 73.4125 55.3154 73.4125 55.3154C73.4125 55.3154 73.4856 55.4243 73.5131 55.467L73.2817 55.6015C73.2846 55.6012 72.6241 55.8951 72.6241 55.8951L71.2587 56.7039C71.2574 56.7025 70.3597 56.8439 70.3597 56.8439C70.3529 56.8463 70.0082 57.0487 70.0082 57.0487C70.0008 57.0542 69.7241 57.4587 69.7241 57.4587C69.7212 57.4638 69.5645 57.9674 69.5645 57.9674C69.5522 58.8229 69.5846 58.8427 69.5962 58.8496C69.6231 58.8673 69.8574 59.0073 70.0386 58.9049C70.2438 58.7871 70.683 58.6714 70.9111 58.6201C71.0238 58.5959 71.0765 58.6386 71.0859 58.6826C71.0982 58.7308 71.0642 58.7963 70.9801 58.8205L70.9328 58.8352C70.5361 58.9489 70.1312 59.0865 70.1445 59.248L70.2144 59.3712C70.3914 59.5074 70.8516 59.4429 71.0959 59.3845L71.351 59.3091C71.571 59.2384 71.8212 59.1595 72.0348 59.1848C72.1581 59.1998 72.2668 59.2558 72.3953 59.3197C72.5694 59.4084 72.7685 59.5091 73.0652 59.5296C73.5601 59.5658 73.8979 59.6713 73.9245 59.702C73.9908 59.8444 73.9481 60.055 73.9148 60.2244L73.8892 60.3776C73.7507 61.7026 72.3484 63.2006 71.6726 63.9193C71.4901 64.1139 71.3694 64.2422 71.3435 64.2958L71.2658 64.4853C71.2001 64.6611 71.1467 64.8127 70.9325 64.9035C70.8086 64.9544 70.5196 65.1838 70.1843 65.4487C69.7001 65.8297 69.0998 66.3036 68.9344 66.2831C68.6577 66.2486 67.3655 65.3101 67.3111 65.2524C66.0525 63.9677 65.526 64.2313 65.2107 64.3883L65.1609 64.4129C64.7855 64.5932 64.3913 65.715 64.3557 65.9557L64.2036 66.6467L64.0868 67.1543C64.0521 67.326 63.8971 67.748 63.7492 68.1556L63.4457 69.0433C63.3955 69.2488 63.2738 69.5376 63.1748 69.7711L63.0405 70.1169C62.9469 70.5229 62.9453 72.746 63.1081 72.9427L63.1152 72.9509L63.1473 72.9608C63.3107 72.943 63.6615 72.5617 63.8298 72.3777L63.8686 72.335C64.011 72.1841 64.1622 71.7812 64.1622 71.6119C64.1622 71.446 64.0887 71.0991 64.0596 71.0046C63.8317 70.2706 63.9178 69.5711 63.9593 69.2358L63.9758 69.0863C63.9877 68.9306 64.1356 68.7582 64.2793 68.593L64.4609 68.3714C64.5606 68.2314 64.6712 68.185 64.77 68.1437L64.9321 68.046L64.9573 68.0184C65.0648 67.9047 65.245 67.7128 65.324 67.4561L65.4781 66.7532L65.5117 66.5654C65.5195 66.5279 65.5376 66.507 65.5677 66.5002C65.6289 66.4859 65.7205 66.5371 65.7596 66.592L66.8735 67.9556C67.159 68.212 67.4522 68.5179 67.4522 68.5851L67.4519 68.5909C67.4519 68.5899 67.4451 68.5913 67.4451 68.5913C67.2891 68.6083 66.5043 68.4318 66.3739 68.3926C65.3075 68.0628 64.8208 68.1208 64.4454 68.6165C64.0175 69.1843 64.1521 70.923 64.2395 71.1135C64.3198 71.2862 64.7101 73.4046 64.7276 73.6869C64.745 73.9638 64.8467 74.4588 64.9528 74.5725L64.9819 74.6039C65.1133 74.7411 65.4596 75.1081 65.5208 75.47C65.5868 75.864 66.38 76.9189 66.6826 77.0135C66.7053 77.0204 66.7292 77.0215 66.7524 77.0168C66.7756 77.012 66.7974 77.0015 66.8159 76.9861C67.0467 76.8134 67.1515 75.9691 67.1642 75.6127C67.179 75.1686 67.0279 74.9538 66.8674 74.7241L66.8059 74.6343C66.6878 74.4643 66.4797 74.4025 66.3425 74.3618C66.2839 74.3444 66.2036 74.3239 66.2036 74.3048C66.2036 74.2983 66.1874 73.6476 65.9907 73.522C65.8376 73.4227 65.681 72.7948 65.6625 72.5559C65.6447 72.3186 65.5577 71.7457 65.4408 71.4941C65.3227 71.2415 65.2234 70.7758 65.2738 70.4167C65.2949 70.2624 65.3991 70.2139 65.4839 70.1999C65.6302 70.1753 65.7991 70.2419 65.8253 70.2958C65.8836 70.4194 67.0082 71.135 67.3875 71.2886C67.6231 71.3828 67.9418 71.6669 68.2234 71.9202C68.4237 72.0974 68.5959 72.25 68.7033 72.3043C68.8483 72.378 69.2593 72.3865 69.5894 72.3934C69.7645 72.3964 69.9464 72.4009 69.971 72.4162C69.837 72.4729 69.8386 72.7208 69.8496 72.8006C69.9865 73.8259 73.5222 76.642 73.7957 76.8001C74.1122 76.9793 75.2475 78.2298 75.3468 78.3999C75.4497 78.5678 75.5497 78.7505 75.5306 78.8911C75.5035 79.099 75.5824 79.3366 75.7403 79.5306C75.8915 79.7112 76.0886 79.8201 76.2708 79.8201C76.4287 79.8201 76.5342 79.6705 76.6122 79.5626L76.6287 79.5401C76.8397 79.2455 77.1527 78.814 77.1931 78.139C77.2362 77.447 77.5358 77.1722 77.6336 77.1541C77.6773 77.1456 77.7093 77.1596 77.721 77.19C77.7329 77.2214 77.7184 77.2739 77.6591 77.3152C77.5297 77.4078 77.4488 77.714 77.3601 78.0414C77.3595 78.0441 77.3271 78.3756 77.3271 78.3756C77.3197 78.6231 77.3106 78.9038 77.0763 79.1758C76.7255 79.5766 76.3229 80.5008 76.2187 81.6677C76.1556 82.3706 76.4556 83.3832 77.1099 84.6737L77.1556 84.7658L77.3326 85.0792C77.5116 85.3827 77.8106 85.8873 77.7967 86.0054C77.7776 86.172 77.7627 86.3028 77.4902 86.6637C77.1905 87.0604 76.097 88.4027 75.9902 88.4239C75.7727 88.4239 75.7361 88.4532 75.5611 88.5932L75.3766 88.7414C75.1746 88.8926 75.1394 89.006 75.1054 89.106C75.0805 89.1814 75.0568 89.2473 74.963 89.3214L74.8928 89.3713C74.8782 89.3846 74.8387 89.4433 74.3992 89.9072C73.8953 90.4326 73.6704 91.0274 73.7481 91.6183C73.773 91.803 73.9238 91.8675 74.3711 91.889C74.8177 91.9109 75.8416 91.155 75.8873 90.9089L75.9031 90.815C75.9423 90.5931 76.008 90.2189 76.1238 90.165C76.2637 90.1005 76.5031 89.8089 76.6789 89.5969L76.7129 89.557C76.8064 89.443 76.829 89.3296 76.8514 89.2217C76.8705 89.1364 76.8879 89.0503 76.941 88.9718C76.9828 88.9145 77.0439 88.8831 77.1148 88.8486C77.2507 88.78 77.4219 88.6926 77.5452 88.3658C77.6679 88.0456 78.3999 87.4915 78.9346 87.0884C79.2077 86.8835 79.422 86.7196 79.4731 86.6476C79.5433 86.551 79.5864 86.3649 79.5864 86.1676C79.5864 85.9334 79.5268 85.6842 79.3873 85.5456C79.1844 85.3469 78.9935 84.7556 78.9365 84.5702V84.5661C78.9365 84.4893 78.9297 84.3487 78.9187 84.0868C78.9174 84.0749 78.9174 84.0622 78.9174 84.051C78.9174 83.3583 79.8935 82.6806 80.3149 82.3887L80.5071 82.2487C82.0349 80.8272 82.334 79.7463 82.3906 79.4496L82.4217 79.0943C82.4311 78.8481 82.4388 78.6136 82.5796 78.5828C82.6346 78.5716 82.7262 78.6184 82.7819 78.6883C82.8136 78.7262 82.8602 78.8051 82.8291 78.8962C82.7595 79.0956 82.7362 81.0999 82.7356 81.1832C82.7408 81.1972 82.9 81.3953 82.9 81.3953L82.9291 81.4311L82.9379 81.3843C82.9398 81.3611 83.0275 80.8149 83.0275 80.6217C83.0275 80.4056 83.357 79.48 83.4366 79.464C83.4366 79.4667 83.4418 79.4746 83.4418 79.4746C83.4803 79.6026 83.5295 79.9187 83.5295 80.2519C83.5295 80.5793 83.4825 80.9234 83.3317 81.1228C83.1029 81.4215 82.9207 81.8944 82.8019 82.2064L82.6919 82.4717C82.6795 82.5084 82.6741 82.5474 82.6761 82.5864C82.6761 82.8404 82.8 83.3818 82.8816 83.4825C82.9029 83.5064 82.9201 83.5064 82.932 83.502C82.9586 83.4914 82.9825 83.4552 82.9825 83.2425C82.9825 82.4324 83.6278 81.8449 83.6356 81.8404C84.2046 81.3642 84.3285 80.481 84.3285 79.8081C84.3285 79.2988 84.2576 78.9099 84.2557 78.8993C84.1657 78.7586 84.0747 78.6186 83.9825 78.4794C83.9958 78.4862 84.0699 78.4221 84.0945 78.4012C84.1191 78.4347 84.3783 78.7972 84.3783 78.7972C84.422 78.8618 84.5327 79.0499 84.5327 79.1246C84.5327 79.5415 84.5936 79.8269 84.6369 80.0362L84.6476 80.0857C84.6932 80.3076 84.9777 81.0166 84.9903 81.047L85.0208 81.1218L85.0301 81.0405C85.0301 81.0371 85.0751 80.6664 85.0301 80.3492C85.0042 80.1714 85.0366 79.9532 85.0693 79.7176L85.1211 79.1769C85.1211 78.7375 85.0615 78.4599 84.913 78.2073L84.8373 78.0861C84.8075 78.0366 84.7784 77.9881 84.7816 77.9782L84.8373 77.953C86.0389 77.5228 86.5981 76.5894 86.826 76.0726C87.0648 75.525 87.0774 74.6817 87.0774 74.5196C87.0774 74.3082 87.0687 73.2124 86.8942 72.6494C86.792 72.3172 86.8247 71.9605 86.859 71.5754L86.8962 70.9162C86.8962 70.4652 87.1211 70.1303 87.3392 69.8066L87.5991 69.3819C87.769 69.0282 87.6787 68.7186 87.6104 68.6302Z" fill="black"/>
<path fill-rule="evenodd" clip-rule="evenodd" d="M74.1611 54.5128C74.1812 54.5142 74.4366 54.3862 74.4366 54.3862C74.448 54.3619 74.3887 54.1069 74.3887 54.1069C74.2043 53.8763 74.019 53.6465 73.8328 53.4176L73.8053 53.3838L73.7959 53.4261L73.7363 53.7023C73.7366 53.6996 73.5599 54.1455 73.5599 54.1455L73.5518 54.1643L73.9241 54.365L74.1611 54.5128Z" fill="black"/>
<path fill-rule="evenodd" clip-rule="evenodd" d="M74.2705 56.2824C74.3294 56.3056 74.4184 56.2954 74.5026 56.2558C74.6314 56.1919 74.7074 56.0827 74.6747 56.0045L74.6155 55.9482C74.5573 55.9246 74.4683 55.9352 74.3854 55.9755C74.2751 56.0274 74.2045 56.1137 74.2045 56.1871C74.2045 56.2005 74.2081 56.2148 74.2123 56.2261L74.2705 56.2824ZM76.4935 55.3145L76.5997 55.375C76.6082 55.3944 76.6207 55.4115 76.6364 55.4251C76.652 55.4387 76.6703 55.4484 76.69 55.4535C76.7126 55.4585 76.736 55.458 76.7584 55.4521C76.7808 55.4462 76.8017 55.435 76.8194 55.4194C76.8479 55.3958 76.8547 55.3518 76.8366 55.2961C76.8081 55.2036 76.7165 55.1025 76.6178 55.1025C76.4906 55.1025 76.3744 55.1179 76.3744 55.2169C76.3748 55.2726 76.4353 55.2937 76.4935 55.3145ZM76.6207 55.7102C76.5715 55.7485 76.5498 55.8 76.5638 55.8522L76.5738 55.8956C76.5864 55.9468 76.5909 55.9574 76.6356 55.9629L76.7165 55.9782C76.8201 56.0062 76.9838 55.9383 77.021 55.8509C77.0337 55.8225 77.0437 55.7676 76.9732 55.7157C76.8518 55.6303 76.7023 55.6488 76.6207 55.7102ZM76.9518 57.2298C76.922 57.2147 76.9346 57.1649 76.9576 57.0925C76.9761 57.0335 76.9929 56.9768 76.9641 56.9457C76.9388 56.9201 76.8939 56.9222 76.8175 56.9522C76.5424 57.0567 76.5003 57.3523 76.4699 57.5684L76.4605 57.635C76.4447 57.7313 76.4916 57.7641 76.5207 57.775C76.6155 57.8105 76.7867 57.7197 76.8253 57.6504C76.8683 57.5756 77.1058 57.5073 77.279 57.4575L77.3453 57.4384C77.4256 57.4151 77.4667 57.3827 77.4725 57.3387C77.4813 57.281 77.4207 57.2284 77.367 57.1946C77.3172 57.1635 77.2431 57.1857 77.1654 57.2093C77.0884 57.2315 77.0055 57.2543 76.9518 57.2298ZM74.0443 57.3407C74.1051 57.3342 74.1527 57.3093 74.1828 57.2636C74.2705 57.1256 74.2751 56.9304 74.1899 56.7532C74.1077 56.5842 73.967 56.476 73.8233 56.4705L73.8252 56.4712L73.7938 56.4668L73.5291 56.4886C73.3893 56.5214 73.2595 56.6303 73.2281 56.7375C73.2122 56.7918 73.2213 56.8413 73.2566 56.8785C73.4689 57.1157 73.8356 57.3575 74.0443 57.3407ZM71.4375 57.1161C71.4692 57.1984 71.6145 57.2076 71.8278 57.1407L71.8747 57.1256L72.2569 56.9679L72.8106 56.5839C72.8268 56.5705 72.9715 56.4558 72.9417 56.3824C72.9207 56.3343 72.8485 56.3428 72.7964 56.3531C72.6436 56.3824 72.4938 56.4599 72.3342 56.5419L72.109 56.6521L72.0096 56.6951C71.6669 56.8447 71.386 56.9788 71.4375 57.1161ZM70.273 57.5435C70.1578 57.5435 70.1061 57.6094 70.064 57.6678L70.0125 57.7292C69.9238 57.8095 69.8967 58.0034 69.9077 58.1509C69.9122 58.2123 69.9287 58.3236 69.986 58.3591C70.0957 58.4305 70.1481 58.3803 70.2601 58.2679L70.3468 58.1894C70.4569 58.0921 70.5847 57.9819 70.6006 57.8122C70.6083 57.7405 70.5921 57.6814 70.5543 57.6371C70.487 57.5599 70.364 57.5435 70.273 57.5435ZM70.9099 57.5971C70.8769 57.5896 70.8572 57.6005 70.8468 57.6118C70.8135 57.6463 70.8271 57.72 70.8375 57.7791L70.8439 57.8204L70.8371 57.8453C70.8297 57.8665 70.8213 57.8934 70.8371 57.9163C70.8514 57.9392 70.886 57.9491 70.9449 57.9491C71.0197 57.9498 71.0271 57.9416 71.0523 57.8712L71.0724 57.817C71.0905 57.7692 71.0909 57.7262 71.0737 57.692C71.043 57.6319 70.9666 57.6091 70.9099 57.5971ZM71.5258 58.65C71.5649 58.6481 71.6018 58.6303 71.6288 58.6005C71.6558 58.5706 71.6709 58.531 71.6709 58.4897C71.6709 58.4484 71.6558 58.4087 71.6288 58.3789C71.6018 58.349 71.5649 58.3313 71.5258 58.3294C71.5061 58.3295 71.4865 58.3338 71.4683 58.3419C71.4501 58.3501 71.4336 58.3619 71.4198 58.3768C71.406 58.3917 71.3951 58.4093 71.3877 58.4286C71.3803 58.448 71.3767 58.4687 71.3769 58.4895C71.3769 58.5779 71.4433 58.65 71.5258 58.65ZM74.3003 58.2594C74.2789 58.2552 74.2569 58.2573 74.2365 58.2653C74.2161 58.2734 74.1982 58.2872 74.1848 58.3052C74.1437 58.3557 73.8935 58.5366 73.7106 58.6691L73.4747 58.8459L73.4556 58.8654C73.4262 58.8947 73.4116 58.9128 73.4307 58.9736L73.4595 59.0163L73.5216 59.003L73.6136 58.9671L73.7459 58.9453C73.8763 58.9275 74.0191 58.907 74.0864 58.8343L74.1741 58.6831L74.3045 58.4622C74.367 58.3895 74.3702 58.3396 74.3615 58.3113C74.3564 58.2978 74.3481 58.2859 74.3374 58.2768C74.3267 58.2677 74.3139 58.2617 74.3003 58.2594ZM74.5744 59.1518C74.5744 59.2334 74.6129 59.2655 74.6346 59.2768C74.6932 59.3095 74.7773 59.2778 74.8275 59.2041L74.9971 59.0484C75.089 58.9787 75.1916 58.9002 75.2825 58.7783C75.3667 58.664 75.3304 58.5936 75.3003 58.5636C75.2427 58.5042 75.1243 58.4905 75.0841 58.5254L75.0353 58.5605C74.9243 58.6367 74.6615 58.8166 74.5954 59.0354C74.5824 59.0727 74.5753 59.1121 74.5744 59.1518ZM75.6793 59.0637C75.6447 59.0105 75.5851 58.9883 75.5408 59.0112L75.4213 59.1068C75.3372 59.1791 75.2323 59.271 75.1414 59.2979C74.9207 59.3604 74.6213 59.4645 74.6029 59.6243L74.6026 59.6451C74.6026 59.6892 74.6213 59.7155 74.6395 59.7301C74.7233 59.8022 74.9268 59.7595 75.0741 59.7008C75.3 59.6127 75.4372 59.5052 75.6146 59.3351C75.7236 59.2303 75.7188 59.1255 75.6793 59.0637ZM74.821 60.9039L74.7492 60.8953C74.5634 60.9476 74.2462 61.5238 74.0236 61.9533L73.9838 62.0277L73.3165 63.3489L73.1071 63.7695C73.0838 63.8078 73.0919 63.8637 73.1268 63.9003C73.1592 63.9344 73.2158 63.9532 73.2844 63.9074C73.3957 63.8293 73.8019 63.4042 73.9903 63.0703L74.2411 62.7054C74.4019 62.4838 74.5851 62.236 74.6925 61.9407L74.7304 61.8389C74.9851 61.1421 75.0249 61.0356 74.821 60.9039ZM77.3304 58.3642C77.3114 58.3638 77.2925 58.3673 77.2748 58.3745C77.2571 58.3818 77.2409 58.3926 77.2272 58.4065C77.2135 58.4203 77.2024 58.4369 77.1948 58.4553C77.1871 58.4736 77.183 58.4934 77.1825 58.5134C77.1825 58.5957 77.2489 58.6626 77.3304 58.6626C77.412 58.6626 77.477 58.5957 77.477 58.5134C77.4768 58.4934 77.4727 58.4737 77.4652 58.4554C77.4576 58.4371 77.4468 58.4205 77.4331 58.4067C77.4195 58.3928 77.4034 58.3819 77.3858 58.3746C77.3682 58.3674 77.3494 58.3638 77.3304 58.3642ZM77.2602 58.9866C77.2602 59.0692 77.3266 59.1361 77.4081 59.1361C77.4269 59.1363 77.4456 59.1326 77.463 59.1253C77.4805 59.1179 77.4964 59.1069 77.5098 59.093C77.5233 59.0791 77.534 59.0626 77.5414 59.0443C77.5487 59.026 77.5526 59.0064 77.5528 58.9866C77.5523 58.9465 77.5369 58.9083 77.5098 58.8803C77.4826 58.8522 77.4461 58.8367 77.4081 58.8371C77.3698 58.8364 77.3327 58.8518 77.305 58.8798C77.2773 58.9077 77.2612 58.9461 77.2602 58.9866ZM77.3961 59.3174C77.3039 59.3174 77.2275 59.3819 77.2275 59.4591C77.2275 59.5373 77.3039 59.6011 77.3961 59.6011C77.4897 59.6011 77.5654 59.5376 77.5654 59.4591C77.5657 59.3819 77.4897 59.3174 77.3961 59.3174ZM77.3893 59.7312C77.2832 59.7312 77.1984 59.8018 77.1984 59.8889C77.1984 59.9753 77.2832 60.0459 77.3893 60.0459C77.4955 60.0459 77.579 59.9749 77.579 59.8889C77.579 59.8018 77.4955 59.7312 77.3893 59.7312ZM77.3961 60.2562C77.2793 60.2562 77.1825 60.3296 77.1825 60.4221C77.1825 60.5133 77.2793 60.5867 77.3961 60.5867C77.5136 60.5867 77.6084 60.5133 77.6084 60.4221C77.6084 60.3296 77.5136 60.2562 77.3961 60.2562ZM77.324 61.1363C77.4567 61.1241 77.5541 61.0472 77.5466 60.9585L77.5049 60.8779C77.4592 60.8373 77.3796 60.8168 77.2987 60.8247C77.1706 60.8369 77.0757 60.91 77.0757 60.9936L77.0764 61.0022L77.1194 61.0824C77.166 61.1241 77.2421 61.1445 77.324 61.1363ZM77.034 61.5754L77.0333 61.5713L77.034 61.5754ZM77.3165 61.6891C77.4651 61.6658 77.5699 61.5798 77.558 61.4911L77.5143 61.4173C77.4625 61.3753 77.3696 61.3586 77.2748 61.3733C77.1288 61.3948 77.0214 61.4825 77.0333 61.5713L77.0783 61.6447C77.1308 61.687 77.2217 61.7031 77.3165 61.6891ZM77.0664 61.9557C77.0664 62.0523 77.1777 62.1295 77.3236 62.1295C77.469 62.1295 77.579 62.0523 77.579 61.9557C77.579 61.8591 77.469 61.7829 77.3236 61.7829C77.1774 61.7833 77.0664 61.8591 77.0664 61.9557ZM77.5214 62.5207C77.5214 62.4183 77.3887 62.3401 77.2191 62.3401C77.0515 62.3401 76.9188 62.4183 76.9188 62.5207C76.9188 62.6224 77.0515 62.702 77.2191 62.702C77.3887 62.702 77.5214 62.6224 77.5214 62.5207ZM77.3285 62.9976C77.3285 62.8976 77.2291 62.8167 77.1091 62.8167C76.9871 62.8167 76.8877 62.8976 76.8877 62.9976C76.8877 63.0977 76.9871 63.1789 77.1091 63.1789C77.2295 63.1789 77.3285 63.0977 77.3285 62.9976ZM77.2249 63.594C77.2249 63.4817 77.1201 63.3892 76.9897 63.3892C76.8609 63.3892 76.7563 63.4817 76.7563 63.594C76.7563 63.7074 76.8605 63.7985 76.9897 63.7985C77.1201 63.7985 77.2249 63.7074 77.2249 63.594ZM77.034 64.1744C77.034 64.0734 76.9479 63.9931 76.8431 63.9931C76.7388 63.9931 76.6508 64.073 76.6508 64.1744C76.6508 64.2738 76.7385 64.355 76.8431 64.355C76.9479 64.3554 77.034 64.2738 77.034 64.1744ZM76.7032 64.5179C76.6023 64.5179 76.5188 64.5988 76.5188 64.6991C76.5188 64.7985 76.6023 64.8794 76.7032 64.8794C76.8039 64.8794 76.8864 64.7981 76.8864 64.6991C76.8867 64.5988 76.8039 64.5179 76.7032 64.5179ZM76.5473 65.3888C76.6508 65.3888 76.7388 65.3184 76.7388 65.2314C76.7388 65.1443 76.6511 65.075 76.5473 65.075C76.443 65.075 76.3576 65.1447 76.3576 65.2314C76.3576 65.3181 76.443 65.3888 76.5473 65.3888ZM76.3715 65.7701C76.4676 65.7701 76.5466 65.711 76.5466 65.6366C76.5466 65.5625 76.4689 65.5038 76.3715 65.5038C76.2709 65.5038 76.1945 65.5622 76.1945 65.6366C76.1945 65.711 76.2735 65.7701 76.3715 65.7701ZM76.201 66.1368C76.2926 66.1368 76.3702 66.077 76.3702 66.0029C76.3702 65.9295 76.2926 65.8698 76.201 65.8698C76.1068 65.8698 76.0324 65.9295 76.0324 66.0029C76.032 66.077 76.1068 66.1368 76.201 66.1368ZM71.2112 65.8121L71.2417 65.8182L71.4721 65.7745C71.6766 65.7267 71.9847 65.654 72.3637 65.6434C72.6407 65.6356 72.941 65.7377 73.1592 65.8128C73.3572 65.8824 73.4559 65.9125 73.4935 65.8694C73.5171 65.8411 73.5025 65.7998 73.4896 65.7708C73.4301 65.6352 73.1692 65.1897 72.3181 65.1692C71.765 65.1559 71.3142 65.5526 71.2177 65.7203C71.1986 65.7544 71.1934 65.7797 71.2032 65.7984L71.2112 65.8121ZM74.3763 67.4999C74.4304 67.4634 74.4537 67.3989 74.4501 67.3064C74.432 66.9431 74.3398 66.9018 74.1498 66.9018C73.9572 66.9018 73.8181 67.1056 73.8181 67.2115C73.8181 67.3108 73.8873 67.3979 74.0216 67.4689C74.0977 67.5112 74.2728 67.5716 74.3763 67.4999ZM76.9877 71.9405C77.2622 72.0757 77.3586 72.1238 77.3997 72.1371C77.401 72.1371 77.4023 72.1412 77.4023 72.1412C77.4023 72.1412 77.4042 72.1395 77.4042 72.1388C77.4233 72.145 77.4295 72.1426 77.434 72.1357C77.4314 72.1337 77.4207 72.1166 77.4149 72.1118C77.4181 72.1091 77.4214 72.1019 77.4214 72.1019C77.4214 72.1019 77.4042 72.0944 77.4029 72.0927C77.2214 71.851 76.1282 70.2113 75.8955 69.1321C75.8589 68.9543 75.8159 68.7887 75.7058 68.7225C75.644 68.6859 75.566 68.6832 75.4712 68.7167H75.4705C75.4485 68.7235 75.4327 68.7426 75.4226 68.7706C75.4132 68.801 75.4092 68.8329 75.4107 68.8648C75.4107 69.2503 75.8 70.3113 75.9272 70.5295C76.6308 71.7343 76.9744 71.9323 76.9877 71.9405ZM85.9238 72.4092L85.882 72.4177C85.8833 72.4246 85.8927 72.7465 85.8927 73.1599C85.8927 73.7628 85.873 74.5668 85.7739 74.928C85.6937 75.2206 85.3257 75.7808 85.0286 76.2291C85.0286 76.2291 84.683 76.776 84.683 76.7767C84.6731 76.7949 84.6681 76.8157 84.6684 76.8367C84.6684 76.8907 84.6943 76.9415 84.7399 76.9733C84.7746 76.9986 84.8998 77.0634 85.0743 76.8439L85.295 76.5978C85.5895 76.2878 85.9555 75.903 86.2134 75.0536C86.4963 74.1213 85.9286 72.4252 85.9238 72.4092ZM76.7168 75.4469C76.7434 75.4749 76.7864 75.4828 76.8314 75.4657C76.866 75.4531 76.8964 75.4301 76.9189 75.3995C76.9414 75.369 76.9549 75.3322 76.9579 75.2936C76.9686 75.1769 77.0456 75.0202 77.1602 74.8864C77.2199 74.8148 77.251 74.7216 77.2469 74.6263C77.2428 74.5311 77.2038 74.4412 77.1382 74.3756L76.9916 74.3138C76.8974 74.3172 76.8272 74.3968 76.8233 74.3992C76.7742 74.6472 76.7262 74.8956 76.6793 75.1441V75.1434C76.6654 75.1847 76.6528 75.3821 76.7168 75.4469ZM81.4839 78.1965L81.4765 78.1931L81.469 78.1965C81.4632 78.2013 81.3402 78.2617 81.3053 78.3884C81.2813 78.4737 81.326 78.5478 81.3609 78.6089L81.402 78.6902L81.4198 78.8523L81.4477 79.091C81.4546 79.1157 81.4692 79.1371 81.4892 79.1519C81.5092 79.1666 81.5333 79.1738 81.5577 79.1722C81.6153 79.1702 81.6823 79.1234 81.7043 79.0288C81.7341 78.9008 81.7486 78.7274 81.7486 78.4966C81.748 78.286 81.4952 78.1992 81.4839 78.1965ZM74.0851 76.255C74.0686 76.2349 72.321 74.2343 71.9433 73.7102C71.5585 73.1732 71.3747 73.1326 71.1863 73.2425C71.1724 73.2509 71.1607 73.2627 71.1521 73.2769C71.1434 73.2911 71.1382 73.3073 71.1368 73.3241C71.1096 73.5423 71.5462 74.0701 71.9284 74.4576C72.4627 75 74.0411 76.2751 74.0572 76.2878L74.0851 76.255ZM67.2355 70.3506C66.8814 70.1188 66.2685 69.9901 66.2623 69.9873L66.2461 70.0266L66.9261 70.5674C67.038 70.6643 67.5329 70.9883 67.6927 70.8558C67.7031 70.8476 67.7114 70.8368 67.7169 70.8245C67.7224 70.8121 67.725 70.7985 67.7245 70.7848C67.7193 70.6875 67.5478 70.5575 67.2355 70.3506ZM67.0694 67.29L67.1173 67.2685C67.1785 67.1958 67.0377 66.9892 66.8665 66.8223C66.7121 66.6721 66.5552 66.5751 66.473 66.5799L66.4264 66.601C66.4164 66.6139 66.4113 66.6302 66.4121 66.6468C66.4121 66.741 66.5345 66.9076 66.6765 67.0476C66.8312 67.1978 66.9895 67.2954 67.0694 67.29ZM68.8863 67.0288L68.8167 67.0333C68.6847 67.0916 68.475 67.4457 68.3076 67.8939C68.1898 68.2104 68.1008 68.5555 68.1008 68.7634C68.1008 68.8621 68.1209 68.929 68.1656 68.9488L68.2342 68.9444C68.3662 68.885 68.5753 68.5303 68.7445 68.0834C68.862 67.7662 68.95 67.4211 68.95 67.2128C68.95 67.1148 68.931 67.0476 68.8863 67.0288ZM65.6157 64.8425C65.4451 64.8425 65.3092 64.9279 65.3092 65.0358C65.3092 65.143 65.4451 65.2273 65.6157 65.2273C65.7888 65.2273 65.9235 65.143 65.9235 65.0358C65.9235 64.9279 65.7888 64.8425 65.6157 64.8425ZM64.528 67.2313L64.581 67.2261C64.6733 67.1783 64.8128 66.9138 64.9179 66.5836C65.0293 66.2323 65.0901 65.8551 64.9823 65.8148L64.9302 65.8206C64.8364 65.8694 64.6972 66.1333 64.593 66.4631C64.4797 66.8148 64.4225 67.192 64.528 67.2313ZM64.8128 69.0485C64.9034 68.9205 64.9215 68.7764 64.8542 68.7225L64.7759 68.7047C64.7105 68.7136 64.6325 68.7716 64.5742 68.8573C64.4836 68.9853 64.4655 69.1291 64.5325 69.182L64.6111 69.2014C64.6762 69.1909 64.7552 69.1335 64.8128 69.0485ZM64.7086 71.0388L64.7011 71.0341L64.6671 71.0303C64.5448 71.0603 64.6309 71.6223 64.694 71.9179C64.7836 72.3307 64.905 72.6639 64.9891 72.7192L64.9963 72.7246L65.0296 72.7284C65.1539 72.6984 65.0658 72.1337 65.0031 71.8408C64.9141 71.4256 64.794 71.0945 64.7086 71.0388ZM63.4762 71.7933C63.3775 71.7933 63.2979 71.8705 63.2979 71.9667C63.2979 72.0582 63.3775 72.1354 63.4762 72.1354C63.5742 72.1354 63.6564 72.0582 63.6564 71.9667C63.6568 71.8705 63.5746 71.7933 63.4762 71.7933ZM66.5041 75.8723C66.4495 75.872 66.397 75.8945 66.358 75.9348C66.319 75.9752 66.2967 76.0301 66.296 76.0877C66.296 76.2038 66.3895 76.2997 66.5041 76.2997C66.5584 76.3007 66.6109 76.279 66.6501 76.2393C66.6893 76.1995 66.7119 76.145 66.7131 76.0877C66.7123 76.03 66.6899 75.9749 66.6507 75.9345C66.6116 75.8941 66.5588 75.8718 66.5041 75.8723ZM76.7401 81.5552C76.7466 81.5657 76.7654 81.6012 76.7939 81.5978L76.8058 81.5971L76.8278 81.5623L77.0155 80.9587L77.1622 80.5566L77.2874 80.2507C77.3259 80.1479 77.3259 80.0793 77.288 80.0394C77.2278 79.9813 77.1036 80.0308 77.0884 80.0366C77.0783 80.0452 76.7356 80.6488 76.7356 80.6488C76.6686 80.7566 76.6434 80.9021 76.6434 81.0516C76.6434 81.2646 76.6939 81.4773 76.7401 81.5552ZM77.5965 84.5704L77.6033 84.5096C77.6078 84.4737 77.7107 83.6342 77.466 83.3099C77.4411 83.2748 77.4094 83.2455 77.373 83.2241C77.3367 83.2026 77.2965 83.1894 77.255 83.1853C77.1816 83.1781 77.1311 83.2007 77.1033 83.2495C76.9541 83.5069 77.5395 84.4765 77.5654 84.5185L77.5965 84.5704ZM78.967 86.1674C78.9391 86.167 78.9114 86.1725 78.8854 86.1835C78.8595 86.1944 78.8359 86.2107 78.8159 86.2313C78.796 86.2519 78.7801 86.2765 78.7691 86.3036C78.7582 86.3307 78.7524 86.3598 78.7521 86.3893C78.7521 86.5139 78.8483 86.6105 78.967 86.6105C79.0227 86.6105 79.0762 86.5872 79.1156 86.5456C79.1549 86.5041 79.1771 86.4477 79.1771 86.389C79.1771 86.3302 79.1549 86.2738 79.1156 86.2323C79.0762 86.1907 79.0227 86.1674 78.967 86.1674ZM75.7401 83.4635C75.6395 83.4635 75.5537 83.5462 75.5537 83.6482C75.5537 83.7531 75.6398 83.8336 75.7401 83.8336C75.843 83.8336 75.9259 83.7531 75.9259 83.6482C75.9259 83.5462 75.843 83.4635 75.7401 83.4635ZM78.0916 86.7375L78.069 86.7321C77.9576 86.7321 77.5363 87.1209 77.177 87.5087C77.1453 87.5442 76.3654 88.3882 76.4686 88.4981L76.4744 88.5049L76.4997 88.5104C76.6123 88.5104 77.033 88.1202 77.3903 87.7344C77.424 87.6985 78.2052 86.8577 78.0987 86.7437L78.0916 86.7375ZM75.7495 89.0191C75.6845 89.0191 75.5825 89.0832 75.4916 89.1792C75.3828 89.2939 75.3039 89.4526 75.3621 89.5178L75.366 89.5219L75.3621 89.5178L75.4197 89.5397C75.4861 89.5397 75.5883 89.4769 75.679 89.3789C75.7851 89.2628 75.8667 89.1075 75.8061 89.0416L75.7495 89.0191ZM74.722 90.5809C74.642 90.5809 74.5291 90.6502 74.4304 90.7557C74.3272 90.865 74.2679 90.9858 74.2679 91.0698C74.2679 91.1019 74.276 91.1279 74.2951 91.146L74.3679 91.1753C74.4466 91.1753 74.5628 91.1081 74.6595 91.0019C74.8029 90.8472 74.8605 90.6817 74.7954 90.61L74.722 90.5809ZM69.3501 82.7142C69.196 82.7142 69.0708 82.8067 69.0708 82.9235C69.0708 83.0395 69.1963 83.129 69.3501 83.129C69.5054 83.129 69.6293 83.0395 69.6293 82.9235C69.6297 82.8067 69.5054 82.7142 69.3501 82.7142ZM71.6252 82.8822C71.5158 82.8822 71.4307 82.9443 71.4307 83.0262C71.4307 83.103 71.5158 83.1662 71.6252 83.1662C71.7307 83.1662 71.8181 83.1027 71.8181 83.0262C71.8181 82.946 71.7307 82.8822 71.6252 82.8822ZM74.4019 83.8623L74.4187 83.835C74.4501 83.6971 73.7951 83.4816 73.4449 83.3881C73.0245 83.2748 72.5249 83.1839 72.4145 83.2539L72.4067 83.2594L72.3889 83.2881C72.3572 83.4274 73.0119 83.6401 73.3627 83.7367C73.7828 83.848 74.2825 83.936 74.3945 83.8667L74.4019 83.8623Z" fill="white"/>
</svg>
