<svg width="47" height="47" viewBox="0 0 47 47" fill="none" xmlns="http://www.w3.org/2000/svg">
<path d="M39.3524 12.7397C39.2832 12.7295 32.2283 11.6702 23.4742 10.7207C14.7219 11.6702 7.66881 12.7295 7.59965 12.7397L7.12109 12.8129L9.94568 18.0728C9.96811 18.7804 10.1326 23.5605 10.5943 27.7103C10.8579 30.0811 11.3327 31.3315 14.5387 32.5657C17.4436 33.6819 18.6568 34.0479 19.8308 34.4017C20.3168 34.5481 20.6496 34.6639 20.9711 34.7758C21.5506 34.9771 22.0964 35.1662 23.4031 35.4854L23.4798 35.5016L23.5489 35.4854C24.8575 35.1662 25.4033 34.9771 25.9828 34.7758C26.3044 34.6639 26.6371 34.5501 27.1231 34.4017C28.2952 34.0479 29.5084 33.6819 32.4153 32.5657C35.6231 31.3335 36.0979 30.0811 36.3615 27.7103C36.8213 23.5605 36.9877 18.7804 37.0101 18.0728L39.8347 12.8149L39.3524 12.7397ZM29.1102 18.5527V14.6469H36.2119L35.509 15.9563H29.2991V17.162H34.8585L34.7089 17.4405L34.6828 18.756H29.2991V22.7676L34.608 22.7655L34.6043 22.9668H23.5732V25.8215H34.5519L34.5482 26.0207H23.5676V28.1393H34.4454C34.4435 28.1597 34.4173 28.2918 34.408 28.3366L23.5695 28.3386V32.462H23.3826L23.3807 27.1715H17.8399V31.2827C17.0623 31.115 16.292 30.9094 15.5313 30.6666C14.5723 30.3413 13.9405 30.0587 13.5143 29.7862H17.6567V28.5785H12.6039C12.5741 28.4525 12.5473 28.3258 12.5235 28.1983C12.4662 27.7918 12.4349 27.3814 12.43 26.9702H17.6549V22.9587H12.3515C12.3512 22.8916 12.35 22.8245 12.3478 22.7574H23.3844V19.917L12.2955 19.919C12.2952 19.8526 12.2939 19.7861 12.2917 19.7198L23.3826 19.7177V17.6011L12.2506 17.6072C12.2506 17.6072 12.2412 17.4283 12.2282 17.4059L23.3826 17.3998V14.6469H23.5732V18.5527H29.1102ZM23.7172 32.462V28.5094H34.393C34.208 29.2881 33.8023 29.8676 31.432 30.6707C30.3683 31.0306 28.8111 31.3661 27.4278 31.6487C26.0258 31.9354 24.736 32.1956 23.7172 32.462ZM34.5557 25.6344H23.7284V23.1518H34.6024L34.5557 25.6344ZM10.7458 14.6469H23.2274V17.2209C22.9059 17.2209 14.0396 17.2148 12.1235 17.2209L10.7458 14.6469ZM23.2293 22.5764H12.3441L12.2992 20.1061L23.2293 20.104V22.5764ZM19.9542 33.9137C18.7877 33.5619 17.582 33.198 14.6938 32.0879C11.7066 30.9391 11.3066 29.9062 11.0561 27.6493C10.5925 23.4792 10.428 18.5974 10.4111 18.0545L10.4055 17.9264L7.87444 13.2114C13.0416 12.4614 18.2198 11.8039 23.4069 11.2392V14.4435H10.4205L12.0618 17.4974L12.0861 18.6564L12.1627 22.8651L12.2207 25.9191C12.2356 26.897 12.2506 27.7286 12.3384 28.241C12.5478 29.3247 12.7647 29.9509 15.4715 30.8639C16.522 31.2197 18.0231 31.547 19.4962 31.8479C20.958 32.1448 22.3245 32.4294 23.4031 32.7182V34.9567C22.6281 34.7793 21.8625 34.5567 21.1094 34.2898C20.7879 34.18 20.4514 34.0621 19.9542 33.9137ZM36.5446 17.9264L36.5409 18.0545C36.5241 18.5974 36.3577 23.4792 35.8941 27.6493C35.6436 29.9042 35.2454 30.937 32.2564 32.0879C29.3663 33.198 28.1606 33.5619 26.996 33.9137C26.4988 34.0641 26.1642 34.18 25.8389 34.2919C25.2893 34.483 24.764 34.6639 23.5433 34.9588V32.7222C24.6257 32.4335 25.9922 32.1468 27.4577 31.85C28.9308 31.549 30.4319 31.2197 31.4824 30.8659C34.1893 29.953 34.4042 29.3267 34.6155 28.243C34.7033 27.7307 34.7183 26.9011 34.7332 25.9211L34.7912 22.8672H34.7931L34.8697 18.6584L34.894 17.4995L36.5353 14.4456H23.5433V11.2392C31.3666 12.087 37.8438 13.0284 39.0757 13.2114L36.5446 17.9264Z" fill="black"/>
<path d="M23.416 41.6826H23.5564V46.955H23.416V41.6826Z" fill="black"/>
<path d="M23.5111 46.8109L23.3821 46.8089C17.2189 46.4693 11.4145 43.7895 7.03465 39.2595C2.57998 34.6502 0.14047 28.638 0.17038 22.3289C0.218983 11.4654 5.92799 3.60287 16.2506 0.18909C16.6076 0.231788 17.0301 0.355814 17.3796 0.516439L17.4189 0.534738L17.2563 0.591668C14.8429 1.39886 12.6203 2.53543 10.6556 3.96275L10.635 3.93429C11.1397 3.41175 11.4893 2.92174 11.8295 2.26704L11.7099 2.34837L11.6295 2.39514L11.0126 2.75502C10.3509 3.13726 9.82559 3.43818 9.31339 3.93429C8.64416 4.58289 8.32076 5.32095 8.03475 5.97158L7.85342 6.37212C7.29075 6.94549 6.75611 7.55139 6.26447 8.17559C5.76126 8.81386 5.2949 9.48544 4.86806 10.1865L4.83816 10.1682C5.25502 9.12511 5.43074 8.26099 5.59711 7.32774L5.45878 7.50666L5.36531 7.61036L5.34101 7.63272L5.3354 7.64086L5.16903 7.81978C4.46615 8.57817 3.91096 9.17797 3.50344 10.5301C3.35785 11.0156 3.28772 11.5241 3.29594 12.0347C3.29594 12.2034 3.29968 12.3661 3.30529 12.5287C3.30902 12.6792 3.31276 12.8235 3.31276 12.9679C3.31276 13.094 3.31089 13.218 3.30155 13.342C2.5482 15.2573 2.06964 17.3068 1.88458 19.4336H1.8528C1.74438 18.4169 1.53501 17.7358 1.34994 17.134C1.25432 16.8237 1.16705 16.5104 1.08823 16.1946L1.00037 16.5443C0.757357 17.504 0.620894 18.2197 0.620894 18.9923C0.620894 19.4112 0.66015 19.8463 0.74801 20.3485C0.918121 21.3326 1.31255 22.1398 1.62848 22.7904L1.86028 23.2804C2.03973 25.7304 2.60054 28.0951 3.52213 30.3113L3.49409 30.3276L3.2249 29.8925C2.68653 29.0507 2.28275 28.6583 1.89205 28.276C1.64156 28.0321 1.40415 27.8023 1.14992 27.4689L1.12562 27.4363L1.11253 27.4201L1.01533 27.2859C0.971369 27.2168 0.931412 27.1448 0.895689 27.0703C1.0658 28.7193 1.42098 29.6851 2.32761 30.9721C2.94824 31.8545 3.74832 32.3344 4.33343 32.6841L4.4755 32.7695C4.62879 32.8589 4.7746 32.9443 4.87928 33.0277C5.83764 34.65 6.97869 36.1356 8.2759 37.45L8.2572 37.4784L7.75808 37.1551C7.1546 36.7769 6.50782 36.487 5.83452 36.293C5.50178 36.1873 5.18585 36.0877 4.82133 35.9088L4.45494 35.7176C5.27184 37.1551 5.98033 37.8403 7.34309 38.5133C8.18804 38.9301 8.93391 39.0237 9.5321 39.0989L9.65174 39.1131C9.86858 39.1396 10.0723 39.1619 10.2107 39.2148C11.6304 40.3727 13.1617 41.3592 14.7775 42.1569L14.7682 42.1894C14.2975 42.0331 13.8153 41.9216 13.3269 41.8559C12.7584 41.7726 12.1827 41.7658 11.6127 41.8356C11.1961 41.8929 10.7744 41.8909 10.3584 41.8295L10.22 41.8112C11.4669 42.716 12.4576 43.1511 13.6204 43.2995C14.6784 43.4337 15.385 43.3138 15.9552 43.2182L16.116 43.1897C16.4038 43.1389 16.6768 43.0921 16.9628 43.1043C18.1199 43.5395 19.3013 43.879 20.4772 44.1149L20.4753 44.1494C20.2528 44.1455 20.0302 44.1489 19.8079 44.1596C18.7256 44.2104 18.1031 44.43 17.4451 44.6598C17.167 44.7611 16.8858 44.8519 16.602 44.9322L16.3384 44.9973L16.2599 45.0135H16.2636L16.0842 45.0562C17.5017 45.6024 19.0184 45.7738 20.5089 45.5564C21.5016 45.408 22.1558 45.0928 22.7335 44.8163C22.9634 44.7065 23.169 44.6089 23.3784 44.5276L23.513 44.5195L23.5093 44.3182H23.384C22.149 44.2442 20.9217 44.0599 19.7145 43.7672C19.4453 43.4622 19.2453 43.1836 19.0508 42.9173C18.6994 42.4334 18.3349 41.9312 17.5591 41.248C17.131 40.8719 16.1627 40.3107 14.5999 39.532L14.4055 39.4303C14.7794 40.0708 15.6804 41.307 16.4207 41.9861C17.0806 42.5899 17.5722 42.9763 18.0638 43.2731L18.0489 43.3077C16.0523 42.6632 14.139 41.7456 12.3548 40.577C12.1671 40.1785 11.9883 39.7751 11.8183 39.3673C11.5493 38.7011 11.2421 38.054 10.8986 37.4296C10.4406 36.6245 9.26665 35.4554 8.78249 34.9897L8.66285 34.8678L8.8124 35.4167C9.02551 36.2321 9.31899 37.3503 9.74895 38.0721C10.0293 38.5418 10.2817 38.9098 10.5434 39.229L10.521 39.2555C9.93942 38.792 9.37741 38.3001 8.8367 37.7814C8.02353 36.9986 7.26645 36.1528 6.57852 35.2602L6.43084 34.0626C6.34859 33.3367 6.27195 32.6515 6.10558 31.8464C5.91116 30.9091 5.16716 29.4126 4.85685 28.8108L4.78581 28.6502L4.76525 29.1402C4.74656 29.5631 4.72412 30.0958 4.72412 30.6224C4.72412 31.1348 4.74469 31.6431 4.81385 32.0375C4.8662 32.3405 4.93162 32.621 5.01574 32.8915L4.98583 32.9057C3.97717 31.1968 3.20438 29.3363 2.69214 27.3835L2.75383 27.0805L2.98189 26.1168C3.16882 25.3665 3.34641 24.6549 3.4081 23.8314C3.42305 23.62 3.4324 23.3821 3.4324 23.13C3.4324 22.3553 3.3595 21.4241 3.2249 20.5091L3.20621 20.379L3.1333 20.56C2.85103 21.294 2.32387 22.6623 2.1818 23.5569C2.15358 23.7335 2.13175 23.9112 2.11638 24.0896H2.09021C1.84809 21.9341 1.9105 19.7509 2.27527 17.6159C2.46918 17.1989 2.71584 16.8136 3.00806 16.4711C3.27538 16.1357 3.58008 15.7575 4.03433 14.9849C4.4998 14.196 4.91667 13.2078 5.30923 11.9696C5.24298 12.0392 5.17755 12.1097 5.11295 12.181C4.9821 12.3173 4.83068 12.4535 4.67365 12.5958C4.27548 12.9557 3.77823 13.401 3.28659 14.139L3.1034 14.4318L3.07535 14.4176C3.67392 12.6303 4.5076 10.9469 5.55038 9.41993C5.95603 9.12104 6.21774 8.95432 6.51496 8.80793C6.94679 8.59647 7.39356 8.37688 8.06653 7.81165C8.75586 7.21645 9.38614 6.54455 9.9471 5.80689L9.77699 5.89635C9.52503 6.01059 9.26726 6.10903 9.00494 6.19117C8.60677 6.32739 8.26094 6.44125 7.67957 6.83163L7.65901 6.8052L7.69079 6.77267C7.69079 6.77267 7.73378 6.7259 7.73939 6.73404L8.16934 6.28266C9.16408 5.30188 10.2391 4.42191 11.3809 3.6537L12.1885 3.43615C12.8539 3.25722 13.482 3.08847 14.2952 2.73469C15.2075 2.33821 15.6281 2.10642 15.9683 1.9214L16.0318 1.88683C16.3085 1.73637 16.759 1.48832 17.1609 1.3216H16.9179H16.8637C16.3683 1.32973 15.901 1.40292 15.2505 1.57778V1.57575L15.243 1.57778V1.56558L15.2299 1.54525C15.901 1.25247 16.5983 0.986114 17.3011 0.75026L17.3198 0.746193L17.6208 0.648598L17.6264 0.646565L17.6339 0.650632C17.875 0.790924 18.09 0.957649 18.2564 1.13454L18.2751 1.15487L18.2489 1.163C13.8073 2.87498 10.5322 5.16846 7.94128 8.38298C5.15408 11.8415 3.63055 16.0259 3.53709 20.4786C3.42119 26.0293 5.48495 31.2933 9.34703 35.3008C13.0222 39.1152 18.0077 41.5062 23.384 42.0328H23.5074V41.553C18.2003 41.0528 13.282 38.7065 9.65735 34.9471C5.88686 31.0351 3.87357 25.9012 3.9876 20.4908C4.0792 16.154 5.56346 12.0773 8.27963 8.70626C10.7995 5.57917 13.9737 3.30196 18.7162 1.50052L18.7144 1.49442C18.6914 1.44195 18.6645 1.39163 18.634 1.34396L18.6284 1.33379C18.5608 1.22616 18.4852 1.12483 18.4022 1.03084C18.1689 0.783505 17.8999 0.579502 17.6058 0.426977C17.2498 0.242665 16.8725 0.111358 16.4842 0.036598L16.3309 0.0101661L16.2319 0C11.2164 1.65708 7.35804 4.31247 4.62131 7.82995C1.58174 11.7378 0.0264397 16.6155 0.000268748 22.3289C-0.0296409 28.703 2.43791 34.7763 6.94679 39.4242C11.3753 43.9888 17.2394 46.6788 23.4607 47H23.5018L23.5111 46.8109ZM1.83971 23.2357L1.79485 23.0852L1.83784 23.2052C1.83953 23.2152 1.84016 23.2255 1.83971 23.2357ZM22.6606 44.6516C22.0942 44.9241 21.453 45.2311 20.4846 45.3755C19.2657 45.5581 18.0253 45.4682 16.8394 45.1111C18.7871 45.0999 20.7318 44.9464 22.6606 44.6516ZM16.2842 41.1301C17.26 42.0003 18.2713 42.8868 19.3406 43.6513C18.2975 43.33 17.4918 42.7302 16.5272 41.8458C15.9851 41.3476 15.3888 40.5831 14.9701 39.9833C15.4019 40.3514 15.8337 40.7295 16.2842 41.1301ZM16.1982 42.9925L15.9309 43.0352C15.1757 43.1875 14.4037 43.2149 13.6409 43.1165C12.6988 42.9966 11.9249 42.7058 10.9659 42.0979C12.6857 42.5899 13.669 42.6957 14.7027 42.8055C15.1663 42.8543 15.643 42.9051 16.1982 42.9925ZM9.11337 35.7705C9.84802 37.0982 10.8986 38.9993 11.8725 40.2192C11.0276 39.6052 10.506 38.9993 9.89289 37.9745C9.52462 37.3564 9.25731 36.4252 9.05355 35.6607L9.11337 35.7705ZM9.39938 38.8935C8.84044 38.8203 8.1656 38.7146 7.41412 38.3425C6.31121 37.7976 5.64198 37.2344 5.00266 36.2707C6.05137 37.1124 7.98054 38.2592 9.39938 38.8935ZM4.24183 32.4198C3.69224 32.0863 3.00245 31.6288 2.46221 30.8603C1.73129 29.8213 1.39855 29.0731 1.19105 27.9162C1.94253 29.5143 3.18378 31.2628 4.24183 32.4198ZM4.91854 29.5956C5.20829 31.1144 5.65132 33.2208 6.24952 34.7864C5.62515 33.963 5.19707 33.2493 4.9821 32.005C4.91712 31.5579 4.88835 31.1054 4.8961 30.6529C4.8961 30.291 4.90732 29.927 4.91854 29.5956ZM2.98563 21.7941C2.8043 23.0791 2.58558 24.6366 2.58558 26.6149L2.58745 26.7369C2.408 26.0456 2.26966 25.3807 2.26966 24.6223C2.26966 24.297 2.29583 23.9554 2.35378 23.5854C2.46034 22.9205 2.78561 21.9771 3.0604 21.2431L2.98563 21.7941ZM1.80233 22.7497C1.41911 21.2065 1.14805 18.5572 1.12562 16.9815L1.18918 17.1929C1.40415 17.8924 1.64717 18.6874 1.72755 19.9886C1.7612 20.5234 1.76681 20.9686 1.77242 21.3936C1.77199 21.8458 1.78196 22.298 1.80233 22.7497ZM4.83816 12.8113C4.52971 13.6572 4.23996 14.2936 3.89039 14.8852C3.44175 15.6457 3.14265 16.0198 2.87907 16.3492C2.78561 16.4671 2.69214 16.585 2.5968 16.7131C3.19125 15.3122 3.84366 14.32 4.47924 13.3623L4.83816 12.8113ZM3.56326 12.5613C3.93713 10.9082 4.50728 9.39756 5.29241 7.9865C5.09616 9.06003 4.74739 10.0938 4.25866 11.0506C3.92217 11.7439 3.72589 12.1709 3.56326 12.5613ZM9.18066 6.46362C8.79918 6.89369 8.39135 7.29515 7.95997 7.66525C7.3057 8.21829 6.86827 8.43178 6.44393 8.6412C6.33177 8.6961 6.21774 8.75303 6.10184 8.81403C7.13746 7.83401 8.19364 7.12442 8.93204 6.63034L9.18066 6.46362ZM9.55266 4.72318C9.00868 5.22132 8.64416 5.5629 8.32076 5.88008C9.20496 4.65202 10.2163 3.78993 10.9304 3.18606L11.2313 2.92988C10.8107 3.55204 10.3434 3.99528 9.55266 4.72318ZM16.0618 1.66521L15.8898 1.75671C15.3508 2.05589 14.798 2.32463 14.2335 2.56186C13.7178 2.78575 13.1888 2.97186 12.6502 3.11897C12.8764 3.0112 13.0988 2.90344 13.3157 2.79568C14.2503 2.33617 15.0859 1.9275 16.0618 1.66521Z" fill="black"/>
<path d="M23.4975 47H23.5387C29.7599 46.6808 35.624 43.9908 40.0525 39.4242C44.5613 34.7742 47.027 28.703 46.999 22.3289C46.9728 16.6155 45.4175 11.7378 42.378 7.82995C39.6412 4.31247 35.7848 1.65911 30.7693 0L30.6702 0.0101661L30.5151 0.036598C30.1449 0.107761 29.7299 0.248053 29.3953 0.424944C29.1016 0.578005 28.8326 0.78195 28.599 1.02881C28.5153 1.12268 28.439 1.22402 28.3709 1.33176L28.3653 1.34193C28.3348 1.39029 28.3079 1.44129 28.2849 1.49442L28.2831 1.50052C33.0256 3.30196 36.1998 5.5812 38.7196 8.70626C41.4377 12.0773 42.9219 16.154 43.0117 20.4908C43.1257 25.9012 41.1105 31.0351 37.3419 34.9471C33.7191 38.7065 28.8009 41.0528 23.4938 41.553L23.4919 42.0328H23.6153C28.9916 41.5062 33.9771 39.1152 37.6522 35.3008C41.5143 31.2933 43.5781 26.0293 43.4603 20.4807C43.3668 16.0279 41.8433 11.8435 39.058 8.38502C36.4671 5.17049 33.192 2.87701 28.7504 1.16504L28.7261 1.1569L28.7448 1.13657C28.9112 0.959682 29.1261 0.792957 29.3673 0.652665L29.3729 0.648598L29.3785 0.650632L29.6795 0.748226L29.6963 0.752293C30.3992 0.988147 31.0983 1.25653 31.7675 1.54728L31.7563 1.56762V1.57981L31.7488 1.57778V1.57981C31.2223 1.42553 30.6807 1.34021 30.1356 1.32566H30.0814H29.8384C30.2384 1.49239 30.6908 1.73841 30.9693 1.8909L31.031 1.92546C31.3694 2.11049 31.79 2.34227 32.7041 2.73875C33.5191 3.09253 34.1472 3.26129 34.8108 3.44021L35.6165 3.65574C36.7755 4.43649 37.8541 5.32095 38.8281 6.2847L39.258 6.73607C39.2636 6.72794 39.3085 6.7747 39.3085 6.7747L39.3384 6.80723L39.3197 6.83163C38.7383 6.44125 38.3925 6.32536 37.9943 6.19117C37.7663 6.1139 37.5289 6.03461 37.2223 5.89635L37.0541 5.80689C37.613 6.54651 38.2435 7.21863 38.9346 7.81165C39.6057 8.37688 40.0544 8.59647 40.4862 8.80793C40.7834 8.95432 41.0451 9.11901 41.4508 9.41993C42.4928 10.9474 43.3264 12.6307 43.9258 14.4176L43.8959 14.4318L43.7127 14.137C43.221 13.3989 42.7257 12.9537 42.3275 12.5938C42.1759 12.4614 42.0287 12.323 41.8863 12.179L41.6919 11.9676C42.0845 13.2058 42.5032 14.196 42.9668 14.9828C43.421 15.7534 43.7258 16.1336 43.9931 16.4671C44.2454 16.7843 44.4641 17.0567 44.7277 17.6118C45.0886 19.7487 45.1504 21.9326 44.9109 24.0896H44.8773C44.8616 23.9113 44.8404 23.7337 44.8137 23.5569C44.6716 22.6623 44.1445 21.294 43.8622 20.56L43.7893 20.379L43.7706 20.5091C43.6342 21.4241 43.5631 22.3553 43.5631 23.13C43.5631 23.3841 43.5706 23.62 43.5856 23.8314C43.6472 24.6549 43.823 25.3665 44.0118 26.1168L44.2417 27.0805L44.3034 27.3835C43.7911 29.3363 43.0184 31.1968 42.0097 32.9057L41.9798 32.8915C42.0639 32.621 42.1312 32.3405 42.1835 32.0375C42.2517 31.5696 42.2817 31.096 42.2733 30.6224C42.2733 30.0958 42.2508 29.5631 42.234 29.1402L42.2135 28.6502L42.1405 28.8108C41.8284 29.4126 41.0862 30.9091 40.8918 31.8464C40.7254 32.6515 40.6469 33.3367 40.5647 34.0626L40.417 35.2602C39.7232 36.1607 38.9683 37.0034 38.1588 37.7814C37.6317 38.2897 37.0653 38.7858 36.4764 39.2555L36.454 39.229C36.7157 38.9098 36.9681 38.5438 37.2485 38.0721C37.6784 37.3524 37.9719 36.2341 38.185 35.4167L38.3346 34.8678L38.2149 34.9897C37.7308 35.4554 36.5568 36.6245 36.0988 37.4296C35.7212 38.0924 35.4576 38.7105 35.1791 39.3673C35.0127 39.7577 34.8407 40.1623 34.6426 40.577C32.8589 41.7451 30.9463 42.6627 28.9504 43.3077L28.9373 43.2731C29.429 42.9763 29.9206 42.592 30.5805 41.9861C31.3208 41.307 32.2218 40.0708 32.5957 39.4303L32.4012 39.532C30.8385 40.3107 29.8701 40.8719 29.4421 41.248C28.6644 41.9291 28.3018 42.4334 27.9485 42.9173C27.754 43.1857 27.554 43.4642 27.2848 43.7672C26.0567 44.064 24.8248 44.247 23.6153 44.3182H23.4901L23.4863 44.5195L23.6209 44.5276C23.8303 44.6089 24.0378 44.7065 24.2658 44.8163C24.8416 45.0949 25.4959 45.408 26.4885 45.5564C27.9796 45.7738 29.4969 45.6024 30.9151 45.0562L30.7338 45.0135H30.7375L30.659 44.9973L30.3954 44.9302C30.1115 44.8505 29.8303 44.7596 29.5524 44.6577C28.8925 44.428 28.2719 44.2084 27.1895 44.1576C26.9672 44.1469 26.7446 44.1435 26.5221 44.1474L26.5184 44.1128C27.7121 43.8721 28.8875 43.5343 30.0347 43.1023C30.3188 43.0901 30.5917 43.1389 30.8815 43.1877L31.0422 43.2162C31.6124 43.3117 32.319 43.4317 33.377 43.2975C34.5416 43.1491 35.5324 42.714 36.7793 41.8092L36.6391 41.8275C36.0801 41.9068 35.7418 41.8702 35.3847 41.8336C34.8154 41.7637 34.2402 41.7706 33.6724 41.8539C33.1842 41.9207 32.7021 42.0323 32.2311 42.1874L32.2199 42.1548C33.8358 41.3559 35.3675 40.3695 36.7886 39.2128C36.9269 39.1619 37.1307 39.1375 37.3457 39.1111L37.4672 39.0969C38.0654 39.0216 38.8094 38.9281 39.6543 38.5113C41.0171 37.8383 41.7255 37.1531 42.5425 35.7156L42.1761 35.9067C41.848 36.0631 41.5092 36.1916 41.1629 36.291C40.6264 36.4618 40.073 36.6367 39.2393 37.1531L38.7402 37.4764L38.7215 37.4479C40.0182 36.133 41.1592 34.6475 42.1181 33.0257C42.2482 32.9304 42.3837 32.8441 42.5238 32.7674L42.6658 32.682C43.2491 32.3323 44.051 31.8525 44.6716 30.9701C45.5764 29.683 45.9316 28.7152 46.1054 27.0622C46.0697 27.1367 46.0298 27.2087 45.9858 27.2777L45.8886 27.4119C45.884 27.4171 45.8796 27.4226 45.8755 27.4282L45.8512 27.4607C45.5951 27.7962 45.3577 28.026 45.1091 28.2679C44.7184 28.6502 44.3127 29.0426 43.7762 29.8843L43.5052 30.3194L43.4771 30.3032C44.4006 28.087 44.9576 25.7223 45.139 23.2723C45.139 23.2662 45.3708 22.7823 45.3708 22.7823C45.6867 22.1337 46.0811 21.3245 46.2512 20.3404C46.3372 19.8402 46.3784 19.4051 46.3784 18.9842C46.3784 18.2116 46.24 17.4959 45.9989 16.5362L45.9129 16.1865C45.8329 16.5021 45.745 16.8154 45.6493 17.1258C45.4019 17.8691 45.2331 18.6406 45.1465 19.4254H45.1147C44.9354 17.3273 44.4574 15.2723 43.6977 13.3339C43.6901 13.2121 43.6864 13.09 43.6865 12.9679C43.6865 12.8235 43.6902 12.6792 43.6958 12.5308C43.6996 12.3681 43.7052 12.2054 43.7052 12.0367C43.7052 11.5812 43.6697 11.0953 43.4996 10.5301C43.0902 9.17797 42.535 8.5802 41.8321 7.81978L41.6676 7.64289L41.6601 7.63476L41.6358 7.61036L41.5424 7.50666L41.404 7.32774C41.5704 8.26099 41.7461 9.12714 42.163 10.1682L42.1331 10.1865C41.7056 9.48591 41.2393 8.81437 40.7367 8.17559C40.2375 7.54291 39.7064 6.94083 39.1459 6.37212L38.9645 5.97158C38.6785 5.32095 38.3551 4.58289 37.684 3.93429C37.1718 3.43818 36.6484 3.13523 35.9848 2.75502L35.3698 2.39514L35.2894 2.34837L35.1697 2.26704C35.51 2.92174 35.8595 3.41175 36.3643 3.93429L36.3437 3.96275C34.3045 2.49739 32.0804 1.36184 29.7412 0.591668L29.5804 0.536771L29.6215 0.518472C29.9711 0.355814 30.3917 0.233821 30.7506 0.191123C41.0713 3.60491 46.7803 11.4674 46.8307 22.3309C46.8606 28.64 44.4211 34.6522 39.9665 39.2616C35.5866 43.7916 29.7823 46.4734 23.6191 46.8109L23.4901 46.8129L23.4975 47ZM45.1614 23.2052C45.1764 23.1666 45.1913 23.1279 45.2044 23.0852L45.1595 23.2357L45.1614 23.2052ZM30.1599 45.1111C28.9743 45.4701 27.7336 45.5601 26.5147 45.3755C25.5463 45.2311 24.9033 44.9221 24.3369 44.6516C26.0791 44.9322 28.1597 45.0949 30.1599 45.1111ZM32.0292 39.9833C31.6086 40.5831 31.0142 41.3476 30.4721 41.8458C29.5075 42.7302 28.7018 43.33 27.6587 43.6513C28.7261 42.8868 29.7374 42.0003 30.7151 41.1301C31.1656 40.7295 31.5974 40.3514 32.0292 39.9833ZM32.2966 42.8034C33.5595 42.6932 34.8105 42.4563 36.0334 42.0959C35.0744 42.7038 34.3024 42.9946 33.3583 43.1145C32.3246 43.2446 31.6572 43.1328 31.0703 43.0332L30.803 42.9905C31.3563 42.9051 31.833 42.8543 32.2966 42.8034ZM37.9457 35.6628C37.742 36.4272 37.4747 37.3585 37.1064 37.9766C36.4932 39.0013 35.9717 39.6072 35.1268 40.2212C36.1007 39.0013 37.1513 37.0982 37.8859 35.7725L37.9457 35.6628ZM41.9966 36.2707C41.3573 37.2344 40.6899 37.7976 39.5851 38.3425C38.8337 38.7146 38.1588 38.8203 37.5999 38.8935C39.0206 38.2592 40.9479 37.1124 41.9966 36.2707ZM45.8082 27.9162C45.6007 29.0731 45.2661 29.8233 44.5371 30.8603C43.9968 31.6288 43.307 32.0863 42.7574 32.4198C43.8173 31.2628 45.0586 29.5143 45.8082 27.9162ZM42.1032 30.6529C42.1032 31.1449 42.0807 31.6288 42.0172 32.005C41.8022 33.2493 41.3741 33.963 40.7498 34.7864C41.3479 33.2208 41.791 31.1144 42.0807 29.5956C42.0938 29.927 42.1032 30.291 42.1032 30.6529ZM43.9389 21.2452C44.2136 21.9792 44.5408 22.9226 44.6455 23.5874C44.7034 23.9575 44.7296 24.2991 44.7296 24.6244C44.7296 25.3807 44.5913 26.0476 44.4118 26.7389L44.4137 26.6169C44.4137 24.6366 44.195 23.0791 44.0136 21.7962C43.9891 21.6124 43.9642 21.4288 43.9389 21.2452ZM45.2231 21.8023L45.225 21.3915C45.2287 20.9686 45.2381 20.5213 45.2698 19.9866C45.3483 18.6853 45.5932 17.8924 45.8082 17.1909L45.8718 16.9795C45.8475 18.5532 45.5783 21.2045 45.1951 22.7477C45.2138 22.4244 45.2212 22.1133 45.2231 21.8023ZM42.5219 13.3623C43.1556 14.322 43.808 15.3122 44.4025 16.7131C44.3071 16.585 44.2136 16.4671 44.1202 16.3492C43.2764 15.308 42.6127 14.1094 42.1611 12.8113C42.2807 12.9984 42.4023 13.1814 42.5219 13.3623ZM42.7406 11.0506C42.253 10.0939 41.9043 9.06106 41.7069 7.98854C42.492 9.39959 43.064 10.9082 43.436 12.5633C43.2196 12.0508 42.9877 11.5463 42.7406 11.0506ZM38.0672 6.63034C38.8075 7.12442 39.8618 7.83401 40.8974 8.81403C40.7843 8.75424 40.6703 8.69662 40.5553 8.6412C40.0119 8.39239 39.502 8.06478 39.0393 7.66729C38.6085 7.29719 38.2013 6.89572 37.8205 6.46565L38.0672 6.63034ZM35.7679 2.92988L36.0708 3.18606C36.7849 3.7879 37.7943 4.65202 38.6804 5.88008C38.2758 5.48685 37.8651 5.10116 37.4485 4.72318C36.6559 3.99528 36.1885 3.55204 35.7679 2.92988ZM33.6836 2.79568C33.9005 2.90344 34.1229 3.0112 34.3491 3.11897C33.8111 2.97183 33.2828 2.78572 32.7676 2.56186C31.8629 2.16945 31.4441 1.9397 31.1095 1.75671C31.0534 1.72498 30.9967 1.69448 30.9394 1.66521C31.9133 1.9275 32.7508 2.33617 33.6836 2.79568Z" fill="black"/>
</svg>
