<svg width="150" height="150" viewBox="0 0 150 150" fill="none" xmlns="http://www.w3.org/2000/svg">
<rect width="150" height="150" fill="white"/>
<path d="M92.1662 63.5522C92.0904 63.5413 84.352 62.4144 74.7498 61.4043C65.1496 62.4144 57.4133 63.5413 57.3374 63.5522L56.8125 63.63L59.9107 69.2257C59.9353 69.9784 60.1158 75.0636 60.6222 79.4783C60.9113 82.0004 61.4321 83.3306 64.9487 84.6436C68.135 85.8311 69.4658 86.2204 70.7535 86.5968C71.2866 86.7525 71.6516 86.8758 72.0042 86.9947C72.6399 87.2089 73.2386 87.41 74.6719 87.7496L74.7559 87.7669L74.8318 87.7496C76.2671 87.41 76.8658 87.2089 77.5015 86.9947C77.8541 86.8758 78.2191 86.7547 78.7522 86.5968C80.0379 86.2204 81.3686 85.8311 84.557 84.6436C88.0756 83.3328 88.5964 82.0004 88.8855 79.4783C89.3899 75.0636 89.5724 69.9784 89.597 69.2257L92.6953 63.6322L92.1662 63.5522ZM80.9319 69.7362V65.581H88.7215L87.9505 66.974H81.139V68.2567H87.237L87.0729 68.553L87.0442 69.9525H81.139V74.2201L86.9622 74.2179L86.9581 74.432H74.8584V77.4689H86.9007L86.8966 77.6809H74.8523V79.9347H86.7838C86.7818 79.9563 86.7531 80.0969 86.7428 80.1445L74.8543 80.1467V84.5333H74.6493L74.6473 78.9051H68.5697V83.2787C67.7168 83.1003 66.8718 82.8816 66.0374 82.6233C64.9856 82.2772 64.2925 81.9766 63.825 81.6867H68.3688V80.4019H62.8264C62.7938 80.2679 62.7644 80.133 62.7383 79.9974C62.6754 79.565 62.6411 79.1285 62.6358 78.691H68.3667V74.4234H62.5496C62.5493 74.352 62.5479 74.2806 62.5455 74.2093H74.6514V71.1875L62.4881 71.1897C62.4878 71.119 62.4864 71.0484 62.484 70.9777L74.6493 70.9756V68.7239L62.4389 68.7304C62.4389 68.7304 62.4287 68.54 62.4143 68.5162L74.6493 68.5098V65.581H74.8584V69.7362H80.9319ZM75.0163 84.5333V80.3284H86.7264C86.5234 81.1568 86.0785 81.7733 83.4785 82.6276C82.3118 83.0105 80.6038 83.3674 79.0865 83.668C77.5486 83.973 76.1338 84.2499 75.0163 84.5333ZM86.9048 77.2699H75.0286V74.6289H86.9561L86.9048 77.2699ZM60.7883 65.581H74.4791V68.3194C74.1264 68.3194 64.4012 68.3129 62.2995 68.3194L60.7883 65.581ZM74.4812 74.0167H62.5414L62.4922 71.3887L74.4812 71.3865V74.0167ZM70.8888 86.0776C69.6093 85.7034 68.2868 85.3163 65.1188 84.1353C61.8422 82.9132 61.4034 81.8144 61.1287 79.4134C60.6202 74.9771 60.4397 69.7838 60.4213 69.2062L60.4151 69.07L57.6388 64.054C63.3066 63.2561 68.9864 62.5567 74.676 61.9559V65.3647H60.4315L62.2318 68.6136L62.2585 69.8465L62.3425 74.3239L62.4061 77.5727C62.4225 78.6131 62.4389 79.4978 62.5353 80.0429C62.7649 81.1957 63.0028 81.8619 65.9718 82.8331C67.1242 83.2117 68.7707 83.5599 70.3864 83.88C71.9899 84.1958 73.4888 84.4986 74.6719 84.8058V87.1873C73.8218 86.9985 72.9819 86.7616 72.156 86.4778C71.8033 86.361 71.4342 86.2355 70.8888 86.0776ZM89.0865 69.07L89.0824 69.2062C89.0639 69.7838 88.8814 74.9771 88.3729 79.4134C88.0982 81.8122 87.6614 82.911 84.3828 84.1353C81.2128 85.3163 79.8902 85.7034 78.6128 86.0776C78.0674 86.2377 77.7004 86.361 77.3436 86.4799C76.7408 86.6833 76.1646 86.8758 74.8256 87.1894V84.8101C76.0128 84.503 77.5117 84.198 79.1193 83.8822C80.735 83.5621 82.3815 83.2117 83.5339 82.8353C86.5029 81.8641 86.7387 81.1979 86.9704 80.045C87.0668 79.5 87.0832 78.6174 87.0996 77.5749L87.1632 74.3261H87.1652L87.2493 69.8486L87.2759 68.6157L89.0762 65.3669H74.8256V61.9559C83.4067 62.8578 90.5115 63.8593 91.8628 64.054L89.0865 69.07Z" fill="black"/>
<path d="M74.6816 94.3438H74.8356V99.9527H74.6816V94.3438Z" fill="black"/>
<path d="M74.7888 99.7987L74.6473 99.7966C67.887 99.4353 61.5203 96.5845 56.7161 91.7654C51.8299 86.8618 49.1541 80.4658 49.1869 73.7541C49.2402 62.1972 55.5023 53.8328 66.8248 50.2012C67.2165 50.2466 67.6799 50.3785 68.0633 50.5494L68.1064 50.5689L67.928 50.6294C65.2808 51.4881 62.8429 52.6973 60.6878 54.2157L60.6653 54.1854C61.2189 53.6295 61.6023 53.1082 61.9755 52.4117L61.8443 52.4983L61.7561 52.548L61.0795 52.9309C60.3536 53.3375 59.7774 53.6576 59.2156 54.1854C58.4816 54.8754 58.1268 55.6606 57.8131 56.3527L57.6142 56.7788C56.997 57.3888 56.4106 58.0334 55.8713 58.6974C55.3194 59.3764 54.8078 60.0909 54.3397 60.8366L54.3069 60.8172C54.7641 59.7075 54.9568 58.7883 55.1393 57.7954L54.9876 57.9858L54.8851 58.0961L54.8584 58.1199L54.8523 58.1286L54.6698 58.3189C53.8988 59.1257 53.2898 59.7638 52.8428 61.2022C52.6831 61.7187 52.6062 62.2596 52.6152 62.8028C52.6152 62.9823 52.6193 63.1554 52.6255 63.3284C52.6296 63.4885 52.6337 63.642 52.6337 63.7956C52.6337 63.9297 52.6316 64.0617 52.6214 64.1936C51.7951 66.2311 51.2701 68.4114 51.0671 70.6739H51.0323C50.9134 69.5924 50.6837 68.8678 50.4807 68.2276C50.3758 67.8975 50.2801 67.5643 50.1937 67.2283L50.0973 67.6003C49.8307 68.6213 49.681 69.3826 49.681 70.2046C49.681 70.6502 49.7241 71.113 49.8205 71.6473C50.0071 72.6942 50.4397 73.5529 50.7862 74.2451L51.0405 74.7663C51.2373 77.3728 51.8525 79.8883 52.8633 82.246L52.8326 82.2633L52.5373 81.8004C51.9468 80.9049 51.5039 80.4875 51.0753 80.0808C50.8006 79.8213 50.5402 79.5769 50.2613 79.2221L50.2347 79.1875L50.2203 79.1702L50.1137 79.0274C50.0655 78.954 50.0216 78.8774 49.9825 78.7982C50.169 80.5524 50.5586 81.5798 51.5531 82.949C52.2339 83.8877 53.1114 84.3982 53.7532 84.7702L53.9091 84.8611C54.0772 84.9562 54.2371 85.0471 54.352 85.1358C55.4032 86.8616 56.6548 88.442 58.0776 89.8403L58.0571 89.8706L57.5097 89.5266C56.8477 89.1243 56.1383 88.8159 55.3997 88.6095C55.0348 88.4971 54.6882 88.3911 54.2884 88.2007L53.8865 87.9974C54.7826 89.5266 55.5597 90.2556 57.0545 90.9715C57.9813 91.4149 58.7994 91.5144 59.4555 91.5945L59.5868 91.6096C59.8246 91.6377 60.0481 91.6615 60.1998 91.7178C61.7571 92.9496 63.4367 93.999 65.2091 94.8476L65.1988 94.8822C64.6826 94.716 64.1536 94.5973 63.6179 94.5275C62.9944 94.4388 62.3629 94.4316 61.7377 94.5059C61.2807 94.5668 60.8182 94.5647 60.3618 94.4994L60.2101 94.4799C61.5777 95.4424 62.6645 95.9053 63.9399 96.0632C65.1004 96.206 65.8755 96.0784 66.5009 95.9767L66.6772 95.9464C66.993 95.8924 67.2923 95.8426 67.6061 95.8556C68.8753 96.3185 70.1712 96.6797 71.4609 96.9306L71.4588 96.9674C71.2148 96.9632 70.9707 96.9669 70.7268 96.9782C69.5396 97.0323 68.8568 97.2659 68.1351 97.5103C67.8301 97.618 67.5216 97.7147 67.2103 97.8001L66.9212 97.8693L66.8351 97.8866H66.8392L66.6423 97.9321C68.1972 98.513 69.8608 98.6954 71.4958 98.4642C72.5845 98.3063 73.3022 97.971 73.9358 97.6768C74.188 97.56 74.4135 97.4562 74.6432 97.3697L74.7908 97.361L74.7867 97.1469H74.6493C73.2947 97.0682 71.9485 96.8721 70.6243 96.5607C70.329 96.2363 70.1097 95.9399 69.8964 95.6566C69.5109 95.1418 69.1111 94.6075 68.2601 93.8808C67.7906 93.4806 66.7285 92.8836 65.0143 92.0552L64.801 91.947C65.2111 92.6284 66.1994 93.9435 67.0114 94.6659C67.7352 95.3083 68.2745 95.7193 68.8138 96.0351L68.7974 96.0719C66.6074 95.3862 64.5087 94.4101 62.5517 93.167C62.3458 92.743 62.1496 92.3139 61.9632 91.88C61.6681 91.1713 61.3312 90.4829 60.9544 89.8187C60.452 88.9621 59.1644 87.7184 58.6333 87.2231L58.5021 87.0933L58.6661 87.6773C58.8999 88.5446 59.2218 89.7343 59.6934 90.5022C60.0009 91.0018 60.2778 91.3933 60.5648 91.7329L60.5402 91.761C59.9023 91.2679 59.2859 90.7447 58.6928 90.1929C57.8008 89.3601 56.9704 88.4603 56.2158 87.5107L56.0538 86.2367C55.9636 85.4645 55.8795 84.7356 55.6971 83.8791C55.4838 82.8819 54.6677 81.2899 54.3274 80.6497L54.2494 80.4788L54.2269 81.0001C54.2064 81.45 54.1818 82.0167 54.1818 82.5769C54.1818 83.122 54.2043 83.6628 54.2802 84.0824C54.3376 84.4047 54.4094 84.7032 54.5016 84.9908L54.4688 85.006C53.3625 83.188 52.5148 81.2087 51.9529 79.1313L52.0206 78.809L52.2708 77.7837C52.4758 76.9856 52.6706 76.2285 52.7383 75.3525C52.7547 75.1276 52.7649 74.8745 52.7649 74.6063C52.7649 73.7822 52.6849 72.7915 52.5373 71.8182L52.5168 71.6797L52.4368 71.8722C52.1272 72.6531 51.549 74.1088 51.3932 75.0605C51.3622 75.2483 51.3383 75.4374 51.3214 75.6272H51.2927C51.0271 73.3341 51.0956 71.0115 51.4957 68.7402C51.7084 68.2967 51.9789 67.8868 52.2995 67.5225C52.5927 67.1656 52.9269 66.7632 53.4252 65.9413C53.9357 65.1021 54.393 64.0508 54.8236 62.7336C54.7509 62.8076 54.6791 62.8826 54.6083 62.9585C54.4647 63.1034 54.2987 63.2484 54.1264 63.3998C53.6897 63.7826 53.1442 64.2563 52.605 65.0415L52.404 65.353L52.3733 65.3378C53.0298 63.4365 53.9443 61.6456 55.0881 60.0212C55.533 59.7032 55.8201 59.5258 56.1461 59.3701C56.6198 59.1452 57.1098 58.9116 57.848 58.3102C58.6041 57.6771 59.2954 56.9623 59.9107 56.1775L59.7241 56.2727C59.4478 56.3942 59.165 56.4989 58.8773 56.5863C58.4406 56.7313 58.0612 56.8524 57.4235 57.2677L57.401 57.2396L57.4358 57.205C57.4358 57.205 57.483 57.1552 57.4891 57.1639L57.9607 56.6837C59.0519 55.6403 60.231 54.7041 61.4834 53.8869L62.3692 53.6555C63.0992 53.4651 63.7881 53.2856 64.6801 52.9092C65.6807 52.4874 66.142 52.2409 66.5152 52.044L66.5849 52.0073C66.8884 51.8472 67.3826 51.5833 67.8234 51.4059H67.5568H67.4974C66.954 51.4146 66.4414 51.4925 65.7278 51.6785V51.6763L65.7196 51.6785V51.6655L65.7053 51.6439C66.4414 51.3324 67.2062 51.0491 67.9772 50.7981L67.9977 50.7938L68.3278 50.69L68.334 50.6878L68.3422 50.6922C68.6067 50.8414 68.8425 51.0188 69.025 51.207L69.0455 51.2286L69.0168 51.2372C64.1449 53.0585 60.5525 55.4983 57.7106 58.918C54.6534 62.5973 52.9823 67.0488 52.8797 71.7857C52.7526 77.6907 55.0163 83.2907 59.2525 87.554C63.2837 91.6118 68.7523 94.1555 74.6493 94.7157H74.7847V94.2052C68.9635 93.6731 63.5687 91.177 59.5929 87.1776C55.4572 83.016 53.2488 77.5544 53.3739 71.7987C53.4744 67.185 55.1024 62.8482 58.0817 59.262C60.8457 55.9353 64.3274 53.5127 69.5294 51.5963L69.5273 51.5898C69.5021 51.534 69.4727 51.4805 69.4392 51.4297L69.433 51.4189C69.3589 51.3044 69.2759 51.1966 69.1849 51.0966C68.929 50.8335 68.6339 50.6165 68.3114 50.4542C67.9209 50.2582 67.507 50.1185 67.0811 50.0389L66.913 50.0108L66.8043 50C61.303 51.7628 57.0709 54.5877 54.069 58.3297C50.735 62.487 49.029 67.676 49.0003 73.7541C48.9675 80.5351 51.6741 86.9959 56.6198 91.9406C61.4773 96.7965 67.9095 99.6581 74.7334 99.9999H74.7785L74.7888 99.7987ZM51.0179 74.7188L50.9687 74.5587L51.0159 74.6863C51.0177 74.697 51.0184 74.7079 51.0179 74.7188ZM73.8558 97.5016C73.2345 97.7915 72.5312 98.1181 71.4691 98.2717C70.1321 98.4659 68.7715 98.3703 67.4707 97.9905C69.6071 97.9786 71.7402 97.8152 73.8558 97.5016ZM66.8617 93.7553C67.9321 94.6811 69.0414 95.6241 70.2142 96.4374C69.0701 96.0957 68.1863 95.4576 67.1283 94.5167C66.5337 93.9867 65.8796 93.1735 65.4203 92.5354C65.8939 92.9269 66.3676 93.3292 66.8617 93.7553ZM66.7674 95.7366L66.4742 95.782C65.6458 95.944 64.799 95.9732 63.9624 95.8686C62.929 95.7409 62.0801 95.4316 61.0282 94.7849C62.9146 95.3083 63.9932 95.4208 65.1271 95.5376C65.6356 95.5895 66.1584 95.6436 66.7674 95.7366ZM58.9962 88.0536C59.8021 89.4661 60.9544 91.4885 62.0227 92.7863C61.0959 92.1331 60.5238 91.4885 59.8513 90.3983C59.4473 89.7408 59.1541 88.7501 58.9306 87.9368L58.9962 88.0536ZM59.3099 91.376C58.6969 91.2981 57.9566 91.1857 57.1324 90.7898C55.9226 90.2102 55.1885 89.611 54.4873 88.5857C55.6376 89.4812 57.7537 90.7012 59.3099 91.376ZM53.6528 84.489C53.0499 84.1343 52.2933 83.6476 51.7007 82.83C50.899 81.7247 50.534 80.9287 50.3064 79.698C51.1307 81.3981 52.4922 83.2583 53.6528 84.489ZM54.395 81.4846C54.7128 83.1004 55.1988 85.3412 55.8549 87.0068C55.1701 86.1307 54.7005 85.3715 54.4647 84.0478C54.3935 83.5721 54.3619 83.0908 54.3704 82.6094C54.3704 82.2244 54.3827 81.8372 54.395 81.4846ZM52.2749 73.1852C52.076 74.5522 51.8361 76.2091 51.8361 78.3137L51.8381 78.4434C51.6413 77.708 51.4895 77.0007 51.4895 76.1939C51.4895 75.8478 51.5182 75.4845 51.5818 75.0908C51.6987 74.3835 52.0555 73.3799 52.3569 72.599L52.2749 73.1852ZM50.9769 74.2018C50.5566 72.5601 50.2593 69.7417 50.2347 68.0654L50.3044 68.2903C50.5402 69.0344 50.8067 69.8801 50.8949 71.2644C50.9318 71.8333 50.938 72.307 50.9441 72.7591C50.9437 73.2402 50.9546 73.7213 50.9769 74.2018ZM54.3069 63.6291C53.9685 64.5289 53.6507 65.2059 53.2673 65.8353C52.7752 66.6443 52.4471 67.0423 52.158 67.3927C52.0555 67.5181 51.9529 67.6436 51.8484 67.7799C52.5004 66.2895 53.216 65.234 53.9132 64.2152L54.3069 63.6291ZM52.9084 63.363C53.3185 61.6045 53.9439 59.9974 54.8051 58.4963C54.5898 59.6383 54.2073 60.738 53.6712 61.7559C53.3021 62.4935 53.0868 62.9477 52.9084 63.363ZM59.07 56.8762C58.6516 57.3337 58.2043 57.7608 57.7311 58.1545C57.0134 58.7428 56.5336 58.97 56.0682 59.1927C55.9452 59.2511 55.8201 59.3117 55.693 59.3766C56.8289 58.334 57.9874 57.5791 58.7973 57.0535L59.07 56.8762ZM59.4781 55.0246C58.8814 55.5546 58.4816 55.918 58.1268 56.2554C59.0967 54.9489 60.206 54.0318 60.9893 53.3894L61.3194 53.1169C60.858 53.7788 60.3454 54.2503 59.4781 55.0246ZM66.6177 51.7715L66.4291 51.8688C65.8379 52.1871 65.2315 52.473 64.6124 52.7254C64.0467 52.9636 63.4665 53.1615 62.8757 53.318C63.1238 53.2034 63.3678 53.0888 63.6056 52.9741C64.6309 52.4853 65.5474 52.0505 66.6177 51.7715Z" fill="black"/>
<path d="M74.774 99.9999H74.8191C81.643 99.6603 88.0752 96.7986 92.9327 91.9406C97.8784 86.9938 100.583 80.5351 100.552 73.7541C100.523 67.676 98.8175 62.487 95.4835 58.3297C92.4816 54.5877 88.2516 51.765 82.7502 50L82.6416 50.0108L82.4714 50.0389C82.0654 50.1146 81.6102 50.2639 81.2432 50.4521C80.9209 50.6149 80.6259 50.8319 80.3697 51.0945C80.2779 51.1943 80.1942 51.3021 80.1195 51.4168L80.1134 51.4276C80.0798 51.479 80.0504 51.5333 80.0252 51.5898L80.0232 51.5963C85.2251 53.5127 88.7068 55.9374 91.4708 59.262C94.4521 62.8482 96.0802 67.185 96.1786 71.7987C96.3037 77.5544 94.0933 83.016 89.9596 87.1776C85.9858 91.177 80.5911 93.6731 74.7699 94.2052L74.7679 94.7157H74.9032C80.8003 94.1555 86.2688 91.6118 90.3 87.554C94.5362 83.2907 96.7999 77.6907 96.6707 71.7879C96.5682 67.0509 94.897 62.5995 91.8419 58.9202C89 55.5005 85.4076 53.0606 80.5358 51.2394L80.5091 51.2307L80.5296 51.2091C80.7121 51.0209 80.9479 50.8436 81.2124 50.6943L81.2186 50.69L81.2247 50.6922L81.5548 50.796L81.5733 50.8003C82.3442 51.0512 83.1111 51.3367 83.8452 51.646L83.8329 51.6677V51.6807L83.8247 51.6785V51.6807C83.2471 51.5165 82.6531 51.4258 82.0551 51.4103H81.9957H81.7291C82.1679 51.5876 82.6641 51.8494 82.9696 52.0116L83.0373 52.0484C83.4084 52.2452 83.8698 52.4918 84.8724 52.9136C85.7664 53.2899 86.4554 53.4695 87.1833 53.6598L88.067 53.8891C89.3383 54.7197 90.5214 55.6606 91.5897 56.6858L92.0613 57.166C92.0674 57.1574 92.1167 57.2071 92.1167 57.2071L92.1495 57.2417L92.129 57.2677C91.4913 56.8524 91.1119 56.7291 90.6752 56.5863C90.425 56.5041 90.1646 56.4198 89.8284 56.2727L89.6438 56.1775C90.257 56.9644 90.9485 57.6794 91.7066 58.3102C92.4427 58.9116 92.9348 59.1452 93.4084 59.3701C93.7345 59.5258 94.0215 59.7011 94.4665 60.0212C95.6095 61.6462 96.5238 63.4369 97.1812 65.3378L97.1484 65.353L96.9475 65.0393C96.4082 64.2542 95.8649 63.7805 95.4281 63.3976C95.2618 63.2568 95.1004 63.1096 94.9442 62.9564L94.731 62.7314C95.1616 64.0487 95.6209 65.1021 96.1294 65.9391C96.6276 66.7589 96.9618 67.1634 97.2551 67.5181C97.5319 67.8556 97.7718 68.1454 98.0609 68.7359C98.4567 71.0092 98.5245 73.3326 98.2618 75.6272H98.2249C98.2077 75.4375 98.1845 75.2485 98.1552 75.0605C97.9994 74.1088 97.4211 72.6531 97.1115 71.8722L97.0316 71.6797L97.0111 71.8182C96.8614 72.7915 96.7835 73.7822 96.7835 74.6063C96.7835 74.8767 96.7917 75.1276 96.8081 75.3525C96.8757 76.2285 97.0685 76.9856 97.2756 77.7837L97.5278 78.809L97.5954 79.1313C97.0336 81.2087 96.1859 83.188 95.0795 85.006L95.0467 84.9908C95.139 84.7032 95.2128 84.4047 95.2702 84.0824C95.345 83.5846 95.3779 83.0808 95.3687 82.5769C95.3687 82.0167 95.344 81.45 95.3256 81.0001L95.303 80.4788L95.2231 80.6497C94.8806 81.2899 94.0666 82.8819 93.8534 83.8791C93.6709 84.7356 93.5848 85.4645 93.4945 86.2367L93.3326 87.5107C92.5715 88.4687 91.7436 89.3653 90.8556 90.1929C90.2774 90.7336 89.6561 91.2614 89.0102 91.761L88.9856 91.7329C89.2727 91.3933 89.5495 91.004 89.8571 90.5022C90.3287 89.7365 90.6506 88.5468 90.8843 87.6773L91.0484 87.0933L90.9171 87.2231C90.3861 87.7184 89.0984 88.9621 88.596 89.8187C88.1819 90.5238 87.8927 91.1813 87.5872 91.88C87.4047 92.2953 87.2161 92.7257 86.9987 93.167C85.0422 94.4096 82.9443 95.3857 80.7552 96.0719L80.7408 96.0351C81.2801 95.7193 81.8193 95.3105 82.5431 94.6659C83.3551 93.9435 84.3434 92.6284 84.7535 91.947L84.5403 92.0552C82.8261 92.8836 81.764 93.4806 81.2944 93.8808C80.4414 94.6054 80.0437 95.1418 79.6561 95.6566C79.4429 95.9421 79.2235 96.2384 78.9282 96.5607C77.5811 96.8765 76.2298 97.0712 74.9032 97.1469H74.7658L74.7617 97.361L74.9093 97.3697C75.139 97.4562 75.3666 97.56 75.6168 97.6768C76.2483 97.9732 76.9659 98.3063 78.0547 98.4642C79.6903 98.6954 81.3546 98.513 82.9102 97.9321L82.7113 97.8866H82.7154L82.6293 97.8693L82.3401 97.798C82.0287 97.7131 81.7202 97.6165 81.4154 97.5081C80.6916 97.2637 80.0108 97.0301 78.8236 96.976C78.5798 96.9647 78.3357 96.9611 78.0916 96.9652L78.0875 96.9284C79.3968 96.6723 80.6861 96.313 81.9444 95.8534C82.2561 95.8404 82.5554 95.8924 82.8733 95.9443L83.0496 95.9745C83.675 96.0762 84.4501 96.2038 85.6106 96.0611C86.888 95.9032 87.9748 95.4403 89.3424 94.4778L89.1886 94.4972C88.5755 94.5816 88.2044 94.5426 87.8128 94.5037C87.1882 94.4294 86.5574 94.4367 85.9346 94.5253C85.3991 94.5964 84.8702 94.7151 84.3537 94.8801L84.3414 94.8455C86.1138 93.9955 87.7939 92.9462 89.3527 91.7156C89.5044 91.6615 89.7279 91.6356 89.9637 91.6075L90.097 91.5923C90.7531 91.5123 91.5692 91.4128 92.496 90.9694C93.9908 90.2534 94.7679 89.5245 95.6639 87.9952L95.262 88.1986C94.9022 88.365 94.5306 88.5016 94.1507 88.6074C93.5622 88.7891 92.9553 88.9751 92.0408 89.5245L91.4933 89.8684L91.4728 89.8381C92.8951 88.4393 94.1466 86.8589 95.1985 85.1336C95.3411 85.0322 95.4898 84.9405 95.6434 84.8589L95.7992 84.768C96.439 84.396 97.3186 83.8855 97.9994 82.9468C98.9918 81.5776 99.3814 80.548 99.5721 78.7895C99.5329 78.8687 99.489 78.9453 99.4408 79.0188L99.3342 79.1616C99.3292 79.1671 99.3244 79.1729 99.3199 79.1789L99.2932 79.2135C99.0123 79.5704 98.7519 79.8148 98.4792 80.0722C98.0506 80.4788 97.6057 80.8963 97.0172 81.7918L96.7199 82.2546L96.6891 82.2373C97.7021 79.8797 98.3131 77.3641 98.512 74.7577C98.512 74.7512 98.7662 74.2364 98.7662 74.2364C99.1128 73.5464 99.5454 72.6855 99.732 71.6386C99.8263 71.1065 99.8714 70.6437 99.8714 70.1959C99.8714 69.374 99.7197 68.6126 99.4552 67.5917L99.3609 67.2196C99.2731 67.5554 99.1767 67.8887 99.0717 68.2189C98.8003 69.0096 98.6153 69.8304 98.5202 70.6653H98.4853C98.2887 68.4333 97.7643 66.2471 96.9311 64.1849C96.9228 64.0554 96.9187 63.9255 96.9188 63.7956C96.9188 63.642 96.9229 63.4885 96.929 63.3306C96.9331 63.1575 96.9393 62.9845 96.9393 62.805C96.9393 62.3204 96.9003 61.8035 96.7137 61.2022C96.2647 59.7638 95.6557 59.1279 94.8847 58.3189L94.7043 58.1307L94.6961 58.1221L94.6695 58.0961L94.5669 57.9858L94.4152 57.7954C94.5977 58.7883 94.7904 59.7097 95.2477 60.8172L95.2149 60.8366C94.746 60.0914 94.2345 59.377 93.6832 58.6974C93.1356 58.0244 92.5531 57.3838 91.9383 56.7788L91.7394 56.3527C91.4257 55.6606 91.0709 54.8754 90.3348 54.1854C89.773 53.6576 89.1989 53.3353 88.471 52.9309L87.7964 52.548L87.7082 52.4983L87.577 52.4117C87.9502 53.1082 88.3336 53.6295 88.8872 54.1854L88.8647 54.2157C86.6279 52.6568 84.1884 51.4488 81.6225 50.6294L81.4462 50.571L81.4913 50.5516C81.8747 50.3785 82.336 50.2487 82.7297 50.2033C94.0502 53.835 100.312 62.1993 100.368 73.7562C100.4 80.468 97.7246 86.864 92.8384 91.7675C88.0342 96.5867 81.6676 99.4397 74.9073 99.7987L74.7658 99.8009L74.774 99.9999ZM98.5366 74.6863C98.553 74.6452 98.5694 74.6041 98.5837 74.5587L98.5345 74.7188L98.5366 74.6863ZM82.0818 97.9905C80.7814 98.3724 79.4204 98.4681 78.0834 98.2717C77.0213 98.1181 76.316 97.7893 75.6947 97.5016C77.6057 97.8001 79.8878 97.9732 82.0818 97.9905ZM84.1322 92.5354C83.6709 93.1735 83.0188 93.9867 82.4242 94.5167C81.3662 95.4576 80.4824 96.0957 79.3383 96.4374C80.5091 95.6241 81.6184 94.6811 82.6908 93.7553C83.1849 93.3292 83.6586 92.9269 84.1322 92.5354ZM84.4254 95.5355C85.8108 95.4182 87.1829 95.1662 88.5243 94.7827C87.4724 95.4295 86.6256 95.7388 85.5901 95.8664C84.4562 96.0048 83.7242 95.8859 83.0804 95.7799L82.7871 95.7345C83.3941 95.6436 83.9169 95.5895 84.4254 95.5355ZM90.6219 87.939C90.3984 88.7523 90.1052 89.7429 89.7012 90.4005C89.0287 91.4907 88.4566 92.1352 87.5298 92.7884C88.5981 91.4907 89.7504 89.4661 90.5563 88.0558L90.6219 87.939ZM95.0652 88.5857C94.3639 89.611 93.6319 90.2102 92.4201 90.7898C91.5958 91.1857 90.8556 91.2981 90.2425 91.376C91.8009 90.7012 93.9149 89.4812 95.0652 88.5857ZM99.246 79.698C99.0184 80.9287 98.6514 81.7269 97.8517 82.83C97.2592 83.6476 96.5025 84.1343 95.8997 84.489C97.0623 83.2583 98.4238 81.3981 99.246 79.698ZM95.1821 82.6094C95.1821 83.1328 95.1575 83.6476 95.0877 84.0478C94.8519 85.3715 94.3824 86.1307 93.6975 87.0068C94.3537 85.3412 94.8396 83.1004 95.1575 81.4846C95.1718 81.8372 95.1821 82.2244 95.1821 82.6094ZM97.1956 72.6012C97.497 73.382 97.8558 74.3857 97.9707 75.093C98.0342 75.4866 98.0629 75.85 98.0629 76.1961C98.0629 77.0007 97.9112 77.7102 97.7144 78.4456L97.7164 78.3158C97.7164 76.2091 97.4765 74.5522 97.2776 73.1874C97.2507 72.9919 97.2234 72.7965 97.1956 72.6012ZM98.6042 73.1938L98.6063 72.7569C98.6104 72.307 98.6206 71.8312 98.6555 71.2623C98.7416 69.878 99.0102 69.0344 99.246 68.2882L99.3157 68.0632C99.2891 69.7374 98.9938 72.5579 98.5735 74.1996C98.594 73.8557 98.6022 73.5248 98.6042 73.1938ZM95.6414 64.2152C96.3365 65.2362 97.0521 66.2895 97.7041 67.7799C97.5995 67.6436 97.497 67.5181 97.3945 67.3927C96.469 66.285 95.741 65.01 95.2456 63.6291C95.3769 63.8281 95.5101 64.0227 95.6414 64.2152ZM95.8813 61.7559C95.3464 60.7382 94.964 59.6394 94.7474 58.4984C95.6086 59.9995 96.236 61.6045 96.644 63.3652C96.4067 62.82 96.1523 62.2833 95.8813 61.7559ZM90.7552 57.0535C91.5671 57.5791 92.7236 58.334 93.8595 59.3766C93.7355 59.313 93.6104 59.2517 93.4843 59.1927C92.8882 58.9281 92.3289 58.5795 91.8214 58.1567C91.3489 57.7629 90.9022 57.3359 90.4845 56.8783L90.7552 57.0535ZM88.2331 53.1169L88.5653 53.3894C89.3486 54.0297 90.4558 54.9489 91.4277 56.2554C90.984 55.8371 90.5335 55.4268 90.0765 55.0246C89.2071 54.2503 88.6945 53.7788 88.2331 53.1169ZM85.9469 52.9741C86.1847 53.0888 86.4287 53.2034 86.6768 53.318C86.0867 53.1615 85.5072 52.9635 84.9422 52.7254C83.9497 52.3079 83.4904 52.0635 83.1234 51.8688C83.0618 51.8351 82.9996 51.8026 82.9368 51.7715C84.0051 52.0505 84.9237 52.4853 85.9469 52.9741Z" fill="black"/>
</svg>
