<svg width="150" height="150" viewBox="0 0 150 150" fill="none" xmlns="http://www.w3.org/2000/svg">
<rect width="150" height="150" fill="white"/>
<g clip-path="url(#clip0_557:483)">
<path fill-rule="evenodd" clip-rule="evenodd" d="M52.7285 89.1316C49.629 91.8063 45.7621 93.2817 41.7655 93.3145C32.4159 93.3145 24.0007 85.1577 24.0007 75.1125C23.9797 72.5515 24.4365 70.0115 25.3448 67.6383C26.2532 65.2651 27.5951 63.1056 29.2936 61.2841C32.4552 57.9682 36.7031 56.0751 41.1503 56C45.4218 56 49.4784 57.2303 52.7574 60.2076C55.9041 57.4904 59.8415 56.0123 63.9002 56.0246C67.9588 56.0369 71.8882 57.539 75.0199 60.2752C78.1645 57.4659 82.1673 55.9678 86.279 56.0615C90.2995 56.0851 94.1911 57.5679 97.3058 60.2629C100.631 57.5139 104.737 56.0395 108.954 56.08C112.837 56.1779 116.574 57.6676 119.557 60.306C122.357 62.7416 124.381 66.0331 125.354 69.732C126.326 73.431 126.199 77.3576 124.99 80.9772C123.78 84.5969 121.548 87.7334 118.596 89.9598C115.645 92.1862 112.118 93.3941 108.495 93.4191C104.397 93.4916 100.413 91.9857 97.2825 89.1808C94.1649 91.8436 90.2995 93.3305 86.2963 93.4068C82.161 93.4919 78.1364 91.9862 74.9678 89.1685C71.7934 91.8561 67.8585 93.3338 63.7958 93.3638C59.7434 93.4299 55.8076 91.9249 52.7285 89.1316Z" fill="#231F20"/>
<path fill-rule="evenodd" clip-rule="evenodd" d="M48.8342 84.4323C47.215 81.6559 46.3309 78.4687 46.2748 75.2051C46.2278 71.5627 47.1273 67.9768 48.8749 64.84C46.6199 63.1278 43.9239 62.1896 41.1503 62.1519C34.6909 62.1519 29.8623 68.5247 29.8623 75.0698C29.8623 81.7564 35.6253 87.0713 41.748 87.0713C44.3195 87.0346 46.8086 86.1054 48.8342 84.4262V84.4323Z" fill="white"/>
<path fill-rule="evenodd" clip-rule="evenodd" d="M52.6938 78.5889C53.1356 77.2858 53.3443 75.9068 53.3092 74.5226C53.3024 73.213 53.1066 71.9124 52.7286 70.6655C52.3497 71.8889 52.1539 73.1674 52.148 74.455C52.1358 75.8607 52.3318 77.2598 52.7286 78.6012L52.6938 78.5889Z" fill="white"/>
<path fill-rule="evenodd" clip-rule="evenodd" d="M56.5703 84.4311C58.8189 86.2484 61.5905 87.1872 64.4167 87.0886C66.8674 87.0075 69.2257 86.0784 71.1315 84.4435C69.3844 81.3591 68.4897 77.8167 68.5489 74.2198C68.6326 70.9224 69.5376 67.7073 71.172 64.9004C69.0456 63.2035 66.4685 62.2607 63.8074 62.2061C61.186 62.211 58.6434 63.1563 56.5935 64.8881C58.374 68.0787 59.2653 71.7385 59.1645 75.4439C59.0847 78.6335 58.1879 81.7402 56.5703 84.4311Z" fill="white"/>
<path fill-rule="evenodd" clip-rule="evenodd" d="M74.9564 78.6132C75.3757 77.3218 75.5992 75.9679 75.6183 74.6024C75.6245 73.2914 75.4041 71.9904 74.968 70.7637C74.5839 72.0174 74.3879 73.3272 74.3874 74.6454C74.3309 76.0057 74.5281 77.3645 74.968 78.644L74.9564 78.6132Z" fill="white"/>
<path fill-rule="evenodd" clip-rule="evenodd" d="M78.792 84.47C81.0403 86.2537 83.784 87.195 86.5919 87.1459C89.0825 87.0696 91.4787 86.1198 93.4054 84.4454C91.7595 81.608 90.8672 78.3521 90.8228 75.0214C90.8078 71.4751 91.7155 67.993 93.446 64.9577C91.3719 63.205 88.7977 62.2505 86.1451 62.2505C83.4924 62.2505 80.9184 63.205 78.8442 64.9577C80.614 68.0227 81.5108 71.5644 81.4268 75.1567C81.37 78.4623 80.4587 81.6879 78.792 84.4823V84.47Z" fill="white"/>
<path fill-rule="evenodd" clip-rule="evenodd" d="M97.2587 78.6315C97.6477 77.3199 97.8436 75.9525 97.8393 74.5775C97.833 73.28 97.6372 71.9914 97.2587 70.7573C96.8765 71.9722 96.6709 73.2417 96.6491 74.5222C96.6357 75.916 96.8317 77.303 97.2297 78.6315H97.2587Z" fill="white"/>
<path fill-rule="evenodd" clip-rule="evenodd" d="M101.153 84.4995C103.24 86.2167 105.8 87.1629 108.442 87.1939C109.99 87.1882 111.521 86.8591 112.948 86.2253C114.375 85.5916 115.67 84.6656 116.759 83.5005C117.848 82.3353 118.71 80.954 119.294 79.4354C119.879 77.917 120.175 76.2911 120.166 74.6511C120.166 67.8845 114.664 62.2437 108.332 62.2437C105.724 62.2883 103.201 63.2296 101.142 64.9257C102.805 67.8571 103.701 71.2059 103.736 74.6265C103.736 78.1266 102.645 81.393 101.142 84.4688L101.153 84.4995Z" fill="white"/>
</g>
<defs>
<clipPath id="clip0_557:483">
<rect width="102" height="38.5232" fill="white" transform="translate(24 56)"/>
</clipPath>
</defs>
</svg>
