<svg width="150" height="150" viewBox="0 0 150 150" fill="none" xmlns="http://www.w3.org/2000/svg">
<rect width="150" height="150" fill="white"/>
<path d="M92.6781 57.3221C90.3619 54.9935 87.6068 53.1474 84.5724 51.8906C81.538 50.6338 78.2844 49.9912 75.0001 50.0001C61.2147 50.0001 50 61.2148 50 75.0002C50.0003 79.9446 51.4668 84.7779 54.2139 88.889C56.961 93 60.8654 96.2042 65.4335 98.0964C70.0015 99.9886 75.0281 100.484 79.8775 99.5193C84.727 98.5549 89.1816 96.1742 92.6781 92.6782C97.3663 87.9895 100 81.6306 100 75.0002C100 68.3697 97.3663 62.0108 92.6781 57.3221ZM75.0001 99.1356C70.2265 99.1356 65.5602 97.72 61.5912 95.0679C57.6222 92.416 54.5287 88.6465 52.702 84.2364C50.8753 79.8262 50.3973 74.9734 51.3286 70.2916C52.2598 65.6098 54.5585 61.3093 57.9338 57.9339C61.3092 54.5585 65.6098 52.2599 70.2915 51.3287C74.9733 50.3974 79.8261 50.8754 84.2363 52.7021C88.6464 54.5288 92.4159 57.6223 95.0679 61.5914C97.7199 65.5603 99.1355 70.2267 99.1355 75.0002C99.1355 88.3081 88.308 99.1356 75.0001 99.1356Z" fill="black"/>
<path d="M75 88.8312C78.668 88.8309 82.1857 87.3736 84.7794 84.7799C87.373 82.1861 88.8302 78.6682 88.8306 75H75V88.8312Z" fill="black"/>
<path d="M61.1689 75.0022H74.9995V61.1709C71.3315 61.1712 67.8138 62.6285 65.2201 65.2223C62.6265 67.8161 61.1693 71.334 61.1689 75.0022Z" fill="black"/>
<path d="M74.9999 51.8599C62.2205 51.8599 51.8594 62.221 51.8594 75.0004C51.8594 87.7797 62.2205 98.1448 74.9999 98.1448C87.7792 98.1448 98.1443 87.7807 98.1443 75.0004C98.1443 62.22 87.7802 51.8599 74.9999 51.8599ZM74.9999 89.7817C72.0764 89.7817 69.2185 88.9148 66.7877 87.2906C64.3569 85.6664 62.4624 83.3579 61.3436 80.6569C60.2249 77.956 59.9322 74.9839 60.5025 72.1166C61.0728 69.2493 62.4806 66.6155 64.5478 64.5483C66.615 62.4811 69.2488 61.0733 72.1161 60.503C74.9834 59.9327 77.9555 60.2254 80.6565 61.3441C83.3574 62.4629 85.6659 64.3574 87.2901 66.7882C88.9143 69.219 89.7812 72.0769 89.7812 75.0004C89.7812 78.9206 88.2239 82.6803 85.4519 85.4523C82.6798 88.2244 78.9201 89.7817 74.9999 89.7817Z" fill="black"/>
<path d="M75.7746 59.2141L77.3794 54.9611V59.2141H78.5991V53.1235H76.7666L75.0996 57.4848H75.1177L73.4506 53.1235H71.6182V59.2141H72.8378V54.9611L74.4426 59.2141H75.7746Z" fill="white"/>
<path d="M92.17 61.7485L89.8741 64.9985L93.4338 63.3093L94.3756 64.4728L88.7738 67.1891L87.6675 65.8119L89.8711 62.5901L89.858 62.573L86.2482 64.0586L85.1318 62.6904L88.9523 57.7754L89.8952 58.939L87.502 62.0695L91.159 60.4997L92.17 61.7485Z" fill="white"/>
<path d="M64.1435 60.8965C63.654 60.421 62.8967 60.2766 62.1856 60.7179C62.293 60.4246 62.2958 60.1033 62.1936 59.8082C61.8867 59.2494 61.7804 59.1802 61.5277 58.9676C60.7102 58.2824 59.8506 58.8672 59.2358 59.6005L56.2578 63.1393L60.9339 67.0633L64.0683 63.3279C64.7804 62.4742 64.8917 61.6287 64.1435 60.8965ZM58.0993 62.6016L59.8847 60.4741C60.0913 60.2284 60.5587 60.2384 60.8596 60.4903C61.1896 60.768 61.1906 61.1612 60.9689 61.4251L59.2037 63.5315L58.0993 62.6016ZM63.0251 62.9558L61.1646 65.1735L59.997 64.1945L61.8737 61.9587C62.0023 61.8236 62.1774 61.7424 62.3637 61.7316C62.55 61.7207 62.7333 61.7812 62.8767 61.9006C63.2317 62.2054 63.2669 62.6649 63.0201 62.9588L63.0251 62.9558Z" fill="white"/>
</svg>
