<svg width="150" height="150" viewBox="0 0 150 150" fill="none" xmlns="http://www.w3.org/2000/svg">
<rect width="150" height="150" fill="white"/>
<path d="M32.0398 56.0005C28.3382 55.9658 24.8421 57.9256 24.8421 57.9256C24.8421 57.9256 21.32 60.1603 20.0334 63.5089C19.967 63.8341 12.9892 78.0117 12.9892 78.0117C4.14449 75.3323 -0.131692 80.7615 0.00308816 82.857C2.13992 88.4729 12.589 84.478 13.6323 83.1777C14.2098 82.8532 14.5819 83.2419 14.5819 83.2419C14.5819 83.2419 17.1409 85.0267 17.4301 85.1672C17.7191 85.3077 19.1761 85.1031 19.1761 85.1031C20.3092 85.0128 22.3309 82.6866 22.5758 82.6644C22.9536 82.6656 23.4093 85.2414 24.9648 85.1993C26.8311 85.5772 28.8544 83.3704 28.8544 83.3704C29.1208 82.9755 29.222 83.2739 29.222 83.2739C29.1791 85.6944 31.0555 85.2675 31.6108 85.1993C33.4548 84.4131 37.9713 79.7514 37.4609 81.1243C37.2834 81.4963 35.8989 84.2044 35.8989 84.2044C35.7438 84.926 36.2358 84.8783 36.2358 84.8783L39.4822 84.8463C40.0373 84.4985 42.8777 78.0905 42.5451 78.9745C43.5688 77.0336 45.8835 76.3434 45.8835 76.3434C46.1058 76.274 46.006 76.6 46.006 76.6L42.2082 84.4933C42.1419 84.7022 42.5143 84.9104 42.5143 84.9104L45.8221 84.8463C46.2666 84.8013 49.0381 78.846 49.0381 78.846C49.7924 77.3349 52.4686 76.4717 52.4686 76.4717C52.957 76.3798 52.6216 76.8888 52.6216 76.8888L50.0183 82.6002C49.6227 85.1933 51.7024 85.3452 52.591 85.2313C53.4796 85.0944 54.9248 84.5701 57.767 82.3434C58.345 81.8801 58.4715 82.3463 58.4715 82.4399C58.496 85.6286 61.8406 85.2634 61.8406 85.2634C62.8405 85.5223 66.8992 85.4221 70.2938 78.3327C69.0527 83.1471 71.5831 84.4581 71.6722 84.6218C71.7613 84.7845 73.1217 85.2823 73.6322 85.1672C78.8096 85.648 80.983 77.2098 80.983 77.2098C82.148 76.2941 82.4439 76.0314 82.9126 75.7657C84.0683 75.8849 84.3785 75.9191 84.9341 75.9904C85.3782 76.1549 84.9757 76.5892 84.842 76.7283C79.5571 81.0427 81.8769 84.3698 82.055 84.3009C84.3678 87.5894 89.1687 81.8569 90.0795 81.766C91.2381 86.6113 94.763 84.5019 94.9188 84.5253C94.6081 85.4788 93.7041 87.8366 92.9279 89.3704C91.3074 91.7636 88.7625 89.0818 88.7625 89.0818L88.1192 89.0497C87.8086 89.4676 87.9968 89.9481 87.9968 89.9481C88.6638 91.0674 89.518 92.6163 92.1622 92.9963C94.8283 93.1205 96.3582 90.0443 96.3582 90.0443C96.3582 90.0443 100.096 82.8192 100.34 81.9584C101.472 80.891 103.438 79.3498 104.903 78.2365C105.858 78.0299 102.513 83.7437 102.27 84.5574C102.203 85.0231 102.361 85.0389 102.361 85.0389C102.361 85.0389 104.905 85.1713 105.393 85.1031C105.882 85.0346 108.256 79.1267 109.099 78.012C109.832 76.7338 112.193 75.5412 112.193 75.5412C112.704 75.4264 112.53 76.0546 112.53 76.0546L109.406 82.6646C108.652 85.4316 110.774 85.446 111.152 85.424C112.173 85.3565 115.991 83.0494 115.991 83.0494C116.524 82.6318 116.511 83.3062 116.511 83.3062C116.467 84.1908 117.379 85.6399 118.134 85.4558C120.845 85.7195 124.945 81.0021 125.056 81.445C125.079 81.5384 123.525 84.7501 123.525 84.7501C123.592 85.0061 123.862 85.1351 123.862 85.1351C123.862 85.1351 126.487 85.1653 127.109 85.1672C127.731 85.1691 130.56 78.085 131.182 77.6908C132.448 76.3214 133.833 76.1915 133.877 76.2149C134.344 76.1934 131.236 81.3931 131.06 82.4397C130.373 85.4407 132.407 85.3917 132.407 85.3917C134.029 85.6528 138.006 82.6969 138.073 82.953C138.539 82.466 138.594 83.0494 138.594 83.0494V83.2739C138.863 85.6959 140.217 85.4237 140.217 85.4237C141.773 85.8473 147.844 80.5146 147.844 80.5146L146.925 79.4558L143.127 82.3434C142.816 82.5059 142.637 82.151 142.637 82.151L146.894 73.5518C147.094 73.3431 146.802 73.1026 146.802 73.1026H142.974C142.707 73.4041 142.545 73.6159 142.545 73.6159L139.084 80.6751L135.286 82.6323C134.887 82.7472 134.98 82.3116 134.98 82.3116C134.98 82.3116 138.144 75.8064 138.41 74.8994C138.588 74.481 138.502 73.8086 138.502 73.8086C137.456 71.2679 133.23 74.5569 132.652 74.5787C132.63 74.6019 133.173 73.4235 133.173 73.4235C133.329 73.0746 133.02 73.0705 133.02 73.0705L129.467 73.0384C129.467 73.0384 129.478 72.774 129.345 73.0063C129.211 73.2387 126.925 77.7231 126.925 77.7231L121.198 82.2472C120.709 82.3394 120.83 81.9907 120.83 81.9907L125.026 73.4876L125.057 73.1346L121.014 73.0384L117.675 79.7765C117.498 79.9857 114 82.0548 114 82.0548C113.467 82.2166 113.449 81.7339 113.449 81.7339L116.542 75.445C117.243 72.9915 114.684 72.2702 113.418 72.7496C112.562 73.0726 111.764 73.3593 111.764 73.3593C111.764 73.3593 111.511 73.4283 111.734 73.1026C112.111 72.5449 116.021 64.4391 116.021 64.4391C116.111 64.2063 115.899 64.0541 115.899 64.0541L112.346 64.022C112.057 64.1603 112.009 64.375 112.009 64.375L106.956 74.4181L102.79 77.6911C102.524 77.8765 102.514 77.5625 102.514 77.5625L104.597 73.4235V73.0061L100.861 72.974L100.248 73.4874C99.8252 72.555 97.6808 72.566 97.6139 72.589C93.1257 72.4358 90.6001 79.1026 90.6001 79.1026C88.1028 81.3706 86.9489 82.0764 86.1286 82.2149C85.446 82.2551 85.2402 81.6693 85.2402 81.6693C84.2894 78.6175 90.2631 75.7334 90.2631 75.7334C90.4633 75.6173 91.324 72.9101 91.2128 72.9099C91.1015 72.9097 83.8675 72.901 83.8008 72.8778C83.4006 72.7139 81.4684 74.6189 80.8911 75.0597C79.1991 69.8641 72.6431 73.7937 71.7334 76.1185C71.3428 76.2276 71.1676 76.1515 70.9677 76.1505C71.0335 74.382 70.8094 73.2792 69.7426 72.7172C69.1646 72.3899 66.8025 72.7172 66.8025 72.7172L70.8146 64.3427C71.0143 64.0871 70.6307 63.8294 70.6307 63.8294H67.0168C66.8612 63.9222 66.6799 64.15 66.6799 64.15C66.6799 64.15 59.8511 78.0062 59.4515 78.7498C59.0522 79.4934 54.061 82.2793 54.061 82.2793C54.1049 81.7676 57.3197 75.9115 57.4303 74.7711C57.5612 71.8155 54.3368 72.7496 54.3368 72.7496C54.3368 72.7496 52.5108 74.0194 50.8453 74.8994C50.4873 71.6626 47.7823 72.7816 47.7823 72.7816L44.7196 74.8673L45.2709 73.3593L45.3935 72.7816L41.7179 72.6854C41.2965 73.0102 40.5543 74.7711 40.5543 74.7711L39.3904 77.0171L34.1531 81.1564C33.6423 81.4572 33.908 80.7393 33.908 80.7393C33.908 80.7393 37.444 73.4735 37.5219 73.4232C37.8107 73.2378 37.5834 72.7819 37.5834 72.7819L34.0304 72.7496C34.0304 72.7496 33.4287 73.8205 33.2956 73.9368C31.6051 71.4407 26.0268 72.4538 23.0352 79.8409C22.6527 80.3346 22.3569 80.6802 22.147 80.7714C18.6393 85.0672 16.6338 80.8034 16.6338 80.8034L22.9127 68.2575C22.9127 68.2575 25.7694 61.5618 27.5681 59.6582C32.1207 56.4363 33.418 59.4658 33.418 59.4658C33.8114 60.4207 35.0109 63.8679 28.8238 65.5302C28.0122 65.6142 28.2724 66.0112 28.2724 66.0112C30.0732 67.6228 32.2847 67.4553 32.2847 67.4553C34.4624 67.9038 40.3635 64.5018 38.2264 59.0487C36.5588 56.7656 34.2607 56.0213 32.0398 56.0005ZM125.485 64.5035C122.242 64.6335 122.052 69.1942 125.363 69.6693C128.584 69.7722 129.197 64.6543 125.485 64.5033V64.5035ZM147.568 64.5035C144.057 64.5164 144.319 69.7061 147.629 69.6693C150.94 69.4 150.657 64.6287 147.568 64.5033V64.5035ZM31.6723 74.2254C32.7105 74.2503 32.5289 75.5537 32.3462 75.7978C32.4574 76.1936 30.539 79.5838 30.539 79.5838C28.3192 82.487 27.2618 81.9581 27.2618 81.9581C27.2618 81.9581 26.5011 81.8476 27.0781 80.2898C27.6994 79.1976 28.9061 76.3554 30.1714 74.7065C30.8378 74.3477 31.3259 74.2171 31.6723 74.2254ZM66.496 74.5461C67.5849 74.6893 67.0474 75.7334 67.0474 75.7334L64.0457 81.9261C63.0913 83.1574 62.2081 82.7283 62.2081 82.7283C61.7193 82.354 62.5451 80.9315 62.5451 80.9315L65.3629 75.1559C65.9176 74.5521 66.496 74.5461 66.496 74.5461ZM97.7364 74.5784C98.5862 74.4205 98.9311 75.1559 98.9311 75.1559C98.9311 75.1559 98.9804 75.2742 98.8696 75.9261C98.6261 76.9264 95.9906 81.7016 95.9906 81.7016C94.8808 82.8623 93.9079 82.6321 93.9079 82.6321C93.3526 82.4674 93.571 81.6054 93.571 81.6054C93.571 81.6054 95.7051 77.0207 96.7257 75.0918C97.1255 74.7845 97.4531 74.6309 97.7364 74.5784ZM77.3076 74.6105C77.777 74.5275 78.2227 74.7302 78.1346 75.7655C77.5804 76.9975 75.3933 81.5235 74.9494 82.1506C74.8608 82.6862 72.6273 83.5587 73.2034 81.6054C73.2034 81.6054 76.3363 75.467 76.3582 75.188C76.3692 75.0482 76.8384 74.6933 77.3076 74.6105ZM6.77178 79.6485C8.60296 79.6025 10.2633 80.2257 10.2633 80.2257C10.2633 80.2257 9.83494 81.7215 5.79154 82.4076C3.88087 82.2863 2.88258 82.2951 2.8819 81.5736C3.81416 80.1202 5.34746 79.6839 6.77178 79.6482V79.6485Z" fill="#231F20"/>
</svg>
