<svg width="37" height="47" viewBox="0 0 37 47" fill="none" xmlns="http://www.w3.org/2000/svg">
<path d="M17.0246 47C8.89726 42.554 2.22431 36.2941 1.88211 28.7598L0 2.44985C6.92959 0.77125 11.1216 0 17.0246 0" fill="black"/>
<path d="M17.0238 15.6984H11.2949V26.0413C11.2949 28.8541 13.5193 32.0752 17.0238 32.0752" fill="white"/>
<path d="M17.0234 47C25.15 42.554 31.823 36.2941 32.1652 28.7598L34.0473 2.44985C27.1154 0.77125 22.9257 0 17.0234 0" fill="black"/>
<path d="M17.024 0.727783C24.0384 0.727783 30.3691 2.31573 33.3206 3.08702L33.0052 7.58432C25.45 5.57912 20.9585 5.26477 17.024 5.26477C13.0894 5.26477 8.59721 5.57912 1.04203 7.58432L0.726562 3.08378C3.67806 2.31249 10.0058 0.727783 17.024 0.727783Z" fill="white"/>
<path d="M23.4403 19.89L23.4258 24.8864L31.7265 24.9131L32.0962 19.8641L23.4403 19.89Z" fill="white"/>
<path d="M32.4428 15.0285L32.8148 9.82149L17.3652 9.72827V14.8081H23.4393V15.0276L32.4428 15.0285Z" fill="white"/>
<path d="M10.61 19.9111C10.4081 20.181 10.1717 20.5407 10.1289 20.7335C10.3129 20.8641 10.4756 21.0256 10.6107 21.2115L10.61 19.9111Z" fill="black"/>
<path d="M8.51367 40.0319C11.0068 42.426 13.9522 44.4174 16.6868 45.9462V40.0125L8.51367 40.0319Z" fill="white"/>
<path d="M16.6828 34.9054V32.7925C14.3401 32.6791 12.7002 31.4055 11.7179 29.905L2.66016 29.9155C2.92445 31.6769 3.54851 33.3467 4.43152 34.9071L16.6828 34.9054Z" fill="white"/>
<path d="M17.0234 15.6984H22.7523V26.0413C22.7523 28.8541 20.528 32.0752 17.0234 32.0752" fill="white"/>
<path d="M20.963 31.4324C22.6343 30.069 23.4386 27.9707 23.4386 26.4906V25.614L31.6981 25.5873L31.3926 29.8502C30.3683 37.0223 23.3531 42.5985 17.3652 45.9557V32.791C18.2785 32.7551 19.1741 32.5129 19.9921 32.0805L19.9745 32.2628C19.7736 32.8866 19.7844 33.1499 19.7729 33.2844C19.7393 33.5655 19.4139 33.593 19.3558 33.5622C19.2842 33.517 19.2025 33.4928 19.1192 33.4919C19.0357 33.491 18.9537 33.5136 18.8812 33.5573C18.8087 33.601 18.7484 33.6642 18.7064 33.7407C18.6645 33.8172 18.6424 33.904 18.6424 33.9924C18.6423 34.0339 18.6483 34.0752 18.66 34.1148C18.4911 34.1909 18.4156 34.3384 18.4156 34.5457C18.4156 34.822 18.5844 35.0456 18.8448 35.0456C18.9533 35.0456 19.0228 35.0594 19.1022 34.9946C19.1466 35.0478 19.2012 35.0905 19.2623 35.1196C19.3234 35.1488 19.3896 35.1639 19.4567 35.1639C19.7171 35.1639 19.85 35.0901 19.8676 34.5271C21.61 33.5485 24.2621 32.7999 25.4369 32.8671C26.7644 32.9425 27.7284 34.3554 27.8323 34.4461C27.9362 34.5368 28.0202 34.5368 28.0034 34.391C27.9178 33.811 27.7483 32.9328 26.4543 32.1867C26.5398 31.8051 27.1708 31.7338 27.2884 31.6787C27.377 31.6366 27.4084 31.5167 27.2884 31.5167C26.4222 31.3952 25.8043 31.8067 25.6844 31.9703C25.3946 31.92 25.101 31.8988 24.8074 31.9072C24.9037 31.4405 25.1603 31.097 25.5438 30.7592C25.488 30.8086 25.6462 30.6142 25.5262 30.6142C24.5684 30.7033 23.9733 31.7564 23.9068 32.027C23.8213 32.0449 22.7817 32.2263 22.6083 32.2806C22.7611 31.2112 23.9068 30.4845 24.0115 30.4116C24.1161 30.3387 24.1482 30.2302 24.0115 30.2302C22.5717 30.2812 21.5175 32.2555 21.4664 32.6711C21.2441 32.7618 20.9019 32.889 20.7308 32.9952C20.6712 32.2838 20.6834 32.0643 20.866 31.6406L20.963 31.4324Z" fill="white"/>
<path d="M19.559 38.1305C19.5453 38.5801 19.4391 38.6393 19.2306 38.6393C19.177 38.6393 19.124 38.6273 19.0752 38.6039C19.0263 38.5806 18.9827 38.5465 18.9472 38.504C18.8838 38.5558 18.828 38.5452 18.7417 38.5452C18.5332 38.5452 18.398 38.3662 18.398 38.145C18.3913 38.0729 18.4068 38.0004 18.442 37.9382C18.4772 37.876 18.5303 37.8276 18.5935 37.7999C18.5842 37.7681 18.5796 37.7351 18.5798 37.7018C18.5798 37.5957 18.6195 37.4939 18.6903 37.4189C18.7611 37.3438 18.857 37.3016 18.9571 37.3016C19.0252 37.3014 19.0921 37.321 19.1504 37.3583C19.1962 37.3827 19.4559 37.3583 19.4842 37.1356C19.5048 36.8965 19.9723 35.098 21.1356 34.9238C21.2593 34.8946 21.2181 34.9959 21.1631 35.0542C21.2563 34.9554 20.164 35.8782 20.2503 36.9071C20.387 36.8204 20.7896 36.6729 20.9676 36.6009C21.0088 36.2663 21.9606 34.7569 23.1102 34.7156C23.2202 34.7156 23.1926 34.8031 23.1102 34.8614C23.0277 34.9198 22.027 35.478 21.9025 36.3335C22.0392 36.2905 22.7214 36.1447 22.7893 36.1301C22.8443 35.913 23.5669 34.9562 24.4072 34.9757C24.5034 34.9757 24.3766 35.1312 24.4209 35.0915C24.1154 35.3645 23.5456 35.7048 23.4692 36.0775C23.7039 36.0715 23.9386 36.0887 24.1703 36.1285C24.2658 35.9981 24.8036 35.6229 25.4964 35.7234C25.5919 35.7234 25.5674 35.8206 25.4964 35.8539C25.4024 35.8984 24.9617 36.0467 24.8929 36.3513C25.6415 36.8196 25.9356 37.3105 26.0036 37.7748C26.0173 37.8915 25.9486 37.8915 25.8669 37.8185C25.7851 37.7456 24.9915 36.9338 23.929 36.873C22.9902 36.8163 20.9538 37.3486 19.559 38.1305Z" fill="black"/>
<path d="M19.1847 41.2379C19.1756 41.5458 19.0388 41.609 18.896 41.609C18.8594 41.6091 18.8232 41.6008 18.7898 41.5847C18.7564 41.5687 18.7268 41.5452 18.7027 41.5158C18.6592 41.5515 18.6203 41.5442 18.5614 41.5442C18.5287 41.5436 18.4965 41.536 18.4668 41.5217C18.4369 41.5074 18.4102 41.4868 18.3882 41.4611C18.3663 41.4355 18.3495 41.4053 18.339 41.3725C18.3284 41.3397 18.3243 41.3049 18.3269 41.2703C18.3778 41.2432 18.418 41.198 18.4406 41.1426C18.4632 41.0873 18.4668 41.0252 18.4507 40.9673C18.4507 40.919 18.4628 40.8715 18.4858 40.8297C18.5088 40.788 18.5418 40.7534 18.5814 40.7295C18.6211 40.7056 18.666 40.6933 18.7116 40.6938C18.7572 40.6943 18.8018 40.7077 18.841 40.7324C18.8731 40.7494 19.0503 40.7324 19.0702 40.5801C19.09 40.4278 19.1626 39.1566 19.8791 39.0221C19.9639 39.0019 19.9356 39.0715 19.8982 39.1113C19.9616 39.044 19.4727 39.6443 19.5926 40.3897C19.7203 40.3221 19.852 40.2634 19.9868 40.2139C20.015 39.9854 20.2801 38.9306 21.0676 38.9022C21.144 38.9022 21.1242 38.9622 21.0676 39.0019C21.0111 39.0416 20.6803 39.4126 20.5948 39.9976C20.7002 39.9392 20.9675 39.8939 21.0729 39.859C21.1104 39.71 21.6795 38.8966 22.2546 38.9096C22.3196 38.9096 22.2333 39.0165 22.2638 38.9906C22.0545 39.1777 21.7719 39.4767 21.7192 39.7335C21.8461 39.7185 21.9742 39.7185 22.1011 39.7335C22.1895 39.6071 22.3089 39.5089 22.4463 39.4496C22.5837 39.3903 22.7338 39.3722 22.8802 39.3973C22.9459 39.3973 22.9284 39.4637 22.8802 39.4872C22.8116 39.523 22.7508 39.5738 22.7019 39.6362C22.6529 39.6986 22.6169 39.7712 22.5961 39.8493C23.1476 40.1329 23.3836 40.3808 23.4302 40.6984C23.4394 40.7794 23.3928 40.7794 23.337 40.7284C22.9569 40.4544 22.5128 40.2974 22.0537 40.2747C21.4136 40.2342 20.1556 40.6052 19.1847 41.2379Z" fill="black"/>
<path d="M12.2743 24.9175C12.3278 24.7473 12.4989 24.5432 12.5203 24.4411C12.5417 24.339 12.5096 24.2596 12.5738 24.1576C12.6691 24.029 12.7727 23.9077 12.8839 23.7946C12.9136 23.7634 12.9503 23.7407 12.9905 23.7288C13.0308 23.7169 13.0733 23.7162 13.1139 23.7267C13.1545 23.7372 13.1919 23.7585 13.2225 23.7887C13.2531 23.8189 13.2759 23.8569 13.2887 23.8991C13.4064 24.1713 13.6095 24.7725 14.0159 24.9523C13.7762 25.0739 13.5254 25.169 13.2674 25.2359C13.0641 25.2813 12.9038 25.3169 12.9893 25.8484C13.0749 26.3798 13.0963 26.6083 13.0657 26.7785C13.037 26.9265 13.0456 27.08 13.0907 27.2233C13.1357 27.3667 13.2157 27.4949 13.3223 27.5951L13.5897 27.9921C13.6966 28.0942 13.9533 28.2076 13.9716 27.9808C13.99 27.7539 14.0572 27.5271 13.8433 27.5044C13.7669 27.493 13.5653 27.3116 13.5866 27.1074C13.6027 26.9173 13.5615 26.7267 13.469 26.563C13.3816 26.4017 13.3543 26.2114 13.3926 26.0298C13.4354 25.8597 13.553 25.7576 13.8204 25.8144C14.0343 25.8954 15.0181 26.1773 15.3175 25.8257C15.5207 25.9877 16.7291 26.4609 17.4349 26.3815C17.5632 26.6197 17.8306 27.1415 18.0017 27.2889C18.1407 27.425 18.1942 27.856 17.9589 28.0828C17.8199 28.1963 17.4563 28.5933 17.1569 28.684C16.8574 28.7747 16.7398 28.8315 16.6008 28.9789C16.4618 29.1264 16.3762 29.1264 16.2907 29.3192C16.2051 29.512 16.0126 29.8523 16.3228 29.8523C16.6328 29.8523 16.7184 29.6902 16.7398 29.6028C16.7612 29.5153 16.7398 29.3192 16.8574 29.2852C16.9751 29.2511 17.3387 29.2284 17.5846 28.9109C17.8306 28.5933 18.3225 28.4247 18.515 28.3891C18.7075 28.3534 18.7289 28.1509 18.7075 28.0488C18.6861 27.9468 18.6754 27.6858 18.793 27.5498C18.9641 27.5951 19.5095 27.7199 19.7662 28.0942C19.7918 28.1727 19.824 28.2486 19.8624 28.321C19.786 28.4571 19.6378 28.5819 19.5844 28.7181C19.5185 28.9409 19.392 29.1382 19.2208 29.2852C18.9748 29.4893 18.7625 29.6141 18.6433 29.7956C18.5155 29.9739 18.4546 30.1962 18.4722 30.4194C18.4936 30.6689 18.5577 30.5442 18.6647 30.5442C18.7716 30.5442 19.0176 30.4194 19.0283 30.2493C19.039 30.0791 18.9641 29.9997 19.1887 29.8977C19.4133 29.7956 19.8082 29.4553 19.8945 29.2398C19.9808 29.0243 20.2359 28.6046 20.4391 28.4799C20.6423 28.3551 20.5995 28.1736 20.5033 27.9937C20.407 27.8139 20.0755 27.3245 20.1397 27.0069C20.2038 26.6893 20.5568 26.4965 20.6637 26.0088C20.7706 25.5211 20.7065 25.2942 20.6431 25.1241C20.8241 25.0673 20.931 25.1127 21.1663 25.2261C21.4015 25.3396 21.9363 25.3169 22.0004 25.1581C22.0646 24.9993 22.0432 24.6817 22.0004 24.6137C22.1532 24.4776 22.2571 24.1826 22.1715 24.0465C22.1255 23.9742 22.0941 23.8924 22.0793 23.8066C22.0646 23.7206 22.0668 23.6324 22.086 23.5475C21.9332 23.5248 21.7758 23.3854 21.8828 23.2866C21.9897 23.1877 22.2036 22.9471 22.1074 22.6384C22.1394 22.4457 22.1501 22.2075 21.84 22.2196C21.8293 22.0948 21.7331 21.6865 21.2519 22.0576C21.1755 22.1143 21.0914 21.9895 21.1984 21.9555C21.3053 21.9215 21.8614 21.7286 21.9469 21.5253C22.0325 21.3219 22.0004 21.219 21.9683 21.1396C22.0111 21.0489 22.0539 20.8674 22.0111 20.7993C21.9683 20.7313 21.7973 20.7427 21.6796 21.0489C21.562 21.3551 21.594 21.3551 21.2839 21.4118C20.9738 21.4686 20.7386 21.4118 20.5353 21.774C20.4712 21.8647 20.4391 21.9676 20.2894 22.0576C20.2248 22.0952 20.1685 22.147 20.1243 22.2096C20.0802 22.2722 20.0492 22.3442 20.0335 22.4205C20.0114 22.5453 20.1183 22.7721 20.0969 22.9309C20.0755 23.0897 19.9907 23.43 20.3856 23.793C20.5781 24.0198 20.8669 24.3147 20.653 24.5416C20.4391 24.7684 20.2466 24.5302 20.0862 24.4168C19.9258 24.3034 19.3988 24.1332 19.0603 24.1559C18.722 24.1786 17.5953 23.8837 17.328 23.6455C17.0606 23.4073 17.2241 23.2874 17.36 23.2145C17.4066 23.197 17.4495 23.17 17.4861 23.135C17.5228 23.1 17.5526 23.0576 17.5739 23.0103C17.5947 22.9643 17.6286 22.9264 17.6708 22.902C17.7131 22.8776 17.7614 22.8678 17.8092 22.8742C17.9054 22.8742 18.0017 22.8515 18.0872 22.636C18.1728 22.4205 18.2583 22.5007 18.3546 22.474C18.384 22.4617 18.4091 22.44 18.4264 22.4119C18.4437 22.3838 18.4523 22.3508 18.4511 22.3172C18.45 22.2837 18.439 22.2514 18.4198 22.2248C18.4006 22.1982 18.374 22.1785 18.3439 22.1686C18.1728 22.0997 18.0765 22.0316 18.0872 21.9644C18.1105 21.9017 18.1499 21.8471 18.201 21.8068C18.252 21.7666 18.3126 21.7423 18.3759 21.7367C18.5364 21.7254 18.5463 21.6128 18.5364 21.522C18.5257 21.4799 18.5308 21.4351 18.5508 21.3969C18.5708 21.3588 18.604 21.3305 18.6433 21.3179C18.7502 21.2611 18.7388 21.1251 18.5577 21.0683C18.3767 21.0116 18.1086 20.9436 18.1086 20.8528C18.1086 20.7621 18.2262 20.6033 18.3439 20.5579C18.4615 20.5126 18.515 20.3197 18.2476 20.331C17.9803 20.3424 17.8306 20.3764 17.7771 20.195C17.7236 20.0135 17.7129 19.9114 17.991 19.798C18.1086 19.7639 18.1438 19.5938 17.9268 19.6051C17.7099 19.6165 17.4685 19.7299 17.3921 19.6505C17.3157 19.5711 17.3387 19.5031 17.3815 19.4691C17.3958 19.4588 17.4065 19.4437 17.4117 19.4262C17.4169 19.4087 17.4164 19.3898 17.4102 19.3727C17.4039 19.3556 17.3924 19.3412 17.3775 19.3319C17.3626 19.3226 17.3451 19.319 17.328 19.3216C17.221 19.3216 16.8039 19.4917 16.697 19.3669C16.5901 19.2422 16.419 19.1741 16.28 19.2649C16.141 19.3556 16.141 19.4917 16.2158 19.5711C16.2235 19.5786 16.2298 19.5876 16.2342 19.5976C16.2387 19.6076 16.2412 19.6185 16.2417 19.6295C16.2422 19.6406 16.2407 19.6516 16.2371 19.662C16.2336 19.6725 16.2282 19.682 16.2211 19.6902C16.2141 19.6984 16.2056 19.7051 16.1962 19.7098C16.1867 19.7145 16.1765 19.7172 16.1661 19.7177C16.1557 19.7182 16.1453 19.7166 16.1354 19.7129C16.1256 19.7091 16.1166 19.7033 16.1089 19.6959C16.084 19.6773 16.0655 19.6507 16.0559 19.6201C16.0462 19.5895 16.046 19.5565 16.0554 19.5257C16.0322 19.4459 15.9829 19.3776 15.9164 19.3329C15.84 19.2876 15.84 19.1628 15.8629 19.0834C15.8858 19.004 15.7987 18.9214 15.6704 19.0024C15.5421 19.0834 15.4244 19.2179 15.4886 19.422C15.3496 19.4334 14.9967 19.5241 14.986 19.6375C14.9753 19.751 15.0288 19.8757 15.0074 19.9211C14.986 19.9665 14.8684 19.9665 14.8042 20.0119C14.6224 20.2047 14.3123 20.3862 14.2374 20.4656C14.1626 20.545 14.1091 20.6276 14.0128 20.7491C13.9166 20.8706 13.9074 20.9922 13.9487 21.0554C14.0663 21.2369 14.1626 21.1121 14.2267 21.2174C14.2909 21.3227 14.2909 21.3422 14.2802 21.3989C14.2695 21.4556 14.3979 21.5795 14.5903 21.4102C14.7828 21.2409 14.9218 21.0586 15.0715 21.2482C15.2213 21.4378 15.0823 21.5545 15.0181 21.6792C14.8898 21.8145 14.5903 22.2342 14.4513 22.3589C14.3123 22.4837 14.2054 22.7794 14.1519 23.0508C14.0984 23.3223 14.0343 23.3798 13.9808 23.4478C13.7241 23.3458 13.4354 23.221 13.275 23.0848C13.1681 22.9941 12.9328 22.8807 12.7831 23.1076C12.7067 23.1983 12.3248 23.7557 12.227 23.9923C12.1292 24.2289 11.981 24.1397 11.981 24.5934C11.981 24.7555 11.8634 24.8202 11.7992 25.0698C11.7886 25.1379 11.6174 25.5559 11.7886 25.6369C11.9597 25.7179 12.1628 25.6143 12.2056 25.5008C12.2484 25.3874 12.2637 25.0423 12.2743 24.9175Z" fill="black"/>
<path d="M10.6065 14.9737H16.6807V6.04114C13.29 6.09295 8.68011 6.28901 1.10352 8.39053L2.29435 24.9173H10.6065V21.8558C10.3736 21.6613 10.0153 21.3478 8.94669 21.3486C8.31499 21.3486 6.52225 21.9821 5.47885 23.3375C5.46434 23.8122 5.20767 23.9856 4.98845 23.9856C4.93196 23.9858 4.87609 23.9731 4.82458 23.9486C4.77307 23.9239 4.72711 23.888 4.68978 23.843C4.62201 23.8976 4.5388 23.9261 4.45375 23.924C4.34813 23.9238 4.24691 23.8792 4.1723 23.7999C4.09769 23.7206 4.05579 23.6131 4.05579 23.5011C4.05869 23.4144 4.0847 23.3303 4.1308 23.2587C4.1769 23.187 4.2412 23.1306 4.31626 23.0961C4.30612 23.0628 4.30096 23.0281 4.30098 22.9932C4.30118 22.8812 4.34328 22.7738 4.41803 22.6947C4.49279 22.6155 4.59409 22.5711 4.69971 22.5711C4.77126 22.5708 4.84153 22.5912 4.90289 22.6302C4.95178 22.6562 5.11142 22.7704 5.14045 22.533C5.16184 22.2811 5.13205 19.9106 6.32668 19.5517C6.45657 19.5209 6.41378 19.6279 6.35575 19.6895C6.29767 19.751 5.76985 20.7183 5.84012 21.94C5.98451 21.8477 6.29846 21.5989 6.48558 21.5228C6.54288 21.2619 6.9569 19.2892 7.94528 19.269C8.06066 19.269 8.03159 19.3605 7.94528 19.4221C7.85897 19.4837 7.42817 20.0232 7.34107 20.9881C7.48546 20.9419 7.84599 20.8763 7.91859 20.8609C7.97588 20.6316 8.40209 19.3095 9.21026 19.2333C9.31181 19.2333 9.26829 19.3435 9.22476 19.3897C9.18119 19.4359 8.75344 20.0662 8.66867 20.6859C8.86223 20.6707 9.05684 20.6796 9.2484 20.7127C9.3355 20.5944 10.0207 19.7972 10.6065 19.5355V16.8483C10.4943 16.7398 10.3178 16.6247 9.77928 16.6231C8.93904 16.6231 7.52746 16.9901 5.58346 18.3381C5.56362 18.9709 5.22218 19.2066 4.92886 19.2066C4.85351 19.2065 4.77903 19.1894 4.71031 19.1566C4.6416 19.1238 4.58019 19.076 4.53014 19.0162C4.44036 19.0897 4.32955 19.1283 4.21619 19.1256C4.07504 19.1256 3.93962 19.0664 3.83945 18.961C3.73928 18.8554 3.68251 18.7122 3.6815 18.5626C3.68575 18.4476 3.72067 18.3362 3.78219 18.2415C3.8437 18.1467 3.9293 18.0723 4.02905 18.0271C4.01584 17.9822 4.00914 17.9355 4.00919 17.8885C4.00994 17.7893 4.03523 17.692 4.08255 17.6063C4.12985 17.5207 4.19752 17.4498 4.27878 17.4006C4.36004 17.3514 4.45205 17.3256 4.54562 17.326C4.63919 17.3263 4.73104 17.3527 4.81199 17.4025C4.87692 17.4373 5.14579 17.5596 5.18475 17.2404C5.21378 16.9042 5.70111 14.0809 7.33727 13.8378C7.51068 13.7973 7.45259 13.9399 7.37547 14.0218C7.29834 14.1036 6.03262 15.2232 6.12352 16.8532C6.45778 16.6575 6.80206 16.4817 7.15474 16.3266C7.23113 15.9799 7.95446 13.8638 9.27209 13.8362C9.42487 13.8362 9.38746 13.9586 9.27209 14.0404C9.15676 14.1222 8.35551 14.7209 8.2386 16.0074C8.43111 15.9458 9.02614 15.7984 9.12237 15.7781C9.19876 15.4719 9.71054 14.2535 10.7883 14.1514C10.9228 14.1514 10.8647 14.2988 10.8074 14.3604C10.7501 14.422 10.1788 14.8392 10.065 15.6566C10.2486 15.6608 10.4312 15.6863 10.6096 15.7328L10.6065 14.9737Z" fill="white"/>
<path d="M5.3465 13.3603C5.32508 14.0635 4.9447 14.326 4.6193 14.326C4.53556 14.3262 4.45276 14.3074 4.37647 14.2708C4.30018 14.2341 4.23217 14.1806 4.17704 14.1138C4.07711 14.1952 3.95397 14.2381 3.82797 14.2353C3.67157 14.2353 3.52158 14.1694 3.411 14.0521C3.30041 13.9348 3.23828 13.7757 3.23828 13.6098C3.24312 13.4821 3.2819 13.3584 3.35015 13.2531C3.41841 13.1477 3.51334 13.065 3.62402 13.0144C3.60925 12.9648 3.60178 12.9132 3.60187 12.8612C3.60201 12.7508 3.62969 12.6423 3.68211 12.5469C3.73452 12.4514 3.8098 12.3724 3.90032 12.3178C3.99083 12.2631 4.09336 12.2349 4.19749 12.2359C4.30163 12.2368 4.40367 12.267 4.49327 12.3233C4.56965 12.3622 4.86526 12.4983 4.90803 12.1467C4.94011 11.7723 5.41065 8.4377 7.22859 8.16548C7.42104 8.1201 7.35689 8.2789 7.27137 8.36966C7.1858 8.46036 5.77424 9.66591 5.94532 11.7043C6.34827 11.4702 6.76234 11.2582 7.1858 11.0692C7.24995 10.5474 7.95576 8.1201 9.53842 8.07153C9.7095 8.07153 9.66677 8.20762 9.53842 8.29837C9.19736 8.58095 8.91337 8.93341 8.70341 9.33483C8.49344 9.73625 8.36177 10.1784 8.31629 10.6349C8.53016 10.5668 9.21455 10.4534 9.32149 10.4307C9.40706 10.0904 10.07 8.43446 11.2677 8.32428C11.4205 8.32428 11.3533 8.4377 11.2891 8.50574C11.225 8.57384 10.3725 9.34512 10.3725 10.2525C10.5864 10.2298 11.1853 10.2298 11.335 10.2752C11.4877 10.071 12.1263 9.32241 13.0459 9.25437C13.1987 9.25437 13.1315 9.36779 13.0459 9.45854C12.9604 9.54925 12.4043 10.071 12.2974 10.5474C12.6182 10.7289 13.5379 11.3868 13.6448 12.1127C13.6662 12.2941 13.5592 12.2941 13.4309 12.1807C13.3026 12.0673 12.3188 11.228 11.0753 11.228C9.83174 11.228 7.50661 11.8631 5.3465 13.3603Z" fill="black"/>
<path d="M14.6851 4.09022V4.61441L13.9457 4.65169V4.1915C13.9457 3.73293 13.7074 3.44612 13.3056 3.47529L11.2638 3.61626L11.2837 4.86881L10.5481 4.90609L10.4648 1.7747L13.5301 1.55757C14.0916 1.50977 14.5842 1.6313 14.5835 2.44878C14.5753 2.69043 14.507 2.92549 14.3856 3.13015C14.5437 3.25654 14.6881 3.59682 14.6851 4.09022Z" fill="black"/>
<path d="M1.58302 6.82985L1.36914 3.67664L4.41689 2.94748C4.79881 2.85673 5.34727 2.91345 5.36863 3.63937C5.39005 4.3653 5.2617 4.67154 4.78048 4.78497L2.22465 5.40071L2.32089 6.64514L1.58302 6.82985Z" fill="black"/>
<path d="M2.16016 4.20719L2.18154 4.67223L4.30952 4.17316C4.37436 4.16032 4.4319 4.1211 4.46985 4.06388C4.50781 4.00667 4.52319 3.93598 4.5127 3.86691C4.5043 3.78589 4.42715 3.67409 4.21329 3.71946C3.99942 3.76483 2.16016 4.20719 2.16016 4.20719Z" fill="white"/>
<path d="M5.82618 3.29999C5.82618 3.00509 5.81547 2.57083 6.57472 2.44931L9.04498 2.0183C9.34442 1.96159 10.0181 2.18034 10.0181 2.7669L10.0502 4.28678C10.0609 4.60437 10.0395 5.02403 9.23749 5.1488L6.94902 5.53444C6.54265 5.61545 5.87962 5.54578 5.85825 4.72913L5.82618 3.29999Z" fill="black"/>
<path d="M6.5762 3.65203C6.5762 3.41383 6.56549 3.18697 6.9581 3.10758L8.85092 2.7673C9.05409 2.73327 9.26796 2.89207 9.26796 3.10758L9.28938 4.03768C9.28938 4.18513 9.22523 4.42333 8.91508 4.48004L7.04367 4.79763C6.78701 4.84301 6.61593 4.85435 6.59451 4.50273L6.5762 3.65203Z" fill="white"/>
<path d="M16.2504 2.712C16.1822 2.712 16.1167 2.68323 16.0684 2.63203C16.0202 2.58083 15.993 2.51138 15.993 2.43897C15.993 2.36656 16.0202 2.29711 16.0684 2.24591C16.1167 2.19471 16.1822 2.16594 16.2504 2.16594H19.2661V1.48621H15.8976C15.7264 1.48621 15.149 1.52591 15.1543 2.45031C15.1597 3.37472 15.7692 3.39173 15.8976 3.39173H18.2609C18.329 3.39195 18.3943 3.4208 18.4424 3.47199C18.4906 3.52316 18.5176 3.59249 18.5176 3.66476C18.5171 3.69938 18.51 3.73354 18.4967 3.76515C18.4834 3.79675 18.4641 3.82515 18.4401 3.84859C18.4161 3.87202 18.3878 3.89001 18.357 3.90145C18.3262 3.91288 18.2935 3.91753 18.2609 3.9151H15.2452V4.59403H18.6061C18.8193 4.59403 19.3814 4.62805 19.3814 3.64693C19.3814 2.66582 18.7505 2.71119 18.6061 2.71119L16.2504 2.712Z" fill="black"/>
<path d="M24.5509 1.87195L24.3691 5.09317L25.0749 5.19525L25.1605 3.81148L27.6414 4.31054L27.5558 5.62627L28.2617 5.76235L28.4434 2.55249L27.7484 2.41638L27.6735 3.66403L25.1925 3.16497L25.2567 1.98537L24.5509 1.87195Z" fill="black"/>
<path d="M28.9277 5.86419L29.0988 2.68835L32.4994 3.44829L32.4567 4.09481L29.7726 3.49366L29.7511 4.08347L32.4139 4.68461L32.3711 5.33113L29.7084 4.72998L29.6763 5.3765L32.3283 5.97767L32.2749 6.62417L28.9277 5.86419Z" fill="black"/>
<path d="M23.8766 2.5197L23.9064 1.81646L20.7747 1.55558C20.5073 1.5329 19.9948 1.51022 19.952 2.4403C19.9093 3.37039 19.8871 3.79006 19.8871 3.79006C19.8772 4.10765 20.0582 4.64075 20.625 4.68612L23.7475 4.93566L23.7796 4.23242L21.1712 4.02826C20.9252 4.01691 20.6578 3.93751 20.6792 3.46113L20.7006 2.78058C20.7113 2.50836 20.7969 2.25882 21.2032 2.29447L23.8766 2.5197Z" fill="black"/>
<path d="M13.4316 2.78829L11.2424 2.91555L11.2324 2.41784L13.4476 2.29382C13.6195 2.29869 13.6905 2.36353 13.6974 2.52971C13.7043 2.69588 13.5836 2.77531 13.4316 2.78829Z" fill="white"/>
<path d="M12.0819 17.6969C12.114 17.8897 12.1972 17.9691 12.3668 17.9691C12.5074 17.9691 12.6059 17.8881 12.6059 17.7763C12.6059 17.7155 12.5738 17.6742 12.4929 17.6337L12.101 17.4409C12.0233 17.4102 11.9571 17.3535 11.9125 17.2794C11.8678 17.2053 11.8471 17.1178 11.8535 17.0301C11.8493 16.9635 11.8585 16.8967 11.8804 16.8342C11.9024 16.7716 11.9367 16.7148 11.981 16.6673C12.0252 16.6199 12.0785 16.583 12.1373 16.5591C12.1961 16.5352 12.2589 16.5248 12.3217 16.5286C12.6319 16.5286 12.8091 16.7174 12.8221 17.0617H12.5654C12.5395 16.8802 12.4692 16.8057 12.3256 16.8057C12.1972 16.8057 12.1056 16.8867 12.1056 16.9961C12.1074 17.0239 12.1168 17.0505 12.1326 17.0727C12.1485 17.0948 12.1702 17.1116 12.195 17.1208L12.5975 17.3185C12.7793 17.4068 12.8587 17.5113 12.8587 17.7333C12.8602 17.8075 12.8466 17.881 12.819 17.9491C12.7913 18.0172 12.7502 18.0782 12.6983 18.1279C12.6519 18.1709 12.5979 18.2035 12.5393 18.2238C12.4808 18.2441 12.419 18.2517 12.3577 18.2462C12.1438 18.2462 11.9928 18.1668 11.9047 18.008C11.8522 17.9139 11.8257 17.8061 11.8283 17.6969H12.0819Z" fill="black"/>
<path d="M13.9785 16.5605V16.8603H13.6003V18.215H13.3366V16.8603H12.9492V16.5605H13.9785Z" fill="black"/>
<path d="M15.1895 16.5622V17.5814C15.1895 17.9581 15.0848 18.2466 14.6738 18.2466C14.2628 18.2466 14.1582 17.963 14.1582 17.5814V16.5605H14.4217V17.5749C14.4217 17.8423 14.492 17.9468 14.67 17.9468C14.848 17.9468 14.9259 17.8471 14.9259 17.5749V16.5622H15.1895Z" fill="black"/>
<path d="M16.3595 16.5605V16.8603H15.9812V18.215H15.7175V16.8603H15.3301V16.5605H16.3595Z" fill="black"/>
<path d="M18.1236 17.3187H18.6536V18.2147H18.4718L18.4467 18.0057C18.4098 18.0792 18.3548 18.1405 18.2875 18.1834C18.2202 18.2262 18.1432 18.2488 18.0647 18.2487C17.721 18.2487 17.4766 17.8995 17.4766 17.4045C17.4766 16.8787 17.7248 16.5311 18.1037 16.5311C18.4092 16.5311 18.617 16.7377 18.6552 17.0893H18.3855C18.3344 16.9103 18.2488 16.8309 18.106 16.8309C17.8853 16.8309 17.7485 17.0464 17.7485 17.3907C17.7485 17.7351 17.8898 17.9489 18.106 17.9489C18.2702 17.9489 18.3794 17.8266 18.4115 17.6046H18.1236V17.3187Z" fill="black"/>
<path d="M19.2587 16.5605H19.5558L20.0072 18.215H19.7201L19.633 17.8674H19.1686L19.0785 18.215H18.8027L19.2587 16.5605Z" fill="black"/>
<path d="M20.718 16.5605C20.8998 16.5605 20.9678 16.5816 21.0449 16.6561C21.0905 16.7065 21.1258 16.7664 21.1486 16.8319C21.1715 16.8974 21.1815 16.9672 21.1778 17.0369C21.1778 17.2281 21.1328 17.3254 20.996 17.4209C21.1198 17.4906 21.135 17.536 21.1488 17.856C21.1572 18.1242 21.1633 18.1647 21.2038 18.215H20.9135C20.8872 18.131 20.8762 18.0424 20.8815 17.9541C20.8746 17.711 20.9067 17.5611 20.663 17.5611H20.4217V18.215H20.1582V16.5605H20.718Z" fill="black"/>
<path d="M22.3555 16.5605V16.8603H21.9765V18.215H21.7136V16.8603H21.3262V16.5605H22.3555Z" fill="black"/>
<path d="M17.5138 16.5605V16.8603H17.1355V18.215H16.8718V16.8603H16.4844V16.5605H17.5138Z" fill="black"/>
<path d="M19.5615 17.5832L19.4009 16.9387L19.2402 17.5832H19.5615Z" fill="white"/>
<path d="M20.416 17.2856H20.6661C20.8458 17.2856 20.904 17.2329 20.904 17.0724C20.904 16.9119 20.8481 16.8633 20.6661 16.8633H20.416V17.2856Z" fill="white"/>
<path d="M35.6992 3.22358C35.9136 3.22343 36.1231 3.29075 36.3015 3.41703C36.4797 3.54332 36.6187 3.72288 36.7006 3.93297C36.7827 4.14307 36.804 4.37425 36.7621 4.59725C36.7201 4.82024 36.6167 5.02501 36.465 5.18563C36.3132 5.34625 36.12 5.45549 35.9097 5.49952C35.6993 5.54355 35.4814 5.52038 35.2835 5.43296C35.0856 5.34553 34.9166 5.19778 34.798 5.0084C34.6793 4.81904 34.6162 4.59657 34.6169 4.36918C34.6169 4.21854 34.6449 4.06937 34.6993 3.93022C34.7537 3.79107 34.8335 3.66467 34.934 3.55826C35.0345 3.45186 35.1539 3.36752 35.2852 3.31009C35.4165 3.25266 35.5572 3.22327 35.6992 3.22358V3.06641C35.4554 3.06577 35.2169 3.14191 35.0139 3.28516C34.811 3.42842 34.6527 3.63236 34.5592 3.87114C34.4656 4.10991 34.4409 4.37278 34.4884 4.62642C34.5358 4.88006 34.6531 5.11306 34.8255 5.29591C34.9979 5.47875 35.2175 5.60319 35.4567 5.6535C35.6958 5.7038 35.9436 5.67767 36.1687 5.5784C36.3938 5.47915 36.5861 5.31125 36.7212 5.09598C36.8562 4.88071 36.928 4.62776 36.9274 4.36918C36.9266 4.02393 36.7969 3.69306 36.5667 3.44893C36.3366 3.2048 36.0247 3.06727 35.6992 3.06641V3.22358Z" fill="black"/>
<path d="M35.4115 3.77275H35.8041C35.9753 3.77275 36.1624 3.8003 36.1624 4.02634C36.1624 4.32368 35.8622 4.28884 35.669 4.28884H35.4115V4.42901H35.7209L36.1135 5.10551H36.3137L35.9012 4.42901C36.1456 4.42253 36.3358 4.31639 36.3358 4.02959C36.3383 3.96763 36.3255 3.90607 36.2987 3.85095C36.2719 3.79583 36.2321 3.74906 36.1831 3.71523C36.0797 3.65881 35.9636 3.63386 35.8477 3.64312H35.248V5.10551H35.4161L35.4115 3.77275Z" fill="black"/>
</svg>
