<svg width="150" height="150" viewBox="0 0 150 150" fill="none" xmlns="http://www.w3.org/2000/svg">
<rect width="150" height="150" fill="white"/>
<path d="M72.851 105C62.4196 99.3242 53.8549 91.3328 53.4157 81.7146L51 48.1275C59.8941 45.9846 65.2746 45 72.851 45" fill="black"/>
<path d="M72.85 65.0405H65.4971V78.2443C65.4971 81.8351 68.352 85.9471 72.85 85.9471" fill="white"/>
<path d="M72.8516 105C83.282 99.3242 91.8468 91.3328 92.286 81.7146L94.7017 48.1275C85.8046 45.9846 80.4271 45 72.8516 45" fill="black"/>
<path d="M72.8493 45.9282C81.8524 45.9282 89.9778 47.9554 93.7661 48.94L93.3612 54.6812C83.6641 52.1214 77.8994 51.7201 72.8493 51.7201C67.7993 51.7201 62.0336 52.1214 52.3365 54.6812L51.9316 48.9359C55.7199 47.9512 63.8415 45.9282 72.8493 45.9282Z" fill="white"/>
<path d="M81.085 70.392L81.0664 76.7702L91.7204 76.8044L92.1949 70.3589L81.085 70.392Z" fill="white"/>
<path d="M92.6411 64.1861L93.1186 57.5389L73.2891 57.4199V63.9048H81.0851V64.1851L92.6411 64.1861Z" fill="white"/>
<path d="M64.6165 70.4189C64.3573 70.7634 64.054 71.2227 63.999 71.4688C64.2352 71.6356 64.444 71.8417 64.6175 72.079L64.6165 70.4189Z" fill="black"/>
<path d="M61.9258 96.1049C65.1258 99.1612 68.9062 101.703 72.416 103.655V96.0801L61.9258 96.1049Z" fill="white"/>
<path d="M72.4122 89.5603V86.8629C69.4053 86.7181 67.3004 85.0922 66.0396 83.1768L54.4141 83.1902C54.7533 85.4387 55.5543 87.5704 56.6876 89.5623L72.4122 89.5603Z" fill="white"/>
<path d="M72.8516 65.0405H80.2045V78.2443C80.2045 81.8351 77.3497 85.9471 72.8516 85.9471" fill="white"/>
<path d="M77.9068 85.1274C80.0519 83.3868 81.0843 80.7082 81.0843 78.8187V77.6997L91.6853 77.6655L91.2932 83.1075C89.9785 92.2635 80.9744 99.3819 73.2891 103.668V86.8617C74.4613 86.8159 75.6108 86.5067 76.6606 85.9547L76.6381 86.1875C76.3803 86.9838 76.394 87.3199 76.3793 87.4916C76.3362 87.8505 75.9185 87.8856 75.844 87.8463C75.752 87.7886 75.6472 87.7576 75.5402 87.7565C75.4332 87.7554 75.3278 87.7842 75.2348 87.84C75.1417 87.8957 75.0643 87.9765 75.0105 88.0741C74.9567 88.1717 74.9283 88.2826 74.9283 88.3955C74.9282 88.4485 74.9358 88.5011 74.9509 88.5517C74.7342 88.6489 74.6371 88.8371 74.6371 89.1018C74.6371 89.4545 74.8538 89.74 75.1881 89.74C75.3273 89.74 75.4166 89.7575 75.5185 89.6748C75.5755 89.7428 75.6455 89.7972 75.7239 89.8345C75.8023 89.8717 75.8874 89.891 75.9734 89.891C76.3077 89.891 76.4783 89.7968 76.5008 89.078C78.7372 87.8287 82.1411 86.8731 83.649 86.959C85.3529 87.0552 86.5901 88.8588 86.7235 88.9747C86.8569 89.0905 86.9647 89.0905 86.9431 88.9043C86.8333 88.1638 86.6157 87.0427 84.9549 86.0902C85.0647 85.6031 85.8745 85.5121 86.0255 85.4417C86.1392 85.388 86.1794 85.235 86.0255 85.235C84.9137 85.0798 84.1206 85.6052 83.9666 85.8141C83.5947 85.7499 83.2179 85.7228 82.8411 85.7335C82.9646 85.1377 83.2941 84.6992 83.7863 84.268C83.7147 84.331 83.9176 84.0828 83.7637 84.0828C82.5343 84.1966 81.7705 85.541 81.6852 85.8865C81.5754 85.9092 80.2411 86.1409 80.0186 86.2102C80.2147 84.845 81.6852 83.9173 81.8196 83.8242C81.9538 83.7312 81.995 83.5926 81.8196 83.5926C79.9715 83.6577 78.6185 86.1781 78.5529 86.7087C78.2675 86.8245 77.8283 86.9869 77.6088 87.1224C77.5322 86.2143 77.5479 85.934 77.7822 85.3932L77.9068 85.1274Z" fill="white"/>
<path d="M76.1044 93.6768C76.0868 94.2508 75.9505 94.3263 75.6829 94.3263C75.6141 94.3264 75.5461 94.311 75.4834 94.2812C75.4206 94.2515 75.3647 94.208 75.3191 94.1536C75.2377 94.2197 75.1662 94.2063 75.0554 94.2063C74.7878 94.2063 74.6142 93.9777 74.6142 93.6954C74.6057 93.6033 74.6255 93.5107 74.6707 93.4314C74.7159 93.352 74.7841 93.2901 74.8652 93.2548C74.8533 93.2143 74.8473 93.1721 74.8476 93.1296C74.8476 92.9941 74.8986 92.8642 74.9894 92.7684C75.0802 92.6725 75.2034 92.6187 75.3319 92.6187C75.4193 92.6184 75.5051 92.6435 75.5799 92.6911C75.6387 92.7222 75.9721 92.6911 76.0084 92.4067C76.0348 92.1016 76.6348 89.8055 78.1279 89.5832C78.2868 89.546 78.2338 89.6753 78.1633 89.7497C78.2829 89.6235 76.8809 90.8015 76.9917 92.1151C77.1672 92.0044 77.6838 91.8161 77.9123 91.7241C77.9652 91.297 79.1868 89.3701 80.6623 89.3174C80.8035 89.3174 80.7681 89.4291 80.6623 89.5035C80.5564 89.578 79.2721 90.2906 79.1123 91.3828C79.2878 91.328 80.1633 91.1418 80.2505 91.1232C80.3211 90.846 81.2486 89.6245 82.327 89.6494C82.4505 89.6494 82.2878 89.848 82.3446 89.7973C81.9525 90.1458 81.2211 90.5802 81.1231 91.056C81.4243 91.0484 81.7256 91.0702 82.023 91.1211C82.1456 90.9546 82.8358 90.4757 83.725 90.604C83.8476 90.604 83.8162 90.7281 83.725 90.7705C83.6045 90.8274 83.0388 91.0167 82.9505 91.4055C83.9113 92.0034 84.2887 92.6301 84.376 93.2228C84.3936 93.3717 84.3054 93.3717 84.2005 93.2786C84.0956 93.1855 83.077 92.1492 81.7133 92.0716C80.5083 91.9992 77.8946 92.6787 76.1044 93.6768Z" fill="black"/>
<path d="M75.6254 97.6444C75.6136 98.0374 75.4381 98.118 75.2548 98.118C75.2078 98.1182 75.1613 98.1076 75.1185 98.0871C75.0757 98.0666 75.0376 98.0366 75.0067 97.9991C74.9509 98.0446 74.9009 98.0353 74.8254 98.0353C74.7834 98.0346 74.7421 98.0248 74.7039 98.0066C74.6656 97.9884 74.6313 97.962 74.6031 97.9293C74.5749 97.8965 74.5534 97.858 74.5399 97.8161C74.5263 97.7742 74.521 97.7299 74.5244 97.6857C74.5896 97.6511 74.6412 97.5934 74.6703 97.5227C74.6993 97.452 74.7039 97.3728 74.6832 97.2989C74.6833 97.2372 74.6989 97.1766 74.7283 97.1233C74.7578 97.0699 74.8002 97.0258 74.8511 96.9953C74.9019 96.9648 74.9596 96.9491 75.0181 96.9498C75.0766 96.9504 75.1339 96.9674 75.1842 96.999C75.2254 97.0207 75.4528 96.999 75.4784 96.8045C75.5038 96.6101 75.597 94.9874 76.5166 94.8157C76.6254 94.7898 76.5891 94.8788 76.5411 94.9295C76.6225 94.8436 75.995 95.61 76.1489 96.5615C76.3128 96.4752 76.4818 96.4003 76.6548 96.3371C76.6911 96.0454 77.0313 94.6988 78.0421 94.6626C78.1401 94.6626 78.1147 94.7392 78.0421 94.7898C77.9696 94.8405 77.545 95.3142 77.4352 96.0609C77.5705 95.9864 77.9136 95.9286 78.0489 95.8841C78.097 95.6938 78.8274 94.6554 79.5656 94.672C79.6489 94.672 79.5382 94.8085 79.5774 94.7754C79.3088 95.0143 78.946 95.3959 78.8784 95.7238C79.0412 95.7047 79.2056 95.7047 79.3686 95.7238C79.482 95.5624 79.6353 95.4371 79.8116 95.3614C79.9879 95.2857 80.1806 95.2626 80.3686 95.2945C80.4529 95.2945 80.4303 95.3793 80.3686 95.4093C80.2805 95.4551 80.2025 95.52 80.1397 95.5996C80.0768 95.6793 80.0306 95.7719 80.0039 95.8716C80.7117 96.2337 81.0146 96.5501 81.0745 96.9555C81.0862 97.059 81.0264 97.059 80.9548 96.9938C80.467 96.6441 79.897 96.4437 79.3077 96.4147C78.4862 96.3629 76.8715 96.8366 75.6254 97.6444Z" fill="black"/>
<path d="M66.7548 76.8105C66.8235 76.5932 67.043 76.3327 67.0705 76.2023C67.098 76.072 67.0568 75.9706 67.1391 75.8403C67.2614 75.6763 67.3944 75.5214 67.5371 75.377C67.5753 75.3371 67.6224 75.3082 67.6741 75.293C67.7257 75.2778 67.7802 75.2769 67.8324 75.2903C67.8845 75.3037 67.9325 75.331 67.9718 75.3695C68.0111 75.408 68.0403 75.4565 68.0568 75.5104C68.2078 75.8579 68.4685 76.6253 68.9901 76.8549C68.6825 77.0101 68.3605 77.1315 68.0293 77.2169C67.7685 77.2748 67.5627 77.3203 67.6725 77.9988C67.7823 78.6773 67.8097 78.9689 67.7705 79.1862C67.7337 79.3752 67.7447 79.571 67.8026 79.7541C67.8604 79.9371 67.963 80.1008 68.0999 80.2287L68.4431 80.7355C68.5803 80.8658 68.9097 81.0106 68.9333 80.721C68.9568 80.4314 69.0431 80.1419 68.7685 80.1129C68.6705 80.0984 68.4117 79.8667 68.4391 79.606C68.4597 79.3634 68.4069 79.12 68.2881 78.9111C68.1759 78.7051 68.1409 78.4623 68.1901 78.2305C68.245 78.0133 68.396 77.8829 68.7392 77.9554C69.0137 78.0588 70.2764 78.4188 70.6607 77.9699C70.9215 78.1767 72.4725 78.7807 73.3784 78.6793C73.5431 78.9834 73.8862 79.6495 74.1059 79.8378C74.2843 80.0115 74.3529 80.5617 74.0509 80.8513C73.8725 80.9961 73.4059 81.5029 73.0215 81.6187C72.6372 81.7346 72.4862 81.807 72.3078 81.9952C72.1294 82.1835 72.0195 82.1835 71.9098 82.4296C71.7999 82.6758 71.5529 83.1102 71.9509 83.1102C72.3489 83.1102 72.4588 82.9033 72.4862 82.7916C72.5137 82.6799 72.4862 82.4296 72.6372 82.3862C72.7882 82.3428 73.2549 82.3138 73.5705 81.9084C73.8862 81.5029 74.5176 81.2878 74.7646 81.2423C75.0117 81.1968 75.0392 80.9382 75.0117 80.8079C74.9843 80.6776 74.9705 80.3445 75.1215 80.1708C75.3411 80.2287 76.0411 80.3879 76.3706 80.8658C76.4035 80.966 76.4448 81.063 76.4941 81.1554C76.396 81.3291 76.2058 81.4884 76.1372 81.6622C76.0527 81.9467 75.8903 82.1986 75.6705 82.3862C75.3549 82.6469 75.0823 82.8061 74.9294 83.0378C74.7653 83.2655 74.6871 83.5492 74.7098 83.8341C74.7372 84.1527 74.8195 83.9934 74.9568 83.9934C75.094 83.9934 75.4098 83.8341 75.4235 83.617C75.4372 83.3998 75.3411 83.2984 75.6294 83.1681C75.9176 83.0378 76.4245 82.6034 76.5352 82.3283C76.6461 82.0532 76.9735 81.5174 77.2343 81.3581C77.495 81.1988 77.4402 80.9672 77.3166 80.7375C77.1931 80.5079 76.7676 79.8833 76.8499 79.4778C76.9323 79.0724 77.3853 78.8262 77.5225 78.2036C77.6598 77.581 77.5774 77.2913 77.4961 77.0742C77.7284 77.0018 77.8656 77.0597 78.1676 77.2045C78.4696 77.3493 79.1559 77.3203 79.2382 77.1176C79.3206 76.9149 79.2931 76.5094 79.2382 76.4226C79.4343 76.2489 79.5676 75.8723 79.4578 75.6986C79.3987 75.6063 79.3584 75.5019 79.3395 75.3922C79.3206 75.2825 79.3235 75.1699 79.348 75.0615C79.1519 75.0325 78.95 74.8546 79.0872 74.7285C79.2245 74.6023 79.499 74.2951 79.3755 73.901C79.4166 73.6549 79.4304 73.3508 79.0323 73.3663C79.0186 73.2071 78.8951 72.6858 78.2775 73.1595C78.1794 73.2319 78.0715 73.0726 78.2088 73.0292C78.346 72.9858 79.0598 72.7396 79.1696 72.4799C79.2794 72.2204 79.2382 72.089 79.197 71.9876C79.252 71.8718 79.3068 71.6401 79.252 71.5532C79.197 71.4664 78.9775 71.4809 78.8265 71.8718C78.6755 72.2628 78.7166 72.2628 78.3186 72.3351C77.9205 72.4076 77.6186 72.3351 77.3578 72.7975C77.2755 72.9133 77.2343 73.0447 77.0421 73.1595C76.9592 73.2075 76.8869 73.2736 76.8302 73.3536C76.7736 73.4335 76.7338 73.5254 76.7137 73.6229C76.6853 73.7821 76.8225 74.0717 76.795 74.2744C76.7676 74.4771 76.6588 74.9115 77.1656 75.3749C77.4127 75.6645 77.7833 76.0409 77.5088 76.3306C77.2343 76.6202 76.9872 76.3161 76.7814 76.1713C76.5754 76.0265 75.899 75.8093 75.4646 75.8383C75.0303 75.8672 73.5843 75.4907 73.2411 75.1867C72.898 74.8826 73.1078 74.7295 73.2823 74.6364C73.3421 74.6141 73.3971 74.5796 73.4441 74.5349C73.4912 74.4902 73.5295 74.4361 73.5568 74.3758C73.5835 74.317 73.627 74.2687 73.6812 74.2375C73.7354 74.2063 73.7975 74.1939 73.8588 74.202C73.9823 74.202 74.1059 74.173 74.2156 73.8979C74.3255 73.6229 74.4352 73.7252 74.5588 73.6911C74.5965 73.6754 74.6287 73.6477 74.6509 73.6119C74.6732 73.576 74.6843 73.5338 74.6827 73.491C74.6812 73.4482 74.6672 73.407 74.6425 73.373C74.6178 73.339 74.5838 73.3139 74.545 73.3012C74.3255 73.2133 74.2019 73.1264 74.2156 73.0405C74.2456 72.9605 74.2961 72.8908 74.3616 72.8394C74.4271 72.788 74.5049 72.757 74.5862 72.7499C74.7921 72.7355 74.8049 72.5917 74.7921 72.4758C74.7784 72.4221 74.785 72.3648 74.8107 72.3161C74.8363 72.2675 74.8789 72.2313 74.9294 72.2152C75.0666 72.1428 75.0519 71.9691 74.8195 71.8966C74.5872 71.8243 74.2431 71.7374 74.2431 71.6215C74.2431 71.5057 74.394 71.3029 74.545 71.2451C74.696 71.1872 74.7646 70.941 74.4215 70.9554C74.0784 70.9699 73.8862 71.0134 73.8176 70.7817C73.749 70.5501 73.7352 70.4197 74.0921 70.2749C74.2431 70.2315 74.2882 70.0143 74.0098 70.0287C73.7313 70.0432 73.4215 70.188 73.3235 70.0867C73.2254 69.9853 73.2549 69.8984 73.3098 69.855C73.3282 69.8419 73.3419 69.8227 73.3486 69.8003C73.3553 69.7779 73.3546 69.7539 73.3466 69.732C73.3386 69.7101 73.3239 69.6918 73.3047 69.6799C73.2855 69.6681 73.2631 69.6634 73.2411 69.6668C73.1039 69.6668 72.5685 69.8839 72.4313 69.7246C72.294 69.5654 72.0744 69.4785 71.896 69.5944C71.7176 69.7102 71.7176 69.8839 71.8137 69.9853C71.8236 69.9948 71.8316 70.0063 71.8373 70.0191C71.8431 70.0319 71.8463 70.0457 71.8469 70.0598C71.8476 70.074 71.8456 70.0881 71.841 70.1014C71.8365 70.1147 71.8295 70.1269 71.8205 70.1374C71.8115 70.1478 71.8006 70.1563 71.7885 70.1623C71.7764 70.1683 71.7632 70.1718 71.7499 70.1725C71.7365 70.1731 71.7232 70.171 71.7105 70.1662C71.6979 70.1615 71.6863 70.1541 71.6764 70.1446C71.6445 70.1208 71.6207 70.087 71.6084 70.0479C71.596 70.0088 71.5958 69.9666 71.6078 69.9274C71.578 69.8255 71.5147 69.7382 71.4293 69.6812C71.3313 69.6234 71.3313 69.4641 71.3607 69.3627C71.3901 69.2613 71.2784 69.1558 71.1137 69.2593C70.9489 69.3627 70.7979 69.5344 70.8803 69.795C70.7019 69.8095 70.2489 69.9253 70.2353 70.0701C70.2215 70.2149 70.2901 70.3742 70.2627 70.4321C70.2353 70.49 70.0843 70.49 70.0019 70.548C69.7686 70.7941 69.3705 71.0258 69.2744 71.1272C69.1783 71.2285 69.1097 71.334 68.9862 71.4892C68.8627 71.6443 68.8509 71.7994 68.9038 71.8801C69.0548 72.1118 69.1783 71.9525 69.2607 72.0869C69.3431 72.2214 69.3431 72.2462 69.3293 72.3186C69.3156 72.391 69.4803 72.5492 69.7273 72.3331C69.9744 72.1169 70.1528 71.8843 70.345 72.1263C70.5372 72.3683 70.3588 72.5172 70.2764 72.6765C70.1117 72.8492 69.7273 73.3849 69.5489 73.5442C69.3705 73.7035 69.2333 74.081 69.1647 74.4275C69.096 74.774 69.0137 74.8474 68.945 74.9343C68.6156 74.804 68.245 74.6447 68.0392 74.4709C67.9019 74.3551 67.5999 74.2103 67.4077 74.4999C67.3097 74.6157 66.8195 75.3273 66.6941 75.6293C66.5685 75.9313 66.3783 75.8176 66.3783 76.3967C66.3783 76.6036 66.2274 76.6863 66.145 77.0049C66.1313 77.0918 65.9116 77.6254 66.1313 77.7289C66.3509 77.8323 66.6117 77.6999 66.6666 77.5551C66.7215 77.4104 66.7411 76.9698 66.7548 76.8105Z" fill="black"/>
<path d="M64.6161 64.1151H72.4122V52.7119C68.0602 52.7781 62.1435 53.0283 52.4189 55.7111L53.9474 76.8091H64.6161V72.9008C64.3171 72.6526 63.8572 72.2523 62.4857 72.2533C61.6749 72.2533 59.3739 73.0621 58.0347 74.7923C58.0161 75.3983 57.6866 75.6197 57.4053 75.6197C57.3328 75.6199 57.261 75.6038 57.1949 75.5724C57.1288 75.541 57.0698 75.4951 57.0219 75.4376C56.9349 75.5073 56.8281 75.5438 56.719 75.5411C56.5834 75.5408 56.4535 75.4838 56.3577 75.3826C56.262 75.2814 56.2082 75.1442 56.2082 75.0012C56.2119 74.8905 56.2453 74.7832 56.3045 74.6917C56.3636 74.6002 56.4462 74.5282 56.5425 74.4841C56.5295 74.4417 56.5229 74.3973 56.5229 74.3528C56.5231 74.2098 56.5772 74.0727 56.6731 73.9717C56.7691 73.8707 56.8991 73.8139 57.0347 73.8139C57.1265 73.8136 57.2167 73.8396 57.2954 73.8894C57.3582 73.9226 57.5631 74.0683 57.6003 73.7653C57.6278 73.4437 57.5896 70.4176 59.1229 69.9594C59.2896 69.9201 59.2347 70.0566 59.1602 70.1353C59.0856 70.2138 58.4082 71.4487 58.4984 73.0083C58.6837 72.8904 59.0867 72.5729 59.3268 72.4757C59.4004 72.1426 59.9318 69.6243 61.2003 69.5985C61.3484 69.5985 61.3111 69.7153 61.2003 69.794C61.0896 69.8726 60.5366 70.5613 60.4248 71.7931C60.6102 71.7341 61.0729 71.6503 61.1661 71.6307C61.2396 71.3381 61.7867 69.6502 62.8239 69.553C62.9543 69.553 62.8984 69.6936 62.8426 69.7526C62.7866 69.8116 62.2376 70.6162 62.1288 71.4073C62.3772 71.3879 62.627 71.3993 62.8729 71.4415C62.9847 71.2905 63.8641 70.2728 64.6161 69.9388V66.5083C64.472 66.3697 64.2455 66.2228 63.5543 66.2208C62.4758 66.2208 60.6641 66.6893 58.169 68.4102C58.1435 69.2179 57.7052 69.5188 57.3288 69.5188C57.2321 69.5187 57.1365 69.4969 57.0483 69.4551C56.9601 69.4132 56.8813 69.3521 56.817 69.2758C56.7018 69.3696 56.5596 69.4189 56.4141 69.4154C56.2329 69.4155 56.0591 69.3399 55.9305 69.2053C55.802 69.0706 55.7291 68.8878 55.7278 68.6967C55.7332 68.5499 55.7781 68.4078 55.857 68.2868C55.936 68.1658 56.0458 68.0708 56.1739 68.0131C56.1569 67.9558 56.1483 67.8962 56.1484 67.8362C56.1493 67.7095 56.1818 67.5853 56.2425 67.476C56.3032 67.3667 56.3901 67.2761 56.4944 67.2133C56.5987 67.1505 56.7168 67.1176 56.8369 67.1181C56.957 67.1185 57.0749 67.1521 57.1788 67.2157C57.2621 67.2601 57.6072 67.4163 57.6572 67.0088C57.6945 66.5796 58.32 62.9754 60.42 62.6651C60.6425 62.6134 60.568 62.7955 60.469 62.8999C60.37 63.0043 58.7455 64.4336 58.8621 66.5145C59.2911 66.2647 59.733 66.0403 60.1857 65.8423C60.2837 65.3996 61.2121 62.6983 62.9033 62.6631C63.0994 62.6631 63.0514 62.8193 62.9033 62.9237C62.7553 63.0281 61.7269 63.7924 61.5768 65.4348C61.8239 65.3562 62.5876 65.1679 62.7111 65.1421C62.8092 64.7511 63.4661 63.1957 64.8494 63.0654C65.0219 63.0654 64.9475 63.2536 64.8739 63.3322C64.8004 63.4108 64.0671 63.9434 63.9209 64.987C64.1566 64.9923 64.3911 65.0248 64.62 65.0842L64.6161 64.1151Z" fill="white"/>
<path d="M57.8641 62.0563C57.8366 62.954 57.3484 63.2891 56.9307 63.2891C56.8233 63.2894 56.717 63.2653 56.6191 63.2186C56.5211 63.1718 56.4339 63.1035 56.3631 63.0182C56.2348 63.1222 56.0768 63.1769 55.9151 63.1733C55.7143 63.1733 55.5218 63.0892 55.3799 62.9395C55.2379 62.7897 55.1582 62.5866 55.1582 62.3749C55.1644 62.2118 55.2142 62.0539 55.3018 61.9194C55.3894 61.7849 55.5112 61.6793 55.6533 61.6147C55.6343 61.5515 55.6248 61.4855 55.6249 61.4192C55.6251 61.2782 55.6606 61.1397 55.7279 61.0179C55.7951 60.896 55.8918 60.7951 56.0079 60.7254C56.1241 60.6556 56.2557 60.6196 56.3894 60.6209C56.523 60.6221 56.654 60.6606 56.769 60.7324C56.867 60.7821 57.2464 60.9559 57.3013 60.507C57.3425 60.0291 57.9464 55.7721 60.2798 55.4246C60.5268 55.3667 60.4444 55.5694 60.3347 55.6853C60.2248 55.8011 58.4131 57.3401 58.6327 59.9423C59.1499 59.6434 59.6813 59.3727 60.2248 59.1314C60.3072 58.4653 61.2131 55.3667 63.2444 55.3047C63.464 55.3047 63.4092 55.4784 63.2444 55.5943C62.8067 55.955 62.4422 56.405 62.1727 56.9174C61.9032 57.4299 61.7342 57.9943 61.6758 58.577C61.9503 58.4902 62.8287 58.3454 62.966 58.3164C63.0758 57.882 63.9267 55.768 65.464 55.6273C65.6601 55.6273 65.5738 55.7721 65.4915 55.859C65.4091 55.9459 64.315 56.9305 64.315 58.0889C64.5895 58.06 65.3582 58.06 65.5503 58.1178C65.7463 57.8572 66.566 56.9015 67.7463 56.8147C67.9424 56.8147 67.8562 56.9595 67.7463 57.0753C67.6366 57.1911 66.9228 57.8572 66.7856 58.4653C67.1973 58.6971 68.3777 59.5369 68.515 60.4636C68.5424 60.6952 68.4052 60.6952 68.2405 60.5504C68.0757 60.4056 66.8131 59.3342 65.217 59.3342C63.6209 59.3342 60.6366 60.145 57.8641 62.0563Z" fill="black"/>
<path d="M69.8493 50.2212V50.8904L68.9002 50.938V50.3505C68.9002 49.7651 68.5944 49.3989 68.0787 49.4362L65.4581 49.6161L65.4836 51.2151L64.5395 51.2627L64.4326 47.2652L68.3669 46.988C69.0875 46.927 69.7198 47.0822 69.7189 48.1257C69.7084 48.4342 69.6207 48.7343 69.4649 48.9956C69.6679 49.1569 69.8532 49.5913 69.8493 50.2212Z" fill="black"/>
<path d="M53.0313 53.7185L52.7568 49.6931L56.6686 48.7622C57.1588 48.6464 57.8628 48.7188 57.8902 49.6455C57.9177 50.5722 57.7529 50.9632 57.1353 51.108L53.8549 51.894L53.9784 53.4827L53.0313 53.7185Z" fill="black"/>
<path d="M53.7734 50.3714L53.8009 50.965L56.5322 50.3279C56.6154 50.3115 56.6892 50.2615 56.7379 50.1884C56.7867 50.1154 56.8064 50.0251 56.7929 49.937C56.7821 49.8335 56.6831 49.6908 56.4086 49.7487C56.1341 49.8066 53.7734 50.3714 53.7734 50.3714Z" fill="white"/>
<path d="M58.4805 49.2127C58.4805 48.8362 58.4667 48.2818 59.4412 48.1267L62.6118 47.5765C62.9961 47.5041 63.8608 47.7833 63.8608 48.5321L63.902 50.4724C63.9157 50.8778 63.8883 51.4136 62.8589 51.5729L59.9216 52.0652C59.4001 52.1686 58.5491 52.0796 58.5216 51.0371L58.4805 49.2127Z" fill="black"/>
<path d="M59.4424 49.6622C59.4424 49.3581 59.4287 49.0685 59.9326 48.9671L62.362 48.5327C62.6228 48.4893 62.8973 48.692 62.8973 48.9671L62.9248 50.1545C62.9248 50.3427 62.8424 50.6468 62.4444 50.7192L60.0424 51.1246C59.713 51.1826 59.4934 51.197 59.4659 50.7482L59.4424 49.6622Z" fill="white"/>
<path d="M71.86 48.4628C71.7724 48.4628 71.6884 48.4261 71.6264 48.3607C71.5645 48.2953 71.5297 48.2067 71.5297 48.1142C71.5297 48.0218 71.5645 47.9331 71.6264 47.8678C71.6884 47.8024 71.7724 47.7657 71.86 47.7657H75.7307V46.8979H71.4071C71.1874 46.8979 70.4463 46.9486 70.4532 48.1287C70.46 49.3088 71.2424 49.3305 71.4071 49.3305H74.4405C74.5279 49.3308 74.6117 49.3676 74.6735 49.433C74.7352 49.4983 74.7699 49.5868 74.7699 49.6791C74.7693 49.7233 74.7602 49.7669 74.7431 49.8072C74.726 49.8476 74.7013 49.8838 74.6704 49.9137C74.6396 49.9437 74.6033 49.9666 74.5638 49.9812C74.5242 49.9958 74.4822 50.0018 74.4405 49.9987H70.5698V50.8654H74.8836C75.1571 50.8654 75.8787 50.9088 75.8787 49.6563C75.8787 48.4038 75.0689 48.4618 74.8836 48.4618L71.86 48.4628Z" fill="black"/>
<path d="M82.5117 47.3901L82.2783 51.5023L83.1842 51.6326L83.294 49.8661L86.4783 50.5032L86.3685 52.1829L87.2744 52.3566L87.5077 48.2589L86.6155 48.0852L86.5195 49.6779L83.3351 49.0408L83.4176 47.5349L82.5117 47.3901Z" fill="black"/>
<path d="M88.1279 52.4874L88.3475 48.4331L92.7122 49.4032L92.6574 50.2286L89.2123 49.4612L89.1848 50.2141L92.6024 50.9815L92.5475 51.8069L89.1299 51.0394L89.0887 51.8648L92.4926 52.6322L92.424 53.4575L88.1279 52.4874Z" fill="black"/>
<path d="M81.6474 48.2163L81.6857 47.3185L77.6661 46.9855C77.3229 46.9565 76.6651 46.9276 76.6102 48.1149C76.5553 49.3023 76.5269 49.838 76.5269 49.838C76.5141 50.2435 76.7465 50.924 77.4739 50.9819L81.4817 51.3005L81.5229 50.4027L78.1749 50.1421C77.8592 50.1276 77.5161 50.0263 77.5435 49.4181L77.571 48.5493C77.5847 48.2018 77.6945 47.8832 78.2161 47.9288L81.6474 48.2163Z" fill="black"/>
<path d="M68.2406 48.5595L65.4308 48.7219L65.418 48.0865L68.2611 47.9282C68.4817 47.9344 68.573 48.0172 68.5818 48.2294C68.5906 48.4415 68.4357 48.5429 68.2406 48.5595Z" fill="white"/>
<path d="M66.5083 67.5906C66.5495 67.8367 66.6564 67.9381 66.874 67.9381C67.0544 67.9381 67.1809 67.8346 67.1809 67.6919C67.1809 67.6143 67.1397 67.5616 67.0358 67.5099L66.5328 67.2638C66.4331 67.2245 66.3482 67.1522 66.2909 67.0576C66.2336 66.963 66.207 66.8513 66.2152 66.7394C66.2098 66.6544 66.2216 66.5691 66.2497 66.4892C66.278 66.4094 66.3219 66.3368 66.3788 66.2762C66.4356 66.2157 66.504 66.1686 66.5794 66.1381C66.6549 66.1076 66.7355 66.0943 66.8162 66.0991C67.2142 66.0991 67.4417 66.3401 67.4583 66.7797H67.1289C67.0956 66.548 67.0054 66.4529 66.8211 66.4529C66.6564 66.4529 66.5387 66.5563 66.5387 66.6959C66.541 66.7314 66.5531 66.7654 66.5735 66.7937C66.5939 66.8219 66.6217 66.8434 66.6534 66.8552L67.1701 67.1075C67.4034 67.2203 67.5054 67.3537 67.5054 67.6371C67.5073 67.7317 67.4898 67.8256 67.4543 67.9125C67.4188 67.9994 67.366 68.0773 67.2995 68.1408C67.24 68.1957 67.1706 68.2373 67.0955 68.2632C67.0203 68.2892 66.941 68.2989 66.8623 68.2918C66.5878 68.2918 66.394 68.1904 66.2809 67.9877C66.2135 67.8676 66.1795 67.73 66.1828 67.5906H66.5083Z" fill="black"/>
<path d="M68.9422 66.1406V66.5233H68.4567V68.2527H68.1183V66.5233H67.6211V66.1406H68.9422Z" fill="black"/>
<path d="M70.4965 66.1427V67.4438C70.4965 67.9247 70.3622 68.293 69.8347 68.293C69.3071 68.293 69.1729 67.9309 69.1729 67.4438V66.1406H69.5111V67.4356C69.5111 67.7769 69.6013 67.9103 69.8298 67.9103C70.0582 67.9103 70.1582 67.7831 70.1582 67.4356V66.1427H70.4965Z" fill="black"/>
<path d="M71.998 66.1406V66.5233H71.5125V68.2527H71.1741V66.5233H70.6768V66.1406H71.998Z" fill="black"/>
<path d="M74.2621 67.1094H74.9424V68.2532H74.7091L74.6768 67.9864C74.6295 68.0802 74.5588 68.1586 74.4724 68.2133C74.3861 68.2679 74.2872 68.2967 74.1866 68.2967C73.7454 68.2967 73.4316 67.8509 73.4316 67.2189C73.4316 66.5477 73.7503 66.104 74.2366 66.104C74.6287 66.104 74.8954 66.3677 74.9444 66.8166H74.5983C74.5326 66.588 74.4229 66.4867 74.2395 66.4867C73.9562 66.4867 73.7807 66.7618 73.7807 67.2014C73.7807 67.641 73.962 67.914 74.2395 67.914C74.4503 67.914 74.5905 67.7578 74.6317 67.4745H74.2621V67.1094Z" fill="black"/>
<path d="M75.7191 66.1406H76.1004L76.6798 68.2527H76.3112L76.1994 67.8089H75.6033L75.4877 68.2527H75.1338L75.7191 66.1406Z" fill="black"/>
<path d="M77.5906 66.1406C77.8239 66.1406 77.9111 66.1675 78.0102 66.2626C78.0687 66.327 78.114 66.4034 78.1433 66.487C78.1727 66.5707 78.1854 66.6597 78.1807 66.7487C78.1807 66.9928 78.1229 67.117 77.9474 67.239C78.1063 67.3279 78.1258 67.3859 78.1435 67.7944C78.1543 68.1368 78.1621 68.1885 78.2141 68.2527H77.8415C77.8077 68.1454 77.7937 68.0324 77.8004 67.9196C77.7916 67.6093 77.8327 67.418 77.52 67.418H77.2103V68.2527H76.8721V66.1406H77.5906Z" fill="black"/>
<path d="M79.6922 66.1406V66.5233H79.2058V68.2527H78.8684V66.5233H78.3711V66.1406H79.6922Z" fill="black"/>
<path d="M73.4784 66.1406V66.5233H72.9929V68.2527H72.6545V66.5233H72.1572V66.1406H73.4784Z" fill="black"/>
<path d="M76.1086 67.4462L75.9025 66.6235L75.6963 67.4462H76.1086Z" fill="white"/>
<path d="M77.2051 67.0659H77.5261C77.7567 67.0659 77.8314 66.9987 77.8314 66.7938C77.8314 66.589 77.7597 66.5269 77.5261 66.5269H77.2051V67.0659Z" fill="white"/>
<path d="M96.8216 49.1142C97.0967 49.114 97.3657 49.2 97.5946 49.3612C97.8234 49.5224 98.0017 49.7516 98.1069 50.0198C98.2122 50.288 98.2397 50.5832 98.1858 50.8678C98.1319 51.1525 97.9992 51.4139 97.8045 51.619C97.6097 51.824 97.3617 51.9635 97.0917 52.0197C96.8218 52.0759 96.5421 52.0463 96.2881 51.9347C96.034 51.8231 95.8172 51.6345 95.6649 51.3927C95.5125 51.151 95.4316 50.867 95.4324 50.5767C95.4324 50.3844 95.4684 50.1939 95.5382 50.0163C95.6081 49.8387 95.7104 49.6773 95.8394 49.5415C95.9685 49.4056 96.1216 49.298 96.2902 49.2247C96.4587 49.1514 96.6393 49.1138 96.8216 49.1142V48.9136C96.5087 48.9128 96.2026 49.01 95.9421 49.1928C95.6816 49.3757 95.4785 49.6361 95.3584 49.9409C95.2382 50.2457 95.2066 50.5813 95.2675 50.9051C95.3284 51.2289 95.4789 51.5263 95.7002 51.7597C95.9214 51.9932 96.2034 52.152 96.5103 52.2162C96.8172 52.2805 97.1353 52.2471 97.4242 52.1204C97.7131 51.9937 97.9599 51.7793 98.1333 51.5045C98.3066 51.2297 98.3988 50.9068 98.398 50.5767C98.3969 50.1359 98.2305 49.7136 97.9351 49.4019C97.6397 49.0902 97.2393 48.9147 96.8216 48.9136V49.1142Z" fill="black"/>
<path d="M96.449 49.8158H96.953C97.1727 49.8158 97.4129 49.851 97.4129 50.1396C97.4129 50.5192 97.0275 50.4747 96.7795 50.4747H96.449V50.6536H96.8461L97.3501 51.5172H97.607L97.0775 50.6536C97.3913 50.6453 97.6354 50.5098 97.6354 50.1437C97.6386 50.0646 97.6222 49.986 97.5878 49.9157C97.5534 49.8453 97.5022 49.7856 97.4393 49.7424C97.3067 49.6704 97.1577 49.6385 97.0089 49.6504H96.2393V51.5172H96.4549L96.449 49.8158Z" fill="black"/>
</svg>
