<svg width="25" height="47" viewBox="0 0 25 47" fill="none" xmlns="http://www.w3.org/2000/svg">
<g clip-path="url(#clip0_2079_3154)">
<path d="M2.51367 44.7919L3.19885 44.791C3.15133 44.6593 3.12558 44.5201 3.12272 44.3792V42.0298C3.12272 41.8492 3.22709 41.8591 3.30363 41.9598L5.57651 44.7914H6.27109L3.91227 41.8599C3.85538 41.79 3.86397 41.6794 3.94952 41.6794H4.19795C4.50818 41.6793 4.80565 41.5491 5.02493 41.3176C5.24422 41.086 5.36738 40.772 5.36738 40.4445C5.36732 40.1171 5.24399 39.8031 5.02465 39.5717C4.80524 39.3401 4.50778 39.2101 4.19755 39.2102H2.51408C2.55174 39.3208 2.57998 39.421 2.59021 39.6228V44.3814C2.58689 44.5218 2.56101 44.6606 2.51367 44.7919ZM3.12108 39.7606H4.19553C4.27942 39.7606 4.36256 39.778 4.44011 39.8119C4.51765 39.8457 4.58815 39.8954 4.6475 39.958C4.70686 40.0207 4.75397 40.095 4.78613 40.1769C4.81823 40.2588 4.8348 40.3465 4.83486 40.435C4.83486 40.5236 4.81835 40.6113 4.78625 40.6932C4.7542 40.7751 4.70714 40.8495 4.64779 40.9122C4.58843 40.9748 4.51799 41.0245 4.44051 41.0585C4.36297 41.0924 4.27983 41.1099 4.19593 41.1099L3.12108 41.1082V39.7606ZM17.7902 20.7828C16.85 23.277 14.675 24.0707 14.675 24.0707L15.4535 25.7717C15.4535 25.7717 15.564 25.7431 15.7518 25.6727C16.2332 26.2465 18.1271 28.7563 18.2204 32.6901C18.2204 32.6901 18.3538 34.306 16.9843 35.4393H21.1477C21.1477 35.4393 20.6099 35.0707 20.3954 34.0502C20.1805 33.0301 20.2334 31.2436 19.321 29.0885C18.5851 27.3543 17.572 25.5647 17.2049 24.9335C18.3153 24.2163 19.6775 22.9543 20.422 20.8385C21.8177 16.8701 19.1331 13.9214 16.6085 13.4111C16.6085 13.4111 17.306 14.7444 17.4145 15.7079C17.4145 15.7079 19.0054 17.5575 17.7902 20.7828ZM21.5746 4.87464C21.3949 4.73383 20.7986 4.18511 20.5763 4.00019C20.4052 3.8602 20.1286 2.86605 20.977 2.84575C21.4047 2.83495 21.7858 3.17713 21.9274 3.26743L22.1657 2.63491C22.0217 2.60376 21.8814 2.55655 21.747 2.49406C21.5783 2.41888 21.2713 2.28279 20.977 2.28279C20.6819 2.28279 19.8715 2.46468 19.8257 3.38711C19.7876 4.15141 20.2726 4.52168 20.454 4.67377C20.7106 4.87422 21.3663 5.40606 21.6614 5.83814C21.9569 6.26973 22.1087 7.1736 21.0528 7.30406C20.6909 7.30364 20.2931 7.11397 20.0729 6.96274L20.1584 7.74607C20.3774 7.70502 20.5014 7.75472 20.5955 7.76635C20.7577 7.78541 20.977 7.83682 21.1845 7.82641C21.3949 7.81648 22.4702 7.62596 22.4702 6.53072C22.4698 5.56722 21.8313 5.09543 21.5746 4.87464ZM17.5687 44.9832C18.1365 44.9832 18.6624 44.975 19.0934 44.6519L19.0717 43.9675C18.6878 44.3732 18.1565 44.444 17.5687 44.444C16.3953 44.444 15.4432 43.319 15.4432 42.0803C15.4432 40.8416 16.3953 39.755 17.5687 39.755C18.1021 39.755 18.5969 39.911 19.0013 40.2458L18.9301 39.5718C18.52 39.2966 18.0902 39.2162 17.5687 39.2162C16.1128 39.2162 14.9324 40.5431 14.9324 42.0803C14.932 43.618 16.1128 44.9832 17.5687 44.9832ZM8.71913 44.8635C9.41828 44.8635 10.0888 44.5704 10.5832 44.0485C11.0775 43.5267 11.3553 42.8189 11.3553 42.0809C11.3553 41.343 11.0775 40.6352 10.5832 40.1133C10.0888 39.5915 9.41828 39.2983 8.71913 39.2983C8.02003 39.2983 7.34952 39.5915 6.85511 40.1133C6.36076 40.6352 6.08304 41.343 6.08304 42.0809C6.08304 42.8189 6.36076 43.5267 6.85511 44.0485C7.34952 44.5704 8.02003 44.8635 8.71913 44.8635ZM8.71913 39.8375C9.27376 39.8516 9.8012 40.0941 10.1887 40.513C10.5763 40.9321 10.7932 41.4945 10.7932 42.0801C10.7932 42.6657 10.5763 43.228 10.1887 43.6471C9.8012 44.0661 9.27376 44.3085 8.71913 44.3226C8.15555 44.3227 7.615 44.0866 7.21638 43.6661C6.8177 43.2456 6.59356 42.6752 6.59321 42.0803C6.59344 41.4853 6.81753 40.9148 7.21621 40.4942C7.61489 40.0736 8.15549 39.8374 8.71913 39.8375ZM22.0887 44.8722L22.4788 44.2099C22.2143 44.3602 21.6516 44.3602 21.2987 44.3602C20.9488 44.3602 20.7855 44.1705 20.7855 44.0094V42.1818C20.7855 41.9598 20.9185 41.8906 21.0806 41.8906H22.0121V41.3263H21.0814C20.9193 41.3263 20.7863 41.2581 20.7863 41.0361V40.1512C20.7863 39.9913 20.9484 39.8008 21.2996 39.8008C21.6524 39.8008 21.9664 39.8008 22.232 39.9512L22.0883 39.2892H20.1768C20.2157 39.3998 20.2432 39.4997 20.2526 39.7005L20.2534 44.4605C20.2506 44.6016 20.2247 44.7412 20.1768 44.873L22.0887 44.8722ZM12.9076 44.46C12.9049 44.6005 12.8793 44.7395 12.8319 44.8709L13.5162 44.8718C13.4693 44.7397 13.4434 44.6002 13.4397 44.4592L13.4405 41.9295L14.8858 39.2892H14.2677L13.1937 41.2875L12.1189 39.2892H11.5004L12.908 41.9295L12.9076 44.46ZM13.0087 26.4828C12.894 26.0745 12.4745 25.191 12.265 24.8264C11.4877 24.9646 10.7636 25.0104 10.1919 25.0104L10.1923 24.5693C9.9262 24.6686 8.74534 24.8493 8.25133 24.911V33.7266C8.25133 34.6507 7.87026 35.091 7.6038 35.4936H10.8381C10.5717 35.091 10.1914 34.6507 10.1914 33.7275L10.1923 26.7377C11.1942 26.7213 12.1577 26.6328 13.0087 26.4828ZM13.4061 6.87119V2.56276C13.4151 2.36186 13.4446 2.26205 13.4831 2.15188L12.7979 2.15231C12.8356 2.26291 12.8634 2.36229 12.8748 2.56276V7.32306C12.8708 7.46388 12.8447 7.603 12.7979 7.73486H14.7093L15.0994 7.07164C14.8334 7.22202 14.2722 7.22153 13.9202 7.22202C13.5674 7.22202 13.4061 7.03187 13.4061 6.87119ZM9.06296 2.16052C8.71283 2.15406 8.36502 2.22129 8.03978 2.35827C7.71454 2.49525 7.41841 2.69924 7.16869 2.95833C6.91891 3.21744 6.72058 3.52644 6.58519 3.86734C6.44979 4.20822 6.3801 4.57419 6.38016 4.94377C6.38022 5.31342 6.45002 5.67935 6.58553 6.02019C6.72099 6.36103 6.91943 6.66995 7.16927 6.92899C7.4191 7.18803 7.71524 7.39189 8.04053 7.52881C8.36583 7.66567 8.7137 7.73279 9.06377 7.72621C9.75495 7.71324 10.4136 7.4143 10.898 6.89373C11.3824 6.37315 11.6538 5.67259 11.6537 4.94292C11.6535 4.21325 11.382 3.51281 10.8975 2.9924C10.4129 2.47199 9.75414 2.17326 9.06296 2.16052ZM9.06336 7.18657C8.78004 7.19376 8.49816 7.14107 8.23442 7.03156C7.97067 6.92205 7.73031 6.75803 7.52747 6.54899C7.3247 6.34002 7.16355 6.09036 7.0535 5.81463C6.94345 5.5389 6.88675 5.24277 6.88675 4.94359C6.88675 4.64441 6.94345 4.34824 7.0535 4.07253C7.16355 3.79682 7.3247 3.54712 7.52747 3.33813C7.73031 3.12914 7.97067 2.96507 8.23442 2.85558C8.49816 2.74609 8.78004 2.69339 9.06336 2.70058C9.61811 2.71466 10.1456 2.95715 10.5332 3.37626C10.9209 3.79537 11.1378 4.35786 11.1378 4.94359C11.1378 5.52928 10.9209 6.09176 10.5332 6.51086C10.1456 6.92997 9.61811 7.1725 9.06336 7.18657ZM17.0395 6.87119L17.0387 2.56276C17.0477 2.36229 17.078 2.26248 17.1157 2.15188L16.4305 2.15231C16.4681 2.26291 16.4976 2.36229 16.5074 2.56276V7.32306C16.5039 7.46394 16.478 7.60318 16.4305 7.73486H18.3427L18.732 7.07164C18.4659 7.22202 17.9048 7.22153 17.5528 7.22202C17.2008 7.22202 17.0395 7.03187 17.0395 6.87119ZM4.29455 4.62102L4.54138 4.62236C4.84658 4.61384 5.1366 4.47984 5.34959 4.24897C5.56265 4.01809 5.68182 3.70853 5.68182 3.38625C5.68182 3.06396 5.56265 2.7544 5.34959 2.52352C5.1366 2.29263 4.84658 2.15867 4.54138 2.15015L2.85871 2.15231C2.89678 2.26248 2.92503 2.36229 2.93403 2.56319V7.32355C2.93122 7.46449 2.9056 7.60385 2.8583 7.73571H3.54349C3.49602 7.60403 3.47 7.46394 3.46653 7.32306V4.97319C3.46653 4.7926 3.57132 4.8021 3.64786 4.90272L5.92155 7.73444H6.61492L4.25609 4.80162C4.19917 4.73121 4.20904 4.62102 4.29455 4.62102ZM3.46571 4.05161V2.70404H4.54017C4.70576 2.71029 4.86258 2.78413 4.97765 2.91001C5.09272 3.03589 5.15698 3.20398 5.15698 3.3789C5.15698 3.55382 5.09272 3.72191 4.97765 3.84779C4.86258 3.97367 4.70576 4.04751 4.54017 4.05376L3.46571 4.05161Z" fill="black" stroke="black" stroke-width="0.5" stroke-miterlimit="22.926"/>
<path d="M3.80078 33.285L7.0347 33.2842C6.76864 32.8814 6.38797 32.4412 6.38797 31.517L6.38844 24.5282C8.56839 24.4897 10.3894 24.11 11.8494 23.4978C14.0743 26.0131 14.3404 29.6696 14.3789 30.672C14.4166 31.6778 13.9225 32.5613 13.1608 33.2846H17.3848C16.7373 32.9225 16.5093 31.9591 16.4721 31.0349C16.0534 26.8578 13.8468 23.6049 13.3126 22.7607C15.8196 21.1737 16.9276 18.7418 16.9276 16.4959C16.9276 12.7605 13.8075 10.9929 11.1061 10.9929H3.99111C4.25715 11.3943 4.44705 11.555 4.44705 12.4788V31.5166C4.44705 32.4412 4.06725 32.8828 3.80078 33.285ZM6.38844 12.3185H10.5736C13.4649 12.3185 14.4166 14.2471 14.3789 16.2946C14.1886 21.9583 8.86101 22.8026 6.38844 22.8026V12.3185Z" fill="black" stroke="black" stroke-width="0.5" stroke-miterlimit="22.926"/>
<path d="M23.1361 0.557251H1.81778C1.49901 0.557824 1.19345 0.691741 0.968048 0.92967C0.742645 1.1676 0.615777 1.49013 0.615234 1.82661V45.2352C0.615234 45.5752 0.740485 45.8928 0.96806 46.1339C1.07938 46.252 1.21182 46.3455 1.35769 46.4092C1.50356 46.4728 1.65995 46.5052 1.81778 46.5045H23.1557C23.477 46.5045 23.759 46.3728 23.9862 46.1339C24.2134 45.8928 24.3186 45.5752 24.3186 45.2352V1.82619C24.3186 1.12713 23.7995 0.557251 23.1361 0.557251ZM23.5977 45.329C23.5977 45.5856 23.4001 45.7956 23.1557 45.7956H1.81778C1.75976 45.7956 1.70231 45.7835 1.64877 45.7599C1.59523 45.7363 1.54666 45.7017 1.50588 45.6582C1.46463 45.6151 1.43191 45.5639 1.40963 45.5074C1.38736 45.4508 1.37597 45.3902 1.37613 45.329L1.37654 38.2329H23.5982L23.5977 45.329ZM23.5977 37.3369H1.37654V9.32574L23.5982 9.30412L23.5977 37.3369ZM23.5977 8.40762H1.37654V1.73329C1.37654 1.60886 1.42239 1.49135 1.50588 1.40364C1.58938 1.31593 1.69989 1.26668 1.81778 1.26668H23.1557C23.273 1.26691 23.3853 1.3162 23.4682 1.40375C23.551 1.4913 23.5976 1.60996 23.5977 1.73372V8.40762Z" fill="black" stroke="black" stroke-width="0.5" stroke-miterlimit="22.926"/>
<path d="M12.535 13.1399L7.79688 13.1403C8.06414 13.5413 8.25405 13.702 8.25405 14.6258V22.1767C8.88114 22.1171 9.75581 21.8155 10.1929 21.6548V14.4655H13.6196C13.4285 13.9643 12.9152 13.3814 12.535 13.1399Z" fill="black" stroke="black" stroke-width="1.18374" stroke-miterlimit="22.926"/>
</g>
<defs>
<clipPath id="clip0_2079_3154">
<rect width="24.7589" height="47" fill="white"/>
</clipPath>
</defs>
</svg>
