<svg width="150" height="150" viewBox="0 0 150 150" fill="none" xmlns="http://www.w3.org/2000/svg">
<rect width="150" height="150" fill="white"/>
<path d="M62.957 99.4983L63.7606 99.4973C63.7048 99.3429 63.6746 99.1796 63.6713 99.0144V96.2591C63.6713 96.0473 63.7937 96.0589 63.8834 96.177L66.5489 99.4978H67.3635L64.5972 96.0599C64.5305 95.9779 64.5406 95.8481 64.6409 95.8481H64.9323C65.2961 95.8481 65.6449 95.6954 65.9021 95.4239C66.1593 95.1523 66.3037 94.784 66.3037 94.4C66.3036 94.0161 66.159 93.6478 65.9017 93.3764C65.6444 93.1049 65.2956 92.9524 64.9318 92.9524H62.9575C63.0017 93.0821 63.0348 93.1997 63.0468 93.4364V99.0169C63.0429 99.1816 63.0125 99.3444 62.957 99.4983ZM63.6694 93.5979H64.9294C65.0278 93.5979 65.1253 93.6184 65.2162 93.6581C65.3072 93.6978 65.3898 93.7561 65.4595 93.8295C65.5291 93.9029 65.5843 93.9901 65.622 94.0861C65.6597 94.1821 65.6791 94.285 65.6792 94.3889C65.6792 94.4928 65.6598 94.5956 65.6222 94.6916C65.5846 94.7877 65.5294 94.8749 65.4598 94.9484C65.3902 95.0219 65.3076 95.0802 65.2167 95.12C65.1258 95.1598 65.0283 95.1803 64.9299 95.1804L63.6694 95.1783V93.5979ZM80.8724 71.3419C79.7698 74.267 77.2191 75.1978 77.2191 75.1978L78.132 77.1926C78.132 77.1926 78.2616 77.1591 78.4819 77.0766C79.0465 77.7494 81.2675 80.6928 81.3769 85.3061C81.3769 85.3061 81.5334 87.2011 79.9272 88.5301H84.8099C84.8099 88.5301 84.1792 88.0979 83.9277 86.9011C83.6756 85.7049 83.7376 83.6097 82.6676 81.0824C81.8046 79.0486 80.6166 76.9499 80.186 76.2096C81.4882 75.3685 83.0857 73.8885 83.9589 71.4073C85.5957 66.7534 82.4473 63.2953 79.4866 62.6969C79.4866 62.6969 80.3045 64.2605 80.4318 65.3904C80.4318 65.3904 82.2976 67.5596 80.8724 71.3419ZM85.3105 52.6858C85.0998 52.5207 84.4005 51.8772 84.1398 51.6603C83.9392 51.4962 83.6147 50.3303 84.6097 50.3065C85.1113 50.2938 85.5582 50.6951 85.7243 50.801L86.0037 50.0592C85.8349 50.0227 85.6703 49.9673 85.5126 49.894C85.3149 49.8059 84.9548 49.6463 84.6097 49.6463C84.2636 49.6463 83.3132 49.8596 83.2595 50.9414C83.2148 51.8377 83.7836 52.2719 83.9963 52.4503C84.2972 52.6853 85.0662 53.3091 85.4123 53.8158C85.7588 54.3219 85.9369 55.3819 84.6985 55.5349C84.2742 55.5344 83.8077 55.312 83.5494 55.1346L83.6497 56.0533C83.9065 56.0051 84.052 56.0634 84.1623 56.0771C84.3525 56.0994 84.6097 56.1597 84.8531 56.1475C85.0998 56.1358 86.3608 55.9124 86.3608 54.628C86.3603 53.4981 85.6115 52.9448 85.3105 52.6858ZM80.6127 99.7227C81.2785 99.7227 81.8953 99.7131 82.4008 99.3341L82.3753 98.5315C81.925 99.0073 81.302 99.0904 80.6127 99.0904C79.2365 99.0904 78.12 97.771 78.12 96.3184C78.12 94.8656 79.2365 93.5914 80.6127 93.5914C81.2381 93.5914 81.8185 93.7743 82.2928 94.1669L82.2092 93.3765C81.7282 93.0538 81.2243 92.9595 80.6127 92.9595C78.9053 92.9595 77.521 94.5156 77.521 96.3184C77.5205 98.1216 78.9053 99.7227 80.6127 99.7227ZM70.2344 99.5824C71.0543 99.5824 71.8407 99.2386 72.4205 98.6266C73.0002 98.0146 73.3259 97.1846 73.3259 96.3191C73.3259 95.4536 73.0002 94.6236 72.4205 94.0116C71.8407 93.3996 71.0543 93.0558 70.2344 93.0558C69.4146 93.0558 68.6282 93.3996 68.0484 94.0116C67.4687 94.6236 67.143 95.4536 67.143 96.3191C67.143 97.1846 67.4687 98.0146 68.0484 98.6266C68.6282 99.2386 69.4146 99.5824 70.2344 99.5824ZM70.2344 93.6881C70.8848 93.7046 71.5034 93.989 71.9579 94.4804C72.4123 94.9718 72.6667 95.6314 72.6667 96.3181C72.6667 97.0049 72.4123 97.6643 71.9579 98.1558C71.5034 98.6472 70.8848 98.9315 70.2344 98.948C69.5735 98.9481 68.9396 98.6712 68.4721 98.1781C68.0045 97.6849 67.7417 97.016 67.7413 96.3184C67.7415 95.6206 68.0043 94.9515 68.4719 94.4583C68.9394 93.965 69.5734 93.688 70.2344 93.6881ZM85.9134 99.5925L86.3709 98.8158C86.0608 98.9921 85.4008 98.9921 84.987 98.9921C84.5766 98.9921 84.3851 98.7696 84.3851 98.5806V96.4374C84.3851 96.177 84.5411 96.0959 84.7312 96.0959H85.8236V95.4341H84.7321C84.5421 95.4341 84.3861 95.3541 84.3861 95.0937V94.056C84.3861 93.8685 84.5761 93.6451 84.988 93.6451C85.4017 93.6451 85.7699 93.6451 86.0814 93.8214L85.913 93.0451H83.6713C83.7169 93.1749 83.7491 93.2919 83.7601 93.5275L83.7611 99.1096C83.7578 99.2752 83.7274 99.4389 83.6713 99.5935L85.9134 99.5925ZM75.1463 99.1091C75.1432 99.2739 75.1132 99.4369 75.0576 99.591L75.8602 99.592C75.8051 99.4371 75.7748 99.2736 75.7704 99.1081L75.7713 96.1415L77.4663 93.0451H76.7414L75.4819 95.3886L74.2214 93.0451H73.4961L75.1468 96.1415L75.1463 99.1091ZM75.2649 78.0266C75.1305 77.5478 74.6385 76.5116 74.3928 76.084C73.4812 76.2461 72.6321 76.2998 71.9615 76.2998L71.962 75.7825C71.65 75.899 70.2651 76.1109 69.6858 76.1833V86.5216C69.6858 87.6054 69.2389 88.1217 68.9264 88.5939H72.7194C72.4069 88.1217 71.9611 87.6054 71.9611 86.5226L71.962 78.3255C73.1371 78.3063 74.267 78.2024 75.2649 78.0266ZM75.731 55.0273V49.9746C75.7416 49.739 75.7761 49.622 75.8213 49.4928L75.0178 49.4933C75.0619 49.623 75.0945 49.7395 75.1079 49.9746V55.5572C75.1032 55.7223 75.0727 55.8855 75.0178 56.0401H77.2593L77.7168 55.2623C77.4048 55.4387 76.7467 55.4381 76.3339 55.4387C75.9201 55.4387 75.731 55.2157 75.731 55.0273ZM70.6376 49.5029C70.227 49.4953 69.8191 49.5742 69.4377 49.7348C69.0563 49.8954 68.709 50.1347 68.4161 50.4385C68.1232 50.7424 67.8906 51.1048 67.7319 51.5045C67.5731 51.9043 67.4913 52.3335 67.4914 52.7669C67.4915 53.2004 67.5733 53.6296 67.7323 54.0293C67.8911 54.429 68.1238 54.7913 68.4168 55.0951C68.7098 55.3988 69.0571 55.6379 69.4386 55.7985C69.8201 55.959 70.228 56.0377 70.6386 56.03C71.4492 56.0148 72.2216 55.6642 72.7897 55.0537C73.3577 54.4432 73.676 53.6216 73.6758 52.7659C73.6757 51.9102 73.3573 51.0888 72.789 50.4785C72.2208 49.8682 71.4482 49.5178 70.6376 49.5029ZM70.6381 55.3971C70.3058 55.4056 69.9753 55.3438 69.666 55.2153C69.3567 55.0869 69.0748 54.8946 68.8369 54.6494C68.5991 54.4043 68.4101 54.1116 68.2811 53.7882C68.152 53.4648 68.0855 53.1176 68.0855 52.7667C68.0855 52.4158 68.152 52.0685 68.2811 51.7452C68.4101 51.4218 68.5991 51.129 68.8369 50.8839C69.0748 50.6388 69.3567 50.4464 69.666 50.318C69.9753 50.1896 70.3058 50.1278 70.6381 50.1362C71.2887 50.1527 71.9073 50.4371 72.3618 50.9286C72.8165 51.4201 73.0709 52.0798 73.0709 52.7667C73.0709 53.4536 72.8165 54.1132 72.3618 54.6047C71.9073 55.0962 71.2887 55.3806 70.6381 55.3971ZM79.9921 55.0273L79.9911 49.9746C80.0017 49.7395 80.0371 49.6225 80.0814 49.4928L79.2778 49.4933C79.322 49.623 79.3565 49.7395 79.368 49.9746V55.5572C79.364 55.7224 79.3335 55.8857 79.2778 56.0401H81.5204L81.9769 55.2623C81.6649 55.4387 81.0068 55.4381 80.594 55.4387C80.1812 55.4387 79.9921 55.2157 79.9921 55.0273ZM65.0455 52.3884L65.335 52.39C65.6929 52.38 66.033 52.2228 66.2828 51.9521C66.5327 51.6813 66.6724 51.3183 66.6724 50.9403C66.6724 50.5624 66.5327 50.1994 66.2828 49.9286C66.033 49.6578 65.6929 49.5007 65.335 49.4907L63.3617 49.4933C63.4063 49.6225 63.4394 49.7395 63.45 49.9751V55.5578C63.4467 55.7231 63.4167 55.8865 63.3612 56.0411H64.1647V56.0401C64.1091 55.8857 64.0786 55.7224 64.0745 55.5572V52.8014C64.0745 52.5896 64.1974 52.6008 64.2871 52.7188L66.9536 56.0396H67.7667L65.0004 52.6002C64.9337 52.5176 64.9453 52.3884 65.0455 52.3884ZM64.0735 51.7206V50.1403H65.3336C65.5278 50.1476 65.7117 50.2342 65.8466 50.3818C65.9816 50.5295 66.0569 50.7266 66.0569 50.9317C66.0569 51.1369 65.9816 51.334 65.8466 51.4816C65.7117 51.6292 65.5278 51.7158 65.3336 51.7232L64.0735 51.7206Z" fill="black" stroke="black" stroke-width="0.5" stroke-miterlimit="22.926"/>
<path d="M64.4668 86.0031L68.2593 86.0021C67.9473 85.5298 67.5009 85.0136 67.5009 83.9298L67.5014 75.7337C70.058 75.6886 72.1935 75.2432 73.9057 74.5253C76.515 77.4751 76.827 81.7632 76.8721 82.9387C76.9163 84.1183 76.3369 85.1544 75.4436 86.0026H80.3973C79.6379 85.578 79.3706 84.4481 79.3269 83.3643C78.8359 78.4657 76.2481 74.6509 75.6217 73.6608C78.5618 71.7998 79.8612 68.9477 79.8612 66.3139C79.8612 61.9332 76.202 59.8604 73.034 59.8604H64.69C65.002 60.3311 65.2247 60.5196 65.2247 61.6029V83.9293C65.2247 85.0136 64.7793 85.5314 64.4668 86.0031ZM67.5014 61.4149H72.4095C75.8003 61.4149 76.9163 63.6767 76.8721 66.0778C76.6489 72.7199 70.4011 73.71 67.5014 73.71V61.4149Z" fill="black" stroke="black" stroke-miterlimit="22.926"/>
<path d="M87.1405 47.6221H62.1398C61.7659 47.6227 61.4076 47.7798 61.1433 48.0588C60.8789 48.3378 60.7301 48.7161 60.7295 49.1107V100.018C60.7295 100.416 60.8764 100.789 61.1433 101.072C61.2738 101.21 61.4291 101.32 61.6002 101.394C61.7713 101.469 61.9547 101.507 62.1398 101.506H87.1636C87.5404 101.506 87.8711 101.352 88.1375 101.072C88.4039 100.789 88.5273 100.416 88.5273 100.018V49.1102C88.5273 48.2904 87.9186 47.6221 87.1405 47.6221ZM87.682 100.128C87.682 100.429 87.4501 100.675 87.1636 100.675H62.1398C62.0717 100.675 62.0044 100.661 61.9416 100.633C61.8788 100.605 61.8218 100.565 61.774 100.514C61.7256 100.463 61.6872 100.403 61.6611 100.337C61.635 100.271 61.6216 100.199 61.6218 100.128L61.6223 91.8058H87.6824L87.682 100.128ZM87.682 90.7549H61.6223V57.9052L87.6824 57.8799L87.682 90.7549ZM87.682 56.8285H61.6223V49.0013C61.6223 48.8553 61.6761 48.7175 61.774 48.6147C61.8719 48.5118 62.0015 48.454 62.1398 48.454H87.1636C87.3011 48.4543 87.4329 48.5121 87.53 48.6148C87.6272 48.7175 87.6818 48.8566 87.682 49.0018V56.8285Z" fill="black" stroke="black" stroke-width="2.36747" stroke-miterlimit="22.926"/>
<path d="M74.7089 62.3779L69.1523 62.3784C69.4658 62.8487 69.6885 63.0372 69.6885 64.1205V72.9757C70.4239 72.9058 71.4497 72.5522 71.9623 72.3636V63.9325H75.9809C75.7568 63.3448 75.1548 62.6612 74.7089 62.3779Z" fill="black" stroke="black" stroke-miterlimit="22.926"/>
</svg>
