<svg width="51" height="25" viewBox="0 0 51 25" fill="none" xmlns="http://www.w3.org/2000/svg">
<g clip-path="url(#clip0)">
<path d="M25.4845 24.9868C21.5933 24.9425 17.7466 24.5437 13.9667 23.6044C10.9707 22.8594 8.08431 21.8211 5.43774 20.1859C3.89363 19.2303 2.49221 18.1072 1.4174 16.6143C0.413677 15.2215 -0.145695 13.6838 0.00676205 11.9348C0.131007 10.5196 0.708283 9.28933 1.55141 8.17336C2.65932 6.70728 4.07647 5.60224 5.6298 4.66515C8.27746 3.0634 11.1524 2.05028 14.1343 1.31833C16.6367 0.703021 19.1891 0.316698 21.7604 0.164061C23.1928 0.0792689 24.6295 0.00651181 26.0634 0.0234702C30.5189 0.0781748 34.907 0.633973 39.1786 1.96548C41.4139 2.66187 43.5673 3.55192 45.5628 4.7948C47.1666 5.7948 48.6087 6.97642 49.7008 8.55465C51.3611 10.954 51.4267 13.7067 49.8593 16.1662C48.919 17.6433 47.6435 18.7751 46.2139 19.7434C43.6318 21.4939 40.7704 22.5929 37.788 23.4015C35.0194 24.1475 32.1842 24.6151 29.3242 24.7975C28.0459 24.8823 26.765 24.925 25.4845 24.9868ZM25.4786 24.0103C26.6689 23.9589 27.8604 23.9255 29.0496 23.8528C32.1087 23.6731 35.1403 23.168 38.094 22.3457C40.7357 21.6039 43.2705 20.6066 45.5742 19.0793C46.8828 18.2117 48.0482 17.1881 48.9331 15.8659C50.3497 13.7499 50.3682 11.3079 48.9771 9.16898C47.9679 7.61756 46.5752 6.48846 45.0284 5.53386C42.5202 3.98736 39.7808 3.02183 36.9443 2.31176C33.5556 1.46275 30.1082 1.0459 26.6206 0.998853C24.7901 0.973689 22.9541 1.04371 21.1273 1.17227C18.3865 1.36684 15.6719 1.83783 13.0243 2.57817C10.726 3.21767 8.50208 4.04535 6.42844 5.24831C4.84255 6.16789 3.40099 7.25925 2.28225 8.7494C0.600315 10.9923 0.522188 13.6241 2.09344 15.9425C3.08197 17.4009 4.41122 18.4824 5.88534 19.3944C8.39791 20.9496 11.1389 21.9354 13.9862 22.6416C17.7602 23.5776 21.5939 23.9846 25.4786 24.0103Z" fill="black"/>
<path d="M25.4783 24.0105C21.5947 23.9848 17.7599 23.5729 13.987 22.6391C11.1397 21.9328 8.39871 20.9471 5.88614 19.3918C4.41203 18.4799 3.08277 17.3984 2.09424 15.9399C0.522988 13.6216 0.596776 10.9875 2.28305 8.74684C3.40179 7.25887 4.84336 6.16751 6.42924 5.24574C8.50288 4.04224 10.7268 3.21511 13.0251 2.57561C15.6727 1.83527 18.3873 1.36428 21.1281 1.1697C22.9549 1.04115 24.7909 0.971124 26.6214 0.996288C30.1068 1.04388 33.5564 1.46073 36.9451 2.3092C39.7805 3.02036 42.5199 3.9848 45.0292 5.5313C46.576 6.4848 47.9687 7.615 48.9779 9.16642C50.369 11.3054 50.3505 13.7474 48.9339 15.8634C48.049 17.1856 46.8836 18.2091 45.575 19.0767C43.2713 20.6041 40.7365 21.6013 38.0948 22.3431C35.1408 23.1659 32.1088 23.6714 29.0494 23.8513C27.8601 23.9257 26.6686 23.9607 25.4783 24.0105ZM25.5 1.58655C24.2375 1.64126 22.9728 1.66916 21.7124 1.75668C19.0604 1.93226 16.4295 2.34806 13.8514 2.99902C11.2373 3.66642 8.71664 4.56905 6.39072 5.96675C5.0148 6.79388 3.7729 7.78075 2.80444 9.08874C1.31674 11.0975 1.22017 13.3929 2.54944 15.4892C3.48263 16.9613 4.80104 18.0176 6.25454 18.9126C8.62929 20.3748 11.2222 21.2999 13.9045 21.981C17.2581 22.8333 20.6713 23.2605 24.1203 23.3218C25.9693 23.3552 27.8232 23.2775 29.67 23.1675C31.9271 23.0335 34.1575 22.6692 36.3619 22.1555C38.9873 21.5439 41.5292 20.6943 43.9034 19.3929C45.5441 18.4941 47.0339 17.4016 48.1717 15.8759C49.6262 13.9246 49.7521 11.6692 48.4972 9.58819C47.6915 8.25176 46.544 7.25504 45.2684 6.40274C43.146 4.9848 40.8103 4.04443 38.378 3.33929C34.17 2.11773 29.8659 1.62813 25.5 1.58655Z" fill="white"/>
<path d="M25.5 1.58643C29.8681 1.62691 34.1722 2.11651 38.3786 3.33697C40.813 4.04321 43.1487 4.98358 45.269 6.40043C46.5451 7.25273 47.692 8.24945 48.4977 9.58588C49.7527 11.6647 49.6268 13.9223 48.1722 15.8736C47.0328 17.3993 45.5446 18.4918 43.9039 19.3906C41.5292 20.692 38.9873 21.5416 36.3625 22.1532C34.1581 22.6668 31.9276 23.0312 29.6706 23.1652C27.8259 23.2746 25.9698 23.3528 24.1208 23.3195C20.6713 23.2582 17.2586 22.831 13.9067 21.9803C11.2227 21.2992 8.62985 20.3742 6.25672 18.9119C4.80322 18.017 3.48482 16.9606 2.55162 15.4885C1.22236 13.3906 1.31893 11.0952 2.80662 9.08807C3.77508 7.78008 5.01699 6.79321 6.3929 5.96608C8.71883 4.56837 11.2395 3.66848 13.8535 2.99835C16.4302 2.34819 19.0598 1.93296 21.7103 1.75765C22.9706 1.67012 24.2353 1.64113 25.5 1.58643ZM40.4875 16.4387C41.361 16.3999 41.9638 16.0153 42.3587 15.3162C42.6344 14.8293 42.7472 14.3009 42.6468 13.7385C42.5351 13.1154 41.9041 12.6247 41.0734 12.5941C40.1077 12.558 39.1398 12.5777 38.173 12.5744C38.1583 12.5744 38.1431 12.5914 38.1285 12.6001C38.1541 12.8586 38.1306 13.1197 38.059 13.3693C37.9418 13.7522 37.791 14.1236 37.6445 14.4962C37.083 15.9185 36.6446 17.3906 35.9854 18.779H37.9353L38.6851 16.7216H38.7616L39.7854 18.773H41.8607C41.4163 18.0164 40.9671 17.2538 40.4875 16.4387ZM29.1015 5.03883H27.4895C27.0946 6.07822 26.718 7.06619 26.342 8.05579L26.2775 8.0361C26.1505 7.03719 26.0241 6.03829 25.8977 5.03008H24.0687C23.3298 7.12636 22.5415 9.15973 21.7727 11.2051H23.4546C23.7058 10.0831 24.2245 9.08971 24.5999 8.04157C24.7589 9.02242 24.8907 9.99507 25.0112 10.9694C25.0323 11.1433 25.0779 11.2265 25.2721 11.2199C25.6964 11.2062 26.1212 11.209 26.546 11.2199C26.7088 11.2237 26.7826 11.1652 26.8385 11.0115C27.0484 10.43 27.2752 9.85448 27.495 9.2768C28.0283 7.86706 28.5632 6.45787 29.1015 5.03883ZM14.9598 12.5066C14.9289 12.7938 14.9495 13.0405 14.873 13.2511C14.2089 15.0842 13.6105 16.9426 12.858 18.7494H14.7498C15.0168 18.0432 15.2707 17.3714 15.555 16.6203L16.6683 18.7637H18.6676C18.2119 17.9825 17.7637 17.2161 17.295 16.4114C17.4089 16.4032 17.4528 16.4015 17.4968 16.3972C18.7213 16.2752 19.6822 15.0038 19.4717 13.7839C19.367 13.1767 18.8581 12.6794 18.0741 12.611C17.0259 12.5235 15.9684 12.5366 14.9598 12.5066ZM28.1797 11.2144C28.5052 11.2144 28.8383 11.2144 29.172 11.2144C29.8133 11.2101 30.4606 11.2587 31.0943 11.1871C33.1017 10.9601 34.5194 9.58643 34.8802 7.58096C35.1374 6.15371 34.5427 5.24398 33.1164 5.07713C32.1984 4.96772 31.2603 5.03719 30.3314 5.02789C30.319 5.02789 30.3059 5.04923 30.2935 5.06072C30.2991 5.35787 30.2598 5.6541 30.1768 5.93927C30.0753 6.27844 29.9343 6.60557 29.8079 6.93708C29.2691 8.35557 28.7293 9.77242 28.1797 11.2144ZM25.8347 14.9212C25.8196 14.7806 25.8038 14.5443 25.7675 14.3118C25.6047 13.2516 24.9688 12.5613 24.0167 12.4294C23.4695 12.3481 22.9111 12.3918 22.383 12.5574C20.7163 13.0892 19.5688 14.9283 19.7386 16.8009C19.8471 17.971 20.8172 18.8742 21.9826 18.9136C24.3113 18.9951 25.8391 16.8408 25.8347 14.9229V14.9212ZM19.2639 5.02789C19.119 5.30142 19.0181 5.55251 18.8695 5.76859C17.6194 7.58221 16.3634 9.39387 15.1014 11.2035H17.0465C17.2809 10.4316 17.4062 10.3381 18.1929 10.3381H19.5531C19.5303 10.6532 19.5102 10.9272 19.4901 11.2046H21.3109C21.2144 9.14496 21.1178 7.09354 21.0207 5.02789H19.2639ZM30.9087 18.7538C30.9402 18.7713 30.9554 18.7866 30.9706 18.7866C32.3172 18.7894 33.6633 18.7927 35.0099 18.7866C35.0472 18.7831 35.0833 18.7708 35.115 18.7507C35.1468 18.7306 35.1734 18.7031 35.1927 18.6707C35.3555 18.2396 35.4982 17.8025 35.656 17.3441H33.399C33.5021 17.0755 33.6025 16.8414 33.6817 16.6007C33.7327 16.4458 33.8152 16.3928 33.9763 16.3966C34.4456 16.407 34.9155 16.4048 35.3869 16.3966C35.4591 16.3966 35.573 16.3501 35.5947 16.2954C35.7678 15.8578 35.9235 15.413 36.083 14.9721H34.3436C34.3794 14.8682 34.4093 14.7746 34.4445 14.6833C34.5395 14.4376 34.5726 14.0979 34.7516 13.9754C34.9404 13.8457 35.2692 13.9174 35.5367 13.913C35.955 13.907 36.3728 13.913 36.8388 13.913L37.339 12.587H33.1891C33.2303 13.0624 31.563 17.5602 30.9087 18.7538ZM26.4272 18.7932C26.8238 18.7932 27.1938 18.773 27.5606 18.7992C27.9008 18.8238 28.1086 18.7265 28.3294 18.4283C29.4194 16.9513 30.5447 15.5044 31.671 14.0569C32.0676 13.5476 32.5044 13.0722 32.9189 12.5842H30.7118C30.6499 12.7659 30.6287 12.9305 30.5457 13.0531C29.8659 14.0635 29.1747 15.0662 28.484 16.07C28.4477 16.1247 28.3989 16.1679 28.3158 16.262C28.3158 16.1083 28.3158 16.0191 28.3158 15.93C28.3224 15.0826 28.3229 14.2341 28.3375 13.3884C28.3424 13.1209 28.3858 12.8545 28.4124 12.5799H26.4261C26.5455 13.023 26.5553 18.3446 26.4272 18.7932ZM13.0262 9.79978C13.6582 8.17724 14.274 6.60174 14.8849 5.02899H12.9046C12.8108 5.36268 12.7467 5.66684 12.6404 5.95568C11.9926 7.70842 11.3383 9.46132 10.6774 11.2144C11.9014 11.2144 13.1634 11.2144 14.4249 11.2101C14.4582 11.208 14.4906 11.1983 14.5196 11.1816C14.5486 11.1649 14.5733 11.1417 14.592 11.1138C14.7623 10.6854 14.9175 10.2522 15.0889 9.80087L13.0262 9.79978ZM40.7902 7.41794C40.7495 7.39934 40.7333 7.38566 40.717 7.38566C39.4249 7.38309 38.133 7.38309 36.841 7.38566C36.7818 7.38566 36.6869 7.42669 36.669 7.47209C36.5062 7.90043 36.3549 8.33424 36.1807 8.81892H38.556C37.7541 9.14059 36.9495 9.40973 36.1449 9.68161C35.783 9.80415 35.7016 9.91958 35.6799 10.3282C35.7054 10.3338 35.7316 10.3351 35.7575 10.3321C37.2289 9.86159 38.7001 9.38933 40.1712 8.9152C40.2299 8.89863 40.2798 8.85929 40.3101 8.80579C40.4745 8.3419 40.6323 7.87746 40.7902 7.41794ZM12.8232 13.256C12.799 13.2504 12.7742 13.2484 12.7495 13.25C11.286 13.7165 9.82292 14.1831 8.3602 14.6499C8.29672 14.6701 8.20937 14.7101 8.18984 14.7626C8.01513 15.227 7.85291 15.6964 7.6896 16.1575C7.73409 16.1816 7.74386 16.1898 7.75037 16.1898C9.05033 16.1953 10.3504 16.1991 11.6508 16.2013C11.6843 16.1993 11.7169 16.1894 11.7459 16.1725C11.775 16.1556 11.7998 16.1321 11.8184 16.1039C11.9812 15.6827 12.1288 15.2571 12.3018 14.7752H9.93686C10.698 14.4511 11.4769 14.1713 12.2698 13.9371C12.6317 13.831 12.7907 13.6242 12.8232 13.256Z" fill="black"/>
<path d="M40.4875 16.439C40.9672 17.2541 41.4164 18.0167 41.8624 18.7732H39.7871L38.7633 16.7218H38.6868L37.937 18.7793H35.9871C36.6463 17.3909 37.0846 15.9193 37.6462 14.497C37.7927 14.1244 37.9435 13.7525 38.0607 13.3701C38.1323 13.1205 38.1559 12.8594 38.1301 12.6009C38.1448 12.5922 38.16 12.5752 38.1746 12.5752C39.1415 12.5785 40.1094 12.5588 41.0751 12.5949C41.9042 12.6255 42.5351 13.1162 42.6485 13.7393C42.7489 14.3017 42.6361 14.8301 42.3604 15.317C41.9638 16.0156 41.3611 16.4002 40.4875 16.439ZM39.2359 15.2536C39.544 15.2328 39.8083 15.2634 40.0345 15.1846C40.2571 15.1011 40.4534 14.9591 40.6031 14.7732C40.7333 14.6119 40.787 14.3717 40.6199 14.1688C40.5179 14.0446 39.8251 13.962 39.6873 14.0544C39.6519 14.0824 39.6258 14.1205 39.6124 14.1638C39.493 14.5019 39.3775 14.8422 39.2359 15.2536Z" fill="white"/>
<path d="M29.1014 5.03922C28.5632 6.45826 28.0283 7.86745 27.4933 9.27664C27.2763 9.85432 27.0468 10.4298 26.8368 11.0113C26.7826 11.1656 26.7071 11.2236 26.5444 11.2197C26.1196 11.2093 25.6947 11.2066 25.2705 11.2197C25.0762 11.2263 25.0307 11.1432 25.0095 10.9692C24.889 9.99491 24.7572 9.02226 24.5982 8.04141C24.2228 9.08955 23.7041 10.083 23.4529 11.205H21.771C22.5414 9.16012 23.3297 7.12675 24.0687 5.0332H25.896C26.0241 6.04141 26.1505 7.04031 26.2758 8.04195L26.3404 8.06165C26.7164 7.07204 27.0929 6.08298 27.4879 5.04469L29.1014 5.03922Z" fill="white"/>
<path d="M14.96 12.5063C15.9686 12.5364 17.026 12.5233 18.0742 12.6158C18.8582 12.6841 19.3671 13.1814 19.4718 13.7886C19.6823 15.0085 18.7215 16.2799 17.4969 16.4019C17.453 16.4062 17.409 16.4079 17.2951 16.4161C17.7639 17.2192 18.212 17.9856 18.6678 18.7684H16.6684L15.5551 16.6201C15.2708 17.3712 15.0169 18.0425 14.75 18.7492H12.8586C13.6112 16.944 14.2096 15.084 14.8737 13.2509C14.9496 13.0403 14.929 12.7935 14.96 12.5063ZM16.0407 15.2077C16.299 15.2077 16.5073 15.2274 16.7102 15.2033C17.09 15.1573 17.4085 14.9779 17.5241 14.5928C17.5647 14.4599 17.5007 14.1721 17.4242 14.1475C17.1345 14.0556 16.8198 14.0381 16.5138 14.0042C16.4899 14.0014 16.4455 14.0589 16.4319 14.0961C16.3049 14.4522 16.1807 14.8094 16.0407 15.2077Z" fill="white"/>
<path d="M28.1797 11.2146C28.7293 9.77097 29.2691 8.35412 29.8073 6.93672C29.9338 6.60521 30.0748 6.28027 30.1763 5.93891C30.2592 5.65373 30.2986 5.35745 30.2929 5.06035C30.3054 5.04887 30.3184 5.02753 30.3309 5.02753C31.2598 5.03683 32.1978 4.96954 33.1158 5.07677C34.5422 5.24088 35.1368 6.15335 34.8797 7.5806C34.5189 9.58607 33.1012 10.9597 31.0937 11.1867C30.46 11.2584 29.8128 11.2097 29.1715 11.2141C28.8383 11.2179 28.5047 11.2146 28.1797 11.2146ZM30.5718 9.75237C31.1919 9.82184 31.6971 9.68454 32.091 9.24745C32.5793 8.70423 32.844 8.04394 32.927 7.32731C33.01 6.61068 32.7409 6.34591 32.0199 6.35084C31.8539 6.35084 31.7806 6.41265 31.7296 6.56145C31.6059 6.9225 31.4681 7.27917 31.3379 7.63804C31.0883 8.33005 30.8371 9.02152 30.5718 9.75401V9.75237Z" fill="white"/>
<path d="M25.8347 14.9231C25.839 16.841 24.3112 18.9953 21.9826 18.9165C20.8172 18.8771 19.8449 17.9739 19.7386 16.8038C19.5688 14.9313 20.7152 13.0921 22.383 12.5604C22.9111 12.3948 23.4694 12.351 24.0166 12.4324C24.9688 12.5642 25.6025 13.2529 25.7674 14.3147C25.8038 14.5461 25.8195 14.7825 25.8347 14.9231ZM23.9358 14.911C23.9358 14.8202 23.9412 14.7289 23.9358 14.6375C23.8913 13.9854 23.32 13.6627 22.7508 13.9778C22.6002 14.0595 22.4666 14.1699 22.3575 14.3027C21.7867 15.0215 21.5805 15.8514 21.6977 16.7562C21.7759 17.3612 22.3461 17.6364 22.874 17.3306C23.0525 17.2247 23.2079 17.0835 23.3308 16.9154C23.7638 16.3224 23.8924 15.6282 23.9358 14.911Z" fill="white"/>
<path d="M19.264 5.02783H21.0208C21.1179 7.09348 21.2145 9.1449 21.3111 11.2045H19.4903C19.5103 10.9272 19.5304 10.6531 19.5532 10.338H18.193C17.4063 10.338 17.281 10.4316 17.0466 11.2034H15.1016C16.361 9.38943 17.617 7.57778 18.8696 5.76853C19.0183 5.55245 19.1192 5.303 19.264 5.02783ZM19.4946 7.28658L19.4262 7.26744C19.0904 7.80026 18.7551 8.33308 18.4046 8.88998H19.4946V7.28658Z" fill="white"/>
<path d="M30.9087 18.7538C31.563 17.5585 33.2303 13.0645 33.1874 12.5864H37.339L36.8393 13.9125C36.3727 13.9125 35.955 13.9075 35.5372 13.9125C35.2697 13.9168 34.9404 13.8452 34.7521 13.9748C34.5731 14.0974 34.54 14.4371 34.4451 14.6827C34.4098 14.7741 34.3799 14.8676 34.3441 14.9715H36.0803C35.9175 15.4125 35.764 15.8572 35.592 16.2949C35.5703 16.3496 35.4564 16.395 35.3842 16.3961C34.9149 16.4048 34.4451 16.407 33.9736 16.3961C33.8108 16.3922 33.73 16.4453 33.679 16.6001C33.5998 16.8408 33.4994 17.0749 33.3963 17.3435H35.6533C35.4954 17.802 35.3506 18.2391 35.19 18.6701C35.1707 18.7026 35.1441 18.73 35.1123 18.7502C35.0805 18.7703 35.0445 18.7827 35.0071 18.7861C33.6605 18.791 32.3144 18.7861 30.9678 18.7861C30.9553 18.7866 30.9402 18.7713 30.9087 18.7538Z" fill="white"/>
<path d="M26.4272 18.7929C26.5553 18.3444 26.5455 13.0227 26.4272 12.5796H28.4152C28.3886 12.8531 28.3452 13.1206 28.3403 13.3881C28.3256 14.235 28.3251 15.084 28.3186 15.9297C28.3186 16.0189 28.3186 16.108 28.3186 16.2618C28.4016 16.1677 28.4504 16.1228 28.4868 16.0697C29.1758 15.0659 29.867 14.0632 30.5485 13.0528C30.6315 12.9302 30.6527 12.7656 30.7145 12.584H32.9167C32.5044 13.0697 32.0676 13.5473 31.6689 14.0566C30.5425 15.5041 29.4173 16.956 28.3273 18.4281C28.1064 18.7262 27.8987 18.8236 27.5585 18.799C27.1939 18.7727 26.8239 18.7929 26.4272 18.7929Z" fill="white"/>
<path d="M13.0273 9.80008H15.089C14.9197 10.2536 14.7635 10.6868 14.592 11.113C14.5733 11.1409 14.5486 11.1641 14.5196 11.1808C14.4906 11.1975 14.4582 11.2073 14.4249 11.2093C13.1635 11.2147 11.9015 11.2137 10.6775 11.2137C11.3358 9.45763 11.9905 7.70506 12.6415 5.95599C12.75 5.66715 12.8119 5.36299 12.9058 5.0293H14.8872C14.2735 6.60205 13.6594 8.17755 13.0273 9.80008Z" fill="white"/>
<path d="M40.7903 7.4179C40.6324 7.87742 40.4746 8.34186 40.3118 8.80248C40.2816 8.85598 40.2317 8.89531 40.1729 8.91189C38.7026 9.38601 37.2314 9.85828 35.7592 10.3287C35.7333 10.3317 35.7071 10.3305 35.6816 10.3249C35.7033 9.91626 35.7847 9.80084 36.1466 9.6783C36.9512 9.40477 37.7558 9.13727 38.5577 8.81561H36.1813C36.3549 8.33092 36.5069 7.89712 36.6696 7.46878C36.6875 7.42337 36.7825 7.38234 36.8416 7.38234C38.1336 7.37906 39.4256 7.37906 40.7176 7.38234C40.7333 7.38508 40.7496 7.3993 40.7903 7.4179Z" fill="white"/>
<path d="M12.8231 13.2561C12.7906 13.6242 12.6316 13.831 12.2697 13.9371C11.4769 14.1714 10.6979 14.4512 9.93671 14.7752H12.3017C12.1286 15.2572 11.98 15.6828 11.8183 16.104C11.7997 16.1322 11.7749 16.1557 11.7459 16.1725C11.7168 16.1895 11.6842 16.1994 11.6506 16.2014C10.3485 16.2014 9.04839 16.1975 7.75027 16.1899C7.74214 16.1899 7.73394 16.1817 7.68945 16.1576C7.85222 15.6965 8.01499 15.2276 8.18969 14.7626C8.20922 14.7079 8.2982 14.6702 8.36005 14.65C9.82277 14.1806 11.2859 13.714 12.7493 13.2501C12.7741 13.2484 12.7989 13.2505 12.8231 13.2561Z" fill="white"/>
<path d="M39.2358 15.253C39.3774 14.8416 39.493 14.5014 39.6124 14.1617C39.6257 14.1184 39.6518 14.0802 39.6872 14.0522C39.825 13.9598 40.5179 14.0424 40.6199 14.1666C40.787 14.3695 40.7333 14.6097 40.6031 14.7711C40.4534 14.9569 40.257 15.099 40.0345 15.1824C39.8082 15.2623 39.544 15.2322 39.2358 15.253Z" fill="black"/>
<path d="M16.0405 15.208C16.1805 14.8092 16.3048 14.452 16.4333 14.0964C16.4469 14.0592 16.4914 14.0018 16.5153 14.0045C16.8213 14.04 17.1359 14.0559 17.4257 14.1478C17.5022 14.1724 17.5662 14.4602 17.5255 14.5931C17.4083 14.976 17.0915 15.1577 16.7117 15.2036C16.5071 15.2282 16.2988 15.208 16.0405 15.208Z" fill="black"/>
<path d="M30.5718 9.75365C30.8371 9.02116 31.0867 8.33133 31.3379 7.63932C31.4681 7.28046 31.6059 6.92378 31.7297 6.56273C31.7807 6.41394 31.8538 6.35321 32.0199 6.35212C32.7409 6.3472 33.0112 6.6054 32.9271 7.3286C32.843 8.05179 32.5809 8.70551 32.0909 9.24873C31.697 9.68582 31.1919 9.82313 30.5718 9.75365Z" fill="black"/>
<path d="M23.9357 14.911C23.8923 15.6282 23.7616 16.3224 23.3302 16.916C23.2073 17.084 23.0519 17.2253 22.8734 17.3312C22.3455 17.637 21.7753 17.3618 21.6971 16.7568C21.5799 15.8519 21.7861 15.0221 22.3569 14.3033C22.466 14.1704 22.5996 14.0601 22.7502 13.9783C23.3194 13.6632 23.8896 13.986 23.9352 14.6381C23.9411 14.7289 23.9357 14.8202 23.9357 14.911Z" fill="black"/>
<path d="M19.4945 7.28672V8.89012H18.4045C18.755 8.33322 19.0903 7.8004 19.4262 7.26758L19.4945 7.28672Z" fill="black"/>
</g>
<defs>
<clipPath id="clip0">
<rect width="51" height="25" fill="white"/>
</clipPath>
</defs>
</svg>
