<svg width="150" height="150" viewBox="0 0 150 150" fill="none" xmlns="http://www.w3.org/2000/svg">
<rect width="150" height="150" fill="white"/>
<g clip-path="url(#clip0_557:480)">
<path d="M74.9989 73.7035C74.7613 73.7035 74.5867 73.8721 74.5848 73.8759C74.5744 73.8838 70.3678 77.6925 70.3678 77.6925C68.8166 79.1131 66.7571 78.5185 66.537 78.4492C66.537 78.4492 48.5561 73.7952 48.5537 73.7936C45.1223 72.8114 44.4406 71.752 43.9154 70.4651C43.9154 70.4651 43.6103 69.6652 42.8634 69.4556C42.8634 69.4556 20.8832 63.3332 20.8812 63.3332C19.9842 63.0706 19.4906 62.8304 19.1379 62.1824C19.1379 62.1824 17.9314 60.1669 17.9275 60.1612C17.6599 59.6781 17.175 59.6269 17.1471 59.6231C15.4845 59.4102 14.9973 58.5307 14.7912 58.1563L13.8107 56.5223C13.504 56.0161 13.0655 55.9733 13.0519 55.9718C12.1066 55.9149 11.6569 55.6887 11.2659 55.0797C11.2659 55.0797 10.3074 53.5671 10.3034 53.5595C9.83218 52.7334 9.99512 52.1423 10.2124 51.7914C10.6709 51.0718 11.5087 51.0172 11.845 51.0059H64.404C65.892 51.0059 67.0945 51.4337 67.9835 52.2798C68.6221 52.8835 69.0618 53.6713 69.2895 54.6201C69.2935 54.6425 69.3554 54.8406 69.8051 54.8406H80.1935C80.6436 54.8406 80.7051 54.6428 80.7091 54.6201C80.9368 53.6713 81.3765 52.8835 82.0151 52.2798C82.9041 51.4337 84.1062 51.0059 85.595 51.0059H138.154C138.49 51.0168 139.328 51.0718 139.786 51.791C140.003 52.1419 140.166 52.733 139.695 53.5591C139.691 53.5667 138.732 55.0794 138.732 55.0794C138.341 55.6883 137.892 55.9145 136.946 55.9714C136.933 55.9729 136.494 56.0157 136.187 56.522L135.207 58.1559C135.001 58.5303 134.514 59.4098 132.852 59.6228C132.824 59.6265 132.339 59.6777 132.071 60.1608C132.067 60.1665 130.861 62.1821 130.861 62.1821C130.508 62.83 130.014 63.0706 129.118 63.3329L107.136 69.4553C106.389 69.6648 106.084 70.4647 106.084 70.4647C105.559 71.7516 104.877 72.8111 101.445 73.7933C101.443 73.7948 83.462 78.4488 83.462 78.4488C83.2419 78.5181 81.1824 79.1127 79.6312 77.6921C79.6312 77.6921 75.425 73.8831 75.4138 73.8755C75.4123 73.8717 75.2377 73.7031 75.0001 73.7031L74.9989 73.7035Z" fill="black"/>
<path d="M81.5878 56.052C81.7697 55.1833 82.1172 54.471 82.6162 53.932C83.3071 53.1851 84.2696 52.8051 85.4713 52.8051H109.339C108.519 53.4676 108.088 54.3057 108.059 54.3615C107.731 55.0199 107.387 55.6687 107.027 56.3072H81.5037C81.5566 56.2071 81.5881 56.052 81.5878 56.052ZM138.102 54.1323L137.17 55.8045C136.996 56.1147 136.888 56.2548 136.172 56.3038L107.906 56.3081C108.187 55.7946 108.459 55.275 108.721 54.7496C108.729 54.7338 109.73 52.8081 111.508 52.8081L137.402 52.8055C137.673 52.8179 138.026 52.8507 138.213 53.1834C138.236 53.2282 138.289 53.3211 138.289 53.4885C138.289 53.6368 138.245 53.8477 138.102 54.1323ZM134.645 57.4473L133.658 59.3173C133.523 59.5938 133.316 60.0211 132.656 60.2669C132.105 60.4156 131.009 60.321 130.629 60.2712L106.587 58.5474C106.897 58.0502 107.186 57.5717 107.448 57.1176H134.853C134.781 57.216 134.711 57.3229 134.645 57.4473ZM130.558 61.5668C130.564 61.5587 129.612 63.3673 129.414 63.7426C129.366 63.8129 129.095 64.1303 128.215 64.0042L105.176 60.6691C105.492 60.2235 105.791 59.7812 106.072 59.3539L130.545 61.1062C130.581 61.1109 130.684 61.1233 130.831 61.1373C130.725 61.2684 130.633 61.4126 130.558 61.5668ZM122.634 66.3926C121.767 66.6406 120.071 66.3598 119.482 66.2278L103.651 62.7163C103.998 62.277 104.33 61.8416 104.645 61.4104L127.782 64.7617L122.634 66.3926ZM114.787 68.8778C113.674 69.1994 112.221 68.6792 112.207 68.675L112.19 68.669C112.19 68.669 112.188 68.6669 112.186 68.6669L101.59 65.1396C102.102 64.5802 102.6 64.0062 103.084 63.4184L119.33 67.0219C119.366 67.0279 119.698 67.102 120.165 67.1727L114.787 68.8778ZM106.51 71.5014C105.758 71.7221 104.649 71.2534 104.281 71.0532C104.281 71.0532 101.446 69.6208 98.5341 68.1509C99.382 67.401 100.2 66.6127 100.986 65.7881L111.974 69.4474C111.996 69.4559 112.195 69.5262 112.501 69.6003L106.51 71.5014ZM104.814 73.2908C104.494 74.1761 104.159 75.0883 101.906 76.0021C100.975 76.314 99.8685 75.4261 99.859 75.4163C99.855 75.4121 97.3457 73.474 94.4883 71.2675C95.6619 70.4851 96.7944 69.6328 97.8803 68.7146L103.952 71.7817C103.985 71.8 104.611 72.1413 105.37 72.2938C105.007 72.7395 104.843 73.2 104.814 73.2908ZM96.3213 77.7204L95.4752 77.9679C94.7626 78.152 93.8933 77.3902 93.6154 77.0737C93.6154 77.0737 92.2498 75.5403 90.495 73.563C91.6207 73.0124 92.7189 72.3986 93.7852 71.7242L99.4125 76.069C99.4354 76.0895 99.7567 76.3494 100.229 76.5705C98.979 76.9377 96.3213 77.72 96.3213 77.7204ZM88.8815 79.9103C88.2873 80.0113 87.598 78.9589 87.3983 78.5665L85.7011 75.4666C87.0824 75.0386 88.438 74.5189 89.7599 73.9102L93.0702 77.6382C93.0994 77.6693 93.4658 78.0796 93.9972 78.4038L88.8815 79.9103ZM83.2474 81.5672C82.8475 81.6665 82.51 81.623 82.2198 81.4338C81.5972 81.0227 81.39 80.0773 81.3785 80.0219L80.5127 76.651C82.0085 76.4282 83.4903 76.1078 84.9502 75.6916L86.7457 78.9717C86.8073 79.0889 87.1716 79.7744 87.7176 80.2533L83.2474 81.5672ZM79.596 80.344C79.596 80.344 77.1886 77.8648 76.3722 77.0264C77.5179 76.9833 78.6486 76.8926 79.7587 76.752L80.6438 80.1987C80.6691 80.3184 80.8459 81.0742 81.3375 81.675C80.6592 81.4666 80.4535 81.2498 79.596 80.344ZM75.3757 76.2378V65.7365H76.9288L79.555 75.9617C78.1882 76.1308 76.7954 76.2237 75.3757 76.2378ZM70.4425 75.9617L73.0702 65.7365H74.6237V76.2365C73.2012 76.2237 71.8088 76.1291 70.4425 75.9617ZM69.7528 81.0103C69.4476 81.3301 69.0711 81.5592 68.6596 81.6754C69.1547 81.0725 69.3268 80.315 69.3528 80.1974L70.2384 76.7567C71.3485 76.8947 72.4792 76.9855 73.6245 77.0268C72.7074 77.9675 69.7528 81.0103 69.7528 81.0103ZM68.6189 80.0155C68.6189 80.0257 68.4148 81.0125 67.7761 81.4338C67.4863 81.623 67.1499 81.6669 66.75 81.5672L62.2794 80.2528C62.8254 79.7714 63.1937 79.0863 63.2569 78.9606C63.2549 78.9628 64.0141 77.5777 65.0441 75.6933C66.5046 76.1101 67.9875 76.4298 69.4843 76.6506L68.6189 80.0155ZM61.1156 79.9103L56.0003 78.4034C56.5309 78.0774 56.8988 77.6667 56.9269 77.636C56.9269 77.636 58.3892 75.9881 60.2368 73.9098C61.5586 74.5183 62.9136 75.0388 64.2944 75.4683L62.6043 78.5584C62.3986 78.9585 61.7093 80.0113 61.1156 79.9103ZM54.5206 77.9679L49.7678 76.5705C50.0594 76.4352 50.3359 76.2649 50.5921 76.0626C50.5881 76.0669 53.2474 74.0129 56.2115 71.7246C57.2788 72.3983 58.3776 73.0119 59.5037 73.563L56.3813 77.0737C56.1037 77.3902 55.234 78.152 54.5206 77.9679ZM48.086 76.0026C45.8412 75.0883 45.5048 74.1787 45.1858 73.2955C45.0562 72.9286 44.867 72.5896 44.6272 72.2943C45.1224 72.1884 45.6029 72.0142 46.0568 71.7758C46.0504 71.7779 49.0927 70.2445 52.1183 68.7146C53.2025 69.6342 54.3342 70.4866 55.508 71.2675L50.1456 75.4082C50.1282 75.427 49.0165 76.3187 48.086 76.0026ZM43.489 71.5014C43.2624 71.4285 40.7433 70.6301 37.4961 69.6003C37.6773 69.5581 37.8562 69.5056 38.0323 69.4431C38.0228 69.4474 46.9363 66.4795 49.0121 65.7881C49.7985 66.6118 50.6166 67.3996 51.4642 68.1492L45.7271 71.0472C45.3477 71.2534 44.2411 71.7221 43.489 71.5014ZM35.2162 68.8795C33.4208 68.3114 31.6255 67.7425 29.8305 67.1727C30.1115 67.1316 30.3912 67.0806 30.6691 67.0198C30.6675 67.0223 42.1381 64.4771 46.9146 63.4188C47.3992 64.0055 47.8969 64.5794 48.4073 65.1401L37.7997 68.6716C37.7757 68.6792 36.3292 69.1977 35.2162 68.8795ZM27.3706 66.3952C25.6531 65.8483 23.935 65.3038 22.2162 64.7617L45.3556 61.4104C45.6714 61.8395 46.0023 62.2749 46.3485 62.715L30.5159 66.2282C29.9284 66.3598 28.2395 66.6406 27.3706 66.3952ZM21.7851 64.0046C20.9099 64.1307 20.6351 63.8189 20.5846 63.7447L19.433 61.5566C19.3597 61.4062 19.2701 61.2657 19.1661 61.1382C19.3137 61.1237 43.93 59.3543 43.93 59.3543C44.2208 59.7981 44.5187 60.2364 44.8234 60.6691L21.7851 64.0046ZM17.343 60.2665C16.6829 60.0211 16.4736 59.5938 16.3386 59.3168C15.9351 58.5764 15.4042 57.4695 15.1432 57.1167H42.5522C42.8312 57.5991 43.1186 58.0758 43.414 58.5465L19.3682 60.2703C18.9908 60.3206 17.8937 60.4152 17.343 60.2665ZM13.8333 56.3072C13.1732 56.254 13.0327 56.1696 12.825 55.8015C12.8274 55.8041 11.9636 54.2545 11.8949 54.1323C11.7516 53.8477 11.7042 53.6368 11.7105 53.4881C11.7263 53.108 11.9659 52.8153 12.596 52.8047L38.4914 52.8072C40.2443 52.8072 41.2778 54.7492 41.2778 54.7492C41.54 55.2746 41.8123 55.7941 42.0946 56.3072H13.8333ZM64.5254 52.8047C65.7295 52.8047 66.6892 53.1847 67.3809 53.932C67.8803 54.4705 68.2265 55.1829 68.4109 56.052C68.4109 56.052 68.448 56.2007 68.4954 56.3077H42.9727C42.5826 55.6166 41.9395 54.3619 41.9395 54.3619C41.9115 54.3065 41.48 53.468 40.6592 52.8055L64.5254 52.8047ZM101.484 58.184V57.1167H106.559C106.286 57.5783 106.005 58.0346 105.717 58.4852L101.484 58.184ZM101.484 60.1361V59.0263L105.19 59.2904C104.916 59.7007 104.623 60.1195 104.318 60.5473L101.484 60.1361ZM101.484 62.2378V60.9537L103.776 61.286C103.469 61.6972 103.145 62.1117 102.808 62.5305C102.217 62.3989 101.762 62.2996 101.484 62.2378ZM101.484 63.0656L102.232 63.2301C101.988 63.523 101.738 63.8114 101.484 64.0954V63.0656ZM93.7536 65.7365H99.947C99.3158 66.4135 97.8258 67.7236 97.7769 67.7675C96.2711 67.0053 94.8025 66.2665 93.7536 65.7365ZM87.3256 65.7365H91.9802L97.114 68.329C96.0586 69.202 94.9599 70.0121 93.8227 70.7558C91.345 68.8407 88.7346 66.8242 87.3256 65.7365ZM83.5388 65.7365H86.0358L93.1132 71.2061C92.0844 71.8427 91.0258 72.4214 89.9415 72.9397C87.611 70.3187 84.8037 67.1582 83.5388 65.7365ZM80.3758 65.7365H82.4962L89.202 73.2827C87.931 73.8527 86.6297 74.3406 85.3051 74.744L80.3758 65.7365ZM79.5021 65.7365L84.5538 74.9622C83.1568 75.3523 81.7395 75.6522 80.3094 75.8603L77.7086 65.7361H79.5021V65.7365ZM70.4954 65.7365H72.2889L69.688 75.8607C68.2581 75.6524 66.8409 75.3532 65.4436 74.9647C67.3363 71.5099 69.8617 66.8941 70.4954 65.7365ZM67.5009 65.7365H69.6221L64.6924 74.744C63.3669 74.3416 62.0652 73.8528 60.7946 73.2801C63.4835 70.2565 66.7196 66.6155 67.5009 65.7365ZM63.9616 65.7365H66.4587L60.0583 72.9397C58.9731 72.4211 57.9134 71.8425 56.8834 71.2061C59.9549 68.8326 63.1566 66.3577 63.9616 65.7365ZM52.2202 67.7675C52.1637 67.7181 50.6801 66.3726 50.05 65.7365H56.2427L52.2202 67.7675ZM58.0173 65.7365H62.6707L56.174 70.7541C55.0367 70.0118 53.9383 69.2022 52.8838 68.329C55.3224 67.0965 57.581 65.9572 58.0173 65.7365ZM48.5068 63.0656V64.0869C48.2558 63.8055 48.009 63.5197 47.7666 63.2297C48.0639 63.1628 48.3126 63.1087 48.5068 63.0656ZM48.5068 60.9537V62.2374L47.189 62.5305C46.8609 62.1214 46.5391 61.7065 46.2237 61.286L48.5068 60.9537ZM48.5068 59.0263V60.1361L45.6809 60.5473C45.3848 60.1335 45.095 59.7145 44.8116 59.2904L48.5068 59.0263ZM48.5068 58.184L44.2849 58.4852C43.9955 58.0352 43.7145 57.5789 43.4421 57.1167H48.5068V58.184Z" fill="white"/>
<path d="M52.4211 56.8765H52.2038L49.9785 61.6001H50.5812L50.5908 61.5728C50.7709 60.9979 51.0029 60.4473 51.2282 59.9191L51.2749 59.8069H52.9958C53.2613 60.3871 53.5033 60.9766 53.7214 61.5743L53.7314 61.6001H54.5633L52.4211 56.8765ZM51.4434 59.4465C51.4889 59.3423 52.0728 58.044 52.1423 57.8902C52.211 58.044 52.8065 59.3423 52.8532 59.4465H51.4434ZM54.8029 61.2639L54.8213 61.2821C55.0841 61.5542 55.6768 61.6812 55.9955 61.6812C57.0394 61.6812 57.7707 61.0419 57.7707 60.1248C57.7707 59.3643 57.164 59.1403 56.5777 58.9201C56.057 58.7235 55.5617 58.542 55.5617 57.9803C55.5617 57.554 55.916 57.2459 56.4016 57.2459C56.7898 57.2459 57.0829 57.4403 57.2315 57.7962L57.2415 57.8216H57.3741L57.5822 57.2255L57.559 57.205C57.2754 56.9625 56.8389 56.8765 56.5282 56.8765C55.5549 56.8765 54.9271 57.3922 54.9271 58.1929C54.9271 59.0081 55.5677 59.2445 56.1316 59.4579C56.6416 59.6451 57.1201 59.8251 57.1201 60.3852C57.1201 60.9047 56.7119 61.314 56.1919 61.314C55.7155 61.314 55.3996 61.1192 55.0917 60.6421L55.0797 60.6239H54.9471L54.8029 61.2639ZM61.6997 56.9739H58.039V57.4604L58.0862 57.4566C58.5802 57.4028 59.077 57.3758 59.5742 57.3755V61.6149H60.2775V57.3778C60.7747 57.3778 61.2496 57.4047 61.6937 57.4566L61.7432 57.4619V56.9739H61.6997ZM64.2217 56.8765C62.669 56.8765 61.5827 57.8697 61.5827 59.2889C61.5827 60.7205 62.639 61.6808 64.2081 61.6808C65.8304 61.6808 66.9223 60.6781 66.9223 59.1877C66.9227 57.5904 65.5652 56.8765 64.2217 56.8765ZM65.5217 60.8566C65.1762 61.2033 64.7429 61.3799 64.2273 61.3799C63.0907 61.3799 62.3555 60.5909 62.3555 59.37C62.3555 58.0171 63.0983 57.1777 64.2912 57.1777C64.8539 57.1777 65.3851 57.4127 65.7134 57.8053C66.074 58.2422 66.1475 58.6977 66.1475 59.243C66.1495 59.2726 66.1515 59.3055 66.1515 59.337C66.1515 59.7807 65.961 60.4106 65.5217 60.8566ZM71.7982 56.9739H71.3621V60.3977H71.3541C71.329 60.37 68.0233 56.9739 68.0233 56.9739H67.6871V61.6001H68.1667V58.0201H68.1767C68.2023 58.0478 71.1896 61.1855 71.1896 61.1855L71.5642 61.6005H71.8417V56.9739H71.7982ZM79.6762 56.9739H79.5037L78.3228 59.0058C78.3228 59.0058 77.5755 60.2984 77.5076 60.4143C76.7792 59.2612 76.123 58.0478 75.5647 56.9958L75.5531 56.9739H75.3051L75.3011 57.0125C75.2316 57.6958 74.8123 60.4803 74.629 61.5542L74.6194 61.6001H75.2104V61.5603C75.2104 60.9085 75.3323 59.9369 75.4617 58.9069L75.5395 58.2699C75.6222 58.4199 76.5396 60.0729 76.8898 60.7539L77.2864 61.5288H77.419L77.4302 61.5031C77.8379 60.6141 78.4138 59.5992 79.2018 58.2627C79.3132 59.0596 79.461 60.6512 79.5428 61.5633L79.5472 61.6005H80.2941L80.2877 61.5546C80.1191 60.4325 79.935 58.9474 79.7198 57.0129L79.7154 56.9742H79.6762V56.9739ZM83.0198 56.8765H82.8009L80.5748 61.6001H81.1811L81.189 61.5728C81.37 60.9926 81.6032 60.4401 81.8296 59.9073C81.8296 59.9073 81.8576 59.8414 81.8712 59.8065H83.5933C83.8582 60.3868 84.0999 60.9763 84.3177 61.5739L84.3273 61.5997H85.16L83.0198 56.8765ZM82.0409 59.4465C82.0864 59.3423 82.6707 58.044 82.7406 57.8902L83.4515 59.4465H82.0409ZM87.301 59.3146C88.1809 59.146 88.7072 58.6704 88.7072 58.0277C88.7072 57.3214 88.1844 56.9742 87.1073 56.9742H85.5793V61.6005H86.281V59.3828H86.4859C86.6674 59.587 86.8494 59.7907 87.0319 59.9941C87.0295 59.9918 87.8582 61.0093 87.8582 61.0093L88.3119 61.6005H89.2308C89.2308 61.6001 87.3845 59.412 87.301 59.3146ZM86.281 59.0505V57.3028C86.5702 57.2899 87.0187 57.2717 87.2619 57.3088C87.7487 57.3835 87.9959 57.6533 87.9959 58.1065C87.9959 58.5715 87.6744 58.9107 87.1325 59.0141C86.8278 59.0721 86.4596 59.0615 86.281 59.0505ZM92.766 56.9739H89.1038V57.4604L89.1517 57.4566C89.6452 57.4029 90.1415 57.3758 90.6382 57.3755V61.6149H91.3451V57.3778C91.8403 57.3778 92.3164 57.4047 92.7609 57.4566L92.81 57.4619V56.9739H92.766ZM93.3879 61.6001H94.0512V56.9739H93.3879V61.6001ZM98.7606 56.9739V60.3977H98.7546C98.7287 60.37 95.4239 56.9739 95.4239 56.9739H95.0868V61.6001H95.5668V58.0201H95.5752C95.6008 58.0478 98.5921 61.1855 98.5921 61.1855L98.9667 61.6005H99.2403V56.9739H98.7606Z" fill="white"/>
<path d="M35.0438 98.1189C34.781 98.1038 34.5574 98.0784 34.3194 98.0784C34.0554 98.0784 33.8186 98.1038 33.5801 98.1189C33.1776 97.0207 32.6748 95.7539 32.1164 94.5515H28.5776C28.0896 95.7133 27.5872 96.8756 27.1978 98.1189C27.0021 98.1038 26.8495 98.0784 26.681 98.0784C26.5001 98.0784 26.3463 98.1038 26.1934 98.1189L30.5421 88.8881H30.8632L35.0438 98.1189ZM123.315 98.1189H122.894C122.662 97.8432 122.42 97.5743 122.171 97.3125L116.147 90.9969H116.011V98.1185C115.871 98.1038 115.746 98.0784 115.618 98.0784C115.48 98.0784 115.353 98.1038 115.228 98.1185V89.084H115.773L122.393 95.8858H122.533V89.084C122.658 89.095 122.783 89.123 122.924 89.123C123.051 89.123 123.176 89.0954 123.314 89.084L123.315 98.1189ZM112.029 89.084C112.225 89.095 112.435 89.123 112.643 89.123C112.837 89.123 113.034 89.0954 113.255 89.084V98.1189C113.033 98.1038 112.837 98.0784 112.643 98.0784C112.434 98.0784 112.225 98.1038 112.029 98.1189V89.084ZM107.563 98.1443C107.339 98.1314 107.143 98.1038 106.947 98.1038C106.739 98.1038 106.531 98.1314 106.335 98.1443V89.7176C104.929 89.7176 104.079 89.7964 103.281 89.8752C103.299 89.743 103.324 89.6111 103.324 89.4804C103.324 89.3466 103.299 89.2291 103.281 89.084H110.475C110.461 89.2291 110.435 89.3466 110.435 89.4804C110.435 89.6111 110.461 89.743 110.475 89.8752C109.509 89.7677 108.536 89.7151 107.563 89.7176V98.1443H107.563ZM96.2707 89.084H99.2256C101.374 89.084 102.321 89.7559 102.321 91.0909C102.321 92.6219 100.872 93.3639 99.4637 93.6003L102.335 97.048L103.005 97.7877L103.268 98.1189C102.977 98.1038 102.725 98.0784 102.46 98.0784C102.196 98.0784 101.918 98.1038 101.663 98.1189C101.377 97.7303 101.085 97.3463 100.785 96.9673L99.1426 94.9482L98.0275 93.7087H97.5V98.1193C97.2755 98.1041 97.0806 98.0788 96.8853 98.0788C96.6757 98.0788 96.4664 98.1041 96.2711 98.1193V89.084H96.2707ZM97.4996 93.2036C97.6925 93.2164 98.5847 93.2699 99.2959 93.1376C100.316 92.9406 101.081 92.2785 101.081 91.2501C101.081 90.3379 100.591 89.743 99.5471 89.5834C99.0328 89.5069 98.0818 89.5452 97.4996 89.5728V93.2036ZM95.3054 98.1189C95.0386 98.1038 94.8186 98.0784 94.5786 98.0784C94.315 98.0784 94.0777 98.1038 93.8437 98.1189C93.4371 97.0207 92.9343 95.7539 92.3772 94.5515H88.8392C88.3496 95.7133 87.8468 96.8756 87.4578 98.1189C87.2625 98.1038 87.1099 98.0784 86.943 98.0784C86.7621 98.0784 86.6067 98.1038 86.4553 98.1189L90.8025 88.8881H91.1232L95.3054 98.1189ZM90.6224 90.6172L89.1024 93.9967H92.1692L90.6224 90.6172ZM84.6861 89.084C85.0488 92.3445 85.4405 95.5963 85.8148 98.1189C85.5635 98.1038 85.3679 98.0784 85.1602 98.0784C84.9357 98.0784 84.7141 98.1038 84.5056 98.1189C84.27 95.4621 83.986 92.6109 83.7919 91.3039C82.1757 94.0376 80.9768 96.1488 80.1405 97.9738H79.9879L79.2219 96.4796C78.3277 94.7391 77.3525 93.0209 76.4055 91.3043C76.0984 93.8781 75.7222 96.4921 75.7222 98.1193C75.5429 98.1041 75.3876 98.0788 75.2366 98.0788C75.0553 98.0788 74.9003 98.1041 74.7338 98.1193C75.0944 95.993 75.9307 90.4702 76.0709 89.0844H76.4335C77.549 91.1868 78.8872 93.6666 80.3765 96.0059C81.704 93.7439 82.9856 91.4498 84.3926 89.0844H84.6861V89.084ZM68.9792 98.1189H68.5587C68.3271 97.8427 68.086 97.5738 67.8358 97.3125L61.8129 90.9969H61.6743V98.1185C61.535 98.1038 61.4084 98.0784 61.2833 98.0784C61.1452 98.0784 61.0206 98.1038 60.8936 98.1185V89.084H61.4383L68.0575 95.8858H68.1985V89.084C68.3231 89.095 68.4481 89.123 68.5867 89.123C68.7113 89.123 68.8383 89.0954 68.9792 89.084V98.1189ZM48.9883 93.6003C48.9883 90.707 51.2587 88.8877 54.1454 88.8877C56.7669 88.8877 59.4275 90.2311 59.4275 93.4018C59.4275 96.3466 57.2265 98.2777 54.1202 98.2777C51.0395 98.2781 48.9883 96.4277 48.9883 93.6003ZM57.185 90.6021C56.4893 89.771 55.4018 89.3212 54.2836 89.3212C51.8334 89.3212 50.3553 91.078 50.3553 93.758C50.3553 96.4421 52.0826 97.8396 54.1602 97.8396C57.1019 97.8396 58.1611 94.9608 58.0624 93.5086C58.062 92.4142 57.9095 91.4873 57.185 90.6021ZM46.2386 98.1443C46.0146 98.1314 45.8209 98.1038 45.6248 98.1038C45.4147 98.1038 45.2046 98.1314 45.0121 98.1443V89.7176C43.6036 89.7176 42.7517 89.7964 41.959 89.8752C41.9725 89.743 42.0005 89.6111 42.0005 89.4804C42.0005 89.3466 41.9725 89.2291 41.959 89.084H49.1504C49.1353 89.2291 49.1089 89.3466 49.1089 89.4804C49.1089 89.6111 49.1353 89.743 49.1504 89.8752C48.1839 89.7678 47.2114 89.7151 46.2382 89.7176V98.1443H46.2386ZM36.0211 96.3341C36.5634 97.1803 37.1897 97.7089 38.2799 97.7089C39.407 97.7089 40.2157 96.8222 40.2157 95.78C40.2157 93.3233 35.8526 94.4082 35.8526 91.4214C35.8526 89.7176 37.2747 88.8877 38.9477 88.8877C39.6146 88.8877 40.4258 89.084 40.9386 89.5194C40.772 89.8624 40.675 90.2311 40.5639 90.6021H40.4258C40.1326 89.8877 39.52 89.4531 38.6977 89.4531C37.7352 89.4531 36.942 90.0621 36.942 90.9969C36.942 93.4294 41.3311 92.451 41.3311 95.2654C41.3311 97.1545 39.7812 98.2777 37.8874 98.2777C37.206 98.2777 36.0906 98.0007 35.6165 97.5107C35.7539 97.1268 35.8246 96.7301 35.8805 96.3341H36.0211ZM30.3608 90.6172L28.8432 93.9967H31.908L30.3608 90.6172Z" fill="black"/>
</g>
<defs>
<clipPath id="clip0_557:480">
<rect width="130" height="48.7193" fill="white" transform="translate(10 51)"/>
</clipPath>
</defs>
</svg>
