<svg width="144" height="38" viewBox="0 0 144 38" fill="none" xmlns="http://www.w3.org/2000/svg">
<path d="M30.6188 0.902056C27.0957 0.868186 23.7684 2.78099 23.7684 2.78099C23.7684 2.78099 20.4162 4.96218 19.1917 8.23046C19.1285 8.5479 12.4875 22.3855 12.4875 22.3855C4.0695 19.7703 -0.000337049 25.0694 0.127939 27.1146C2.16166 32.5959 12.1065 28.6967 13.0995 27.4276C13.6491 27.1109 14.0033 27.4902 14.0033 27.4902C14.0033 27.4902 16.4388 29.2323 16.7141 29.3694C16.9891 29.5065 18.3758 29.3068 18.3758 29.3068C19.4542 29.2187 21.3783 26.9483 21.6114 26.9266C21.971 26.9278 22.4047 29.4418 23.8851 29.4007C25.6614 29.7695 27.5871 27.6157 27.5871 27.6157C27.8406 27.2303 27.9369 27.5215 27.9369 27.5215C27.896 29.884 29.6819 29.4673 30.2104 29.4007C31.9654 28.6334 36.264 24.0834 35.7783 25.4235C35.6093 25.7865 34.2916 28.4297 34.2916 28.4297C34.144 29.1339 34.6123 29.0875 34.6123 29.0875L37.702 29.0562C38.2303 28.7168 40.9337 22.4624 40.6171 23.3252C41.5914 21.4309 43.7945 20.7572 43.7945 20.7572C44.006 20.6895 43.911 21.0076 43.911 21.0076L40.2964 28.7116C40.2334 28.9155 40.5878 29.1188 40.5878 29.1188L43.736 29.0562C44.1591 29.0122 46.7968 23.1998 46.7968 23.1998C47.5147 21.725 50.0617 20.8824 50.0617 20.8824C50.5266 20.7927 50.2074 21.2896 50.2074 21.2896L47.7297 26.864C47.3531 29.3949 49.3325 29.5432 50.1783 29.432C51.024 29.2984 52.3994 28.7866 55.1045 26.6134C55.6546 26.1611 55.775 26.6162 55.775 26.7075C55.7983 29.8197 58.9815 29.4633 58.9815 29.4633C59.9331 29.716 63.796 29.6182 67.0268 22.6988C65.8456 27.3977 68.2539 28.6773 68.3387 28.8371C68.4235 28.9959 69.7182 29.4818 70.2041 29.3694C75.1317 29.8387 77.2002 21.6028 77.2002 21.6028C78.309 20.7091 78.5906 20.4526 79.0367 20.1934C80.1366 20.3097 80.4319 20.3431 80.9606 20.4127C81.3833 20.5732 81.0002 20.9971 80.873 21.1328C75.8431 25.3438 78.0509 28.5911 78.2205 28.5238C80.4217 31.7335 84.9909 26.1385 85.8577 26.0497C86.9605 30.7788 90.3152 28.72 90.4635 28.7429C90.1678 29.6735 89.3075 31.9748 88.5687 33.4718C87.0264 35.8076 84.6043 33.1901 84.6043 33.1901L83.9921 33.1588C83.6964 33.5666 83.8755 34.0357 83.8755 34.0357C84.5104 35.1281 85.3233 36.6399 87.8399 37.0108C90.3774 37.132 91.8335 34.1296 91.8335 34.1296C91.8335 34.1296 95.3908 27.0777 95.623 26.2375C96.7008 25.1958 98.5712 23.6915 99.9664 22.6049C100.875 22.4033 97.6915 27.9801 97.4596 28.7742C97.3963 29.2288 97.547 29.2442 97.547 29.2442C97.547 29.2442 99.9677 29.3734 100.433 29.3068C100.898 29.24 103.157 23.4738 103.96 22.3858C104.657 21.1382 106.904 19.9743 106.904 19.9743C107.39 19.8621 107.225 20.4753 107.225 20.4753L104.251 26.9268C103.534 29.6275 105.553 29.6415 105.913 29.62C106.885 29.5542 110.519 27.3024 110.519 27.3024C111.026 26.8948 111.014 27.5531 111.014 27.5531C110.972 28.4164 111.84 29.8307 112.559 29.6511C115.139 29.9085 119.041 25.3041 119.147 25.7365C119.168 25.8276 117.689 28.9623 117.689 28.9623C117.753 29.2122 118.01 29.3381 118.01 29.3381C118.01 29.3381 120.508 29.3675 121.1 29.3694C121.692 29.3713 124.385 22.457 124.977 22.0723C126.181 20.7357 127.5 20.6089 127.542 20.6318C127.986 20.6108 125.029 25.6858 124.86 26.7073C124.207 29.6364 126.143 29.5885 126.143 29.5885C127.687 29.8433 131.472 26.9584 131.536 27.2083C131.979 26.733 132.031 27.3024 132.031 27.3024V27.5215C132.287 29.8854 133.576 29.6198 133.576 29.6198C135.057 30.0332 140.835 24.8283 140.835 24.8283L139.96 23.795L136.346 26.6134C136.05 26.772 135.879 26.4256 135.879 26.4256L139.931 18.0325C140.121 17.8288 139.843 17.5941 139.843 17.5941H136.2C135.946 17.8884 135.792 18.0951 135.792 18.0951L132.498 24.9851L128.883 26.8953C128.503 27.0074 128.592 26.5823 128.592 26.5823C128.592 26.5823 131.603 20.2331 131.856 19.3478C132.025 18.9395 131.944 18.2831 131.944 18.2831C130.948 15.8034 126.926 19.0135 126.376 19.0348C126.355 19.0575 126.872 17.9073 126.872 17.9073C127.02 17.5667 126.726 17.5628 126.726 17.5628L123.345 17.5315C123.345 17.5315 123.355 17.2734 123.228 17.5002C123.101 17.727 120.925 22.1038 120.925 22.1038L115.474 26.5195C115.009 26.6094 115.124 26.2691 115.124 26.2691L119.118 17.9699L119.147 17.6254L115.299 17.5315L112.122 24.108C111.953 24.3121 108.624 26.3317 108.624 26.3317C108.116 26.4896 108.099 26.0184 108.099 26.0184L111.044 19.8804C111.71 17.4857 109.275 16.7817 108.07 17.2495C107.256 17.5649 106.496 17.8447 106.496 17.8447C106.496 17.8447 106.255 17.912 106.467 17.5941C106.826 17.0498 110.548 9.13839 110.548 9.13839C110.633 8.91112 110.431 8.76256 110.431 8.76256L107.05 8.73126C106.775 8.86627 106.729 9.07579 106.729 9.07579L101.919 18.8781L97.9551 22.0725C97.7013 22.2536 97.6926 21.9471 97.6926 21.9471L99.6748 17.9073V17.4999L96.1185 17.4686L95.5354 17.9697C95.1332 17.0596 93.0923 17.0704 93.0286 17.0928C88.757 16.9433 86.3532 23.4502 86.3532 23.4502C83.9764 25.6639 82.8783 26.3527 82.0975 26.4879C81.4479 26.5272 81.252 25.9554 81.252 25.9554C80.3471 22.9767 86.0325 20.1618 86.0325 20.1618C86.223 20.0485 87.0422 17.4063 86.9363 17.406C86.8305 17.4058 79.9455 17.3974 79.882 17.3747C79.5011 17.2147 77.6622 19.074 77.1128 19.5043C75.5024 14.4332 69.2627 18.2686 68.397 20.5377C68.0252 20.6442 67.8584 20.5699 67.6682 20.569C67.7308 18.8428 67.5175 17.7664 66.5022 17.218C65.9521 16.8985 63.704 17.218 63.704 17.218L67.5225 9.04426C67.7125 8.79479 67.3475 8.54322 67.3475 8.54322H63.9079C63.7599 8.63385 63.5873 8.85623 63.5873 8.85623C63.5873 8.85623 57.088 22.3802 56.7077 23.1059C56.3277 23.8316 51.5773 26.5508 51.5773 26.5508C51.6191 26.0514 54.6788 20.3356 54.784 19.2226C54.9086 16.3379 51.8398 17.2495 51.8398 17.2495C51.8398 17.2495 50.102 18.4889 48.5168 19.3478C48.1761 16.1886 45.6016 17.2808 45.6016 17.2808L42.6867 19.3165L43.2113 17.8447L43.3281 17.2808L39.8299 17.1869C39.4287 17.5039 38.7223 19.2226 38.7223 19.2226L37.6146 21.4148L32.6301 25.4548C32.1439 25.7484 32.3968 25.0477 32.3968 25.0477C32.3968 25.0477 35.7622 17.9561 35.8363 17.9071C36.1111 17.726 35.8948 17.2811 35.8948 17.2811L32.5133 17.2495C32.5133 17.2495 31.9406 18.2948 31.8139 18.4083C30.205 15.9721 24.8959 16.9608 22.0486 24.1708C21.6846 24.6527 21.4031 24.99 21.2033 25.079C17.8648 29.2718 15.9561 25.1103 15.9561 25.1103L21.9321 12.8652C21.9321 12.8652 24.6509 6.33003 26.3628 4.47212C30.6957 1.32741 31.9304 4.28432 31.9304 4.28432C32.3048 5.21632 33.4465 8.58083 27.558 10.2033C26.7855 10.2853 27.0331 10.6728 27.0331 10.6728C28.747 12.2457 30.8518 12.0822 30.8518 12.0822C32.9245 12.52 38.5408 9.19959 36.5068 3.87719C34.9197 1.64882 32.7325 0.922377 30.6188 0.902056ZM119.555 9.20123C116.468 9.32806 116.287 13.7794 119.438 14.2431C122.505 14.3435 123.087 9.34838 119.555 9.20099V9.20123ZM140.572 9.20123C137.231 9.21384 137.48 14.2791 140.63 14.2431C143.781 13.9803 143.512 9.32339 140.572 9.20099V9.20123ZM30.2689 18.69C31.2571 18.7143 31.0842 19.9864 30.9103 20.2247C31.0162 20.611 29.1903 23.9199 29.1903 23.9199C27.0777 26.7535 26.0713 26.2373 26.0713 26.2373C26.0713 26.2373 25.3473 26.1294 25.8965 24.609C26.4878 23.5429 27.6362 20.7689 28.8405 19.1595C29.4747 18.8094 29.9393 18.6819 30.2689 18.69ZM63.4122 19.003C64.4487 19.1427 63.9371 20.1618 63.9371 20.1618L61.0802 26.206C60.1718 27.4078 59.3313 26.989 59.3313 26.989C58.866 26.6236 59.652 25.2352 59.652 25.2352L62.3338 19.5982C62.8617 19.0089 63.4122 19.003 63.4122 19.003ZM93.1451 19.0346C93.9539 18.8804 94.2822 19.5982 94.2822 19.5982C94.2822 19.5982 94.3292 19.7136 94.2237 20.3499C93.992 21.3262 91.4836 25.9869 91.4836 25.9869C90.4274 27.1198 89.5014 26.8951 89.5014 26.8951C88.9729 26.7344 89.1807 25.893 89.1807 25.893C89.1807 25.893 91.2119 21.4183 92.1833 19.5356C92.5638 19.2357 92.8755 19.0857 93.1451 19.0346ZM73.7022 19.0659C74.149 18.9848 74.5731 19.1826 74.4892 20.1931C73.9618 21.3956 71.8802 25.8131 71.4578 26.4251C71.3734 26.9479 69.2477 27.7995 69.796 25.893C69.796 25.893 72.7777 19.9019 72.7986 19.6295C72.809 19.4931 73.2556 19.1467 73.7022 19.0659ZM6.57001 23.983C8.31283 23.9381 9.89302 24.5464 9.89302 24.5464C9.89302 24.5464 9.48536 26.0063 5.63708 26.676C3.8186 26.5575 2.86848 26.5662 2.86783 25.8619C3.75511 24.4434 5.21442 24.0176 6.57001 23.9828V23.983Z" fill="#231F20"/>
</svg>
