<svg width="171" height="64" viewBox="0 0 171 64" fill="none" xmlns="http://www.w3.org/2000/svg">
<path d="M84.9996 34.6864C84.6889 34.6864 84.4607 34.9367 84.4581 34.9423C84.4445 34.9541 78.9436 40.6067 78.9436 40.6067C76.9151 42.7151 74.2219 41.8327 73.9341 41.7298C73.9341 41.7298 50.4207 34.8225 50.4175 34.8203C45.9303 33.3626 45.0388 31.7901 44.3521 29.8803C44.3521 29.8803 43.9531 28.6931 42.9764 28.3821C42.9764 28.3821 14.2331 19.2956 14.2305 19.2956C13.0575 18.9058 12.412 18.5493 11.9509 17.5876C11.9509 17.5876 10.3731 14.5963 10.3679 14.5878C10.018 13.8708 9.38399 13.7949 9.34743 13.7892C7.17329 13.4732 6.53614 12.1679 6.26665 11.6122L4.98452 9.18723C4.58343 8.43588 4.00999 8.37233 3.99224 8.37008C2.75606 8.28573 2.168 7.94998 1.65671 7.04623C1.65671 7.04623 0.403304 4.80118 0.398082 4.78993C-0.218179 3.56392 -0.00509886 2.6866 0.279008 2.16583C0.878556 1.09786 1.97425 1.01687 2.41398 1H71.1448C73.0907 1 74.6632 1.63494 75.8257 2.89075C76.6608 3.78663 77.2358 4.95583 77.5335 6.36405C77.5387 6.39723 77.6197 6.69136 78.2077 6.69136H91.7926C92.3812 6.69136 92.4616 6.39779 92.4668 6.36405C92.7645 4.95583 93.3395 3.78663 94.1746 2.89075C95.3372 1.63494 96.9091 1 98.8561 1H167.587C168.027 1.01631 169.122 1.09786 169.721 2.16527C170.005 2.68604 170.218 3.56336 169.602 4.78936C169.596 4.80061 168.343 7.04566 168.343 7.04566C167.832 7.94942 167.244 8.28516 166.008 8.36952C165.99 8.37177 165.416 8.43532 165.015 9.18667L163.733 11.6117C163.464 12.1673 162.827 13.4726 160.653 13.7887C160.616 13.7943 159.982 13.8702 159.632 14.5873C159.627 14.5957 158.049 17.587 158.049 17.587C157.588 18.5487 156.943 18.9058 155.77 19.295L127.024 28.3815C126.048 28.6925 125.649 29.8797 125.649 29.8797C124.963 31.7896 124.071 33.362 119.583 34.8197C119.581 34.822 96.0667 41.7292 96.0667 41.7292C95.779 41.8321 93.0857 42.7145 91.0573 40.6061C91.0573 40.6061 85.5569 34.953 85.5423 34.9418C85.5402 34.9361 85.312 34.6859 85.0012 34.6859L84.9996 34.6864Z" fill="black"/>
<path d="M93.8676 6.62322C94.1063 5.48415 94.5618 4.55009 95.2161 3.84341C96.122 2.8641 97.3841 2.36579 98.9598 2.36579H130.256C129.18 3.23448 128.615 4.33334 128.578 4.40652C128.148 5.26989 127.696 6.12064 127.224 6.95785H93.7574C93.8267 6.82657 93.8681 6.62322 93.8676 6.62322ZM167.97 4.10597L166.749 6.29865C166.52 6.70534 166.379 6.88914 165.44 6.95338L128.377 6.95897C128.746 6.2857 129.102 5.60439 129.445 4.91545C129.455 4.89478 130.768 2.3697 133.099 2.3697L167.052 2.36635C167.409 2.38255 167.871 2.42557 168.116 2.86187C168.146 2.92053 168.216 3.04231 168.216 3.26186C168.216 3.45627 168.158 3.7328 167.97 4.10597ZM163.438 8.45278L162.143 10.9047C161.967 11.2672 161.695 11.8276 160.83 12.1499C160.107 12.3449 158.669 12.2208 158.171 12.1555L126.647 9.8952C127.054 9.24326 127.432 8.61591 127.776 8.02039H163.71C163.616 8.14944 163.524 8.28966 163.438 8.45278ZM158.078 13.8543C158.087 13.8437 156.839 16.2151 156.579 16.7073C156.515 16.7995 156.16 17.2157 155.006 17.0503L124.798 12.6772C125.212 12.0929 125.604 11.513 125.972 10.9527L158.062 13.2504C158.109 13.2566 158.244 13.2728 158.437 13.2912C158.297 13.4631 158.177 13.6521 158.078 13.8543ZM147.689 20.1821C146.552 20.5072 144.327 20.1391 143.555 19.9659L122.797 15.3615C123.252 14.7856 123.688 14.2146 124.101 13.6493L154.438 18.0436L147.689 20.1821ZM137.399 23.4406C135.94 23.8624 134.035 23.1803 134.017 23.1747L133.994 23.1669C133.994 23.1669 133.991 23.1641 133.989 23.1641L120.095 18.5391C120.767 17.8055 121.42 17.0529 122.055 16.2822L143.356 21.0072C143.403 21.015 143.839 21.1122 144.451 21.205L137.399 23.4406ZM126.546 26.8808C125.56 27.1702 124.106 26.5557 123.624 26.2931C123.624 26.2931 119.906 24.4149 116.088 22.4876C117.2 21.5043 118.273 20.4707 119.303 19.3894L133.711 24.1876C133.739 24.1987 134.001 24.2909 134.402 24.3881L126.546 26.8808ZM124.322 29.2271C123.903 30.3879 123.464 31.584 120.509 32.7823C119.289 33.1912 117.838 32.027 117.825 32.0142C117.82 32.0086 114.53 29.4673 110.783 26.5741C112.322 25.5482 113.807 24.4307 115.231 23.2267L123.192 27.2484C123.236 27.2724 124.057 27.7199 125.051 27.9199C124.576 28.5042 124.361 29.1081 124.322 29.2271ZM113.187 35.0353L112.077 35.3599C111.143 35.6012 110.003 34.6024 109.639 34.1873C109.639 34.1873 107.848 32.1767 105.547 29.5841C107.023 28.862 108.463 28.0572 109.861 27.173L117.24 32.87C117.27 32.8968 117.691 33.2376 118.31 33.5275C116.671 34.0091 113.187 35.0348 113.187 35.0353ZM103.431 37.9067C102.652 38.0391 101.748 36.6593 101.486 36.1448L99.2611 32.0801C101.072 31.5189 102.85 30.8374 104.583 30.0394L108.924 34.9275C108.962 34.9683 109.442 35.5062 110.139 35.9314L103.431 37.9067ZM96.0439 40.0793C95.5195 40.2095 95.0769 40.1525 94.6964 39.9045C93.8801 39.3654 93.6083 38.1257 93.5933 38.0531L92.458 33.6331C94.4193 33.341 96.3623 32.9208 98.2765 32.375L100.631 36.676C100.712 36.8297 101.189 37.7285 101.905 38.3565L96.0439 40.0793ZM91.256 38.4754C91.256 38.4754 88.0994 35.2247 87.0289 34.1253C88.5311 34.0689 90.0137 33.9499 91.4693 33.7655L92.6299 38.2849C92.663 38.4419 92.895 39.433 93.5394 40.2206C92.6501 39.9475 92.3804 39.6631 91.256 38.4754ZM85.7223 33.0912V19.3218H87.7588L91.2022 32.7292C89.4101 32.951 87.5838 33.0728 85.7223 33.0912ZM79.2537 32.7292L82.6992 19.3218H84.7362V33.0896C82.871 33.0728 81.0453 32.9488 79.2537 32.7292ZM78.3493 39.3492C77.9492 39.7684 77.4554 40.0688 76.9159 40.2212C77.5651 39.4307 77.7908 38.4375 77.8249 38.2833L78.986 33.7717C80.4417 33.9527 81.9242 34.0716 83.426 34.1258C82.2235 35.3593 78.3493 39.3492 78.3493 39.3492ZM76.8626 38.0447C76.8626 38.0581 76.595 39.352 75.7574 39.9045C75.3774 40.1525 74.9364 40.21 74.412 40.0793L68.5501 38.3559C69.266 37.7246 69.749 36.8263 69.8318 36.6615C69.8292 36.6643 70.8246 34.8482 72.1752 32.3773C74.0903 32.9239 76.0346 33.3431 77.9973 33.6326L76.8626 38.0447ZM67.024 37.9067L60.3167 35.9308C61.0125 35.5035 61.4949 34.9649 61.5317 34.9247C61.5317 34.9247 63.4491 32.7639 65.8717 30.0388C67.6049 30.8366 69.3817 31.5191 71.1922 32.0823L68.9761 36.1342C68.7064 36.6587 67.8026 38.0391 67.024 37.9067ZM58.3766 35.3599L52.1445 33.5275C52.5269 33.3502 52.8894 33.1268 53.2254 32.8616C53.2202 32.8672 56.7071 30.174 60.5937 27.1735C61.9931 28.0569 63.4339 28.8615 64.9104 29.5841L60.8163 34.1873C60.4524 34.6024 59.312 35.6012 58.3766 35.3599ZM49.9393 32.7829C46.9959 31.584 46.5548 30.3913 46.1366 29.2332C45.9665 28.7522 45.7185 28.3076 45.4041 27.9204C46.0534 27.7817 46.6834 27.5531 47.2785 27.2405C47.2702 27.2433 51.2593 25.2328 55.2266 23.2267C56.6481 24.4325 58.1321 25.5501 59.6712 26.5741L52.6399 32.0035C52.6171 32.0281 51.1594 33.1974 49.9393 32.7829ZM43.9117 26.8808C43.6145 26.7853 40.3114 25.7384 36.0537 24.3881C36.2911 24.3327 36.5258 24.2638 36.7566 24.182C36.7442 24.1876 48.4319 20.296 51.1537 19.3894C52.1848 20.4695 53.2575 21.5024 54.3689 22.4854L46.8463 26.2853C46.3488 26.5557 44.8978 27.1702 43.9117 26.8808ZM33.0642 23.4429C30.7099 22.698 28.356 21.952 26.0023 21.205C26.3707 21.1511 26.7374 21.0842 27.1018 21.0044C27.0997 21.0078 42.1403 17.6704 48.4034 16.2827C49.0388 17.052 49.6914 17.8046 50.3606 18.5397L36.4517 23.1703C36.4202 23.1803 34.5235 23.8602 33.0642 23.4429ZM22.7768 20.1854C20.5248 19.4683 18.272 18.7544 16.0183 18.0436L46.3592 13.6493C46.7733 14.2118 47.2071 14.7828 47.6611 15.3599L26.901 19.9664C26.1307 20.1391 23.9162 20.5072 22.7768 20.1854ZM15.453 17.0509C14.3053 17.2162 13.9451 16.8073 13.8788 16.7101L12.3688 13.8409C12.2727 13.6437 12.1552 13.4596 12.0189 13.2923C12.2125 13.2733 44.4899 10.9533 44.4899 10.9533C44.8712 11.5351 45.2618 12.1099 45.6614 12.6772L15.453 17.0509ZM9.62832 12.1493C8.76279 11.8276 8.48844 11.2672 8.3114 10.9041C7.78235 9.93319 7.0861 8.48183 6.74393 8.01927H42.6833C43.0491 8.65173 43.4259 9.27678 43.8133 9.89408L12.2839 12.1544C11.789 12.2203 10.3504 12.3443 9.62832 12.1493ZM5.02635 6.95785C4.16083 6.88802 3.97654 6.77741 3.70425 6.29474C3.70736 6.29809 2.57473 4.2663 2.48465 4.10597C2.29674 3.7328 2.23462 3.45627 2.24291 3.2613C2.26361 2.76299 2.57783 2.3792 3.40401 2.36523L37.3587 2.36859C39.6571 2.36859 41.0123 4.91489 41.0123 4.91489C41.356 5.60389 41.7131 6.28503 42.0833 6.95785H5.02635ZM71.495 2.36523C73.0739 2.36523 74.3323 2.86355 75.2392 3.84341C75.8941 4.54953 76.348 5.48359 76.5898 6.62322C76.5898 6.62322 76.6385 6.81819 76.7006 6.95841H43.2346C42.7231 6.05229 41.8799 4.40708 41.8799 4.40708C41.8431 4.33446 41.2773 3.23504 40.2011 2.36635L71.495 2.36523ZM119.956 9.41868V8.01927H126.61C126.252 8.62454 125.884 9.22276 125.506 9.81364L119.956 9.41868ZM119.956 11.9784V10.5231L124.815 10.8695C124.456 11.4075 124.072 11.9566 123.672 12.5175L119.956 11.9784ZM119.956 14.7342V13.0504L122.961 13.4862C122.558 14.0253 122.134 14.5688 121.693 15.118C120.918 14.9453 120.32 14.8152 119.956 14.7342ZM119.956 15.8196L120.937 16.0353C120.616 16.4193 120.289 16.7975 119.956 17.1699V15.8196ZM109.82 19.3218H117.941C117.113 20.2095 115.159 21.9273 115.095 21.9848C113.121 20.9854 111.195 20.0167 109.82 19.3218ZM101.391 19.3218H107.494L114.226 22.7211C112.842 23.8657 111.401 24.928 109.91 25.9032C106.662 23.392 103.239 20.748 101.391 19.3218ZM96.4259 19.3218H99.7001L108.98 26.4936C107.631 27.3284 106.243 28.0871 104.821 28.7668C101.766 25.33 98.0844 21.186 96.4259 19.3218ZM92.2784 19.3218H95.0588L103.852 29.2165C102.185 29.9639 100.479 30.6037 98.7419 31.1326L92.2784 19.3218ZM91.1328 19.3218L97.7568 31.4186C95.925 31.9302 94.0666 32.3235 92.1915 32.5963L88.7811 19.3212H91.1328V19.3218ZM79.323 19.3218H81.6747L78.2644 32.5968C76.3895 32.3237 74.5312 31.9314 72.6991 31.422C75.1807 26.892 78.4922 20.8396 79.323 19.3218ZM75.3966 19.3218H78.178L71.714 31.1326C69.976 30.605 68.2692 29.964 66.6032 29.2131C70.1289 25.2484 74.3722 20.4742 75.3966 19.3218ZM70.7558 19.3218H74.03L65.6377 28.7668C64.2148 28.0868 62.8253 27.3281 61.4747 26.4936C65.5021 23.3814 69.7003 20.1363 70.7558 19.3218ZM55.3602 21.9848C55.2862 21.92 53.3408 20.1558 52.5146 19.3218H60.6346L55.3602 21.9848ZM62.9614 19.3218H69.0631L60.5445 25.9009C59.0532 24.9276 57.613 23.8661 56.2304 22.7211C59.4279 21.105 62.3894 19.6111 62.9614 19.3218ZM50.4911 15.8196V17.1587C50.1619 16.7897 49.8383 16.415 49.5205 16.0347C49.9103 15.947 50.2364 15.876 50.4911 15.8196ZM50.4911 13.0504V14.7336L48.7632 15.118C48.333 14.5816 47.911 14.0376 47.4975 13.4862L50.4911 13.0504ZM50.4911 10.5231V11.9784L46.7857 12.5175C46.3974 11.9749 46.0174 11.4255 45.6458 10.8695L50.4911 10.5231ZM50.4911 9.41868L44.9553 9.81364C44.5758 9.22354 44.2073 8.6253 43.8501 8.01927H50.4911V9.41868Z" fill="white"/>
<path d="M55.6246 7.70508H55.3397L52.4219 13.8988H53.2121L53.2247 13.863C53.4608 13.1092 53.7651 12.3873 54.0604 11.6946L54.1217 11.5475H56.3782C56.7263 12.3083 57.0437 13.0813 57.3297 13.865L57.3428 13.8988H58.4336L55.6246 7.70508ZM54.3427 11.075C54.4024 10.9383 55.168 9.23599 55.2591 9.03425C55.3492 9.23599 56.13 10.9383 56.1912 11.075H54.3427ZM58.7478 13.4581L58.7718 13.4819C59.1164 13.8387 59.8935 14.0051 60.3114 14.0051C61.6803 14.0051 62.6391 13.1669 62.6391 11.9644C62.6391 10.9671 61.8437 10.6735 61.0749 10.3848C60.3921 10.1269 59.7427 9.8889 59.7427 9.15251C59.7427 8.59352 60.2072 8.18954 60.844 8.18954C61.353 8.18954 61.7374 8.44445 61.9322 8.91103L61.9453 8.94432H62.1191L62.392 8.16271L62.3616 8.13588C61.9898 7.81787 61.4174 7.70508 61.01 7.70508C59.7338 7.70508 58.9106 8.38134 58.9106 9.43127C58.9106 10.5001 59.7506 10.8101 60.49 11.0899C61.1587 11.3353 61.7861 11.5714 61.7861 12.3058C61.7861 12.987 61.2509 13.5236 60.5691 13.5236C59.9443 13.5236 59.5301 13.2682 59.1264 12.6427L59.1107 12.6188H58.9368L58.7478 13.4581ZM67.791 7.83278H62.991V8.47078L63.0528 8.46581C63.7006 8.39527 64.352 8.35977 65.004 8.35948V13.9182H65.9262V8.36246C66.5781 8.36246 67.2008 8.39774 67.7831 8.46581L67.848 8.47277V7.83278H67.791ZM71.0979 7.70508C69.0619 7.70508 67.6375 9.00742 67.6375 10.8683C67.6375 12.7455 69.0226 14.0046 71.0801 14.0046C73.2072 14.0046 74.6389 12.6899 74.6389 10.7356C74.6395 8.64122 72.8595 7.70508 71.0979 7.70508ZM72.8024 12.9239C72.3495 13.3785 71.7813 13.6101 71.1052 13.6101C69.6149 13.6101 68.6508 12.5756 68.6508 10.9746C68.6508 9.20071 69.6248 8.1001 71.189 8.1001C71.9269 8.1001 72.6233 8.40817 73.0538 8.92295C73.5267 9.49586 73.623 10.0931 73.623 10.8081C73.6256 10.8469 73.6283 10.8901 73.6283 10.9314C73.6283 11.5132 73.3785 12.3391 72.8024 12.9239ZM81.0324 7.83278H80.4605V12.3222H80.4501C80.4171 12.2859 76.0827 7.83278 76.0827 7.83278H75.6418V13.8988H76.2707V9.20469H76.2838C76.3173 9.24096 80.2343 13.3552 80.2343 13.3552L80.7255 13.8993H81.0895V7.83278H81.0324ZM91.3622 7.83278H91.136L89.5875 10.4971C89.5875 10.4971 88.6077 12.192 88.5187 12.344C87.5635 10.832 86.7032 9.24096 85.9711 7.8616L85.9559 7.83278H85.6307L85.6255 7.88346C85.5343 8.77935 84.9845 12.4305 84.7441 13.8387L84.7316 13.8988H85.5066V13.8466C85.5066 12.992 85.6663 11.7179 85.836 10.3674L85.9381 9.53214C86.0465 9.7289 87.2493 11.8963 87.7086 12.7892L88.2286 13.8054H88.4024L88.4171 13.7716C88.9518 12.6059 89.7069 11.2752 90.7401 9.5227C90.8862 10.5677 91.08 12.6546 91.1873 13.8506L91.1931 13.8993H92.1723L92.1639 13.8392C91.943 12.3679 91.7015 10.4206 91.4193 7.88396L91.4135 7.83328H91.3622V7.83278ZM95.7463 7.70508H95.4594L92.5405 13.8988H93.3354L93.3459 13.863C93.5831 13.1023 93.8889 12.3778 94.1858 11.6792C94.1858 11.6792 94.2225 11.5927 94.2403 11.547H96.4983C96.8457 12.3079 97.1626 13.0809 97.4483 13.8645L97.4608 13.8983H98.5527L95.7463 7.70508ZM94.4628 11.075C94.5225 10.9383 95.2887 9.23599 95.3803 9.03425L96.3124 11.075H94.4628ZM101.36 10.9021C102.514 10.6809 103.204 10.0573 103.204 9.21463C103.204 8.28843 102.518 7.83328 101.106 7.83328H99.1025V13.8993H100.023V10.9915H100.291C100.529 11.2592 100.768 11.5263 101.007 11.793C101.004 11.79 102.091 13.1241 102.091 13.1241L102.685 13.8993H103.89C103.89 13.8988 101.469 11.0298 101.36 10.9021ZM100.023 10.5557V8.26408C100.402 8.24718 100.99 8.22333 101.309 8.27203C101.947 8.36991 102.271 8.7237 102.271 9.31798C102.271 9.92766 101.85 10.3724 101.139 10.508C100.74 10.584 100.257 10.5701 100.023 10.5557ZM108.526 7.83278H103.724V8.47078L103.787 8.46581C104.434 8.39537 105.085 8.35987 105.736 8.35948V13.9182H106.663V8.36246C107.312 8.36246 107.936 8.39774 108.519 8.46581L108.583 8.47277V7.83278H108.526ZM109.341 13.8988H110.211V7.83278H109.341V13.8988ZM116.386 7.83278V12.3222H116.378C116.344 12.2859 112.011 7.83278 112.011 7.83278H111.569V13.8988H112.198V9.20469H112.209C112.243 9.24096 116.165 13.3552 116.165 13.3552L116.656 13.8993H117.015V7.83278H116.386Z" fill="white"/>
<path d="M32.8393 61.7839C32.4948 61.764 32.2015 61.7307 31.8894 61.7307C31.5433 61.7307 31.2327 61.764 30.9201 61.7839C30.3922 60.3439 29.7329 58.6828 29.0009 57.1062H24.3607C23.7207 58.6296 23.062 60.1536 22.5514 61.7839C22.2948 61.764 22.0948 61.7307 21.8738 61.7307C21.6366 61.7307 21.4349 61.764 21.2344 61.7839L26.9366 49.6802H27.3576L32.8393 61.7839ZM148.582 61.7839H148.031C147.726 61.4223 147.41 61.0697 147.082 60.7265L139.184 52.4454H139.005V61.7834C138.822 61.764 138.657 61.7307 138.49 61.7307C138.309 61.7307 138.143 61.764 137.979 61.7834V49.9371H138.693L147.373 58.8557H147.558V49.9371C147.721 49.9515 147.884 49.9883 148.07 49.9883C148.236 49.9883 148.4 49.952 148.581 49.9371L148.582 61.7839ZM133.784 49.9371C134.041 49.9515 134.316 49.9883 134.589 49.9883C134.844 49.9883 135.101 49.952 135.392 49.9371V61.7839C135.101 61.764 134.844 61.7307 134.589 61.7307C134.316 61.7307 134.041 61.764 133.784 61.7839V49.9371ZM127.928 61.8172C127.635 61.8003 127.378 61.764 127.12 61.764C126.848 61.764 126.575 61.8003 126.318 61.8172V50.7679C124.475 50.7679 123.36 50.8712 122.313 50.9746C122.337 50.8012 122.37 50.6282 122.37 50.4568C122.37 50.2814 122.337 50.1274 122.313 49.9371H131.747C131.728 50.1274 131.694 50.2814 131.694 50.4568C131.694 50.6282 131.728 50.8012 131.747 50.9746C130.479 50.8336 129.204 50.7646 127.929 50.7679V61.8172H127.928ZM113.121 49.9371H116.996C119.813 49.9371 121.054 50.8181 121.054 52.5686C121.054 54.576 119.155 55.5489 117.308 55.859L121.073 60.3797L121.951 61.3496L122.296 61.7839C121.914 61.764 121.584 61.7307 121.237 61.7307C120.891 61.7307 120.526 61.764 120.192 61.7839C119.818 61.2743 119.434 60.7709 119.041 60.2738L116.887 57.6264L115.425 56.0011H114.733V61.7844C114.439 61.7645 114.183 61.7312 113.927 61.7312C113.652 61.7312 113.378 61.7645 113.122 61.7844V49.9371H113.121ZM114.733 55.3387C114.986 55.3556 116.156 55.4257 117.088 55.2523C118.426 54.9939 119.428 54.1258 119.428 52.7773C119.428 51.5813 118.786 50.8012 117.418 50.592C116.743 50.4916 115.496 50.5418 114.733 50.5781V55.3387ZM111.856 61.7839C111.506 61.764 111.217 61.7307 110.903 61.7307C110.557 61.7307 110.246 61.764 109.939 61.7839C109.406 60.3439 108.747 58.6828 108.016 57.1062H103.377C102.735 58.6296 102.076 60.1536 101.566 61.7839C101.31 61.764 101.11 61.7307 100.891 61.7307C100.653 61.7307 100.45 61.764 100.251 61.7839L105.951 49.6802H106.372L111.856 61.7839ZM105.715 51.9475L103.722 56.3787H107.743L105.715 51.9475ZM97.9315 49.9371C98.407 54.2123 98.9207 58.4761 99.4114 61.7839C99.082 61.764 98.8254 61.7307 98.5531 61.7307C98.2588 61.7307 97.9681 61.764 97.6948 61.7839C97.3858 58.3002 97.0135 54.5616 96.759 52.8478C94.6397 56.4324 93.0677 59.2006 91.9711 61.5936H91.7711L90.7667 59.6343C89.5942 57.3521 88.3154 55.0992 87.0738 52.8483C86.6711 56.2232 86.1778 59.6507 86.1778 61.7844C85.9427 61.7645 85.739 61.7312 85.541 61.7312C85.3033 61.7312 85.1001 61.7645 84.8817 61.7844C85.3546 58.9963 86.4512 51.7547 86.635 49.9376H87.1105C88.5731 52.6943 90.3279 55.9459 92.2806 59.0132C94.0213 56.0473 95.7017 53.0391 97.5466 49.9376H97.9315V49.9371ZM77.3362 61.7839H76.7848C76.4811 61.4217 76.165 61.0691 75.837 60.7265L67.9396 52.4454H67.7579V61.7834C67.5751 61.764 67.4091 61.7307 67.2452 61.7307C67.064 61.7307 66.9006 61.764 66.7341 61.7834V49.9371H67.4484L76.1276 58.8557H76.3125V49.9371C76.4759 49.9515 76.6398 49.9883 76.8215 49.9883C76.9849 49.9883 77.1514 49.952 77.3362 49.9371V61.7839ZM51.1236 55.859C51.1236 52.0652 54.1007 49.6797 57.8857 49.6797C61.3231 49.6797 64.8117 51.4412 64.8117 55.5986C64.8117 59.4599 61.9258 61.9921 57.8527 61.9921C53.8132 61.9926 51.1236 59.5663 51.1236 55.859ZM61.8713 51.9276C60.9591 50.8379 59.5332 50.2481 58.0669 50.2481C54.8542 50.2481 52.9161 52.5517 52.9161 56.0657C52.9161 59.5852 55.181 61.4177 57.9051 61.4177C61.7624 61.4177 63.1512 57.6428 63.0218 55.7387C63.0213 54.3037 62.8213 53.0883 61.8713 51.9276ZM47.5182 61.8172C47.2244 61.8003 46.9704 61.764 46.7133 61.764C46.4379 61.764 46.1624 61.8003 45.91 61.8172V50.7679C44.063 50.7679 42.9461 50.8712 41.9066 50.9746C41.9244 50.8012 41.9611 50.6282 41.9611 50.4568C41.9611 50.2814 41.9244 50.1274 41.9066 49.9371H51.3362C51.3163 50.1274 51.2818 50.2814 51.2818 50.4568C51.2818 50.6282 51.3163 50.8012 51.3362 50.9746C50.0689 50.8336 48.7937 50.7646 47.5177 50.7679V61.8172H47.5182ZM34.1207 59.4435C34.8319 60.5531 35.653 61.2463 37.0826 61.2463C38.5604 61.2463 39.6208 60.0835 39.6208 58.7171C39.6208 55.4958 33.8998 56.9184 33.8998 53.0019C33.8998 50.7679 35.7645 49.6797 37.9582 49.6797C38.8327 49.6797 39.8962 49.9371 40.5686 50.508C40.3503 50.9577 40.223 51.4412 40.0774 51.9276H39.8962C39.5119 50.991 38.7086 50.421 37.6303 50.421C36.3683 50.421 35.3283 51.2195 35.3283 52.4454C35.3283 55.6349 41.0834 54.3519 41.0834 58.0423C41.0834 60.5193 39.051 61.9921 36.5678 61.9921C35.6745 61.9921 34.2119 61.6289 33.5903 60.9864C33.7704 60.483 33.8631 59.9628 33.9364 59.4435H34.1207ZM26.6988 51.9475L24.7089 56.3787H28.7275L26.6988 51.9475Z" fill="black"/>
</svg>
