<svg width="24" height="19" viewBox="0 0 24 19" fill="none" xmlns="http://www.w3.org/2000/svg">
<path d="M20.5909 18.0901H3.40909C2.50527 18.0891 1.63877 17.7296 0.999672 17.0905C0.360573 16.4514 0.00106145 15.5849 0 14.681V4.39762C0.00106145 3.49379 0.360573 2.6273 0.999672 1.9882C1.63877 1.3491 2.50527 0.989587 3.40909 0.988525H20.5909C21.4947 0.989587 22.3612 1.3491 23.0003 1.9882C23.6394 2.6273 23.9989 3.49379 24 4.39762V14.681C23.9989 15.5849 23.6394 16.4514 23.0003 17.0905C22.3612 17.7296 21.4947 18.0891 20.5909 18.0901V18.0901ZM3.40909 2.19173C2.82405 2.19173 2.26298 2.42414 1.8493 2.83782C1.43561 3.2515 1.20321 3.81258 1.20321 4.39762V14.681C1.20321 15.2661 1.43561 15.8271 1.8493 16.2408C2.26298 16.6545 2.82405 16.8869 3.40909 16.8869H20.5909C21.1759 16.8869 21.737 16.6545 22.1507 16.2408C22.5644 15.8271 22.7968 15.2661 22.7968 14.681V4.39762C22.7968 3.81258 22.5644 3.2515 22.1507 2.83782C21.737 2.42414 21.1759 2.19173 20.5909 2.19173H3.40909Z" fill="white"/>
<path d="M11.9988 11.9777C11.2566 11.9789 10.5343 11.7381 9.94129 11.2919L0.576315 4.20902C0.510147 4.16259 0.454017 4.10329 0.411276 4.03467C0.368536 3.96606 0.340063 3.88953 0.327556 3.80967C0.31505 3.72981 0.318767 3.64824 0.338485 3.56984C0.358204 3.49145 0.39352 3.41783 0.442324 3.35339C0.491128 3.28895 0.552419 3.235 0.622536 3.19477C0.692654 3.15454 0.770159 3.12886 0.850424 3.11925C0.930689 3.10965 1.01207 3.11631 1.0897 3.13886C1.16733 3.1614 1.23962 3.19936 1.30225 3.25047L10.6672 10.3414C11.0518 10.6285 11.5189 10.7836 11.9988 10.7836C12.4787 10.7836 12.9457 10.6285 13.3303 10.3414L22.6953 3.25047C22.7579 3.19936 22.8302 3.1614 22.9079 3.13886C22.9855 3.11631 23.0669 3.10965 23.1471 3.11925C23.2274 3.12886 23.3049 3.15454 23.375 3.19477C23.4451 3.235 23.5064 3.28895 23.5552 3.35339C23.604 3.41783 23.6393 3.49145 23.6591 3.56984C23.6788 3.64824 23.6825 3.72981 23.67 3.80967C23.6575 3.88953 23.629 3.96606 23.5863 4.03467C23.5435 4.10329 23.4874 4.16259 23.4212 4.20902L14.0563 11.2919C13.4632 11.7381 12.7409 11.9789 11.9988 11.9777V11.9777Z" fill="white"/>
<path d="M0.838817 16.4138C0.7168 16.4139 0.597614 16.377 0.497072 16.3079C0.39653 16.2388 0.319386 16.1407 0.275877 16.0267C0.232367 15.9127 0.224549 15.7882 0.253459 15.6696C0.282369 15.5511 0.346641 15.4441 0.437747 15.363L7.81743 8.78141C7.93656 8.67504 8.09307 8.62036 8.25253 8.62938C8.41198 8.63841 8.56132 8.71041 8.66769 8.82954C8.77406 8.94868 8.82875 9.10519 8.81973 9.26464C8.8107 9.4241 8.7387 9.57344 8.61957 9.67981L1.23989 16.2614C1.13029 16.3611 0.986974 16.4155 0.838817 16.4138V16.4138ZM23.1623 16.4138C23.0142 16.4155 22.8709 16.3611 22.7613 16.2614L15.3816 9.67981C15.3226 9.62714 15.2746 9.56337 15.2402 9.49213C15.2059 9.4209 15.1859 9.3436 15.1814 9.26464C15.177 9.18569 15.1881 9.10663 15.2142 9.03197C15.2403 8.95732 15.2808 8.88853 15.3335 8.82954C15.3861 8.77055 15.4499 8.72251 15.5211 8.68817C15.5924 8.65383 15.6697 8.63385 15.7486 8.62938C15.8276 8.62491 15.9067 8.63604 15.9813 8.66212C16.056 8.68821 16.1247 8.72874 16.1837 8.78141L23.5594 15.363C23.6505 15.4441 23.7148 15.5511 23.7437 15.6696C23.7726 15.7882 23.7648 15.9127 23.7213 16.0267C23.6778 16.1407 23.6006 16.2388 23.5001 16.3079C23.3995 16.377 23.2804 16.4139 23.1583 16.4138H23.1623Z" fill="white"/>
</svg>
