<svg width="25" height="25" viewBox="0 0 25 25" fill="none" xmlns="http://www.w3.org/2000/svg">
<path d="M8.47656 11.1073C9.1688 11.1073 9.84549 10.902 10.4211 10.5175C10.9966 10.1329 11.4452 9.58624 11.7101 8.9467C11.975 8.30716 12.0444 7.60343 11.9093 6.92449C11.7743 6.24556 11.4409 5.62192 10.9514 5.13243C10.462 4.64295 9.83831 4.30961 9.15938 4.17456C8.48045 4.03951 7.77671 4.10882 7.13717 4.37373C6.49763 4.63864 5.951 5.08724 5.56642 5.66281C5.18183 6.23838 4.97656 6.91507 4.97656 7.60731C4.97656 8.53557 5.34531 9.4258 6.00169 10.0822C6.65807 10.7386 7.54831 11.1073 8.47656 11.1073V11.1073ZM8.47656 6.10731C8.77324 6.10731 9.06324 6.19528 9.30992 6.3601C9.55659 6.52493 9.74885 6.75919 9.86238 7.03328C9.97591 7.30737 10.0056 7.60897 9.94774 7.89994C9.88986 8.19091 9.747 8.45819 9.53722 8.66797C9.32745 8.87775 9.06017 9.02061 8.7692 9.07849C8.47823 9.13636 8.17663 9.10666 7.90254 8.99313C7.62845 8.8796 7.39418 8.68734 7.22936 8.44066C7.06454 8.19399 6.97656 7.90398 6.97656 7.60731C6.97656 7.20948 7.1346 6.82795 7.4159 6.54665C7.69721 6.26534 8.07874 6.10731 8.47656 6.10731V6.10731ZM16.4766 14.1073C15.7843 14.1073 15.1076 14.3126 14.5321 14.6972C13.9565 15.0817 13.5079 15.6284 13.243 16.2679C12.9781 16.9075 12.9088 17.6112 13.0438 18.2901C13.1789 18.9691 13.5122 19.5927 14.0017 20.0822C14.4912 20.5717 15.1148 20.905 15.7937 21.0401C16.4727 21.1751 17.1764 21.1058 17.816 20.8409C18.4555 20.576 19.0021 20.1274 19.3867 19.5518C19.7713 18.9762 19.9766 18.2995 19.9766 17.6073C19.9766 16.679 19.6078 15.7888 18.9514 15.1324C18.2951 14.4761 17.4048 14.1073 16.4766 14.1073V14.1073ZM16.4766 19.1073C16.1799 19.1073 15.8899 19.0193 15.6432 18.8545C15.3965 18.6897 15.2043 18.4554 15.0907 18.1813C14.9772 17.9072 14.9475 17.6056 15.0054 17.3147C15.0633 17.0237 15.2061 16.7564 15.4159 16.5466C15.6257 16.3369 15.893 16.194 16.1839 16.1361C16.4749 16.0783 16.7765 16.108 17.0506 16.2215C17.3247 16.335 17.5589 16.5273 17.7238 16.774C17.8886 17.0206 17.9766 17.3106 17.9766 17.6073C17.9766 18.0051 17.8185 18.3867 17.5372 18.668C17.2559 18.9493 16.8744 19.1073 16.4766 19.1073ZM20.2166 4.36731C20.1339 4.28446 20.0357 4.21873 19.9276 4.17389C19.8195 4.12904 19.7036 4.10596 19.5866 4.10596C19.4695 4.10596 19.3536 4.12904 19.2455 4.17389C19.1374 4.21873 19.0392 4.28446 18.9566 4.36731L4.73656 18.5873C4.57156 18.7557 4.47835 18.9816 4.47656 19.2173C4.4763 19.3935 4.52835 19.5659 4.62612 19.7125C4.7239 19.8591 4.863 19.9734 5.02579 20.0408C5.18858 20.1083 5.36774 20.1259 5.54057 20.0915C5.71339 20.057 5.87209 19.972 5.99656 19.8473L20.2166 5.62731C20.2994 5.54464 20.3651 5.44644 20.41 5.33834C20.4548 5.23023 20.4779 5.11434 20.4779 4.99731C20.4779 4.88027 20.4548 4.76438 20.41 4.65628C20.3651 4.54817 20.2994 4.44998 20.2166 4.36731V4.36731Z" fill="white"/>
</svg>
