<svg width="31" height="31" viewBox="0 0 31 31" fill="none" xmlns="http://www.w3.org/2000/svg">
<path d="M11.7266 13.2095H6.10156C5.06562 13.2095 4.22656 12.3704 4.22656 11.3345V5.70947C4.22656 4.67354 5.06562 3.83447 6.10156 3.83447H11.7266C12.7625 3.83447 13.6016 4.67354 13.6016 5.70947V11.3345C13.6016 12.3704 12.7625 13.2095 11.7266 13.2095ZM24.8516 13.2095H19.2266C18.1906 13.2095 17.3516 12.3704 17.3516 11.3345V5.70947C17.3516 4.67354 18.1906 3.83447 19.2266 3.83447H24.8516C25.8875 3.83447 26.7266 4.67354 26.7266 5.70947V11.3345C26.7266 12.3704 25.8875 13.2095 24.8516 13.2095ZM11.7266 26.3345H6.10156C5.06562 26.3345 4.22656 25.4954 4.22656 24.4595V18.8345C4.22656 17.7985 5.06562 16.9595 6.10156 16.9595H11.7266C12.7625 16.9595 13.6016 17.7985 13.6016 18.8345V24.4595C13.6016 25.4954 12.7625 26.3345 11.7266 26.3345Z" stroke="white" stroke-width="1.5" stroke-miterlimit="10" stroke-linecap="round" stroke-linejoin="round"/>
<path d="M22.0391 16.9595V26.3345" stroke="white" stroke-width="1.5" stroke-miterlimit="10" stroke-linecap="round" stroke-linejoin="round"/>
<path d="M17.3516 21.647H26.7266" stroke="white" stroke-width="1.5" stroke-miterlimit="10" stroke-linecap="round" stroke-linejoin="round"/>
</svg>
