<svg width="25" height="23" viewBox="0 0 25 23" fill="none" xmlns="http://www.w3.org/2000/svg">
<path d="M22.6117 0H20.1137C19.0806 0 18.2401 0.820378 18.2401 1.82882V11.0093C18.2401 13.9799 15.9567 16.5178 13.0416 16.7874C9.52905 17.107 6.73051 14.3905 6.73051 11.1926V1.82882C6.73051 0.820378 5.89007 0 4.85697 0H2.3589C1.32579 0 0.485352 0.820378 0.485352 1.82882V11.1926C0.485352 17.8401 6.14495 23.1567 12.9501 22.9002C19.3105 22.6627 24.4854 17.2881 24.4854 10.9187V1.82882C24.4853 0.820378 23.6448 0 22.6117 0ZM20.1136 1.21914H22.6116C22.9562 1.21914 23.2362 1.49239 23.2362 1.82874V4.55529H19.4891V1.82874C19.4891 1.49247 19.769 1.21914 20.1136 1.21914ZM2.35882 1.21914H4.85689C5.20146 1.21914 5.4814 1.49239 5.4814 1.82874V4.55529H1.73431V1.82874C1.73431 1.49247 2.01425 1.21914 2.35882 1.21914ZM12.9025 21.6821C6.77197 21.9093 1.73438 17.1204 1.73438 11.1926V5.77465H5.48148V11.1926C5.48148 15.1345 8.94317 18.3915 13.1593 18.0006C16.7088 17.6732 19.4892 14.6019 19.4892 11.0092V5.77458H23.2363V10.9187C23.2362 16.6409 18.6005 21.469 12.9025 21.6821Z" fill="white"/>
</svg>
