<svg width="26" height="25" viewBox="0 0 26 25" fill="none" xmlns="http://www.w3.org/2000/svg">
<path d="M20.4246 15.5754C19.281 14.4318 17.9198 13.5852 16.4346 13.0727C18.0253 11.9771 19.0703 10.1436 19.0703 8.07031C19.0703 4.72315 16.3472 2 13 2C9.65284 2 6.92969 4.72315 6.92969 8.07031C6.92969 10.1436 7.97472 11.9771 9.56543 13.0727C8.08026 13.5852 6.71903 14.4318 5.57539 15.5754C3.59221 17.5586 2.5 20.1954 2.5 23H4.14062C4.14062 18.1149 8.11492 14.1406 13 14.1406C17.8851 14.1406 21.8594 18.1149 21.8594 23H23.5C23.5 20.1954 22.4078 17.5586 20.4246 15.5754ZM13 12.5C10.5575 12.5 8.57031 10.5129 8.57031 8.07031C8.57031 5.62775 10.5575 3.64062 13 3.64062C15.4425 3.64062 17.4297 5.62775 17.4297 8.07031C17.4297 10.5129 15.4425 12.5 13 12.5Z" fill="#868686"/>
</svg>
