<svg width="26" height="25" viewBox="0 0 26 25" fill="none" xmlns="http://www.w3.org/2000/svg">
<path d="M20.5 24.5C23.2614 24.5 25.5 22.2614 25.5 19.5C25.5 16.7386 23.2614 14.5 20.5 14.5C17.7386 14.5 15.5 16.7386 15.5 19.5C15.5 22.2614 17.7386 24.5 20.5 24.5Z" stroke="white"/>
<path fill-rule="evenodd" clip-rule="evenodd" d="M13.9346 11.0727C15.4198 11.5852 16.781 12.4318 17.9246 13.5754C18.4799 14.1307 18.8367 14.486 19.0627 14.7097C18.477 14.8851 17.9366 15.1651 17.4628 15.5278C15.8393 13.4664 13.3216 12.1406 10.5 12.1406C5.61492 12.1406 1.64062 16.1149 1.64062 21H0C0 18.1954 1.09221 15.5586 3.07539 13.5754C4.21903 12.4318 5.58026 11.5852 7.06543 11.0727C5.47472 9.97709 4.42969 8.14357 4.42969 6.07031C4.42969 2.72315 7.15284 0 10.5 0C13.8472 0 16.5703 2.72315 16.5703 6.07031C16.5703 8.14357 15.5253 9.97709 13.9346 11.0727ZM6.07031 6.07031C6.07031 8.51287 8.05748 10.5 10.5 10.5C12.9425 10.5 14.9297 8.51287 14.9297 6.07031C14.9297 3.62775 12.9425 1.64062 10.5 1.64062C8.05748 1.64062 6.07031 3.62775 6.07031 6.07031Z" fill="white"/>
<path d="M23 18L19.5625 21L18 19.6364" stroke="white" stroke-linecap="round" stroke-linejoin="round"/>
</svg>
