<svg width="24" height="24" viewBox="0 0 24 24" fill="none" xmlns="http://www.w3.org/2000/svg">
<path d="M8 13H11C11.2652 13 11.5196 12.8946 11.7071 12.7071C11.8946 12.5196 12 12.2652 12 12C12 11.7348 11.8946 11.4804 11.7071 11.2929C11.5196 11.1054 11.2652 11 11 11H8C7.73478 11 7.48043 11.1054 7.29289 11.2929C7.10536 11.4804 7 11.7348 7 12C7 12.2652 7.10536 12.5196 7.29289 12.7071C7.48043 12.8946 7.73478 13 8 13ZM20 3H6C5.20435 3 4.44129 3.31607 3.87868 3.87868C3.31607 4.44129 3 5.20435 3 6V15C3 15.7956 3.31607 16.5587 3.87868 17.1213C4.44129 17.6839 5.20435 18 6 18H20C20.7956 18 21.5587 17.6839 22.1213 17.1213C22.6839 16.5587 23 15.7956 23 15V6C23 5.20435 22.6839 4.44129 22.1213 3.87868C21.5587 3.31607 20.7956 3 20 3ZM21 15C21 15.2652 20.8946 15.5196 20.7071 15.7071C20.5196 15.8946 20.2652 16 20 16H6C5.73478 16 5.48043 15.8946 5.29289 15.7071C5.10536 15.5196 5 15.2652 5 15V9H21V15ZM21 7H5V6C5 5.73478 5.10536 5.48043 5.29289 5.29289C5.48043 5.10536 5.73478 5 6 5H20C20.2652 5 20.5196 5.10536 20.7071 5.29289C20.8946 5.48043 21 5.73478 21 6V7Z" fill="#181818"/>
<path d="M1.00025 13.6326V16.9426C0.998702 17.6598 1.16416 18.3676 1.48353 19.0098C1.8029 19.652 2.2674 20.211 2.84026 20.6426L4.41025 21.8026M1.00025 13.6326L9.00025 16.9426C9.00181 17.6598 8.83635 18.3676 8.51698 19.0098C8.19762 19.652 7.73311 20.211 7.16025 20.6426L5.59026 21.8026M1.00025 13.6326C0.999912 13.4833 1.03302 13.3357 1.09716 13.2009C1.16129 13.066 1.25482 12.9472 1.37087 12.8532C1.48692 12.7592 1.62256 12.6924 1.76781 12.6577C1.91306 12.623 2.06424 12.6212 2.21026 12.6526L1.00025 13.6326ZM4.41025 21.8026C4.58152 21.9277 4.78814 21.9952 5.00026 21.9952C5.21237 21.9952 5.41899 21.9277 5.59026 21.8026M4.41025 21.8026L4.70525 21.3989L3.13929 20.2419C2.62927 19.8572 2.21569 19.3592 1.93123 18.7871C1.64642 18.2144 1.49887 17.5833 1.50025 16.9437V16.9426L1.50026 13.6326L1.50025 13.6314C1.50008 13.5568 1.51664 13.483 1.5487 13.4156C1.58077 13.3481 1.62754 13.2887 1.68556 13.2418C1.74359 13.1948 1.8114 13.1614 1.88403 13.144C1.95634 13.1267 2.03159 13.1258 2.1043 13.1412C2.55128 13.2393 3.01398 13.2416 3.46192 13.148C3.91035 13.0542 4.3338 12.8664 4.70431 12.597L4.70525 12.5963C4.79089 12.5337 4.8942 12.5 5.00026 12.5C5.10631 12.5 5.20962 12.5337 5.29525 12.5963L5.2962 12.597C5.66671 12.8664 6.09016 13.0542 6.53859 13.148C6.9867 13.2417 7.44958 13.2393 7.89673 13.1411C7.96947 13.1256 8.04477 13.1264 8.11714 13.1437C8.1897 13.1609 8.25747 13.1942 8.31549 13.2411C8.37339 13.2881 8.42004 13.3475 8.45201 13.4149C8.48403 13.4824 8.50051 13.5562 8.50025 13.6309V13.6326L8.50025 16.9426L8.50026 16.9437C8.50164 17.5833 8.35409 18.2144 8.06929 18.7871C7.78482 19.3592 7.37123 19.8572 6.86121 20.2419L5.29526 21.3989L5.59026 21.8026M4.41025 21.8026L4.70738 21.4005L4.7062 21.3996C4.79164 21.4617 4.89459 21.4952 5.00026 21.4952C5.10594 21.4952 5.20889 21.4617 5.29434 21.3996L5.29313 21.4005L5.59026 21.8026" fill="#181818" stroke="#181818"/>
<path d="M7.21059 16.3533C7.40585 16.158 7.40585 15.8415 7.21059 15.6462C7.01533 15.4509 6.69875 15.4509 6.50348 15.6462L7.21059 16.3533ZM4.57132 18.2855L4.21777 18.639C4.41303 18.8343 4.72962 18.8343 4.92488 18.639L4.57132 18.2855ZM3.78202 16.7891C3.58676 16.5938 3.27018 16.5938 3.07491 16.7891C2.87965 16.9843 2.87965 17.3009 3.07491 17.4962L3.78202 16.7891ZM6.50348 15.6462L4.21777 17.9319L4.92488 18.639L7.21059 16.3533L6.50348 15.6462ZM4.92488 17.9319L3.78202 16.7891L3.07491 17.4962L4.21777 18.639L4.92488 17.9319Z" fill="white"/>
</svg>
