<svg width="28" height="28" viewBox="0 0 28 28" fill="none" xmlns="http://www.w3.org/2000/svg">
<path d="M13 13.6875C9.96744 13.6875 7.5 11.2201 7.5 8.1875C7.5 5.15494 9.96744 2.6875 13 2.6875C16.0326 2.6875 18.5 5.15494 18.5 8.1875C18.5 11.2201 16.0326 13.6875 13 13.6875ZM13 4.0625C10.7251 4.0625 8.875 5.91256 8.875 8.1875C8.875 10.4624 10.7251 12.3125 13 12.3125C15.2749 12.3125 17.125 10.4624 17.125 8.1875C17.125 5.91256 15.2749 4.0625 13 4.0625Z" fill="#181818"/>
<path d="M13.275 11.075H12.725C11.9378 11.075 11.2331 10.5477 11.0111 9.79355C10.9038 9.42917 11.1114 9.04692 11.4765 8.93967C11.8416 8.83449 12.2231 9.04142 12.3297 9.40511C12.3812 9.57905 12.5442 9.70074 12.725 9.70074H13.275C13.5026 9.70074 13.6875 9.5158 13.6875 9.28824C13.6875 9.06067 13.5026 8.87505 13.275 8.87505H12.725C11.7391 8.87505 10.9375 8.07274 10.9375 7.08755C10.9375 6.10236 11.7391 5.30005 12.725 5.30005H13.275C14.0457 5.30005 14.7263 5.79092 14.9704 6.52242C15.0907 6.88267 14.8961 7.2718 14.5359 7.39211C14.1722 7.5138 13.7865 7.31717 13.6662 6.95761C13.6105 6.78849 13.4531 6.67505 13.275 6.67505H12.725C12.4974 6.67505 12.3125 6.85999 12.3125 7.08755C12.3125 7.31511 12.4974 7.50005 12.725 7.50005H13.275C14.2609 7.50005 15.0625 8.30236 15.0625 9.28755C15.0625 10.2727 14.2609 11.075 13.275 11.075Z" fill="#181818"/>
<path d="M13 6.12495C12.8137 6.12495 12.6418 6.04933 12.5119 5.92558C12.4844 5.8912 12.45 5.85683 12.4294 5.81558C12.4019 5.7812 12.3813 5.73995 12.3675 5.6987C12.3469 5.65745 12.3331 5.6162 12.3256 5.57495C12.3194 5.52683 12.3125 5.48558 12.3125 5.43745C12.3125 5.2587 12.3874 5.07995 12.5119 4.94933C12.7662 4.69495 13.2269 4.69495 13.4881 4.94933C13.6119 5.07995 13.6875 5.2587 13.6875 5.43745C13.6875 5.48558 13.6806 5.52683 13.6731 5.57495C13.6662 5.6162 13.6531 5.65745 13.6318 5.6987C13.6174 5.73995 13.5974 5.7812 13.5699 5.81558C13.5424 5.85683 13.5149 5.8912 13.4874 5.92558C13.3575 6.04933 13.1788 6.12495 13 6.12495ZM13 11.625C12.8137 11.625 12.6418 11.5493 12.5119 11.4256C12.4844 11.3912 12.45 11.3568 12.4294 11.3156C12.4019 11.2812 12.3813 11.24 12.3675 11.1987C12.3469 11.1575 12.3331 11.1162 12.3256 11.075C12.3194 11.0268 12.3125 10.9856 12.3125 10.9375C12.3125 10.7587 12.3874 10.58 12.5119 10.4493C12.7662 10.195 13.2269 10.195 13.4881 10.4493C13.6119 10.58 13.6875 10.7587 13.6875 10.9375C13.6875 10.9856 13.6806 11.0268 13.6731 11.075C13.6662 11.1162 13.6531 11.1575 13.6318 11.1987C13.6174 11.24 13.5974 11.2812 13.5699 11.3156C13.5424 11.3568 13.5149 11.3912 13.4874 11.4256C13.3575 11.5493 13.1788 11.625 13 11.625ZM14.375 23.3125H3.375C2.99481 23.3125 2.6875 23.0045 2.6875 22.625V16.4375C2.6875 16.2553 2.75969 16.08 2.88894 15.9514C3.04981 15.7898 4.51144 14.375 6.125 14.375C7.4615 14.375 9.18575 15.3849 9.76531 15.75H13C14.1371 15.75 15.0625 16.6753 15.0625 17.8125C15.0625 17.9341 15.0515 18.0531 15.0316 18.1693L20.4566 15.9088C21.0946 15.6427 21.8186 15.7135 22.394 16.0965C22.9694 16.4801 23.3125 17.1215 23.3125 17.8125C23.3125 18.0565 23.1833 18.2834 22.9715 18.4065L14.7215 23.219C14.6163 23.2801 14.4967 23.3125 14.375 23.3125ZM4.0625 21.9375H14.1887L21.8474 17.4701C21.7959 17.38 21.7223 17.3016 21.6316 17.2405C21.437 17.1105 21.2005 17.0878 20.986 17.1779L14.6404 19.822C14.5558 19.8571 14.4657 19.875 14.375 19.875H8.875C8.49481 19.875 8.1875 19.567 8.1875 19.1875C8.1875 18.808 8.49481 18.5 8.875 18.5H13C13.3795 18.5 13.6875 18.1913 13.6875 17.8125C13.6875 17.4336 13.3795 17.125 13 17.125H9.5625C9.42706 17.125 9.29369 17.0844 9.18094 17.0101C8.655 16.6595 7.07856 15.75 6.125 15.75C5.37562 15.75 4.51144 16.355 4.0625 16.7393V21.9375Z" fill="#181818"/>
</svg>
