<svg width="24" height="24" viewBox="0 0 24 24" fill="none" xmlns="http://www.w3.org/2000/svg">
<path d="M3.06787 12.4058V16.4661C3.06787 16.6814 3.15343 16.888 3.30571 17.0403C3.458 17.1926 3.66455 17.2781 3.87992 17.2781H4.69196C4.69196 17.9242 4.94862 18.5439 5.40549 19.0007C5.86235 19.4576 6.48199 19.7142 7.12809 19.7142C7.7742 19.7142 8.39384 19.4576 8.8507 19.0007C9.30757 18.5439 9.56423 17.9242 9.56423 17.2781H14.4365C14.4365 17.9242 14.6932 18.5439 15.15 19.0007C15.6069 19.4576 16.2265 19.7142 16.8726 19.7142C17.5187 19.7142 18.1384 19.4576 18.5952 19.0007C19.0521 18.5439 19.3088 17.9242 19.3088 17.2781H20.1208C20.3362 17.2781 20.5427 17.1926 20.695 17.0403C20.8473 16.888 20.9329 16.6814 20.9329 16.4661V6.72153C20.9329 6.07543 20.6762 5.45579 20.2193 4.99893C19.7625 4.54206 19.1428 4.2854 18.4967 4.2854H11.1883C10.5422 4.2854 9.92257 4.54206 9.46571 4.99893C9.00885 5.45579 8.75218 6.07543 8.75218 6.72153V8.34562H7.12809C6.7499 8.34562 6.37689 8.43368 6.03862 8.60281C5.70035 8.77195 5.40611 9.01752 5.17919 9.32008L3.23028 11.9186C3.20653 11.9539 3.18742 11.9921 3.17344 12.0323L3.12471 12.1216C3.08888 12.2122 3.06962 12.3085 3.06787 12.4058ZM16.0606 17.2781C16.0606 17.1175 16.1082 16.9605 16.1974 16.827C16.2867 16.6934 16.4135 16.5893 16.5619 16.5279C16.7103 16.4664 16.8735 16.4503 17.0311 16.4817C17.1886 16.513 17.3333 16.5903 17.4468 16.7039C17.5604 16.8175 17.6377 16.9622 17.6691 17.1197C17.7004 17.2772 17.6843 17.4405 17.6229 17.5889C17.5614 17.7373 17.4573 17.8641 17.3238 17.9533C17.1902 18.0425 17.0332 18.0902 16.8726 18.0902C16.6573 18.0902 16.4507 18.0046 16.2984 17.8523C16.1461 17.7 16.0606 17.4935 16.0606 17.2781ZM10.3763 6.72153C10.3763 6.50617 10.4618 6.29962 10.6141 6.14733C10.7664 5.99504 10.973 5.90949 11.1883 5.90949H18.4967C18.7121 5.90949 18.9186 5.99504 19.0709 6.14733C19.2232 6.29962 19.3088 6.50617 19.3088 6.72153V15.654H18.6754C18.447 15.4028 18.1687 15.2021 17.8583 15.0648C17.5478 14.9274 17.2121 14.8565 16.8726 14.8565C16.5332 14.8565 16.1974 14.9274 15.887 15.0648C15.5765 15.2021 15.2982 15.4028 15.0699 15.654H10.3763V6.72153ZM8.75218 11.5938H5.50401L6.47846 10.2945C6.5541 10.1937 6.65218 10.1118 6.76494 10.0554C6.87769 9.99906 7.00203 9.96971 7.12809 9.96971H8.75218V11.5938ZM6.31605 17.2781C6.31605 17.1175 6.36368 16.9605 6.4529 16.827C6.54213 16.6934 6.66896 16.5893 6.81734 16.5279C6.96572 16.4664 7.129 16.4503 7.28652 16.4817C7.44404 16.513 7.58873 16.5903 7.7023 16.7039C7.81586 16.8175 7.8932 16.9622 7.92454 17.1197C7.95587 17.2772 7.93979 17.4405 7.87833 17.5889C7.81686 17.7373 7.71278 17.8641 7.57924 17.9533C7.4457 18.0425 7.2887 18.0902 7.12809 18.0902C6.91273 18.0902 6.70618 18.0046 6.55389 17.8523C6.4016 17.7 6.31605 17.4935 6.31605 17.2781ZM4.69196 13.2179H8.75218V15.4754C8.27294 15.0471 7.64385 14.8255 7.00198 14.859C6.3601 14.8924 5.75746 15.1782 5.32536 15.654H4.69196V13.2179Z" fill="#181818"/>
</svg>
